<?xml version="1.0" encoding="UTF-8"?>
<svg width="720px" height="414px" viewBox="0 0 720 414" version="1.1" xmlns="http://www.w3.org/2000/svg" xmlns:xlink="http://www.w3.org/1999/xlink">
    <title>Group 5@3x</title>
    <defs>
        <linearGradient x1="50%" y1="3.85205925%" x2="50%" y2="100%" id="linearGradient-1">
            <stop stop-color="#779EEA" stop-opacity="0.4" offset="0%"></stop>
            <stop stop-color="#FFFFFF" stop-opacity="0" offset="100%"></stop>
        </linearGradient>
    </defs>
    <g id="页面-1" stroke="none" stroke-width="1" fill="none" fill-rule="evenodd">
        <g id="404页面" transform="translate(-600.000000, -226.000000)">
            <g id="Group-5" transform="translate(600.000000, 220.000000)">
                <path d="M336,275.665096 C474.251765,275.665096 590.670496,339.815882 625.499153,419.998051 L46.5008466,419.998051 C81.3295035,339.815882 197.748235,275.665096 336,275.665096 Z" id="Combined-Shape" fill="url(#linearGradient-1)"></path>
                <g id="Group-7" transform="translate(458.885588, 283.932937) rotate(-345.000000) translate(-458.885588, -283.932937) translate(407.885588, 248.600955)">
                    <path d="M60.7462572,29.6347193 L60.7462572,68.2322763 L41.0816707,68.2322763 L41.0816707,29.6347193 L60.7462572,29.6347193 Z" id="Rectangle-21-Copy" stroke="#779EEA" stroke-width="2" fill="#F8FAFE"></path>
                    <rect id="Rectangle-21" stroke="#779EEA" stroke-width="2" fill="#F8FAFE" x="1" y="1" width="99.7293626" height="31.9886523"></rect>
                    <text id="Not-Found" font-family="Helvetica" font-size="10" font-weight="normal" line-spacing="23" fill="#779EEA">
                        <tspan x="27.8576517" y="11.2168174">Not Found</tspan>
                    </text>
                </g>
                <g id="Group-4" transform="translate(111.000000, 138.847634)">
                    <text id="4" font-family="Helvetica" font-size="72" font-weight="normal" line-spacing="23" fill="#779EEA">
                        <tspan x="0" y="69">4</tspan>
                    </text>
                    <text id="4-copy" font-family="Helvetica" font-size="72" font-weight="normal" line-spacing="23" fill="#779EEA">
                        <tspan x="213" y="69">4</tspan>
                    </text>
                    <g id="Group-2" transform="translate(96.000000, 25.559306)">
                        <polygon id="Path-2" fill-opacity="0.05" fill="#779EEA" opacity="0.5" points="13.1212163 14.9516282 4.16951263 25.1178322 1.67287382 39.2326966 84.5574943 17.2398214 72.3697184 5.70400693 55.8560621 0 32.081566 2.3612212"></polygon>
                        <ellipse id="Oval-12" stroke="#779EEA" stroke-width="2.5" cx="48" cy="48.1116348" rx="48" ry="48.1116348"></ellipse>
                        <path d="M79.7142857,32.6471807 L75.9127637,40.736363 C75.6032484,41.4340482 75.4285714,42.227282 75.4285714,43.0691915 C75.4285714,45.854524 77.3469534,48.1116348 79.7142857,48.1116348 C82.0816181,48.1116348 84,45.854524 84,43.0691915 C84,42.227282 83.8253231,41.4340482 83.5142755,40.736363 L79.7142857,32.6471807 Z" id="Shape" fill="#779EEA" fill-rule="nonzero"></path>
                        <path d="M18.1081942,52.6589516 C18.6604789,52.6589516 19.1081942,53.1066669 19.1081942,53.6589516 L19.1076228,58.6719516 L24.1081942,58.672906 C24.6604789,58.672906 25.1081942,59.1206212 25.1081942,59.672906 L25.1081942,61.1094513 C25.1081942,61.6617361 24.6604789,62.1094513 24.1081942,62.1094513 L19.1076228,62.1089516 L19.1081942,67.1234057 C19.1081942,67.6756904 18.6604789,68.1234057 18.1081942,68.1234057 L16.6796228,68.1234057 C16.127338,68.1234057 15.6796228,67.6756904 15.6796228,67.1234057 L15.6786228,62.1089516 L10.6796228,62.1094513 C10.127338,62.1094513 9.67962276,61.6617361 9.67962276,61.1094513 L9.67962276,59.672906 C9.67962276,59.1206212 10.127338,58.672906 10.6796228,58.672906 L15.6786228,58.6719516 L15.6796228,53.6589516 C15.6796228,53.1066669 16.127338,52.6589516 16.6796228,52.6589516 L18.1081942,52.6589516 Z" id="Combined-Shape" fill="#779EEA" transform="translate(17.393908, 60.391179) rotate(-315.000000) translate(-17.393908, -60.391179) "></path>
                        <path d="M61.7142857,75.6039975 C61.7142857,69.9101427 55.9579468,65.2943614 48.8571429,65.2943614 C41.7563389,65.2943614 36,69.9101427 36,75.6039975" id="Oval-12-Copy" stroke="#779EEA" stroke-width="2.5"></path>
                        <line x1="72" y1="6.87309068" x2="6.85714286" y2="24.0558174" id="Path-6" stroke="#779EEA" stroke-width="2.5"></line>
                        <line x1="84" y1="17.1827267" x2="1.71428571" y2="38.8329623" id="Path-6-Copy" stroke="#779EEA" stroke-width="2.5"></line>
                        <g id="Group" transform="translate(29.142857, 42.956817)" fill="#779EEA">
                            <ellipse id="Oval-13" cx="4.71428571" cy="5.15481801" rx="4.71428571" ry="5.15481801"></ellipse>
                            <ellipse id="Oval-13-Copy" cx="33" cy="5.15481801" rx="4.71428571" ry="5.15481801"></ellipse>
                        </g>
                    </g>
                </g>
                <path d="M503.25,6.54063887 C532.923947,6.54063887 559.96716,17.9041328 580.337512,36.5531116 L622.864017,36.5547258 C628.784132,36.5547258 633.583333,41.3539274 633.583333,47.2740426 C633.583333,53.1941578 628.784132,57.9933594 622.864017,57.9933594 L598.675571,57.9915822 C610.881578,76.3875433 618,98.509724 618,122.30926 C618,143.692347 612.25371,163.721403 602.234054,180.910426 L645.530683,180.908192 C651.450798,180.908192 656.25,185.707393 656.25,191.627508 C656.25,197.547624 651.450798,202.346825 645.530683,202.346825 L586.155914,202.349584 C581.162785,207.612262 575.682221,212.400383 569.787385,216.640135 L676.69735,216.639248 C682.617465,216.639248 687.416667,221.438449 687.416667,227.358564 C687.416667,233.27868 682.617465,238.077881 676.69735,238.077881 L506.885983,238.077881 C506.588917,238.077881 506.294672,238.065797 506.003715,238.042093 L505.147601,238.062371 L505.147601,238.062371 L503.25,238.077881 C439.875325,238.077881 388.5,186.246504 388.5,122.30926 C388.5,58.372016 439.875325,6.54063887 503.25,6.54063887 Z M709.375,216.639248 C715.243025,216.639248 720,221.396222 720,227.264248 L720,227.452881 C720,233.320907 715.243025,238.077881 709.375,238.077881 C703.506975,238.077881 698.75,233.320907 698.75,227.452881 L698.75,227.264248 C698.75,221.396222 703.506975,216.639248 709.375,216.639248 Z M652.708333,36.5547258 C658.576359,36.5547258 663.333333,41.3117004 663.333333,47.1797258 L663.333333,47.3683594 C663.333333,53.2363848 658.576359,57.9933594 652.708333,57.9933594 C646.840308,57.9933594 642.083333,53.2363848 642.083333,47.3683594 L642.083333,47.1797258 C642.083333,41.3117004 646.840308,36.5547258 652.708333,36.5547258 Z" id="Combined-Shape" fill="#779EEA" opacity="0.05"></path>
                <g id="Group-3" transform="translate(483.750000, 108.026118) rotate(-330.000000) translate(-483.750000, -108.026118) translate(402.000000, 30.596456)">
                    <g id="Group" transform="translate(7.500000, 0.000000)">
                        <ellipse id="Oval-8" stroke="#779EEA" stroke-width="2.5" fill="#FCFDFF" cx="74.1591281" cy="73.7390158" rx="74.1591281" ry="25.2375877"></ellipse>
                        <ellipse id="Oval-8-Copy" stroke="#779EEA" stroke-width="2.5" fill="#FFFFFF" cx="74.1591281" cy="60.680939" rx="74.1591281" ry="25.2375877"></ellipse>
                        <path d="M74.0740741,61.5795989 C99.6428125,61.5795989 120.37037,59.6683008 120.37037,41.0938239 C120.37037,22.5193469 99.6428125,0 74.0740741,0 C48.5053357,0 27.7777778,22.5193469 27.7777778,41.0938239 C27.7777778,59.6683008 48.5053357,61.5795989 74.0740741,61.5795989 Z" id="Oval-8-Copy-2" stroke="#779EEA" stroke-width="2.5" fill="#FFFFFF"></path>
                        <ellipse id="Oval-18" fill="#779EEA" cx="20.3703704" cy="61.5595049" rx="3.7037037" ry="3.73087908"></ellipse>
                        <ellipse id="Oval-18-Copy-4" fill="#779EEA" cx="127.777778" cy="61.5595049" rx="3.7037037" ry="3.73087908"></ellipse>
                        <ellipse id="Oval-18-Copy" fill="#779EEA" cx="44.4444444" cy="70.8867026" rx="3.7037037" ry="3.73087908"></ellipse>
                        <ellipse id="Oval-18-Copy-3" fill="#779EEA" cx="103.703704" cy="70.8867026" rx="3.7037037" ry="3.73087908"></ellipse>
                        <ellipse id="Oval-18-Copy-2" fill="#779EEA" cx="74.0740741" cy="74.6175817" rx="3.7037037" ry="3.73087908"></ellipse>
                        <path d="M58.1523255,18.6543954 C50.1265044,22.7788984 44.9399267,28.8536027 42.5925926,36.8785081" id="Path-11" stroke="#779EEA" stroke-width="3"></path>
                    </g>
                    <g id="Group-2" transform="translate(0.000000, 115.768621)" stroke="#779EEA" stroke-width="2.5">
                        <line x1="82.125" y1="0" x2="82.125" y2="37.6676851" id="Path-12"></line>
                        <line x1="39.4815341" y1="0" x2="0" y2="37.2292412" id="Path-12-Copy"></line>
                        <line x1="162.106534" y1="0" x2="122.625" y2="37.2292412" id="Path-12-Copy-2" transform="translate(143.062500, 18.614621) scale(-1, 1) translate(-143.062500, -18.614621) "></line>
                    </g>
                </g>
                <path d="M97.2613636,105.770886 C104.41859,105.770886 110.509263,110.39467 112.778821,116.853099 C114.178328,116.250581 115.706502,115.919433 117.306818,115.919433 C122.086987,115.919433 126.223492,118.874022 128.214212,123.172749 C134.474918,123.337765 139.5,128.465416 139.5,134.766737 C139.5,141.172323 134.307246,146.365077 127.901659,146.365077 L88.0983405,146.365077 C81.6927539,146.365077 76.5,141.172323 76.5,134.766737 C76.5,130.999883 78.2957153,127.652441 81.0778002,125.533756 C80.8924131,124.532581 80.7954545,123.499505 80.7954545,122.4435 C80.7954545,113.235469 88.1674932,105.770886 97.2613636,105.770886 Z" id="Combined-Shape" fill="#779EEA" opacity="0.3"></path>
                <path d="M671.093023,137.344146 C678.540926,137.344146 684.780047,142.381635 686.41028,149.147112 C688.359873,147.848373 690.71964,147.088979 693.261628,147.088979 C697.622452,147.088979 701.446997,149.323874 703.59227,152.681128 C709.402749,153.056128 714,157.888395 714,163.794408 C714,169.945177 709.013817,174.93136 702.863048,174.93136 L663.636952,174.93136 C657.486183,174.93136 652.5,169.945177 652.5,163.794408 C652.5,160.737329 653.73175,157.967941 655.726031,155.955464 C655.486711,154.893239 655.360465,153.789698 655.360465,152.657456 C655.360465,144.200148 662.404171,137.344146 671.093023,137.344146 Z" id="Combined-Shape-Copy-2" fill="#779EEA" opacity="0.3"></path>
                <path d="M85.8076923,262.133698 C93.0689803,262.133698 99.152373,267.074577 100.74632,273.711951 C102.207912,273.034878 103.830416,272.658119 105.538462,272.658119 C109.867449,272.658119 113.646957,275.078245 115.668204,278.675021 L115.47558,278.672073 C121.288057,278.672073 126,283.384016 126,289.196493 C126,295.00897 121.288057,299.720913 115.47558,299.720913 L79.5244201,299.720913 C73.7119434,299.720913 69,295.00897 69,289.196493 C69,286.633518 69.9161492,284.284522 71.4388297,282.459122 C70.8070002,280.813386 70.4615385,279.03051 70.4615385,277.168584 C70.4615385,268.865046 77.3322456,262.133698 85.8076923,262.133698 Z" id="Combined-Shape-Copy-5" fill="#779EEA" opacity="0.3"></path>
                <path d="M194.447368,27.5859905 C199.885246,27.5859905 204.946983,29.1840087 209.180259,31.9337355 C213.544992,34.7688502 217.029632,38.8273341 219.136975,43.6188996 C219.340969,44.0827316 219.531178,44.5514332 219.707822,45.0237828 C220.155121,44.7983824 220.610273,44.5923825 221.0721,44.4057369 C223.175096,43.5558201 225.457376,43.0907165 227.842105,43.0907165 C231.853212,43.0907165 235.573653,44.4077305 238.642774,46.652524 C242.092277,49.1755326 244.720318,52.8675841 246.028358,57.1849477 L246.028358,57.1849477 L253,57.185922 C256.037566,57.185922 258.787566,58.417139 260.778175,60.4077474 C262.768783,62.3983559 264,65.1483559 264,68.185922 L264,68.185922 L264,81.2429769 C264,84.280543 262.768783,87.030543 260.778175,89.0211514 C258.787566,91.0117599 256.037566,92.2429769 253,92.2429769 L253,92.2429769 L170,92.2429769 C166.962434,92.2429769 164.212434,91.0117599 162.221825,89.0211514 C160.231217,87.030543 159,84.280543 159,81.2429769 L159,81.2429769 L159,68.185922 C159,65.7799666 159.772102,63.5542406 161.082768,61.7436405 C162.42846,59.8846546 164.34079,58.4623474 166.566989,57.7317911 C166.944997,57.6077428 167.327533,57.5051229 167.712814,57.4235718 C167.663964,57.0140552 167.624837,56.605532 167.595373,56.1983222 C167.549464,55.5638262 167.526316,54.9227971 167.526316,54.2764015 C167.526316,46.9074369 170.538561,40.236654 175.40698,35.4077433 C180.27984,30.5744269 187.011918,27.5859905 194.447368,27.5859905 Z" id="Combined-Shape-Copy" stroke="#779EEA" stroke-width="3" opacity="0.3"></path>
                <path d="M23.85,173.424383 C28.3455186,173.424383 32.4846663,174.96583 35.7783535,177.553801 C39.1489316,180.202189 41.6352991,183.945265 42.7145969,188.254705 C42.9372547,189.143738 43.0957368,190.039737 43.1919297,190.935749 C43.7498479,190.251144 44.3900217,189.626661 45.0983389,189.068229 C47.094738,187.494281 49.4750188,186.569169 52.0363636,186.569169 C54.3524634,186.569169 56.5212215,187.325485 58.3914437,188.634328 C60.6206488,190.194399 62.4264374,192.532964 63.5823837,195.330824 L63.5823837,195.330824 L67,195.33236 C70.0375661,195.33236 72.7875661,196.563577 74.7781746,198.554185 C76.7687831,200.544794 78,203.294794 78,206.33236 L78,206.33236 L78,210.542995 C78,213.580561 76.7687831,216.330561 74.7781746,218.32117 C72.7875661,220.311778 70.0375661,221.542995 67,221.542995 L67,221.542995 L12.5,221.542995 C9.46243388,221.542995 6.71243388,220.311778 4.72182541,218.32117 C2.73121694,216.330561 1.5,213.580561 1.5,210.542995 L1.5,210.542995 L1.5,206.33236 C1.5,203.413391 2.63689115,200.759922 4.49217764,198.790772 C4.67426386,198.597511 4.86334168,198.410765 5.05885898,198.230815 C4.98838204,197.966467 4.92364355,197.701561 4.86459339,197.436257 C4.55430549,196.042179 4.39090909,194.591426 4.39090909,193.102094 C4.39090909,187.666449 6.57023115,182.744711 10.0958336,179.182334 C13.6158317,175.62562 18.478286,173.424383 23.85,173.424383 Z" id="Combined-Shape-Copy-3" stroke="#779EEA" stroke-width="3" opacity="0.3"></path>
                <path d="M559.578947,260.626721 C563.97233,260.626721 568.031982,262.054979 571.317565,264.472924 C574.686766,266.952407 577.242967,270.471536 578.510176,274.557384 C578.729988,275.266123 578.908174,275.982749 579.045595,276.702947 C579.575341,276.2114 580.148761,275.767019 580.758574,275.371853 C582.686257,274.122693 584.91425,273.406374 587.289474,273.406374 C589.702314,273.406374 591.963158,274.145574 593.912109,275.430202 C596.208492,276.943836 598.072492,279.210325 599.263965,281.925116 L599.263965,281.925116 L602.5,281.926143 C605.537566,281.926143 608.287566,283.15736 610.278175,285.147968 C612.268783,287.138577 613.5,289.888577 613.5,292.926143 L613.5,292.926143 L613.5,297.745333 C613.5,300.782899 612.268783,303.532899 610.278175,305.523508 C608.287566,307.514116 605.537566,308.745333 602.5,308.745333 L602.5,308.745333 L546.5,308.745333 C543.462434,308.745333 540.712434,307.514116 538.721825,305.523508 C536.731217,303.532899 535.5,300.782899 535.5,297.745333 L535.5,297.745333 L535.5,292.926143 C535.5,289.54383 537.026689,286.518218 539.428159,284.500266 C539.640545,284.321798 539.859515,284.151428 540.084224,283.989382 C540.032865,283.708287 539.987832,283.427306 539.94906,283.146626 C539.82631,282.257995 539.763158,281.349444 539.763158,280.426143 C539.763158,274.958815 541.981021,270.009131 545.566661,266.426245 C549.152718,262.842942 554.106836,260.626721 559.578947,260.626721 Z" id="Combined-Shape-Copy-4" stroke="#779EEA" stroke-width="3" fill="#FFFFFF" opacity="0.3"></path>
                <path d="M319.5,71.1906481 L311.516804,88.4925101 C310.866822,89.9847812 310.5,91.6814202 310.5,93.4821712 C310.5,99.4396877 314.528602,104.267397 319.5,104.267397 C324.471398,104.267397 328.5,99.4396877 328.5,93.4821712 C328.5,91.6814202 328.133178,89.9847812 327.479979,88.4925101 L319.5,71.1906481 Z" id="Shape" fill="#779EEA" fill-rule="nonzero" opacity="0.3"></path>
                <path d="M291.75,111.78484 L287.093136,121.222219 C286.713979,122.036185 286.5,122.961625 286.5,123.943852 C286.5,127.193407 288.850018,129.826703 291.75,129.826703 C294.649982,129.826703 297,127.193407 297,123.943852 C297,122.961625 296.786021,122.036185 296.404987,121.222219 L291.75,111.78484 Z" id="Shape-Copy" fill="#779EEA" fill-rule="nonzero" opacity="0.3"></path>
                <path d="M329.25,141.854612 L324.593136,151.291991 C324.213979,152.105957 324,153.031396 324,154.013624 C324,157.263179 326.350018,159.896475 329.25,159.896475 C332.149982,159.896475 334.5,157.263179 334.5,154.013624 C334.5,153.031396 334.286021,152.105957 333.904987,151.291991 L329.25,141.854612 Z" id="Shape-Copy-2" fill="#779EEA" fill-rule="nonzero" opacity="0.3"></path>
            </g>
        </g>
    </g>
</svg>