<?xml version="1.0" encoding="UTF-8"?>
<svg width="720px" height="413px" viewBox="0 0 720 413" version="1.1" xmlns="http://www.w3.org/2000/svg" xmlns:xlink="http://www.w3.org/1999/xlink">
    <title>Group 5@3x</title>
    <defs>
        <linearGradient x1="50%" y1="3.85205925%" x2="50%" y2="100%" id="linearGradient-1">
            <stop stop-color="#779EEA" stop-opacity="0.4" offset="0%"></stop>
            <stop stop-color="#FFFFFF" stop-opacity="0" offset="100%"></stop>
        </linearGradient>
    </defs>
    <g id="页面-1" stroke="none" stroke-width="1" fill="none" fill-rule="evenodd">
        <g id="505页面" transform="translate(-600.000000, -227.000000)">
            <g id="Group-5" transform="translate(600.000000, 220.000000)">
                <path d="M336,276 C474.251677,276 590.670349,340.001854 625.499087,419.997903 L46.500913,419.997903 C81.3296513,340.001854 197.748323,276 336,276 Z" id="Combined-Shape" fill="url(#linearGradient-1)"></path>
                <g id="Group-7" transform="translate(458.885588, 284.248657) rotate(-345.000000) translate(-458.885588, -284.248657) translate(407.885588, 248.998657)">
                    <path d="M60.7462572,29.5682774 L60.7462572,68.0716347 L41.0816707,68.0716347 L41.0816707,29.5682774 L60.7462572,29.5682774 Z" id="Rectangle-21-Copy" stroke="#779EEA" stroke-width="2" fill="#F8FAFE"></path>
                    <rect id="Rectangle-21" stroke="#779EEA" stroke-width="2" fill="#F8FAFE" x="1" y="1" width="99.7293626" height="31.9097875"></rect>
                    <text id="ERROR" font-family="Helvetica" font-size="10" font-weight="normal" line-spacing="23" fill="#779EEA">
                        <tspan x="33.1481791" y="11.213994">ERROR</tspan>
                    </text>
                </g>
                <g id="Group-4" transform="translate(111.000000, 139.500000)">
                    <text id="5" font-family="Helvetica" font-size="72" font-weight="normal" line-spacing="23" fill="#779EEA">
                        <tspan x="0" y="69">5</tspan>
                    </text>
                    <text id="5" font-family="Helvetica" font-size="72" font-weight="normal" line-spacing="23" fill="#779EEA">
                        <tspan x="213" y="69">5</tspan>
                    </text>
                    <g id="Group-2" transform="translate(96.000000, 25.500000)">
                        <polygon id="Path-2" fill-opacity="0.05" fill="#779EEA" opacity="0.5" points="13.1212163 14.9169355 4.16951263 25.0595506 1.67287382 39.1416639 84.5574943 17.1998194 72.3697184 5.69077176 55.8560621 0 32.081566 2.35574239"></polygon>
                        <circle id="Oval-12" stroke="#779EEA" stroke-width="2.5" cx="48" cy="48" r="48"></circle>
                        <path d="M79.7142857,32.5714286 L75.9127637,40.6418413 C75.6032484,41.3379076 75.4285714,42.1293009 75.4285714,42.9692569 C75.4285714,45.7481264 77.3469534,48 79.7142857,48 C82.0816181,48 84,45.7481264 84,42.9692569 C84,42.1293009 83.8253231,41.3379076 83.5142755,40.6418413 L79.7142857,32.5714286 Z" id="Shape" fill="#779EEA" fill-rule="nonzero"></path>
                        <path d="M18.1081942,52.5367656 C18.6604789,52.5367656 19.1081942,52.9844809 19.1081942,53.5367656 L19.1076228,58.5357656 L24.1081942,58.5367656 C24.6604789,58.5367656 25.1081942,58.9844809 25.1081942,59.5367656 L25.1081942,60.965337 C25.1081942,61.5176218 24.6604789,61.965337 24.1081942,61.965337 L19.1076228,61.9647656 L19.1081942,66.965337 C19.1081942,67.5176218 18.6604789,67.965337 18.1081942,67.965337 L16.6796228,67.965337 C16.127338,67.965337 15.6796228,67.5176218 15.6796228,66.965337 L15.6786228,61.9647656 L10.6796228,61.965337 C10.127338,61.965337 9.67962276,61.5176218 9.67962276,60.965337 L9.67962276,59.5367656 C9.67962276,58.9844809 10.127338,58.5367656 10.6796228,58.5367656 L15.6786228,58.5357656 L15.6796228,53.5367656 C15.6796228,52.9844809 16.127338,52.5367656 16.6796228,52.5367656 L18.1081942,52.5367656 Z" id="Combined-Shape" fill="#779EEA" transform="translate(17.393908, 60.251051) rotate(-315.000000) translate(-17.393908, -60.251051) "></path>
                        <path d="M61.7142857,75.4285714 C61.7142857,69.7479283 55.9579468,65.1428571 48.8571429,65.1428571 C41.7563389,65.1428571 36,69.7479283 36,75.4285714" id="Oval-12-Copy" stroke="#779EEA" stroke-width="2.5"></path>
                        <line x1="72" y1="6.85714286" x2="6.85714286" y2="24" id="Path-6" stroke="#779EEA" stroke-width="2.5"></line>
                        <line x1="84" y1="17.1428571" x2="1.71428571" y2="38.7428571" id="Path-6-Copy" stroke="#779EEA" stroke-width="2.5"></line>
                        <g id="Group" transform="translate(29.142857, 42.857143)" fill="#779EEA">
                            <ellipse id="Oval-13" cx="4.71428571" cy="5.14285714" rx="4.71428571" ry="5.14285714"></ellipse>
                            <ellipse id="Oval-13-Copy" cx="33" cy="5.14285714" rx="4.71428571" ry="5.14285714"></ellipse>
                        </g>
                    </g>
                </g>
                <path d="M503.25,7.5 C532.923947,7.5 559.96716,18.8371269 580.337512,37.442834 L622.888889,37.4444444 C628.795267,37.4444444 633.583333,42.2325103 633.583333,48.1388889 C633.583333,54.0452675 628.795267,58.8333333 622.888889,58.8333333 L598.675791,58.8318914 C610.881664,77.1851022 618,99.2558296 618,123 C618,144.333194 612.253859,164.315534 602.234445,181.464523 L645.555556,181.462963 C651.461934,181.462963 656.25,186.251029 656.25,192.157407 C656.25,198.063786 651.461934,202.851852 645.555556,202.851852 L586.156736,202.85374 C581.163103,208.104845 575.681922,212.882392 569.78638,217.112717 L676.722222,217.111111 C682.628601,217.111111 687.416667,221.899177 687.416667,227.805556 C687.416667,233.711934 682.628601,238.5 676.722222,238.5 L506.861111,238.5 C506.566132,238.5 506.273943,238.488057 505.985,238.464629 L505.147601,238.484526 L505.147601,238.484526 L503.25,238.5 C439.875325,238.5 388.5,186.788889 388.5,123 C388.5,59.2111114 439.875325,7.5 503.25,7.5 Z M709.375,217.111111 C715.243025,217.111111 720,221.868086 720,227.736111 L720,227.875 C720,233.743025 715.243025,238.5 709.375,238.5 C703.506975,238.5 698.75,233.743025 698.75,227.875 L698.75,227.736111 C698.75,221.868086 703.506975,217.111111 709.375,217.111111 Z M652.708333,37.4444444 C658.576359,37.4444444 663.333333,42.201419 663.333333,48.0694444 L663.333333,48.2083333 C663.333333,54.0763588 658.576359,58.8333333 652.708333,58.8333333 C646.840308,58.8333333 642.083333,54.0763588 642.083333,48.2083333 L642.083333,48.0694444 C642.083333,42.201419 646.840308,37.4444444 652.708333,37.4444444 Z" id="Combined-Shape" fill="#779EEA" opacity="0.05"></path>
                <g id="Group-3" transform="translate(483.750000, 108.750000) rotate(-330.000000) translate(-483.750000, -108.750000) translate(402.000000, 31.500000)">
                    <g id="Group" transform="translate(7.500000, 0.000000)">
                        <ellipse id="Oval-8" stroke="#779EEA" stroke-width="2.5" fill="#FCFDFF" cx="74.1591281" cy="73.5679172" rx="74.1591281" ry="25.1790283"></ellipse>
                        <ellipse id="Oval-8-Copy" stroke="#779EEA" stroke-width="2.5" fill="#FFFFFF" cx="74.1591281" cy="60.5401394" rx="74.1591281" ry="25.1790283"></ellipse>
                        <path d="M74.0740741,61.4367141 C99.6428125,61.4367141 120.37037,59.5298508 120.37037,40.9984727 C120.37037,22.4670946 99.6428125,0 74.0740741,0 C48.5053357,0 27.7777778,22.4670946 27.7777778,40.9984727 C27.7777778,59.5298508 48.5053357,61.4367141 74.0740741,61.4367141 Z" id="Oval-8-Copy-2" stroke="#779EEA" stroke-width="2.5" fill="#FFFFFF"></path>
                        <ellipse id="Oval-18" fill="#779EEA" cx="20.3703704" cy="61.4166667" rx="3.7037037" ry="3.72222222"></ellipse>
                        <ellipse id="Oval-18-Copy-4" fill="#779EEA" cx="127.777778" cy="61.4166667" rx="3.7037037" ry="3.72222222"></ellipse>
                        <ellipse id="Oval-18-Copy" fill="#779EEA" cx="44.4444444" cy="70.7222222" rx="3.7037037" ry="3.72222222"></ellipse>
                        <ellipse id="Oval-18-Copy-3" fill="#779EEA" cx="103.703704" cy="70.7222222" rx="3.7037037" ry="3.72222222"></ellipse>
                        <ellipse id="Oval-18-Copy-2" fill="#779EEA" cx="74.0740741" cy="74.4444444" rx="3.7037037" ry="3.72222222"></ellipse>
                        <path d="M58.1523255,18.6111111 C50.1265044,22.7260439 44.9399267,28.7866529 42.5925926,36.7929379" id="Path-11" stroke="#779EEA" stroke-width="3"></path>
                    </g>
                    <g id="Group-2" transform="translate(0.000000, 115.500000)" stroke="#779EEA" stroke-width="3">
                        <line x1="82.125" y1="0" x2="82.125" y2="37.5802838" id="Path-12"></line>
                        <line x1="39.4815341" y1="0" x2="0" y2="37.1428571" id="Path-12-Copy"></line>
                        <line x1="162.106534" y1="0" x2="122.625" y2="37.1428571" id="Path-12-Copy-2" transform="translate(143.062500, 18.571429) scale(-1, 1) translate(-143.062500, -18.571429) "></line>
                    </g>
                </g>
                <path d="M97.2613636,106.5 C104.418473,106.5 110.509064,111.112905 112.77871,117.556184 C114.178328,116.95538 115.706502,116.625 117.306818,116.625 C122.086377,116.625 126.222437,119.571981 128.21345,123.859844 L127.928571,123.857143 C134.319295,123.857143 139.5,129.037848 139.5,135.428571 C139.5,141.819295 134.319295,147 127.928571,147 L88.0714286,147 C81.680705,147 76.5,141.819295 76.5,135.428571 C76.5,131.666417 78.2954031,128.323602 81.0761341,126.210201 C80.8919536,125.213271 80.7954545,124.184984 80.7954545,123.133929 C80.7954545,113.947263 88.1674932,106.5 97.2613636,106.5 Z" id="Combined-Shape" fill="#779EEA" opacity="0.3"></path>
                <path d="M671.093023,138 C678.540926,138 684.780047,143.0258 686.41028,149.77558 C688.359873,148.479854 690.71964,147.722222 693.261628,147.722222 C697.62202,147.722222 701.446239,149.951489 703.591632,153.300399 C709.400244,153.661691 714,158.488125 714,164.388889 C714,170.525386 709.025386,175.5 702.888889,175.5 L663.611111,175.5 C657.474614,175.5 652.5,170.525386 652.5,164.388889 C652.5,161.33586 653.731346,158.570427 655.724504,156.562125 C655.486303,155.504813 655.360465,154.405566 655.360465,153.277778 C655.360465,144.840094 662.404171,138 671.093023,138 Z" id="Combined-Shape-Copy-2" fill="#779EEA" opacity="0.3"></path>
                <path d="M85.8076923,262.5 C93.0689609,262.5 99.1523405,267.429387 100.746307,274.051334 C102.207912,273.375885 103.830416,273 105.538462,273 C109.867047,273 113.646255,275.414062 115.66764,279.001941 L115.5,279 C121.29899,279 126,283.70101 126,289.5 C126,295.29899 121.29899,300 115.5,300 L79.5,300 C73.7010101,300 69,295.29899 69,289.5 C69,286.940654 69.9156818,284.595176 71.4373049,282.773309 C70.806397,281.133238 70.4615385,279.355983 70.4615385,277.5 C70.4615385,269.215729 77.3322456,262.5 85.8076923,262.5 Z" id="Combined-Shape-Copy-5" fill="#779EEA" opacity="0.3"></path>
                <path d="M194.447368,28.5 C199.885775,28.5 204.948034,30.0943973 209.181718,32.8380418 C213.546049,35.6663517 217.030494,39.7149905 219.137612,44.495074 C219.341713,44.9580863 219.532031,45.4260082 219.708601,45.897173 C220.155441,45.672502 220.610057,45.4671693 221.071281,45.2811322 C223.174451,44.432807 225.45705,43.96875 227.842105,43.96875 C231.853741,43.96875 235.574728,45.2827791 238.644258,47.5227057 C242.093633,50.0398161 244.721635,53.7232673 246.029241,58.0307179 L246.029241,58.0307179 L253,58.03125 C256.037566,58.03125 258.787566,59.2624669 260.778175,61.2530754 C262.768783,63.2436839 264,65.9936839 264,69.03125 L264,69.03125 L264,82 C264,85.0375661 262.768783,87.7875661 260.778175,89.7781746 C258.787566,91.7687831 256.037566,93 253,93 L253,93 L170,93 C166.962434,93 164.212434,91.7687831 162.221825,89.7781746 C160.231217,87.7875661 159,85.0375661 159,82 L159,82 L159,69.03125 C159,66.6252945 159.772102,64.3995686 161.082768,62.5889684 C162.42846,60.7299826 164.34079,59.3076754 166.566989,58.5771191 C166.945133,58.4530261 167.327808,58.3503771 167.712962,58.2688531 C167.664026,57.8592375 167.624854,57.4506619 167.595365,57.0435357 C167.549504,56.4103743 167.526316,55.7703686 167.526316,55.125 C167.526316,47.7744908 170.538279,41.1205804 175.405742,36.3038205 C180.278919,31.4814056 187.011514,28.5 194.447368,28.5 L194.447368,28.5 Z" id="Combined-Shape-Copy" stroke="#779EEA" stroke-width="3" opacity="0.3"></path>
                <path d="M23.85,174 C28.346117,174 32.4858762,175.537975 35.7799788,178.120368 C39.149939,180.76223 41.6360075,184.495965 42.7149785,188.794797 C42.9376348,189.681904 43.0961089,190.576094 43.1923659,191.470934 C43.7502849,190.788001 44.3899983,190.165181 45.0975041,189.60839 C47.0940206,188.037179 49.4747016,187.114286 52.0363636,187.114286 C54.3531166,187.114286 56.5225354,187.869007 58.3932604,189.175293 C60.6225706,190.731971 62.4284258,193.065511 63.5840198,195.857416 L63.5840198,195.857416 L67,195.857143 C70.0375661,195.857143 72.7875661,197.08836 74.7781746,199.078968 C76.7687831,201.069577 78,203.819577 78,206.857143 L78,206.857143 L78,211 C78,214.037566 76.7687831,216.787566 74.7781746,218.778175 C72.7875661,220.768783 70.0375661,222 67,222 L67,222 L12.5,222 C9.46243388,222 6.71243388,220.768783 4.72182541,218.778175 C2.73121694,216.787566 1.5,214.037566 1.5,211 L1.5,211 L1.5,206.857143 C1.5,203.937297 2.6375748,201.283111 4.4938497,199.313781 C4.67625953,199.120261 4.86568082,198.933279 5.06172084,198.753108 C4.99074906,198.488413 4.92557336,198.223147 4.86614585,197.957475 C4.55477381,196.565481 4.39090909,195.116326 4.39090909,193.628571 C4.39090909,188.206901 6.56994065,183.297964 10.0946073,179.744796 C13.6149193,176.196018 18.4778933,174 23.85,174 Z" id="Combined-Shape-Copy-3" stroke="#779EEA" stroke-width="3" opacity="0.3"></path>
                <path d="M559.578947,261 C563.972683,261 568.032724,262.424898 571.318635,264.837388 C574.687208,267.310569 577.243166,270.820655 578.510271,274.896196 C578.729988,275.602899 578.908143,276.317569 579.045599,277.036248 C579.575224,276.54662 580.148049,276.104087 580.756794,275.710689 C582.684448,274.464952 584.913327,273.75 587.289474,273.75 C589.702778,273.75 591.964101,274.487531 593.913446,275.769438 C596.209676,277.279459 598.073631,279.540539 599.26488,282.248976 L599.26488,282.248976 L602.5,282.25 C605.537566,282.25 608.287566,283.481217 610.278175,285.471825 C612.268783,287.462434 613.5,290.212434 613.5,293.25 L613.5,293.25 L613.5,298 C613.5,301.037566 612.268783,303.787566 610.278175,305.778175 C608.287566,307.768783 605.537566,309 602.5,309 L602.5,309 L546.5,309 C543.462434,309 540.712434,307.768783 538.721825,305.778175 C536.731217,303.787566 535.5,301.037566 535.5,298 L535.5,298 L535.5,293.25 C535.5,289.867276 537.02706,286.841341 539.429033,284.823388 C539.641757,284.644674 539.861084,284.474083 540.086035,284.31196 C540.034283,284.030598 539.98892,283.749365 539.949889,283.468462 C539.826557,282.580844 539.763158,281.672809 539.763158,280.75 C539.763158,275.296717 541.980736,270.359907 545.565428,266.786279 C549.1518,263.210976 554.106437,261 559.578947,261 Z" id="Combined-Shape-Copy-4" stroke="#779EEA" stroke-width="3" fill="#FFFFFF" opacity="0.3"></path>
                <path d="M319.5,72 L311.516804,89.261716 C310.866822,90.7505246 310.5,92.4432269 310.5,94.2397995 C310.5,100.183493 314.528602,105 319.5,105 C324.471398,105 328.5,100.183493 328.5,94.2397995 C328.5,92.4432269 328.133178,90.7505246 327.479979,89.261716 L319.5,72 Z" id="Shape" fill="#779EEA" fill-rule="nonzero" opacity="0.3"></path>
                <path d="M291.75,112.5 L287.093136,121.915481 C286.713979,122.727559 286.5,123.650851 286.5,124.6308 C286.5,127.872814 288.850018,130.5 291.75,130.5 C294.649982,130.5 297,127.872814 297,124.6308 C297,123.650851 296.786021,122.727559 296.404987,121.915481 L291.75,112.5 Z" id="Shape-Copy" fill="#779EEA" fill-rule="nonzero" opacity="0.3"></path>
                <path d="M329.25,142.5 L324.593136,151.915481 C324.213979,152.727559 324,153.650851 324,154.6308 C324,157.872814 326.350018,160.5 329.25,160.5 C332.149982,160.5 334.5,157.872814 334.5,154.6308 C334.5,153.650851 334.286021,152.727559 333.904987,151.915481 L329.25,142.5 Z" id="Shape-Copy-2" fill="#779EEA" fill-rule="nonzero" opacity="0.3"></path>
            </g>
        </g>
    </g>
</svg>