<?xml version="1.0" encoding="UTF-8"?>
<svg width="145px" height="85px" viewBox="0 0 145 85" version="1.1" xmlns="http://www.w3.org/2000/svg" xmlns:xlink="http://www.w3.org/1999/xlink">
    <title>编组 2</title>
    <defs>
        <linearGradient x1="50%" y1="3.85205925%" x2="50%" y2="121.56033%" id="linearGradient-1">
            <stop stop-color="#779EEA" stop-opacity="0.4" offset="0%"></stop>
            <stop stop-color="#FFFFFF" stop-opacity="0" offset="100%"></stop>
        </linearGradient>
    </defs>
    <g id="页面-1" stroke="none" stroke-width="1" fill="none" fill-rule="evenodd">
        <g id="空状态" transform="translate(-888.000000, -521.000000)">
            <g id="编组-3" transform="translate(792.000000, 522.293551)">
                <g id="编组-2" transform="translate(96.500100, 0.000000)">
                    <path d="M71.9999005,47.7064491 C106.372515,47.7064491 135.31972,63.7043036 143.999801,83.7062198 L-1.01632295e-12,83.7062198 C8.68008123,63.7043036 37.6272862,47.7064491 71.9999005,47.7064491 Z" id="Combined-Shape" fill="url(#linearGradient-1)"></path>
                    <path d="M72.2003639,4.53749552 L72.6300634,4.53896042 L92.9874006,4.54021265 C95.6285486,4.54079394 97.7775142,6.69316095 97.7780955,9.3378837 L97.7798426,29.7241734 L97.7813084,30.1667879 L97.7821646,30.8227718 C97.7733752,32.4641155 97.6416223,34.0959558 96.4645949,35.2709498 L65.3702508,66.4087984 C64.5986043,67.1814905 63.5860221,67.5661055 62.5733552,67.5661055 C61.5593198,67.5661055 60.5479368,67.180599 59.7759506,66.4075671 L35.9949416,42.5943483 C35.2475932,41.8459877 34.834097,40.8510424 34.835227,39.7917833 C34.835227,38.7338942 35.2466902,37.7377603 35.9950785,36.9910992 L67.0907913,5.8546213 C68.424755,4.52022072 70.3351386,4.52612246 72.2003639,4.53749552 Z" id="形状结合" stroke="#779EEA" stroke-width="2" fill="#FFFFFF" fill-rule="nonzero" transform="translate(66.308696, 36.050818) rotate(9.000000) translate(-66.308696, -36.050818) "></path>
                    <g id="编组" transform="translate(75.352745, 36.246544) rotate(0.000000) translate(-75.352745, -36.246544) translate(43.879059, 4.729153)" fill="#FFFFFF" fill-rule="nonzero" stroke="#779EEA">
                        <path d="M37.3715857,0.00185798851 L37.8012699,0.00322835888 L58.1578981,0 C60.7989541,0 62.9473718,2.1519691 62.9473718,4.79678391 L62.9446383,25.1837839 L62.9460068,25.6264135 L62.9467187,26.2824201 C62.9375689,27.9238229 62.8054618,29.555749 61.6282173,30.7310432 L30.528112,61.876821 C29.7563225,62.6497098 28.743691,63.0347839 27.7310594,63.0347839 C26.7170594,63.0347839 25.7057962,62.6497098 24.9340068,61.876821 L1.15905939,38.0680061 C0.411901495,37.3197839 -0.00136166269,36.324895 0,35.2655987 C0,34.2076728 0.411901495,33.2114135 1.16042781,32.4645617 L32.2619015,1.32015428 C33.596112,-0.0145864559 35.5064278,-0.00910497445 37.3715857,0.00185798851 Z" id="形状结合" stroke-width="2"></path>
                        <path d="M50.3946068,9.59308021 C48.4643568,9.59308021 46.8946068,11.1628302 46.8946068,13.0930802 C46.8946068,15.0233302 48.4643568,16.5930802 50.3946068,16.5930802 C52.3248568,16.5930802 53.8946068,15.0233302 53.8946068,13.0930802 C53.8946068,11.1628302 52.3248568,9.59308021 50.3946068,9.59308021" id="Fill-1-path" stroke-width="1.5"></path>
                    </g>
                    <rect id="Rectangle-5" stroke="#779EEA" stroke-width="2" fill="#FFFFFF" x="93.9999005" y="37.7064491" width="22" height="22" rx="4"></rect>
                    <path d="M105.9999,42.7064491 L105.9999,47.7064491 L110.9999,47.7064491 L110.9999,49.7064491 L105.9999,49.7064491 L105.9999,54.7064491 L103.9999,54.7064491 L103.9999,49.7054491 L98.9999005,49.7064491 L98.9999005,47.7064491 L103.9999,47.7054491 L103.9999,42.7064491 L105.9999,42.7064491 Z" id="Combined-Shape" fill="#779EEA"></path>
                </g>
            </g>
        </g>
    </g>
</svg>