<?xml version="1.0" encoding="UTF-8"?>
<svg width="144px" height="144px" viewBox="0 0 144 144" version="1.1" xmlns="http://www.w3.org/2000/svg" xmlns:xlink="http://www.w3.org/1999/xlink">
    <title>编组</title>
    <defs>
        <linearGradient x1="50%" y1="3.85205925%" x2="50%" y2="121.56033%" id="linearGradient-1">
            <stop stop-color="#779EEA" stop-opacity="0.4" offset="0%"></stop>
            <stop stop-color="#FFFFFF" stop-opacity="0" offset="100%"></stop>
        </linearGradient>
        <path d="M15,7 L59,7 C61.209139,7 63,8.790861 63,11 L63,30.8611111 C63,33.0702501 61.209139,34.8611111 59,34.8611111 L15,34.8611111 C12.790861,34.8611111 11,33.0702501 11,30.8611111 L11,11 C11,8.790861 12.790861,7 15,7 Z" id="path-2"></path>
        <mask id="mask-3" maskContentUnits="userSpaceOnUse" maskUnits="objectBoundingBox" x="0" y="0" width="52" height="27.8611111" fill="white">
            <use xlink:href="#path-2"></use>
        </mask>
    </defs>
    <g id="二期" stroke="none" stroke-width="1" fill="none" fill-rule="evenodd">
        <g id="已订阅应用-AD账号未登录" transform="translate(-998.000000, -303.000000)">
            <g id="编组-4" transform="translate(965.000000, 303.000000)">
                <g id="编组" transform="translate(33.000000, 0.000000)">
                    <rect id="Rectangle-25" x="0" y="0" width="144" height="144"></rect>
                    <g id="编组-2" transform="translate(0.000100, 58.000000)">
                        <path d="M71.9999005,50 C106.372515,50 135.31972,65.9978546 143.999801,85.9997707 L-1.06359366e-13,85.9997707 C8.68008123,65.9978546 37.6272862,50 71.9999005,50 Z" id="Combined-Shape" fill="url(#linearGradient-1)"></path>
                        <g id="Group-14-Copy" transform="translate(35.999900, 0.000000)">
                            <polygon id="Clip-2" points="1.63636364 4.86237374 35.9673154 4.86237374 35.9673154 18.565875 1.63636364 18.565875"></polygon>
                            <path d="M39.3425662,1 C40.1001876,1 40.8252897,1.21404557 41.445673,1.5975095 C42.0660564,1.98097343 42.5817208,2.53385573 42.9204667,3.2115292 L59.2216522,35.8226403 C59.7155248,36.8106503 59.7621723,37.9053068 59.4383492,38.876429 C59.1145261,39.8475512 58.4202324,40.6951391 57.4322225,41.1890116 C56.8769005,41.4665982 56.2645872,41.6111111 55.6437517,41.6111111 L5,41.6111111 C3.8954305,41.6111111 2.8954305,41.1633959 2.17157288,40.4395382 C1.44771525,39.7156806 1,38.7156806 1,37.6111111 L1,5 C1,3.8954305 1.44771525,2.8954305 2.17157288,2.17157288 C2.8954305,1.44771525 3.8954305,1 5,1 Z" id="Rectangle-3-Copy-7" stroke="#779EEA" stroke-width="2" fill="#FFFFFF"></path>
                            <polygon id="Clip-5" points="22.4056237 10.6243295 56.958202 10.6243295 56.958202 50.2601124 22.4056237 50.2601124"></polygon>
                            <use id="Rectangle-3-Copy-8" stroke="#779EEA" mask="url(#mask-3)" stroke-width="4" fill="#F8FAFE" stroke-dasharray="3" xlink:href="#path-2"></use>
                            <polygon id="Clip-8" points="1.63641057 15.0353649 56.9205357 15.0353649 56.9205357 52.6165265 1.63641057 52.6165265"></polygon>
                            <path d="M1,16 L68,16 C69.3807119,16 70.6307119,16.5596441 71.5355339,17.4644661 C72.4403559,18.3692881 73,19.6192881 73,21 L73,53.25 C73,54.6307119 72.4403559,55.8807119 71.5355339,56.7855339 C70.6307119,57.6903559 69.3807119,58.25 68,58.25 L6,58.25 C4.61928813,58.25 3.36928813,57.6903559 2.46446609,56.7855339 C1.55964406,55.8807119 1,54.6307119 1,53.25 L1,16 Z" id="Rectangle-3" stroke="#779EEA" stroke-width="2" fill="#FFFFFF"></path>
                        </g>
                        <g id="编组-7" transform="translate(62.499900, 24.000000)">
                            <rect id="矩形" fill="#FFFFFF" x="0" y="0" width="25" height="26"></rect>
                            <g id="编组-6">
                                <path d="M20.9999005,18 C21.5521852,18 21.9999005,18.4477153 21.9999005,19 L21.9999005,21 L23.9999005,21 C24.5521852,21 24.9999005,21.4477153 24.9999005,22 C24.9999005,22.5522847 24.5521852,23 23.9999005,23 L21.9999005,23 L21.9999005,25 C21.9999005,25.5522847 21.5521852,26 20.9999005,26 C20.4476157,26 19.9999005,25.5522847 19.9999005,25 L19.9999005,23 L17.9999005,23 C17.4476157,23 16.9999005,22.5522847 16.9999005,22 C16.9999005,21.4477153 17.4476157,21 17.9999005,21 L19.9999005,20.999 L19.9999005,19 C19.9999005,18.4477153 20.4476157,18 20.9999005,18 Z" id="Combined-Shape" fill="#779EEA"></path>
                                <circle id="椭圆形" stroke="#779EEA" stroke-width="2" fill="#FFFFFF" cx="11" cy="7" r="6"></circle>
                                <path d="M19.3392762,17.8304171 C17.4717241,14.9247956 14.2106421,13 10.5,13 C4.70101013,13 0,17.7010101 0,23.5" id="路径" stroke="#779EEA" stroke-width="2" fill="#FFFFFF"></path>
                            </g>
                        </g>
                        <path d="M61.0204719,47.6557056" id="路径-2" stroke="#979797"></path>
                    </g>
                </g>
            </g>
        </g>
    </g>
</svg>