<?xml version="1.0" standalone="no"?><!DOCTYPE svg PUBLIC "-//W3C//DTD SVG 1.1//EN" "http://www.w3.org/Graphics/SVG/1.1/DTD/svg11.dtd"><svg t="1701662744598" class="icon" viewBox="0 0 1024 1024" version="1.1" xmlns="http://www.w3.org/2000/svg" p-id="27458" xmlns:xlink="http://www.w3.org/1999/xlink" width="200" height="200"><path d="M942.592 1009.472H167.424a33.344 33.344 0 0 1-34.048-32.384V46.912c0-17.792 15.36-32.384 34.048-32.384h591.168l218.048 226.56v736c0 17.792-14.464 32.384-34.048 32.384z" fill="#FFFFFF" p-id="27459"></path><path d="M765.44 0H167.424c-27.264 0-49.408 21.056-49.408 46.912v930.176c0 25.856 22.144 46.912 49.408 46.912h775.168c27.264 0 49.408-21.056 49.408-46.912V235.328L765.44 0z m-8.512 33.152l191.616 199.04H775.68c-10.24 0-18.688-8.128-18.688-17.856V33.28z m185.664 962.56H167.424c-10.24 0-18.752-8.128-18.752-17.792V46.912c0-9.728 8.576-17.792 18.752-17.792h558.784v184.384c0 25.92 22.144 46.976 49.408 46.976h186.56v717.44c0 8.896-8.512 17.792-19.584 17.792z" fill="#C0C0C0" p-id="27460"></path><path d="M63.488 271.744c-17.856 1.664-31.488 15.36-31.488 32.384v467.52c0 16.192 12.8 30.72 30.72 32.32l516.992 47.744a32.96 32.96 0 0 0 37.504-32.32V253.184c0-18.56-17.024-33.984-36.672-32.384l-517.056 50.944z" fill="#223EC6" p-id="27461"></path><path d="M500.992 415.296v190.592a47.616 47.616 0 0 1-47.68 47.616H167.488v23.808c0 13.184 10.624 23.872 23.808 23.872h285.888a47.616 47.616 0 0 0 47.616-47.68v-214.4a23.808 23.808 0 0 0-23.808-23.808z" fill="#FFFFFF" p-id="27462"></path><path d="M477.184 605.888V343.808A23.808 23.808 0 0 0 453.312 320h-333.44A23.808 23.808 0 0 0 96 343.808v262.08c0 13.12 10.688 23.808 23.808 23.808h333.504a23.808 23.808 0 0 0 23.872-23.808zM143.616 486.784a83.2 83.2 0 0 1 77.44-82.688v23.808a58.88 58.88 0 0 0-40 95.36l-16.64 16.832a81.472 81.472 0 0 1-20.8-53.312z m83.392 83.328c-19.968 0-39.296-7.296-54.272-20.48l16.896-16.896a58.88 58.88 0 0 0 95.296-40h23.808a83.2 83.2 0 0 1-81.728 77.44z m71.488-89.28H232.96v-76.8a82.432 82.432 0 0 1 77.44 76.8h-11.904z m83.392 77.44h-23.872v-95.36h23.872v95.36z m47.616 0H405.76V415.232h23.808v142.912z" fill="#FFFFFF" p-id="27463"></path></svg>