<?xml version="1.0" encoding="UTF-8"?>
<svg width="19px" height="19px" viewBox="0 0 19 19" version="1.1" xmlns="http://www.w3.org/2000/svg" xmlns:xlink="http://www.w3.org/1999/xlink">
    <title>切换</title>
    <g id="控件" stroke="none" stroke-width="1" fill="none" fill-rule="evenodd">
        <g id="切换试图" transform="translate(-15.000000, 0.000000)">
            <g id="切换" transform="translate(15.000000, 0.000000)">
                <circle id="椭圆形" stroke="#555555" stroke-width="1.5" cx="15" cy="15" r="3.25"></circle>
                <path d="M5.91289425,0 L1.68395345,0 C0.852464321,0.000497266071 0.178532741,0.677798504 0.178037677,1.51344508 L0.178037677,5.76893897 C0.177797737,6.17007252 0.336493999,6.55479335 0.619063531,6.83809918 C0.901633064,7.12140501 1.2848173,7.27997666 1.68395345,7.2787852 L5.91289425,7.2787852 C6.74438338,7.27828119 7.41831496,6.60097996 7.41880975,5.76533338 L7.41880975,1.51344508 C7.4178213,0.678004265 6.74417864,0.000993391669 5.91289425,0 Z M5.98823658,5.59947639 C5.9884732,5.66306789 5.96356559,5.72414994 5.91899152,5.76928497 C5.87441745,5.81441999 5.81382828,5.83991069 5.75055315,5.84014931 L1.8427069,5.84014931 C1.71234423,5.83867249 1.60730085,5.7323011 1.60681732,5.60127918 L1.60681732,1.67479509 C1.60658069,1.6112036 1.6314883,1.55012154 1.67606237,1.50498652 C1.72063643,1.45985149 1.7812256,1.43436079 1.84450073,1.43412217 L5.74965624,1.43412217 C5.81293137,1.43436079 5.87352054,1.45985149 5.9180946,1.50498652 C5.96266867,1.55012154 5.98757628,1.6112036 5.98733796,1.67479509 L5.98823658,5.59947639 Z" id="形状" fill="#54639C" fill-rule="nonzero"></path>
                <path d="M17.2220596,2.07231105 L17.1476159,2.07231105 C16.7513352,2.07231105 16.4300862,2.39516629 16.4300862,2.79342842 L16.4300862,3.92918827 C14.9787196,2.2399755 12.9998104,1.09588896 10.8172099,0.684160102 C10.7306659,0.644500466 10.637669,0.620982292 10.5427548,0.614752559 C10.5230227,0.614752559 10.5023937,0.602133012 10.4826617,0.600330217 L10.4826617,0.60663999 C10.0517064,0.606639997 9.70234811,0.957745073 9.70234811,1.39085513 C9.70234811,1.82396519 10.0517064,2.17507027 10.4826617,2.17507027 L10.4826617,2.18318284 C13.0796452,2.65865401 15.2988926,4.34261358 16.4650657,6.72261669 C16.5301329,6.84778602 16.6298004,6.95139506 16.7520776,7.02097901 C16.8664665,7.10648392 17.0042223,7.15462491 17.146719,7.15889271 L17.2211627,7.15889271 C17.4114634,7.15889271 17.5939699,7.08291806 17.7285328,6.94768232 C17.8630958,6.81244658 17.9386948,6.62902756 17.9386948,6.43777534 L17.9386948,2.8006396 C17.9396938,2.40113918 17.6195587,2.0757794 17.2220596,2.07231105 L17.2220596,2.07231105 Z" id="路径" fill="#54639C" fill-rule="nonzero"></path>
                <path d="M7.66276987,16.018721 L7.65469766,16.018721 C4.99665348,15.6141405 2.69528437,13.9475142 1.47228218,11.5414835 C1.36683857,11.2646158 1.10353549,11.0808125 0.808567199,11.0781656 L0.73412349,11.0781656 C0.422852475,11.0838999 0.150773923,11.2907086 0.0605424557,11.590159 C0.0436471849,11.6422084 0.0328119325,11.6960505 0.0282536089,11.7506076 C0.023984671,11.7681371 0.0206908886,11.7858921 0.0183875758,11.80379 L0.0183875758,11.8407472 C0.0163964861,11.8764746 0.0163964861,11.912286 0.0183875758,11.9480134 L0.0183875758,15.4436299 C0.0183875758,15.841892 0.339636575,16.1647473 0.735917298,16.1647473 L0.810361007,16.1647473 C1.20664173,16.1647473 1.52789073,15.841892 1.52789073,15.4436299 L1.52789073,14.3177854 C3.03737885,16.0321834 5.09351729,17.1651446 7.34346914,17.5222507 C7.45313909,17.5618593 7.56987547,17.5778296 7.68608959,17.5691234 L7.69416179,17.5691234 C7.89408712,17.5708595 8.08622341,17.4913125 8.22692001,17.3485544 C8.36761661,17.2057963 8.44492782,17.0119479 8.44128962,16.8110487 C8.44224331,16.6023441 8.36066169,16.4018069 8.21449224,16.2535543 C8.06832279,16.1053016 7.86953928,16.0214779 7.66187295,16.0205238 L7.66276987,16.018721 Z" id="路径" fill="#555555" fill-rule="nonzero"></path>
            </g>
        </g>
    </g>
</svg>