<?xml version="1.0" encoding="UTF-8"?>
<svg width="18px" height="18px" viewBox="0 0 18 18" version="1.1" xmlns="http://www.w3.org/2000/svg" xmlns:xlink="http://www.w3.org/1999/xlink">
    <title>qingkongjilu</title>
    <g id="控件" stroke="none" stroke-width="1" fill="none" fill-rule="evenodd">
        <g id="一键导入" transform="translate(-15.000000, 0.000000)" fill="#000000" fill-rule="nonzero">
            <g id="qingkongjilu" transform="translate(15.000000, 0.000000)">
                <path d="M17.493598,4.97809792 L14.5923105,3.79003645 L15.9363575,0.609399446 C15.9919732,0.469077225 15.9270882,0.310045375 15.7880488,0.244561672 L15.2782379,0.0200461189 C15.1391986,-0.0360827694 14.9816207,0.0294009336 14.9167356,0.169723154 L13.5634194,3.3784246 L10.3562454,2.06875054 L10.3377068,2.05939573 C10.0410896,1.94713795 9.71666443,2.01262165 9.4849322,2.22778239 L9.41077789,2.30262091 L9.36443144,2.39616906 C9.35516215,2.4242335 8.10380812,4.85648533 6.09237237,6.79293197 C4.43316961,8.34583121 0.391759537,10.880986 0.345413091,10.9090504 L0.299066646,10.9371149 L0.261989489,10.9745341 C0.0580651275,11.1616304 -0.0346277641,11.4422749 0.0117186817,11.7229193 C0.0580651275,12.0035638 0.234181622,12.2374341 0.502991007,12.3590467 L13.0165314,17.9345163 L13.0443392,17.9438711 C13.1370321,17.9812904 13.2389943,18 13.3409565,18 C13.4707265,18 13.5912273,17.9719356 13.7024588,17.9158067 C13.8600367,17.8409681 13.9805374,17.7193556 14.063961,17.5696785 C14.416194,17.1674215 16.2700519,14.96904 17.1228265,12.3029178 C17.9570625,9.70227935 17.9848704,6.45615864 17.9848704,5.9229342 C18.0590247,5.53003199 17.8551003,5.12777495 17.493598,4.97809792 Z M10.1801289,3.20068312 L16.8725557,5.94164383 C16.8725557,6.25970753 16.8540171,7.49454308 16.6779006,8.95389417 L8.68777333,5.49261273 C9.42004718,4.51035718 9.92985808,3.64971423 10.1801289,3.20068312 Z M13.2482636,16.8119385 L10.2913604,15.4929097 L12.460374,13.3319475 C12.5159898,13.1916252 12.4511047,13.0325934 12.3120654,12.9671097 L11.8022545,12.7425941 C11.6632152,12.6864652 11.5056372,12.7519489 11.4407522,12.8922712 L9.28100784,15.0438786 L6.65779901,13.8745267 L8.78046623,11.741629 C8.83608196,11.6013067 8.77119694,11.4422749 8.6321576,11.3767912 L8.1223467,11.1522756 C7.98330736,11.0961467 7.82572944,11.1616304 7.76084442,11.3019527 L5.6381772,13.4254956 L1.42991992,11.5451778 C2.58858107,10.7967927 5.45279142,8.91647491 6.84318479,7.58809122 C7.25103352,7.195189 7.62180508,6.79293197 7.96476878,6.39067494 L16.5110534,10.0858268 C16.3998219,10.7219542 16.2515133,11.3580816 16.0661275,11.9567897 C15.2967765,14.3609771 13.6004966,16.4096815 13.2482636,16.8119385 L13.2482636,16.8119385 Z" id="形状"></path>
            </g>
        </g>
    </g>
</svg>