<?xml version="1.0" encoding="UTF-8"?>
<svg width="144px" height="144px" viewBox="0 0 144 144" version="1.1" xmlns="http://www.w3.org/2000/svg" xmlns:xlink="http://www.w3.org/1999/xlink">
    <title>编组 8</title>
    <defs>
        <linearGradient x1="50%" y1="3.85205925%" x2="50%" y2="121.56033%" id="linearGradient-1">
            <stop stop-color="#779EEA" stop-opacity="0.4" offset="0%"></stop>
            <stop stop-color="#FFFFFF" stop-opacity="0" offset="100%"></stop>
        </linearGradient>
    </defs>
    <g id="认知服务创建流程" stroke="none" stroke-width="1" fill="none" fill-rule="evenodd">
        <g id="JSON文件配置与测试-执行器最窄" transform="translate(-1647.000000, -387.000000)">
            <g id="编组-2" transform="translate(1519.000000, 107.000000)">
                <g id="编组-15" transform="translate(109.000000, 280.000000)">
                    <g id="编组-8" transform="translate(19.000000, 0.000000)">
                        <g id="Group-3">
                            <rect id="Rectangle-3" x="0" y="0" width="144" height="144"></rect>
                        </g>
                        <rect id="Rectangle-25" x="0" y="0" width="144" height="144"></rect>
                        <path d="M72,100 C106.372614,100 135.319819,115.997855 143.9999,135.999771 L9.95177594e-05,135.999771 C8.68018075,115.997855 37.6273857,100 72,100 Z" id="Combined-Shape" fill="url(#linearGradient-1)"></path>
                        <g id="编组" transform="translate(40.000000, 26.000000)">
                            <g id="Group-2" transform="translate(0.000000, 5.822146)">
                                <path d="M5.17241379,1.27586207 L47.2931817,1.27586207 L47.2931817,1.27586207 L61.9137931,12.7578139 L61.9137931,68.4482759 C61.9137931,70.1051301 60.5706474,71.4482759 58.9137931,71.4482759 L5.17241379,71.4482759 C3.51555954,71.4482759 2.17241379,70.1051301 2.17241379,68.4482759 L2.17241379,4.27586207 C2.17241379,2.61900782 3.51555954,1.27586207 5.17241379,1.27586207 Z" id="Rectangle" fill="#FFFFFF"></path>
                                <path d="M46.7823789,1 L62,12.7295866 L62,68 C62,69.3807119 61.4403559,70.6307119 60.5355339,71.5355339 C59.6307119,72.4403559 58.3807119,73 57,73 L6,73 C4.61928813,73 3.36928813,72.4403559 2.46446609,71.5355339 C1.55964406,70.6307119 1,69.3807119 1,68 L1,6 C1,4.61928813 1.55964406,3.36928813 2.46446609,2.46446609 C3.36928813,1.55964406 4.61928813,1 6,1 L46.7823789,1 Z" id="Rectangle-4" stroke="#779EEA" stroke-width="2" fill="#FFFFFF"></path>
                                <polyline id="Path-4" stroke="#779EEA" stroke-width="2" points="46 1 46 13 61.2026367 13"></polyline>
                            </g>
                            <path d="M69.2740485,1.54473305 C69.5909168,1.54473305 69.8477894,1.80160557 69.8477894,2.11847389 L69.847733,4.69973305 L72.4296231,4.70030768 C72.7464915,4.70030768 73.003364,4.9571802 73.003364,5.27404852 C73.003364,5.59091684 72.7464915,5.84778936 72.4296231,5.84778936 L69.847733,5.84773305 L69.8477894,8.42962315 C69.8477894,8.74649147 69.5909168,9.00336399 69.2740485,9.00336399 C68.9571802,9.00336399 68.7003077,8.74649147 68.7003077,8.42962315 L68.699733,5.84773305 L66.1184739,5.84778936 C65.8016056,5.84778936 65.544733,5.59091684 65.544733,5.27404852 C65.544733,4.9571802 65.8016056,4.70030768 66.1184739,4.70030768 L68.699733,4.69973305 L68.7003077,2.11847389 C68.7003077,1.80160557 68.9571802,1.54473305 69.2740485,1.54473305 Z" id="Combined-Shape" fill="#779EEA" transform="translate(69.274049, 5.274049) rotate(-315.000000) translate(-69.274049, -5.274049) "></path>
                            <path d="M77.451903,22.1260777 C77.7193762,22.1260777 77.9362062,22.3429077 77.9362062,22.6103809 L77.9359322,24.7890777 L80.1155705,24.7897453 C80.3830438,24.7897453 80.5998737,25.0065753 80.5998737,25.2740485 C80.5998737,25.5415218 80.3830438,25.7583517 80.1155705,25.7583517 L77.9359322,25.7580777 L77.9362062,27.9377161 C77.9362062,28.2051894 77.7193762,28.4220193 77.451903,28.4220193 C77.1844297,28.4220193 76.9675998,28.2051894 76.9675998,27.9377161 L76.9669322,25.7580777 L74.7882354,25.7583517 C74.5207621,25.7583517 74.3039322,25.5415218 74.3039322,25.2740485 C74.3039322,25.0065753 74.5207621,24.7897453 74.7882354,24.7897453 L76.9669322,24.7890777 L76.9675998,22.6103809 C76.9675998,22.3429077 77.1844297,22.1260777 77.451903,22.1260777 Z" id="Combined-Shape-Copy-10" fill="#779EEA" opacity="0.3" transform="translate(77.451903, 25.274049) rotate(-315.000000) translate(-77.451903, -25.274049) "></path>
                            <circle id="Oval-7-Copy-3" stroke="#779EEA" cx="81.5" cy="11.3221456" r="1.5"></circle>
                        </g>
                        <rect id="Rectangle-23" fill="#779EEA" x="54.3046332" y="53" width="20" height="2"></rect>
                        <rect id="Rectangle-23-Copy" fill="#779EEA" x="54.3046332" y="61.5" width="32" height="2"></rect>
                        <rect id="Rectangle-23-Copy-2" fill="#779EEA" x="54.3046332" y="70" width="32" height="2"></rect>
                        <path d="M99,87 C99,82.581722 95.6421356,79 91.5,79 C87.3578644,79 84,82.581722 84,87" id="Oval-15" stroke="#779EEA" stroke-width="2"></path>
                        <g id="Group" transform="translate(79.000000, 84.000000)" fill="#F8FAFE" stroke="#779EEA">
                            <path d="M12.7044024,1 C13.5918094,1 14.3952056,1.35969274 14.9767501,1.94123722 C15.5582945,2.52278169 15.9179873,3.32617791 15.9179873,4.21354795 L15.9177119,11.672037 C16.2892257,11.5871041 16.6606484,11.5240238 17.0306366,11.4819905 C17.4055725,11.4393951 17.7867923,11.4175322 18.1731218,11.4175322 L22.9490814,11.4175322 C25.4483333,11.4175322 27.7109813,12.4305542 29.3488163,14.0683891 C30.9866513,15.7062241 31.9996733,17.9688721 31.9996733,20.468124 C31.9996733,20.8415962 31.9765563,21.2147104 31.930455,21.5853264 L31.7253254,23.234397 C31.4139168,25.737862 30.194416,27.9292627 28.4220777,29.4947972 C26.6497393,31.0603317 24.3245634,32 21.8018047,32 L18.1731218,32 C16.065224,32 14.1095274,31.3480514 12.4971146,30.2342659 C10.7685699,29.0402616 9.43396003,27.3163117 8.72902791,25.2968272 L3.10940369,20.5812975 C2.42961052,20.0108833 2.04537935,19.2189295 1.97370002,18.399631 C1.90202069,17.5803325 2.1428932,16.7336893 2.7133074,16.0538961 C3.2837216,15.3741029 4.07567535,14.9898718 4.89497385,14.9181924 C5.71427235,14.8465131 6.5609156,15.0873856 7.24143965,15.6584125 L9.49028819,17.5417685 L9.49081755,4.21358487 C9.49081755,3.32617791 9.85051029,2.52278169 10.4320548,1.94123722 C11.0135992,1.35969274 11.8169955,1 12.7044024,1 Z" id="Combined-Shape" stroke-width="2"></path>
                            <path d="M11,30 L30,30 C31.6568542,30 33,31.3431458 33,33 C33,34.6568542 31.6568542,36 30,36 L11,36 C9.34314575,36 8,34.6568542 8,33 C8,31.3431458 9.34314575,30 11,30 Z" id="Rectangle-19" stroke-width="2.21"></path>
                        </g>
                    </g>
                </g>
            </g>
        </g>
    </g>
</svg>