<?xml version="1.0" encoding="UTF-8"?>
<svg width="145px" height="144px" viewBox="0 0 145 144" version="1.1" xmlns="http://www.w3.org/2000/svg" xmlns:xlink="http://www.w3.org/1999/xlink">
    <title>认知搜索 选择配置</title>
    <defs>
        <linearGradient x1="50%" y1="3.85205925%" x2="50%" y2="121.56033%" id="linearGradient-1">
            <stop stop-color="#779EEA" stop-opacity="0.4" offset="0%"></stop>
            <stop stop-color="#FFFFFF" stop-opacity="0" offset="100%"></stop>
        </linearGradient>
    </defs>
    <g id="保留线条" stroke="none" stroke-width="1" fill="none" fill-rule="evenodd">
        <g id="认知搜索-选择配置" transform="translate(0.000100, 0.000000)">
            <g id="Group-3">
                <rect id="Rectangle-3" x="0" y="0" width="144" height="144"></rect>
            </g>
            <g id="编组-4" transform="translate(0.000000, 21.750000)" fill-rule="nonzero">
                <path d="M71.9999005,79 C106.372514,79 135.319719,94.9978546 143.9998,114.999771 L0,114.999771 C8.68008123,94.9978546 37.6272862,79 71.9999005,79 Z" id="Combined-Shape" fill="url(#linearGradient-1)"></path>
                <g id="编组-10" transform="translate(1.000000, 0.000000)">
                    <g id="undraw_complete_task_re_44tb-2" transform="translate(12.000000, 0.000000)">
                        <rect id="矩形" stroke="#779EEA" stroke-width="1.5" fill="#FFFFFF" x="0" y="0" width="114.5" height="26.5" rx="4"></rect>
                        <g id="编组-6" transform="translate(29.819830, 7.294693)" fill="#779EEA">
                            <path d="M0.944476419,0 C0.422584899,0.000739231078 2.14166742e-06,0.336309056 2.14166742e-06,0.75 C2.14166742e-06,1.16369094 0.422584899,1.49926077 0.944476419,1.5 L70.0254758,1.5 C70.5473673,1.49926077 70.96995,1.16369094 70.96995,0.75 C70.96995,0.336309056 70.5473673,0.000739231078 70.0254758,0 L0.944476419,0 Z" id="路径"></path>
                            <path d="M0.948163261,5.63128322 C0.425611598,5.63041303 0.0011063676,5.96549064 -4.07733709e-16,6.3797034 C-0.00109778419,6.79391616 0.421620628,7.13041013 0.944172291,7.13128322 L44.6178962,7.13128322 C44.9563306,7.13176309 45.2693159,6.9889191 45.4387079,6.75667185 C45.6080999,6.5244246 45.6080999,6.23814573 45.4387079,6.00589848 C45.2693159,5.77365123 44.9563306,5.63080725 44.6178962,5.63128322 L0.948163261,5.63128322 Z" id="路径"></path>
                            <path d="M0.652858577,11.2625681 C0.293055576,11.261698 0.000762456546,11.5967756 6.67022114e-07,12.0109883 C-0.000755212393,12.4252011 0.290307594,12.761695 0.650110595,12.7625681 L30.7216576,12.7625681 C30.9546867,12.763048 31.1701927,12.620204 31.2868276,12.3879568 C31.4034625,12.1557095 31.4034625,11.8694306 31.2868276,11.6371834 C31.1701927,11.4049361 30.9546867,11.2620922 30.7216576,11.2625681 L0.652858577,11.2625681 Z" id="路径"></path>
                        </g>
                        <g id="编组-3" transform="translate(12.121508, 8.099162)" fill="#779EEA" stroke="#779EEA" stroke-width="0.75">
                            <path d="M5.76119604,7.74301676 C5.65936937,7.74243102 5.56271975,7.69906191 5.49588558,7.6239653 L3.60719757,5.50418736 C3.52371077,5.41084441 3.4975896,5.28101986 3.53869519,5.16372434 C3.57980079,5.04642883 3.68187191,4.95952887 3.80637524,4.93583046 C3.93087856,4.91213206 4.05884968,4.95524496 4.14197763,5.04889342 L5.76640275,6.87211334 L10.6429805,1.52429152 C10.7271652,1.4315996 10.8555894,1.38992143 10.9797721,1.41499081 C11.1039549,1.44006019 11.2049811,1.52805863 11.2447127,1.64576613 C11.2844443,1.76347363 11.2568294,1.89296136 11.1722929,1.98534684 L6.02793182,7.62703347 C5.9606659,7.70080482 5.86438353,7.74301676 5.76328729,7.74301676 L5.76119604,7.74301676 Z" id="路径"></path>
                            <path d="M5.63123831,11.2625698 C2.52119127,11.2625698 0,8.7413577 0,5.63128492 C0,2.52121214 2.52119127,0 5.63123831,0 C5.73848131,0 5.82541894,0.0869383495 5.82541894,0.194182238 C5.82541894,0.301426127 5.73848131,0.388364477 5.63123831,0.388364477 C2.73568941,0.388415954 0.388420153,2.73577418 0.38845447,5.63134705 C0.388488787,8.52691992 2.73581368,10.8742225 5.63136259,10.8742054 C8.52691149,10.8741882 10.8742086,8.52685779 10.8742086,5.63128492 C10.8742086,5.52404103 10.9611462,5.43710268 11.0683892,5.43710268 C11.1756322,5.43710268 11.2625698,5.52404103 11.2625698,5.63128492 C11.2590213,8.73992304 8.73985077,11.2590727 5.63123831,11.2625698 L5.63123831,11.2625698 Z" id="路径"></path>
                        </g>
                    </g>
                    <g id="undraw_complete_task_re_44tb-2" transform="translate(28.000000, 36.000000)">
                        <rect id="矩形" stroke="#E8EDF6" stroke-width="1.5" fill="#FFFFFF" x="0" y="0" width="114.5" height="26.5" rx="4"></rect>
                        <g id="编组-6" opacity="0.593800136" transform="translate(29.819830, 7.294693)" fill="#779EEA">
                            <path d="M0.944476419,0 C0.422584899,0.000739231078 2.14166742e-06,0.336309056 2.14166742e-06,0.75 C2.14166742e-06,1.16369094 0.422584899,1.49926077 0.944476419,1.5 L70.0254758,1.5 C70.5473673,1.49926077 70.96995,1.16369094 70.96995,0.75 C70.96995,0.336309056 70.5473673,0.000739231078 70.0254758,0 L0.944476419,0 Z" id="路径"></path>
                            <path d="M0.948163261,5.63128322 C0.425611598,5.63041303 0.0011063676,5.96549064 -4.07733709e-16,6.3797034 C-0.00109778419,6.79391616 0.421620628,7.13041013 0.944172291,7.13128322 L44.6178962,7.13128322 C44.9563306,7.13176309 45.2693159,6.9889191 45.4387079,6.75667185 C45.6080999,6.5244246 45.6080999,6.23814573 45.4387079,6.00589848 C45.2693159,5.77365123 44.9563306,5.63080725 44.6178962,5.63128322 L0.948163261,5.63128322 Z" id="路径"></path>
                            <path d="M0.652858577,11.2625681 C0.293055576,11.261698 0.000762456546,11.5967756 6.67022114e-07,12.0109883 C-0.000755212393,12.4252011 0.290307594,12.761695 0.650110595,12.7625681 L30.7216576,12.7625681 C30.9546867,12.763048 31.1701927,12.620204 31.2868276,12.3879568 C31.4034625,12.1557095 31.4034625,11.8694306 31.2868276,11.6371834 C31.1701927,11.4049361 30.9546867,11.2620922 30.7216576,11.2625681 L0.652858577,11.2625681 Z" id="路径"></path>
                        </g>
                        <g id="编组-3" opacity="0.403159732" transform="translate(12.121508, 8.099162)" fill="#779EEA" stroke="#779EEA" stroke-width="0.75">
                            <path d="M5.76119604,7.74301676 C5.65936937,7.74243102 5.56271975,7.69906191 5.49588558,7.6239653 L3.60719757,5.50418736 C3.52371077,5.41084441 3.4975896,5.28101986 3.53869519,5.16372434 C3.57980079,5.04642883 3.68187191,4.95952887 3.80637524,4.93583046 C3.93087856,4.91213206 4.05884968,4.95524496 4.14197763,5.04889342 L5.76640275,6.87211334 L10.6429805,1.52429152 C10.7271652,1.4315996 10.8555894,1.38992143 10.9797721,1.41499081 C11.1039549,1.44006019 11.2049811,1.52805863 11.2447127,1.64576613 C11.2844443,1.76347363 11.2568294,1.89296136 11.1722929,1.98534684 L6.02793182,7.62703347 C5.9606659,7.70080482 5.86438353,7.74301676 5.76328729,7.74301676 L5.76119604,7.74301676 Z" id="路径"></path>
                            <path d="M5.63123831,11.2625698 C2.52119127,11.2625698 0,8.7413577 0,5.63128492 C0,2.52121214 2.52119127,0 5.63123831,0 C5.73848131,0 5.82541894,0.0869383495 5.82541894,0.194182238 C5.82541894,0.301426127 5.73848131,0.388364477 5.63123831,0.388364477 C2.73568941,0.388415954 0.388420153,2.73577418 0.38845447,5.63134705 C0.388488787,8.52691992 2.73581368,10.8742225 5.63136259,10.8742054 C8.52691149,10.8741882 10.8742086,8.52685779 10.8742086,5.63128492 C10.8742086,5.52404103 10.9611462,5.43710268 11.0683892,5.43710268 C11.1756322,5.43710268 11.2625698,5.52404103 11.2625698,5.63128492 C11.2590213,8.73992304 8.73985077,11.2590727 5.63123831,11.2625698 L5.63123831,11.2625698 Z" id="路径"></path>
                        </g>
                    </g>
                    <g id="undraw_complete_task_re_44tb-2" transform="translate(0.000000, 72.000000)">
                        <rect id="矩形" stroke="#E8EDF6" stroke-width="1.5" fill="#FFFFFF" x="0" y="0" width="114.5" height="26.5" rx="4"></rect>
                        <g id="编组-6" opacity="0.593800136" transform="translate(29.819830, 7.294693)" fill="#779EEA">
                            <path d="M0.944476419,0 C0.422584899,0.000739231078 2.14166742e-06,0.336309056 2.14166742e-06,0.75 C2.14166742e-06,1.16369094 0.422584899,1.49926077 0.944476419,1.5 L70.0254758,1.5 C70.5473673,1.49926077 70.96995,1.16369094 70.96995,0.75 C70.96995,0.336309056 70.5473673,0.000739231078 70.0254758,0 L0.944476419,0 Z" id="路径"></path>
                            <path d="M0.948163261,5.63128322 C0.425611598,5.63041303 0.0011063676,5.96549064 -4.07733709e-16,6.3797034 C-0.00109778419,6.79391616 0.421620628,7.13041013 0.944172291,7.13128322 L44.6178962,7.13128322 C44.9563306,7.13176309 45.2693159,6.9889191 45.4387079,6.75667185 C45.6080999,6.5244246 45.6080999,6.23814573 45.4387079,6.00589848 C45.2693159,5.77365123 44.9563306,5.63080725 44.6178962,5.63128322 L0.948163261,5.63128322 Z" id="路径"></path>
                            <path d="M0.652858577,11.2625681 C0.293055576,11.261698 0.000762456546,11.5967756 6.67022114e-07,12.0109883 C-0.000755212393,12.4252011 0.290307594,12.761695 0.650110595,12.7625681 L30.7216576,12.7625681 C30.9546867,12.763048 31.1701927,12.620204 31.2868276,12.3879568 C31.4034625,12.1557095 31.4034625,11.8694306 31.2868276,11.6371834 C31.1701927,11.4049361 30.9546867,11.2620922 30.7216576,11.2625681 L0.652858577,11.2625681 Z" id="路径"></path>
                        </g>
                        <g id="编组-3" opacity="0.403159732" transform="translate(12.121508, 8.099162)" fill="#779EEA" stroke="#779EEA" stroke-width="0.75">
                            <path d="M5.76119604,7.74301676 C5.65936937,7.74243102 5.56271975,7.69906191 5.49588558,7.6239653 L3.60719757,5.50418736 C3.52371077,5.41084441 3.4975896,5.28101986 3.53869519,5.16372434 C3.57980079,5.04642883 3.68187191,4.95952887 3.80637524,4.93583046 C3.93087856,4.91213206 4.05884968,4.95524496 4.14197763,5.04889342 L5.76640275,6.87211334 L10.6429805,1.52429152 C10.7271652,1.4315996 10.8555894,1.38992143 10.9797721,1.41499081 C11.1039549,1.44006019 11.2049811,1.52805863 11.2447127,1.64576613 C11.2844443,1.76347363 11.2568294,1.89296136 11.1722929,1.98534684 L6.02793182,7.62703347 C5.9606659,7.70080482 5.86438353,7.74301676 5.76328729,7.74301676 L5.76119604,7.74301676 Z" id="路径"></path>
                            <path d="M5.63123831,11.2625698 C2.52119127,11.2625698 0,8.7413577 0,5.63128492 C0,2.52121214 2.52119127,0 5.63123831,0 C5.73848131,0 5.82541894,0.0869383495 5.82541894,0.194182238 C5.82541894,0.301426127 5.73848131,0.388364477 5.63123831,0.388364477 C2.73568941,0.388415954 0.388420153,2.73577418 0.38845447,5.63134705 C0.388488787,8.52691992 2.73581368,10.8742225 5.63136259,10.8742054 C8.52691149,10.8741882 10.8742086,8.52685779 10.8742086,5.63128492 C10.8742086,5.52404103 10.9611462,5.43710268 11.0683892,5.43710268 C11.1756322,5.43710268 11.2625698,5.52404103 11.2625698,5.63128492 C11.2590213,8.73992304 8.73985077,11.2590727 5.63123831,11.2625698 L5.63123831,11.2625698 Z" id="路径"></path>
                        </g>
                    </g>
                </g>
            </g>
        </g>
    </g>
</svg>