<?xml version="1.0" encoding="UTF-8"?>
<svg width="18px" height="16px" viewBox="0 0 18 16" version="1.1" xmlns="http://www.w3.org/2000/svg" xmlns:xlink="http://www.w3.org/1999/xlink">
    <title>预测</title>
    <g id="控件" stroke="none" stroke-width="1" fill="none" fill-rule="evenodd">
        <g id="一键导入" transform="translate(-16.000000, 0.000000)">
            <g id="预测本体" transform="translate(0.000000, -0.000008)">
                <g id="预测" transform="translate(16.000000, -0.000000)">
                    <path d="M0.218803564,2.69289458e-06 C0.115792504,-0.000562365349 0.0312400894,0.0878685872 0.0294537709,0.199120408 L0.0294537709,15.7196071 C0.0294537709,15.8285768 0.114601644,15.9175838 0.218803564,15.9175838 L17.7509275,15.9175838 C17.854534,15.9181488 17.938491,15.8302884 17.9408728,15.7196071 L17.9408728,0.199120408 C17.938491,0.0890096133 17.8539386,0.000578678685 17.7509275,0.00114920101 L0.218803564,2.69289458e-06 Z M16.987574,14.7246163 C16.987574,14.8335861 16.9018306,14.9225903 16.7976287,14.9225903 L1.17210238,14.9225903 C1.06849589,14.9231581 0.98453891,14.8352976 0.982157151,14.7246163 L0.982157151,1.19411118 C0.982157151,1.08457091 1.06790046,0.996139973 1.17210238,0.996139973 L16.7976287,0.996139973 C16.9024261,0.996139973 16.987574,1.08457093 16.987574,1.19411118 L16.987574,14.7246163 L16.987574,14.7246163 Z" id="形状" fill="#555555" fill-rule="nonzero"></path>
                    <path d="M7.08005422,9.99841293 L3.26745438,9.99841293 C3.16325244,9.99898071 3.07929546,9.91054975 3.07810459,9.79872741 L3.07810459,9.20253168 C3.07810459,9.09299141 3.16444334,9.00341943 3.26745438,9.00341943 L7.07886334,9.00341943 C7.18366072,9.00341943 7.26940403,9.0924209 7.26940403,9.20253168 L7.26940403,9.79872741 C7.26940403,9.90826768 7.18306528,9.99726914 7.07886334,9.99726914 L7.08005422,9.99841293 L7.08005422,9.99841293 Z" id="路径" fill="#126EE3" fill-rule="nonzero"></path>
                    <path d="M14.2265205,12.6838583 L10.4145161,12.6838583 C10.3109096,12.6849994 10.2263572,12.5971389 10.2245708,12.4864576 L10.2245708,11.8879798 C10.2245708,11.7790101 10.3097187,11.6900086 10.4145161,11.6900086 L14.225925,11.6900086 C14.3307224,11.6900086 14.4152748,11.7784395 14.4152748,11.8879798 L14.4152748,12.4853166 C14.4152748,12.5959979 14.3289361,12.6838583 14.2265205,12.6838583 L14.2265205,12.6838583 Z" id="路径" fill="#126EE3" fill-rule="nonzero"></path>
                    <path d="M6.88951355,12.6884225 L3.26745438,12.6884225 C3.16325244,12.6884225 3.07929546,12.5999915 3.07810459,12.4887397 L3.07810459,11.8914029 C3.07810459,11.7812921 3.16444334,11.6928612 3.26745438,11.6928612 L6.88891811,11.6928612 C6.99371549,11.6928612 7.07886334,11.7807216 7.07886334,11.8902619 L7.07886334,12.4887397 C7.07886334,12.5977095 6.99312003,12.6867109 6.88891811,12.6867109 L6.88891811,12.6884225 L6.88951355,12.6884225 Z M14.7022767,7.28386543 L14.7022767,6.98890543 L14.38848,6.66199346 L11.4624898,6.66199346 C11.3582878,6.66142568 11.2743309,6.74985663 11.27314,6.86110845 L11.27314,7.4578747 C11.27314,7.56855602 11.3576924,7.65698697 11.4624898,7.65698697 L14.3444175,7.65698697 L14.7022767,7.28386543 L14.7022767,7.28386543 Z" id="形状" fill="#555555" fill-rule="nonzero"></path>
                    <path d="M14.7046585,6.98890543 L12.8183058,5.01889218 C12.784389,4.98185552 12.7354588,4.96062073 12.6840342,4.96062073 C12.6326095,4.96062073 12.5836793,4.98185552 12.5497625,5.01889218 L12.1448636,5.44050811 C12.1085418,5.47702153 12.0882865,5.52779802 12.0882865,5.58142711 C12.0882865,5.63505619 12.1085418,5.68526216 12.1448636,5.7223461 L13.4941297,7.13267704 L12.1448636,8.54015538 C12.1079812,8.57874907 12.0877638,8.62931849 12.0882865,8.6816449 C12.0882865,8.73470346 12.1085418,8.78547995 12.1448636,8.82313439 L12.5497625,9.2441798 C12.5832499,9.28191451 12.6323388,9.30366019 12.6840342,9.30366019 C12.7357295,9.30366019 12.7848184,9.28191451 12.8183058,9.2441798 L14.7046585,7.27530759 C14.7416833,7.23592703 14.7616928,7.18452939 14.7606298,7.13153599 C14.7611574,7.07897359 14.7411988,7.02811353 14.7046585,6.98890543 L14.7046585,6.98890543 Z M11.3308976,6.72133052 L6.34409087,11.9267753 C6.3081217,11.9653686 6.28838802,12.015383 6.28871098,12.0671238 C6.28871098,12.1201823 6.30895992,12.1709588 6.34409087,12.2074723 L6.74958524,12.6290882 C6.78329703,12.6668679 6.83257561,12.6886201 6.88445231,12.6886201 C6.93632902,12.6886201 6.98560759,12.6668679 7.01931939,12.6290882 L12.0049353,7.42364337 C12.0410038,7.3851079 12.0607526,7.33505532 12.0603184,7.2832949 C12.0607526,7.23153449 12.0410038,7.18148191 12.0049353,7.14294643 L11.5994409,6.72133052 C11.5655241,6.68429386 11.5165939,6.66305907 11.4651693,6.66305907 C11.4137446,6.66305907 11.3648144,6.68429386 11.3308976,6.72133052 L11.3308976,6.72133052 Z" id="形状" fill="#555555" fill-rule="nonzero"></path>
                    <circle id="椭圆形" stroke="#126EE3" cx="5" cy="5.00000816" r="1.5"></circle>
                </g>
            </g>
        </g>
    </g>
</svg>