<?xml version="1.0" standalone="no"?><!DOCTYPE svg PUBLIC "-//W3C//DTD SVG 1.1//EN" "http://www.w3.org/Graphics/SVG/1.1/DTD/svg11.dtd"><svg t="1609835123483" class="icon" viewBox="0 0 1024 1024" version="1.1" xmlns="http://www.w3.org/2000/svg" p-id="1851" xmlns:xlink="http://www.w3.org/1999/xlink" width="48" height="48"><defs><style type="text/css"></style></defs><path d="M938.112 1003.2H171.776a32.96 32.96 0 0 1-33.664-32V51.2c0-17.6 15.168-32 33.664-32h584.448l215.552 224v728c0 17.6-14.272 32-33.664 32z" fill="#FFFFFF" p-id="1852"></path><path d="M762.944 4.8H171.776c-26.88 0-48.832 20.8-48.832 46.4v920c0 25.6 21.888 46.4 48.832 46.4h766.336c26.88 0 48.832-20.8 48.832-46.4V237.568l-224-232.768z m-8.448 32.832l189.504 196.8h-170.944c-10.112 0-18.56-8-18.56-17.6v-179.2z m183.616 951.936H171.776c-10.112 0-18.56-7.936-18.56-17.536V51.2c0-9.6 8.448-17.6 18.56-17.6h552.448v182.4c0 25.6 21.888 46.4 48.832 46.4h184.448v709.632c0 8.768-8.448 17.536-19.392 17.536z" fill="#C0C0C0" p-id="1853"></path><path d="M580.224 223.168l-511.168 50.432c-17.664 1.6-31.168 15.168-31.168 32V768c0 16 12.608 30.4 30.336 32l511.168 47.232c20.16 2.368 37.056-12.8 37.056-32v-560a33.216 33.216 0 0 0-36.224-32z" fill="#22C683" p-id="1854"></path><path d="M319.232 409.792c4.8 0 9.6 1.6 11.2 1.6l105.088 54.144-105.088 54.144c-1.6 1.6-6.4 1.6-11.2 1.6-4.736 0-9.536-1.6-11.136-1.6L203.008 465.536 308.096 411.392c1.6 0 6.4-1.6 11.136-1.6z m0-25.472A50.88 50.88 0 0 0 296.96 389.12L169.6 454.4c-12.8 6.4-12.8 15.936 0 22.272l127.36 65.28c6.4 3.2 14.336 4.8 22.272 4.8a50.88 50.88 0 0 0 22.336-4.8l127.36-65.28c12.8-6.4 12.8-15.936 0-22.272L341.632 389.12a50.88 50.88 0 0 0-22.336-4.8z" fill="#FFFFFF" p-id="1855"></path><path d="M319.232 624.768a52.352 52.352 0 0 1-27.072-6.4L166.4 554.816a10.752 10.752 0 0 1-6.4-9.6c0-4.736 1.6-7.936 4.8-11.136 3.2-3.2 7.936-3.2 12.736 0l125.824 63.68c7.936 4.8 23.872 4.8 33.408 0l125.824-63.68c6.4-3.2 12.8 0 15.936 6.4 3.2 6.4 0 14.336-4.8 15.872l-125.824 63.744a90.24 90.24 0 0 1-28.672 4.736z" fill="#FFFFFF" p-id="1856"></path><path d="M319.232 702.848a52.352 52.352 0 0 1-27.072-6.4L166.4 632.768c-6.4-3.2-8-11.136-4.8-15.936 3.2-4.8 11.136-7.936 15.936-6.4l125.824 63.744c7.936 4.8 23.872 4.8 33.408 0l125.824-63.744c6.4-3.2 12.8 0 15.936 6.4 3.2 6.4 0 14.336-4.8 15.936l-125.824 63.68a62.464 62.464 0 0 1-28.672 6.4z" fill="#FFFFFF" p-id="1857"></path></svg>