<?xml version="1.0" encoding="UTF-8"?>
<svg width="144px" height="144px" viewBox="0 0 144 144" version="1.1" xmlns="http://www.w3.org/2000/svg" xmlns:xlink="http://www.w3.org/1999/xlink">
    <title>编组</title>
    <defs>
        <linearGradient x1="50%" y1="3.85205925%" x2="50%" y2="121.56033%" id="linearGradient-1">
            <stop stop-color="#779EEA" stop-opacity="0.4" offset="0%"></stop>
            <stop stop-color="#FFFFFF" stop-opacity="0" offset="100%"></stop>
        </linearGradient>
    </defs>
    <g id="页面-1" stroke="none" stroke-width="1" fill="none" fill-rule="evenodd">
        <g id="画布30" transform="translate(-1402.000000, -268.000000)">
            <g id="编组" transform="translate(1402.000000, 268.000000)">
                <rect id="Rectangle-3" x="0" y="0" width="144" height="144"></rect>
                <path d="M72,100 C106.372614,100 135.319819,115.997855 143.9999,135.999771 L9.95177594e-05,135.999771 C8.68018075,115.997855 37.6273857,100 72,100 Z" id="Combined-Shape" fill="url(#linearGradient-1)"></path>
                <path d="M101,33 C102.380712,33 103.630712,33.5596441 104.535534,34.4644661 C105.440356,35.3692881 106,36.6192881 106,38 L106,106 C106,107.380712 105.440356,108.630712 104.535534,109.535534 C103.630712,110.440356 102.380712,111 101,111 L44,111 C42.6192881,111 41.3692881,110.440356 40.4644661,109.535534 C39.5596441,108.630712 39,107.380712 39,106 L39,38 C39,36.6192881 39.5596441,35.3692881 40.4644661,34.4644661 C41.3692881,33.5596441 42.6192881,33 44,33 Z" id="Rectangle-4" stroke="#779EEA" stroke-width="2" fill="#F8FAFE" transform="translate(72.500000, 72.000000) scale(-1, 1) translate(-72.500000, -72.000000) "></path>
                <path d="M92.694964,32.5 L92.694964,93.7452389 C92.694964,95.2470584 92.0650908,96.6085984 91.0462047,97.6004567 C90.019977,98.5994619 88.5996466,99.224018 87.0254696,99.2447195 L42.7482145,99.8269946 L38.5,103.002084 L38.5,38 C38.5,36.4824466 39.1295884,35.1090799 40.1459112,34.1147604 C41.1662383,33.1165232 42.5760531,32.5 44.1327738,32.5 L92.694964,32.5 Z" id="Rectangle-4" stroke="#779EEA" fill="#FFFFFF"></path>
                <path d="M93.2290433,33 L93.2290433,93.6592714 C93.2290433,96.9729799 90.5427518,99.6592714 87.2290433,99.6592714 L44.7117787,99.6592714 C41.580123,99.6592714 39.0414144,102.19798 39.0414144,105.329636 C39.0414144,108.461291 41.580123,111 44.7117787,111 L90.1048001,111 L90.1048001,111" id="Path-15" stroke="#779EEA" stroke-width="2"></path>
                <path d="M101,33 C102.380712,33 103.630712,33.5596441 104.535534,34.4644661 C105.440356,35.3692881 106,36.6192881 106,38 L106,106 C106,107.380712 105.440356,108.630712 104.535534,109.535534 C103.630712,110.440356 102.380712,111 101,111 L44,111 C42.6192881,111 41.3692881,110.440356 40.4644661,109.535534 C39.5596441,108.630712 39,107.380712 39,106 L39,38 C39,36.6192881 39.5596441,35.3692881 40.4644661,34.4644661 C41.3692881,33.5596441 42.6192881,33 44,33 Z" id="Rectangle-4" stroke="#779EEA" stroke-width="2" transform="translate(72.500000, 72.000000) scale(-1, 1) translate(-72.500000, -72.000000) "></path>
                <g id="Group" transform="translate(48.000000, 32.000000)">
                    <path d="M27,1 L27,35.2389074 L13.62512,27.2590305 L1,35.1907751 L1,1 L27,1 Z" id="Rectangle-4" stroke="#779EEA" stroke-width="2" fill="#FFFFFF"></path>
                    <path d="M15,8 L15,13 L20,13 L20,15 L15,15 L15,20 L13,20 L13,14.999 L8,15 L8,13 L13,12.999 L13,8 L15,8 Z" id="Combined-Shape" fill="#779EEA"></path>
                </g>
            </g>
        </g>
    </g>
</svg>