<?xml version="1.0" encoding="UTF-8"?>
<svg width="68px" height="24px" viewBox="0 0 68 24" version="1.1" xmlns="http://www.w3.org/2000/svg" xmlns:xlink="http://www.w3.org/1999/xlink">
    <title>编组 26</title>
    <g id="知识网络" stroke="none" stroke-width="1" fill="none" fill-rule="evenodd">
        <g id="3" transform="translate(-32.000000, -965.000000)" fill-rule="nonzero">
            <g id="菜单" transform="translate(0.000000, 52.000000)">
                <g id="编组-25" transform="translate(16.000000, 892.000000)">
                    <g id="编组-26" transform="translate(16.000000, 21.000000)">
                        <path d="M1.66537467,13.8413108 C1.36109194,13.7627353 1.03943825,13.9085843 0.946940697,14.1671593 C0.85444257,14.4256854 1.02612872,14.6989383 1.33041087,14.7775627 C1.33041087,14.7775627 1.66537467,13.8413108 1.66537467,13.8413108 C1.66537467,13.8413108 1.66537467,13.8413108 1.66537467,13.8413108 Z M3.48056474,15.3956475 C3.48056474,15.3956475 2.96205582,15.6084765 2.96205582,15.6084765 C2.96205582,15.6084765 2.96205582,15.6084765 2.96205582,15.6084765 C2.96205582,15.6084765 3.48056474,15.3956475 3.48056474,15.3956475 C3.48056474,15.3956475 3.48056474,15.3956475 3.48056474,15.3956475 Z M7.08215834,18.6933228 C7.08215834,18.6933228 7.60422023,18.8997914 7.60422023,18.8997914 C7.60422023,18.8997914 7.08215834,18.6933228 7.08215834,18.6933228 C7.08215834,18.6933228 7.08215834,18.6933228 7.08215834,18.6933228 Z M12.086144,12.665614 C12.086144,12.665614 12.2925847,12.2088878 12.2925847,12.2088878 C12.2925847,12.2088878 12.086144,12.665614 12.086144,12.665614 C12.086144,12.665614 12.086144,12.665614 12.086144,12.665614 Z M17.3025016,20.2443325 C17.3025016,20.2443325 17.3025016,19.7550704 17.3025016,19.7550704 C17.3025016,19.7550704 17.3025016,20.2443325 17.3025016,20.2443325 C17.3025016,20.2443325 17.3025016,20.2443325 17.3025016,20.2443325 Z M22.85976,14.3034677 C22.85976,14.3034677 22.805285,14.7905281 22.805285,14.7905281 C22.805285,14.7905281 22.85976,14.3034677 22.85976,14.3034677 C22.85976,14.3034677 22.85976,14.3034677 22.85976,14.3034677 Z M29.1387261,18.0783203 C29.1387261,18.0783203 28.7111029,17.7506126 28.7111029,17.7506126 C28.7111029,17.7506126 29.1387261,18.0783203 29.1387261,18.0783203 C29.1387261,18.0783203 29.1387261,18.0783203 29.1387261,18.0783203 Z M37.0844205,11.7918898 C37.0844205,11.7918898 37.0844205,11.3026277 37.0844205,11.3026277 C37.0844205,11.3026277 37.0844205,11.7918898 37.0844205,11.7918898 C37.0844205,11.7918898 37.0844205,11.7918898 37.0844205,11.7918898 Z M43.5590014,0.522386736 C43.5590014,0.522386736 43.4870206,1.00780992 43.4870206,1.00780992 C43.4870206,1.00780992 43.5590014,0.522386736 43.5590014,0.522386736 C43.5590014,0.522386736 43.5590014,0.522386736 43.5590014,0.522386736 Z M59.6652383,1.52535134 C59.6652383,1.52535134 59.5362488,1.04850184 59.5362488,1.04850184 C59.5362488,1.04850184 59.6652383,1.52535134 59.6652383,1.52535134 C59.6652383,1.52535134 59.6652383,1.52535134 59.6652383,1.52535134 Z M67.2283983,2.85919229 C67.5272623,2.95109528 67.857222,2.81960121 67.965481,2.56549805 C68.0737401,2.3113949 67.9188375,2.03090585 67.6199735,1.93900286 C67.6199735,1.93900286 67.2283983,2.85919229 67.2283983,2.85919229 C67.2283983,2.85919229 67.2283983,2.85919229 67.2283983,2.85919229 Z M1.49302275,14.824434 C1.79233027,14.9157792 2.12212124,14.7836784 2.22963167,14.52936 C2.3371421,14.2750416 2.18166371,13.9948412 1.88235571,13.903496 C1.88235571,13.903496 1.49302275,14.824434 1.49302275,14.824434 C1.49302275,14.824434 1.49302275,14.824434 1.49302275,14.824434 Z M3.84046842,14.9604978 C3.65217833,14.7427272 3.29176215,14.6959048 3.03546466,14.8558935 C2.77916716,15.0158333 2.72403568,15.3220624 2.91233153,15.539833 C2.91233153,15.539833 3.84046842,14.9604978 3.84046842,14.9604978 C3.84046842,14.9604978 3.84046842,14.9604978 3.84046842,14.9604978 Z M3.07815211,15.8128412 C3.21632058,16.0562491 3.56053822,16.1583581 3.846987,16.0409841 C4.13344154,15.9236102 4.25364937,15.6311293 4.11548091,15.3877703 C4.11548091,15.3877703 3.07815211,15.8128412 3.07815211,15.8128412 C3.07815211,15.8128412 3.07815211,15.8128412 3.07815211,15.8128412 Z M5.30183862,17.3954573 C5.14836417,17.1588012 4.79814046,17.0726421 4.51959228,17.2030305 C4.2410441,17.3334188 4.13964916,17.630988 4.29312361,17.8676441 C4.29312361,17.8676441 5.30183862,17.3954573 5.30183862,17.3954573 C5.30183862,17.3954573 5.30183862,17.3954573 5.30183862,17.3954573 Z M4.56909199,18.2771565 C4.73231551,18.5090667 5.08590217,18.5846577 5.35885312,18.4460008 C5.63180408,18.307295 5.72075499,18.0068881 5.55753147,17.7749779 C5.55753147,17.7749779 4.56909199,18.2771565 4.56909199,18.2771565 C4.56909199,18.2771565 4.56909199,18.2771565 4.56909199,18.2771565 Z M6.46865788,18.6309908 C6.29705005,18.8584977 6.3750023,19.1611062 6.64276489,19.3069063 C6.91052747,19.4527064 7.26671695,19.3865093 7.43831902,19.1590024 C7.43831902,19.1590024 6.46865788,18.6309908 6.46865788,18.6309908 C6.46865788,18.6309908 6.46865788,18.6309908 6.46865788,18.6309908 Z M7.71731636,18.6895555 C7.8475727,18.4430163 7.71794979,18.153471 7.42778104,18.0427999 C7.13764685,17.9321778 6.79686125,18.0423107 6.66662794,18.2888009 C6.66662794,18.2888009 7.71731636,18.6895555 7.71731636,18.6895555 C7.71731636,18.6895555 7.71731636,18.6895555 7.71731636,18.6895555 Z M7.62788749,16.2318453 C7.51738267,16.4852341 7.66957874,16.7667066 7.96780932,16.860596 C8.26603991,16.9544854 8.59738164,16.8251734 8.70782888,16.5717846 C8.70782888,16.5717846 7.62788749,16.2318453 7.62788749,16.2318453 C7.62788749,16.2318453 7.62788749,16.2318453 7.62788749,16.2318453 Z M8.89140856,16.1513127 C9.00237406,15.8981196 8.85075384,15.6164025 8.552696,15.5221217 C8.25463816,15.427792 7.9230661,15.5566636 7.81210059,15.8099057 C7.81210059,15.8099057 8.89140856,16.1513127 8.89140856,16.1513127 C8.89140856,16.1513127 8.89140856,16.1513127 8.89140856,16.1513127 Z M8.87580313,13.682007 C8.72516185,13.9199841 8.83008097,14.2166726 9.11011483,14.3446636 C9.39020627,14.4726545 9.73939922,14.383511 9.89004051,14.1455828 C9.89004051,14.1455828 8.87580313,13.682007 8.87580313,13.682007 C8.87580313,13.682007 8.87580313,13.682007 8.87580313,13.682007 Z M10.1338537,13.7931184 C10.3069529,13.5664433 10.2309413,13.2634433 9.96415187,13.1163711 C9.69730489,12.9693479 9.34074111,13.0339305 9.16764183,13.2606056 C9.16764183,13.2606056 10.1338537,13.7931184 10.1338537,13.7931184 C10.1338537,13.7931184 10.1338537,13.7931184 10.1338537,13.7931184 Z M11.9831252,12.1231202 C11.6758538,12.0534493 11.3602902,12.2085943 11.2782898,12.4696645 C11.1962893,12.7307348 11.3788901,12.9988993 11.6861614,13.0685702 C11.6861614,13.0685702 11.9831252,12.1231202 11.9831252,12.1231202 C11.9831252,12.1231202 11.9831252,12.1231202 11.9831252,12.1231202 Z M12.0504415,13.1948977 C12.3209164,13.3370283 12.6758102,13.2659875 12.8430934,13.0361322 C13.0103767,12.8063258 12.9267062,12.5048425 12.6562314,12.3627118 C12.6562314,12.3627118 12.0504415,13.1948977 12.0504415,13.1948977 C12.0504415,13.1948977 12.0504415,13.1948977 12.0504415,13.1948977 Z M14.4689943,14.7227164 C14.3590077,14.4691808 14.0278964,14.3393796 13.729493,14.4328775 C13.4310897,14.5263266 13.2783753,14.8076034 13.3883619,15.061139 C13.3883619,15.061139 14.4689943,14.7227164 14.4689943,14.7227164 C14.4689943,14.7227164 14.4689943,14.7227164 14.4689943,14.7227164 Z M13.581443,15.5282375 C13.6828495,15.7843172 14.0093541,15.9220934 14.3108094,15.8359344 C14.6122648,15.7497753 14.774423,15.4723148 14.6730165,15.216235 C14.6730165,15.216235 13.581443,15.5282375 13.581443,15.5282375 C13.581443,15.5282375 13.581443,15.5282375 13.581443,15.5282375 Z M15.5804921,17.637006 C15.4771277,17.3815133 15.1494714,17.2455474 14.8487071,17.3334188 C14.5480004,17.4212414 14.3879728,17.6995826 14.4913947,17.9551242 C14.4913947,17.9551242 15.5804921,17.637006 15.5804921,17.637006 C15.5804921,17.637006 15.5804921,17.637006 15.5804921,17.637006 Z M14.7018664,18.4497681 C14.8154808,18.7021295 15.1483773,18.828457 15.4454562,18.7319256 C15.7424775,18.6353941 15.8911609,18.3525517 15.7775465,18.1001414 C15.7775465,18.1001414 14.7018664,18.4497681 14.7018664,18.4497681 C14.7018664,18.4497681 14.7018664,18.4497681 14.7018664,18.4497681 Z M17.1386735,19.7390715 C16.829329,19.676446 16.5187754,19.8387831 16.4450671,20.1016147 C16.3713012,20.3644953 16.5623669,20.6283543 16.8717113,20.6909798 C16.8717113,20.6909798 17.1386735,19.7390715 17.1386735,19.7390715 C17.1386735,19.7390715 17.1386735,19.7390715 17.1386735,19.7390715 Z M17.6807172,20.6987102 C17.9915012,20.641173 18.1884981,20.3804941 18.1207786,20.1164883 C18.0530016,19.8524825 17.7462485,19.6851059 17.4354644,19.7426432 C17.4354644,19.7426432 17.6807172,20.6987102 17.6807172,20.6987102 C17.6807172,20.6987102 17.6807172,20.6987102 17.6807172,20.6987102 Z M18.887863,18.4879795 C18.720407,18.717688 18.8037895,19.0192692 19.0741491,19.1615955 C19.3444512,19.3038729 19.6994026,19.2330278 19.8669161,19.0033682 C19.8669161,19.0033682 18.887863,18.4879795 18.887863,18.4879795 C18.887863,18.4879795 18.887863,18.4879795 18.887863,18.4879795 Z M20.1409036,18.6105396 C20.2982247,18.3756938 20.2016554,18.0769993 19.9252493,17.9433329 C19.6488433,17.8096665 19.2972894,17.8916669 19.1399683,18.1265127 C19.1399683,18.1265127 20.1409036,18.6105396 20.1409036,18.6105396 C20.1409036,18.6105396 20.1409036,18.6105396 20.1409036,18.6105396 Z M20.3091658,16.202832 C20.1657802,16.4440382 20.2796825,16.7383294 20.5635745,16.8601067 C20.8474665,16.981933 21.1937803,16.8852058 21.3371659,16.6439996 C21.3371659,16.6439996 20.3091658,16.202832 20.3091658,16.202832 C20.3091658,16.202832 20.3091658,16.202832 20.3091658,16.202832 Z M21.569059,16.2596354 C21.7163028,16.0201416 21.6071224,15.7245783 21.3252459,15.599474 C21.0433117,15.4743697 20.6954432,15.5671338 20.5481994,15.8066276 C20.5481994,15.8066276 21.569059,16.2596354 21.569059,16.2596354 C21.569059,16.2596354 21.569059,16.2596354 21.569059,16.2596354 Z M22.421023,13.8674863 C22.1199708,13.9546239 21.9590794,14.2325736 22.06158,14.4883599 C22.1641382,14.7441461 22.4913338,14.8808459 22.792386,14.7937572 C22.792386,14.7937572 22.421023,13.8674863 22.421023,13.8674863 C22.421023,13.8674863 22.421023,13.8674863 22.421023,13.8674863 Z M23.050365,14.8281034 C23.3579819,14.8967958 23.6728544,14.7406234 23.7537032,14.4793085 C23.8345519,14.2179447 23.6507419,13.9504162 23.3431826,13.8817238 C23.3431826,13.8817238 23.050365,14.8281034 23.050365,14.8281034 C23.050365,14.8281034 23.050365,14.8281034 23.050365,14.8281034 Z M26.2853521,15.8239475 C26.0792568,15.6181638 25.7158405,15.5933093 25.4736397,15.7684162 C25.2314389,15.9435231 25.2021859,16.2523453 25.4082812,16.458129 C25.4082812,16.458129 26.2853521,15.8239475 26.2853521,15.8239475 C26.2853521,15.8239475 26.2853521,15.8239475 26.2853521,15.8239475 Z M25.8420659,16.8998837 C26.044303,17.1084072 26.4072586,17.1382033 26.6526842,16.9663744 C26.8981673,16.7945456 26.9331787,16.4862126 26.7309416,16.2776402 C26.7309416,16.2776402 25.8420659,16.8998837 25.8420659,16.8998837 C25.8420659,16.8998837 25.8420659,16.8998837 25.8420659,16.8998837 Z M28.6156277,17.8189136 C28.3302384,17.9381468 28.2127083,18.2314104 28.3530995,18.4738887 C28.4934332,18.7163181 28.8385952,18.8162254 29.1239844,18.6969433 C29.1239844,18.6969433 28.6156277,17.8189136 28.6156277,17.8189136 C28.6156277,17.8189136 28.6156277,17.8189136 28.6156277,17.8189136 Z M29.7876468,18.1919759 C29.9944331,17.9866816 29.9662166,17.6778593 29.7245917,17.5021164 C29.4829667,17.3264224 29.1194928,17.3503962 28.9127065,17.5556906 C28.9127065,17.5556906 29.7876468,18.1919759 29.7876468,18.1919759 C29.7876468,18.1919759 29.7876468,18.1919759 29.7876468,18.1919759 Z M30.6542949,15.3945221 C30.4949007,15.6283405 30.5887636,15.927671 30.8639604,16.0630988 C31.1391571,16.1985265 31.4915172,16.1187768 31.6509114,15.8849585 C31.6509114,15.8849585 30.6542949,15.3945221 30.6542949,15.3945221 C30.6542949,15.3945221 30.6542949,15.3945221 30.6542949,15.3945221 Z M31.9704483,15.411206 C32.1279421,15.176458 32.0316607,14.8776657 31.7554274,14.7438036 C31.4791365,14.6099904 31.1274674,14.691795 30.969916,14.926543 C30.969916,14.926543 31.9704483,15.411206 31.9704483,15.411206 C31.9704483,15.411206 31.9704483,15.411206 31.9704483,15.411206 Z M32.8778662,12.5956495 C32.6503495,12.7844557 32.6459731,13.0942076 32.868192,13.287515 C33.0903533,13.4808714 33.454979,13.4845409 33.6824957,13.2957835 C33.6824957,13.2957835 32.8778662,12.5956495 32.8778662,12.5956495 C32.8778662,12.5956495 32.8778662,12.5956495 32.8778662,12.5956495 Z M34.1081034,12.9861296 C34.3634335,12.8249666 34.4166416,12.5184929 34.226958,12.301603 C34.0373319,12.0847131 33.6766221,12.0394564 33.4213496,12.2006193 C33.4213496,12.2006193 34.1081034,12.9861296 34.1081034,12.9861296 C34.1081034,12.9861296 34.1081034,12.9861296 34.1081034,12.9861296 Z M36.7415618,11.3077649 C36.4236949,11.3174523 36.1753326,11.5441764 36.1867343,11.814249 C36.1981361,12.0842728 36.4650406,12.2953404 36.78285,12.2856531 C36.78285,12.2856531 36.7415618,11.3077649 36.7415618,11.3077649 C36.7415618,11.3077649 36.7415618,11.3077649 36.7415618,11.3077649 Z M37.462924,12.2478331 C37.7741111,12.1921551 37.9732386,11.9326505 37.9077073,11.6682532 C37.8421185,11.4038071 37.5367474,11.2346203 37.2255027,11.2903472 C37.2255027,11.2903472 37.462924,12.2478331 37.462924,12.2478331 C37.462924,12.2478331 37.462924,12.2478331 37.462924,12.2478331 Z M38.453782,9.97110095 C38.3309541,10.2203311 38.4691571,10.5069897 38.762493,10.6113493 C39.0558865,10.7157089 39.3932746,10.598286 39.5161025,10.349007 C39.5161025,10.349007 38.453782,9.97110095 38.453782,9.97110095 C38.453782,9.97110095 38.453782,9.97110095 38.453782,9.97110095 Z M39.7150573,9.9144444 C39.8235466,9.66041953 39.6690472,9.3797788 39.370068,9.28765076 C39.0710888,9.19552271 38.7408412,9.32679172 38.6324094,9.58081659 C38.6324094,9.58081659 39.7150573,9.9144444 39.7150573,9.9144444 C39.7150573,9.9144444 39.7150573,9.9144444 39.7150573,9.9144444 Z M39.3344807,7.50556257 C39.2596783,7.76819845 39.4495923,8.0326446 39.7587064,8.09619975 C40.0678205,8.15980382 40.3790652,7.99844518 40.4538676,7.7358093 C40.4538676,7.7358093 39.3344807,7.50556257 39.3344807,7.50556257 C39.3344807,7.50556257 39.3344807,7.50556257 39.3344807,7.50556257 Z M40.5750255,7.30217632 C40.6472942,7.03905118 40.4548465,6.77592603 40.145099,6.71452364 C39.8354091,6.65312125 39.5257767,6.81668156 39.4535081,7.07980671 C39.4535081,7.07980671 40.5750255,7.30217632 40.5750255,7.30217632 C40.5750255,7.30217632 40.5750255,7.30217632 40.5750255,7.30217632 Z M40.0298146,4.92310522 C39.9579491,5.18632333 40.1507999,5.44919406 40.460605,5.51030289 C40.77041,5.5713628 41.079812,5.40750893 41.1517352,5.14428593 C41.1517352,5.14428593 40.0298146,4.92310522 40.0298146,4.92310522 C40.0298146,4.92310522 40.0298146,4.92310522 40.0298146,4.92310522 Z M41.2703595,4.71688615 C41.3447012,4.45415242 41.1542689,4.18998514 40.8450397,4.12684587 C40.5358104,4.0637066 40.2248536,4.22551046 40.1505695,4.4882442 C40.1505695,4.4882442 41.2703595,4.71688615 41.2703595,4.71688615 C41.2703595,4.71688615 41.2703595,4.71688615 41.2703595,4.71688615 Z M40.8822393,2.31104263 C40.7744986,2.56527299 40.929689,2.84558592 41.2288985,2.93714642 C41.5281081,3.02870693 41.8580678,2.89684101 41.9658085,2.64261554 C41.9658085,2.64261554 40.8822393,2.31104263 40.8822393,2.31104263 C40.8822393,2.31104263 40.8822393,2.31104263 40.8822393,2.31104263 Z M42.143457,2.25261496 C42.2660546,2.003287 42.1275061,1.7167262 41.834055,1.6125672 C41.5406039,1.5084082 41.203331,1.6260904 41.0807334,1.87542325 C41.0807334,1.87542325 42.143457,2.25261496 42.143457,2.25261496 C42.143457,2.25261496 42.143457,2.25261496 42.143457,2.25261496 Z M43.2469505,0.0302422698 C42.9301201,0.0538423154 42.6958084,0.291186774 42.7236217,0.560366097 C42.7513775,0.829545322 43.0307204,1.02862802 43.3475508,1.00502602 C43.3475508,1.00502602 43.2469505,0.0302422698 43.2469505,0.0302422698 C43.2469505,0.0302422698 43.2469505,0.0302422698 43.2469505,0.0302422698 Z M43.7093547,1.04604086 C44.0150713,1.12047719 44.3339172,0.970249756 44.4215609,0.71049318 C44.5091471,0.450737094 44.3323048,0.179818493 44.0265882,0.105379715 C44.0265882,0.105379715 43.7093547,1.04604086 43.7093547,1.04604086 C43.7093547,1.04604086 43.7093547,1.04604086 43.7093547,1.04604086 Z M46.46996,2.13824505 C46.2695656,1.9284299 45.9068978,1.89637345 45.6599751,2.06664155 C45.4130524,2.23691454 45.3752769,2.54503222 45.5756713,2.75484737 C45.5756713,2.75484737 46.46996,2.13824505 46.46996,2.13824505 C46.46996,2.13824505 46.46996,2.13824505 46.46996,2.13824505 Z M46.0472891,3.1938182 C46.2765909,3.38104412 46.6411589,3.37487452 46.8615352,3.18003569 C47.0818538,2.98520174 47.0745981,2.67547928 46.8452963,2.48825336 C46.8452963,2.48825336 46.0472891,3.1938182 46.0472891,3.1938182 C46.0472891,3.1938182 46.0472891,3.1938182 46.0472891,3.1938182 Z M49.3306472,3.29966026 C49.012953,3.28791797 48.7441482,3.49723897 48.7303279,3.76719421 C48.7165075,4.03714946 48.9628544,4.26551253 49.2806062,4.27725971 C49.2806062,4.27725971 49.3306472,3.29966026 49.3306472,3.29966026 C49.3306472,3.29966026 49.3306472,3.29966026 49.3306472,3.29966026 Z M49.7921877,4.29817077 C50.1031445,4.35470011 50.4092066,4.18632057 50.4757168,3.92208969 C50.5422845,3.65785882 50.3440784,3.39782581 50.0331216,3.34130136 C50.0331216,3.34130136 49.7921877,4.29817077 49.7921877,4.29817077 C49.7921877,4.29817077 49.7921877,4.29817077 49.7921877,4.29817077 Z M52.1172231,5.58599173 C52.0248574,5.3274314 51.703305,5.18141114 51.3989705,5.25985453 C51.0946359,5.33829792 50.9228035,5.61153121 51.0151116,5.8700573 C51.0151116,5.8700573 52.1172231,5.58599173 52.1172231,5.58599173 C52.1172231,5.58599173 52.1172231,5.58599173 52.1172231,5.58599173 Z M51.1648891,6.32830016 C51.2437224,6.59010429 51.5573857,6.74803809 51.8655208,6.68105811 C52.1735984,6.61407814 52.3594814,6.34757708 52.2807057,6.08582187 C52.2807057,6.08582187 51.1648891,6.32830016 51.1648891,6.32830016 C51.1648891,6.32830016 51.1648891,6.32830016 51.1648891,6.32830016 Z M52.8887414,8.53604635 C52.8242467,8.27145342 52.519509,8.10138592 52.2080915,8.15618328 C51.8966741,8.21098063 51.6965101,8.46989812 51.7610048,8.73449105 C51.7610048,8.73449105 52.8887414,8.53604635 52.8887414,8.53604635 C52.8887414,8.53604635 52.8887414,8.53604635 52.8887414,8.53604635 Z M51.8874606,9.23011354 C51.9583472,9.49353224 52.2671733,9.65821785 52.5772088,9.59798969 C52.8871866,9.53776153 53.0810739,9.27537028 53.0101297,9.01195158 C53.0101297,9.01195158 51.8874606,9.23011354 51.8874606,9.23011354 C51.8874606,9.23011354 51.8874606,9.23011354 51.8874606,9.23011354 Z M53.9279705,10.8007916 C53.6292792,10.7079786 53.2985709,10.8384158 53.189333,11.0921961 C53.0800374,11.3459763 53.2336155,11.6269595 53.5322492,11.7197725 C53.5322492,11.7197725 53.9279705,10.8007916 53.9279705,10.8007916 C53.9279705,10.8007916 53.9279705,10.8007916 53.9279705,10.8007916 Z M54.5843772,11.6374297 C54.8498422,11.4885962 54.9229746,11.1851069 54.7478023,10.9596061 C54.57263,10.7340562 54.2154328,10.67192 53.9499678,10.8207535 C53.9499678,10.8207535 54.5843772,11.6374297 54.5843772,11.6374297 C54.5843772,11.6374297 54.5843772,11.6374297 54.5843772,11.6374297 Z M55.1082242,9.07120121 C54.9841294,9.31999098 55.1208928,9.60718782 55.4137105,9.7126238 C55.7065281,9.81805977 56.0444921,9.70186003 56.1685869,9.45307026 C56.1685869,9.45307026 55.1082242,9.07120121 55.1082242,9.07120121 C55.1082242,9.07120121 55.1082242,9.07120121 55.1082242,9.07120121 Z M56.3799799,9.01870339 C56.49918,8.76820121 56.3567733,8.48301034 56.0618826,8.38173309 C55.7670495,8.28050477 55.4313889,8.40149928 55.3122464,8.65200147 C55.3122464,8.65200147 56.3799799,9.01870339 56.3799799,9.01870339 C56.3799799,9.01870339 56.3799799,9.01870339 56.3799799,9.01870339 Z M56.2674596,6.5092782 C56.1583944,6.76310737 56.3120877,7.04399272 56.6108365,7.13670789 C56.9095854,7.22937412 57.2401785,7.09879008 57.3493013,6.84496091 C57.3493013,6.84496091 56.2674596,6.5092782 56.2674596,6.5092782 C56.2674596,6.5092782 56.2674596,6.5092782 56.2674596,6.5092782 Z M57.5355298,6.41093652 C57.6444223,6.15705843 57.4904411,5.87627092 57.1916347,5.78375147 C56.8927707,5.69123201 56.5622927,5.82206069 56.4534578,6.0759877 C56.4534578,6.0759877 57.5355298,6.41093652 57.5355298,6.41093652 C57.5355298,6.41093652 57.5355298,6.41093652 57.5355298,6.41093652 Z M57.4079224,3.90222076 C57.2917743,4.15376018 57.4375785,4.43768875 57.7336208,4.53639737 C58.0297208,4.635106 58.3638842,4.51121016 58.4800323,4.25967074 C58.4800323,4.25967074 57.4079224,3.90222076 57.4079224,3.90222076 C57.4079224,3.90222076 57.4079224,3.90222076 57.4079224,3.90222076 Z M58.6787567,3.83757456 C58.7989933,3.58742465 58.6577959,3.30180812 58.3633659,3.19964042 C58.0689359,3.09747271 57.7327571,3.21743977 57.6125204,3.46758969 C57.6125204,3.46758969 58.6787567,3.83757456 58.6787567,3.83757456 C58.6787567,3.83757456 58.6787567,3.83757456 58.6787567,3.83757456 Z M59.0569723,1.26724603 C58.8170173,1.44459374 58.7917377,1.75362635 59.0004818,1.95749696 C59.2091684,2.16136758 59.573103,2.18287065 59.8126549,2.00552293 C59.8126549,2.00552293 59.0569723,1.26724603 59.0569723,1.26724603 C59.0569723,1.26724603 59.0569723,1.26724603 59.0569723,1.26724603 Z M59.9485545,1.98212642 C60.2658456,1.96406775 60.5053975,1.73087566 60.4840912,1.46126779 C60.4633607,1.19165993 60.1886822,0.987732558 59.8713911,1.00578437 C59.8713911,1.00578437 59.9485545,1.98212642 59.9485545,1.98212642 C59.9485545,1.98212642 59.9485545,1.98212642 59.9485545,1.98212642 Z M62.0365717,2.7117336 C61.9288885,2.45749834 61.5989288,2.32561775 61.3000648,2.41716358 C61.0006249,2.5087094 60.8451465,2.78901743 60.9534056,3.04325269 C60.9534056,3.04325269 62.0365717,2.7117336 62.0365717,2.7117336 C62.0365717,2.7117336 62.0365717,2.7117336 62.0365717,2.7117336 Z M61.108884,3.42826769 C61.209657,3.68450892 61.5361616,3.82270099 61.8379049,3.73693335 C62.1396481,3.65116082 62.3020367,3.37391068 62.2012636,3.11767434 C62.2012636,3.11767434 61.108884,3.42826769 61.108884,3.42826769 C61.108884,3.42826769 61.108884,3.42826769 61.108884,3.42826769 Z M63.0575465,4.51892582 C62.7517723,4.44534081 62.4333295,4.59645918 62.3469526,4.85645794 C62.2599999,5.1164567 62.4379363,5.38688164 62.7442863,5.46044709 C62.7442863,5.46044709 63.0575465,4.51892582 63.0575465,4.51892582 C63.0575465,4.51892582 63.0575465,4.51892582 63.0575465,4.51892582 Z M63.4997961,5.47551636 C63.8113287,5.41954478 64.0099956,5.15990318 63.9443491,4.89554998 C63.8781269,4.6311919 63.5729285,4.4622497 63.2613959,4.51819682 C63.2613959,4.51819682 63.4997961,5.47551636 63.4997961,5.47551636 C63.4997961,5.47551636 63.4997961,5.47551636 63.4997961,5.47551636 Z M64.5230743,3.33261696 C64.3497447,3.55905234 64.4251805,3.8621453 64.6912213,4.00959421 C64.9578379,4.15703823 65.3148624,4.09300851 65.488192,3.86656823 C65.488192,3.86656823 64.5230743,3.33261696 64.5230743,3.33261696 C64.5230743,3.33261696 64.5230743,3.33261696 64.5230743,3.33261696 Z M65.7415642,3.54497138 C65.9241073,3.323502 65.8601884,3.01846667 65.5993302,2.86365926 C65.3390479,2.70885673 64.9797201,2.76290062 64.7977528,2.98437 C64.7977528,2.98437 65.7415642,3.54497138 65.7415642,3.54497138 C65.7415642,3.54497138 65.7415642,3.54497138 65.7415642,3.54497138 Z M67.3239887,1.86467905 C67.0136078,1.80463681 66.7049544,1.96953281 66.6347012,2.23298576 C66.5638721,2.4964436 66.7579322,2.75869297 67.0683131,2.8187401 C67.0683131,2.8187401 67.3239887,1.86467905 67.3239887,1.86467905 C67.3239887,1.86467905 67.3239887,1.86467905 67.3239887,1.86467905 Z M1.49789277,14.3094367 C1.33041087,14.7775627 1.33038899,14.7775627 1.33036769,14.7775137 C1.33036078,14.7775137 1.33033947,14.7775137 1.33032565,14.7775137 C1.33029858,14.7775137 1.3302721,14.7775137 1.33024733,14.7775137 C1.33019666,14.7775137 1.33015117,14.7774648 1.33010913,14.7774648 C1.33002563,14.7774648 1.32995999,14.7774159 1.32991104,14.7774159 C1.32981315,14.7774159 1.3297832,14.777367 1.32982178,14.7774159 C1.32989837,14.7774159 1.33024503,14.7775137 1.330856,14.7776605 C1.33207852,14.778003 1.33435484,14.7785901 1.33763428,14.7794708 C1.3441949,14.7812321 1.35475015,14.7841188 1.36888659,14.7880329 C1.39718654,14.7959589 1.43966324,14.8081415 1.49302275,14.824434 C1.49302275,14.824434 1.88235571,13.903496 1.88235571,13.903496 C1.81820187,13.8839255 1.76578031,13.8688562 1.72856052,13.8584839 C1.70993651,13.8532488 1.6950768,13.8492368 1.68441214,13.8463502 C1.67907865,13.8449313 1.67478975,13.843806 1.67160014,13.8429742 C1.67000505,13.8425339 1.66868463,13.8421914 1.66764466,13.8418979 C1.66712467,13.8418 1.66667551,13.8416532 1.6662966,13.8415554 C1.66610715,13.8415065 1.66593555,13.8414575 1.6657818,13.8414086 C1.66570521,13.8414086 1.66563265,13.8414086 1.6655647,13.8413587 C1.66553073,13.8413587 1.6654979,13.8413587 1.66546623,13.8413587 C1.66545068,13.8413587 1.66542765,13.8413587 1.66541959,13.8413587 C1.66539713,13.8413108 1.66537467,13.8413108 1.49789277,14.3094367 C1.49789277,14.3094367 1.49789277,14.3094367 1.49789277,14.3094367 Z M2.91233153,15.539833 C2.93488165,15.5659107 2.95090169,15.588857 2.96205582,15.6084765 C2.96205582,15.6084765 3.99907366,15.1828184 3.99907366,15.1828184 C3.95342635,15.1025305 3.89923926,15.0284563 3.84046842,14.9604978 C3.84046842,14.9604978 2.91233153,15.539833 2.91233153,15.539833 C2.91233153,15.539833 2.91233153,15.539833 2.91233153,15.539833 Z M2.96205582,15.6084765 C3.00074115,15.6765328 3.03943223,15.7446381 3.07815211,15.8128412 C3.07815211,15.8128412 4.11548091,15.3877703 4.11548091,15.3877703 C4.07674375,15.3195183 4.03792022,15.2511194 3.99907366,15.1828184 C3.99907366,15.1828184 2.96205582,15.6084765 2.96205582,15.6084765 C2.96205582,15.6084765 2.96205582,15.6084765 2.96205582,15.6084765 Z M4.29312361,17.8676441 C4.38518985,18.0096279 4.47724457,18.1466703 4.56909199,18.2771565 C4.56909199,18.2771565 5.55753147,17.7749779 5.55753147,17.7749779 C5.47387834,17.6561361 5.3886186,17.5292704 5.30183862,17.3954573 C5.30183862,17.3954573 4.29312361,17.8676441 4.29312361,17.8676441 C4.29312361,17.8676441 4.29312361,17.8676441 4.29312361,17.8676441 Z M7.43831902,19.1590024 C7.49843734,19.0792527 7.55343062,18.9924576 7.60422023,18.8997914 C7.60422023,18.8997914 6.56011373,18.4868053 6.56011373,18.4868053 C6.52720413,18.5468866 6.49639062,18.5942472 6.46865788,18.6309908 C6.46865788,18.6309908 7.43831902,19.1590024 7.43831902,19.1590024 C7.43831902,19.1590024 7.43831902,19.1590024 7.43831902,19.1590024 Z M7.60422023,18.8997914 C7.64245639,18.8299737 7.6801743,18.7598624 7.71731636,18.6895555 C7.71731636,18.6895555 6.66662794,18.2888009 6.66662794,18.2888009 C6.63153589,18.3552427 6.59604075,18.4212441 6.56011373,18.4868053 C6.56011373,18.4868053 7.60422023,18.8997914 7.60422023,18.8997914 C7.60422023,18.8997914 7.60422023,18.8997914 7.60422023,18.8997914 Z M8.70782888,16.5717846 C8.76984749,16.4297029 8.83077198,16.289725 8.89140856,16.1513127 C8.89140856,16.1513127 7.81210059,15.8099057 7.81210059,15.8099057 C7.75100335,15.9492475 7.68956059,16.0904485 7.62788749,16.2318453 C7.62788749,16.2318453 8.70782888,16.5717846 8.70782888,16.5717846 C8.70782888,16.5717846 8.70782888,16.5717846 8.70782888,16.5717846 Z M9.89004051,14.1455828 C9.9707741,14.0180811 10.0519108,13.9004625 10.1338537,13.7931184 C10.1338537,13.7931184 9.16764183,13.2606056 9.16764183,13.2606056 C9.06577469,13.3940274 8.96880224,13.5351306 8.87580313,13.682007 C8.87580313,13.682007 9.89004051,14.1455828 9.89004051,14.1455828 C9.89004051,14.1455828 9.89004051,14.1455828 9.89004051,14.1455828 Z M11.6861614,13.0685702 C11.7470859,13.0823674 11.8115231,13.1001276 11.8797032,13.1223401 C11.8797032,13.1223401 12.2925847,12.2088878 12.2925847,12.2088878 C12.1889901,12.1750798 12.0858561,12.1464091 11.9831252,12.1231202 C11.9831252,12.1231202 11.6861614,13.0685702 11.6861614,13.0685702 C11.6861614,13.0685702 11.6861614,13.0685702 11.6861614,13.0685702 Z M11.8797032,13.1223401 C11.9364241,13.1408832 11.9932601,13.164857 12.0504415,13.1948977 C12.0504415,13.1948977 12.6562314,12.3627118 12.6562314,12.3627118 C12.5416957,12.3024837 12.4205377,12.2506219 12.2925847,12.2088878 C12.2925847,12.2088878 11.8797032,13.1223401 11.8797032,13.1223401 C11.8797032,13.1223401 11.8797032,13.1223401 11.8797032,13.1223401 Z M13.3883619,15.061139 C13.4540083,15.2123699 13.5181576,15.3683956 13.581443,15.5282375 C13.581443,15.5282375 14.6730165,15.216235 14.6730165,15.216235 C14.6070246,15.0494945 14.5391899,14.8844664 14.4689943,14.7227164 C14.4689943,14.7227164 13.3883619,15.061139 13.3883619,15.061139 C13.3883619,15.061139 13.3883619,15.061139 13.3883619,15.061139 Z M14.4913947,17.9551242 C14.5594021,18.1232346 14.6293674,18.288752 14.7018664,18.4497681 C14.7018664,18.4497681 15.7775465,18.1001414 15.7775465,18.1001414 C15.7106908,17.9516504 15.6452171,17.7969457 15.5804921,17.637006 C15.5804921,17.637006 14.4913947,17.9551242 14.4913947,17.9551242 C14.4913947,17.9551242 14.4913947,17.9551242 14.4913947,17.9551242 Z M16.8717113,20.6909798 C17.0112963,20.7192103 17.1551427,20.7335946 17.3025016,20.7335946 C17.3025016,20.7335946 17.3025016,19.7550704 17.3025016,19.7550704 C17.2439381,19.7550704 17.189751,19.7494439 17.1386735,19.7390715 C17.1386735,19.7390715 16.8717113,20.6909798 16.8717113,20.6909798 C16.8717113,20.6909798 16.8717113,20.6909798 16.8717113,20.6909798 Z M17.3025016,20.7335946 C17.4314911,20.7335946 17.5577741,20.7214609 17.6807172,20.6987102 C17.6807172,20.6987102 17.4354644,19.7426432 17.4354644,19.7426432 C17.3901454,19.7510095 17.3460356,19.7550704 17.3025016,19.7550704 C17.3025016,19.7550704 17.3025016,20.7335946 17.3025016,20.7335946 C17.3025016,20.7335946 17.3025016,20.7335946 17.3025016,20.7335946 Z M19.8669161,19.0033682 C19.9600304,18.8756708 20.051302,18.744255 20.1409036,18.6105396 C20.1409036,18.6105396 19.1399683,18.1265127 19.1399683,18.1265127 C19.0562403,18.2514702 18.972282,18.372269 18.887863,18.4879795 C18.887863,18.4879795 19.8669161,19.0033682 19.8669161,19.0033682 C19.8669161,19.0033682 19.8669161,19.0033682 19.8669161,19.0033682 Z M21.3371659,16.6439996 C21.4154809,16.5122414 21.4927019,16.383859 21.569059,16.2596354 C21.569059,16.2596354 20.5481994,15.8066276 20.5481994,15.8066276 C20.4686751,15.9360374 20.388978,16.0686274 20.3091658,16.202832 C20.3091658,16.202832 21.3371659,16.6439996 21.3371659,16.6439996 C21.3371659,16.6439996 21.3371659,16.6439996 21.3371659,16.6439996 Z M22.792386,14.7937572 C22.8006782,14.7913599 22.8051698,14.7907727 22.8063215,14.790626 C22.8073004,14.7905281 22.806667,14.790626 22.805285,14.7905281 C22.805285,14.7905281 22.914235,13.8164073 22.914235,13.8164073 C22.7403872,13.8023655 22.574198,13.8231591 22.421023,13.8674863 C22.421023,13.8674863 22.792386,14.7937572 22.792386,14.7937572 C22.792386,14.7937572 22.792386,14.7937572 22.792386,14.7937572 Z M22.805285,14.7905281 C22.8856731,14.7970353 22.9672704,14.8095115 23.050365,14.8281034 C23.050365,14.8281034 23.3431826,13.8817238 23.3431826,13.8817238 C23.2035976,13.8505089 23.0604999,13.8281985 22.914235,13.8164073 C22.914235,13.8164073 22.805285,14.7905281 22.805285,14.7905281 C22.805285,14.7905281 22.805285,14.7905281 22.805285,14.7905281 Z M25.4082812,16.458129 C25.554546,16.6041737 25.6987954,16.7520776 25.8420659,16.8998837 C25.8420659,16.8998837 26.7309416,16.2776402 26.7309416,16.2776402 C26.5867498,16.1289535 26.4378361,15.9761569 26.2853521,15.8239475 C26.2853521,15.8239475 25.4082812,16.458129 25.4082812,16.458129 C25.4082812,16.458129 25.4082812,16.458129 25.4082812,16.458129 Z M29.1239844,18.6969433 C29.2934559,18.6260982 29.4398359,18.5251145 29.5662916,18.4060281 C29.5662916,18.4060281 28.7111029,17.7506126 28.7111029,17.7506126 C28.6634229,17.7955269 28.6304845,17.8127 28.6156277,17.8189136 C28.6156277,17.8189136 29.1239844,18.6969433 29.1239844,18.6969433 C29.1239844,18.6969433 29.1239844,18.6969433 29.1239844,18.6969433 Z M29.5662916,18.4060281 C29.6419002,18.3348405 29.7156661,18.2634571 29.7876468,18.1919759 C29.7876468,18.1919759 28.9127065,17.5556906 28.9127065,17.5556906 C28.8470601,17.6208603 28.7799165,17.6858343 28.7111029,17.7506126 C28.7111029,17.7506126 29.5662916,18.4060281 29.5662916,18.4060281 C29.5662916,18.4060281 29.5662916,18.4060281 29.5662916,18.4060281 Z M31.6509114,15.8849585 C31.7605524,15.7240891 31.8669687,15.5653725 31.9704483,15.411206 C31.9704483,15.411206 30.969916,14.926543 30.969916,14.926543 C30.8660334,15.0813944 30.7616325,15.2370776 30.6542949,15.3945221 C30.6542949,15.3945221 31.6509114,15.8849585 31.6509114,15.8849585 C31.6509114,15.8849585 31.6509114,15.8849585 31.6509114,15.8849585 Z M33.6824957,13.2957835 C33.8175891,13.1836936 33.958729,13.0804104 34.1081034,12.9861296 C34.1081034,12.9861296 33.4213496,12.2006193 33.4213496,12.2006193 C33.2272895,12.3230816 33.0469922,12.4553781 32.8778662,12.5956495 C32.8778662,12.5956495 33.6824957,13.2957835 33.6824957,13.2957835 C33.6824957,13.2957835 33.6824957,13.2957835 33.6824957,13.2957835 Z M36.78285,12.2856531 C36.8806862,12.2826686 36.9811713,12.2811518 37.0844205,12.2811518 C37.0844205,12.2811518 37.0844205,11.3026277 37.0844205,11.3026277 C36.9678693,11.3026277 36.8536214,11.3043401 36.7415618,11.3077649 C36.7415618,11.3077649 36.78285,12.2856531 36.78285,12.2856531 C36.78285,12.2856531 36.78285,12.2856531 36.78285,12.2856531 Z M37.0844205,12.2811518 C37.2130644,12.2811518 37.339405,12.2699477 37.462924,12.2478331 C37.462924,12.2478331 37.2255027,11.2903472 37.2255027,11.2903472 C37.1808171,11.2983222 37.1340584,11.3026277 37.0844205,11.3026277 C37.0844205,11.3026277 37.0844205,12.2811518 37.0844205,12.2811518 C37.0844205,12.2811518 37.0844205,12.2811518 37.0844205,12.2811518 Z M39.5161025,10.349007 C39.5850313,10.209127 39.6512535,10.063914 39.7150573,9.9144444 C39.7150573,9.9144444 38.6324094,9.58081659 38.6324094,9.58081659 C38.5741338,9.71736964 38.5145913,9.8476112 38.453782,9.97110095 C38.453782,9.97110095 39.5161025,10.349007 39.5161025,10.349007 C39.5161025,10.349007 39.5161025,10.349007 39.5161025,10.349007 Z M40.4538676,7.7358093 C40.4947526,7.59225981 40.5351194,7.44753608 40.5750255,7.30217632 C40.5750255,7.30217632 39.4535081,7.07980671 39.4535081,7.07980671 C39.4141202,7.22306264 39.3745596,7.36509542 39.3344807,7.50556257 C39.3344807,7.50556257 40.4538676,7.7358093 40.4538676,7.7358093 C40.4538676,7.7358093 40.4538676,7.7358093 40.4538676,7.7358093 Z M41.1517352,5.14428593 C41.1910079,5.00040863 41.2305109,4.85783277 41.2703595,4.71688615 C41.2703595,4.71688615 40.1505695,4.4882442 40.1505695,4.4882442 C40.1098572,4.63212639 40.0696632,4.77723663 40.0298146,4.92310522 C40.0298146,4.92310522 41.1517352,5.14428593 41.1517352,5.14428593 C41.1517352,5.14428593 41.1517352,5.14428593 41.1517352,5.14428593 Z M41.9658085,2.64261554 C42.0238538,2.50573469 42.0829932,2.37556652 42.143457,2.25261496 C42.143457,2.25261496 41.0807334,1.87542325 41.0807334,1.87542325 C41.0119198,2.01538156 40.9458703,2.16093703 40.8822393,2.31104263 C40.8822393,2.31104263 41.9658085,2.64261554 41.9658085,2.64261554 C41.9658085,2.64261554 41.9658085,2.64261554 41.9658085,2.64261554 Z M43.3475508,1.00502602 C43.3900482,1.00186196 43.436231,1.00237421 43.4870206,1.00780992 C43.4870206,1.00780992 43.6309821,0.0369627737 43.6309821,0.0369627737 C43.5021078,0.0231650939 43.3738669,0.0207872802 43.2469505,0.0302422698 C43.2469505,0.0302422698 43.3475508,1.00502602 43.3475508,1.00502602 C43.3475508,1.00502602 43.3475508,1.00502602 43.3475508,1.00502602 Z M43.4870206,1.00780992 C43.5676391,1.01644539 43.6413473,1.02948912 43.7093547,1.04604086 C43.7093547,1.04604086 44.0265882,0.105379715 44.0265882,0.105379715 C43.9001901,0.0746056194 43.7684941,0.0516836911 43.6309821,0.0369627737 C43.6309821,0.0369627737 43.4870206,1.00780992 43.4870206,1.00780992 C43.4870206,1.00780992 43.4870206,1.00780992 43.4870206,1.00780992 Z M45.5756713,2.75484737 C45.7166384,2.90242838 45.8721168,3.05079222 46.0472891,3.1938182 C46.0472891,3.1938182 46.8452963,2.48825336 46.8452963,2.48825336 C46.7114697,2.37898156 46.5879508,2.26178862 46.46996,2.13824505 C46.46996,2.13824505 45.5756713,2.75484737 45.5756713,2.75484737 C45.5756713,2.75484737 45.5756713,2.75484737 45.5756713,2.75484737 Z M49.2806062,4.27725971 C49.3916293,4.28136462 49.5054164,4.28345377 49.6219676,4.28345377 C49.6219676,4.28345377 49.6219676,3.30492962 49.6219676,3.30492962 C49.5215401,3.30492962 49.4245101,3.30312913 49.3306472,3.29966026 C49.3306472,3.29966026 49.2806062,4.27725971 49.2806062,4.27725971 C49.2806062,4.27725971 49.2806062,4.27725971 49.2806062,4.27725971 Z M49.6219676,4.28345377 C49.6840438,4.28345377 49.7404191,4.28876716 49.7921877,4.29817077 C49.7921877,4.29817077 50.0331216,3.34130136 50.0331216,3.34130136 C49.8996405,3.31703885 49.7624164,3.30492962 49.6219676,3.30492962 C49.6219676,3.30492962 49.6219676,4.28345377 49.6219676,4.28345377 C49.6219676,4.28345377 49.6219676,4.28345377 49.6219676,4.28345377 Z M51.0151116,5.8700573 C51.0675136,6.01673807 51.1172091,6.16982817 51.1648891,6.32830016 C51.1648891,6.32830016 52.2807057,6.08582187 52.2807057,6.08582187 C52.2295706,5.91604793 52.1753259,5.74881815 52.1172231,5.58599173 C52.1172231,5.58599173 51.0151116,5.8700573 51.0151116,5.8700573 C51.0151116,5.8700573 51.0151116,5.8700573 51.0151116,5.8700573 Z M51.7610048,8.73449105 C51.8018899,8.90221009 51.8438114,9.06806994 51.8874606,9.23011354 C51.8874606,9.23011354 53.0101297,9.01195158 53.0101297,9.01195158 C52.968784,8.85827436 52.9285323,8.69926418 52.8887414,8.53604635 C52.8887414,8.53604635 51.7610048,8.73449105 51.7610048,8.73449105 C51.7610048,8.73449105 51.7610048,8.73449105 51.7610048,8.73449105 Z M53.5322492,11.7197725 C53.6863455,11.7676713 53.8487917,11.7920365 54.0168811,11.7920365 C54.0168811,11.7920365 54.0168811,10.8135124 54.0168811,10.8135124 C53.9818121,10.8135124 53.9534229,10.8087176 53.9279705,10.8007916 C53.9279705,10.8007916 53.5322492,11.7197725 53.5322492,11.7197725 C53.5322492,11.7197725 53.5322492,11.7197725 53.5322492,11.7197725 Z M54.0168811,11.7920365 C54.2433613,11.7920365 54.4362121,11.7205554 54.5843772,11.6374297 C54.5843772,11.6374297 53.9499678,10.8207535 53.9499678,10.8207535 C53.9260126,10.8342082 53.9517529,10.8135124 54.0168811,10.8135124 C54.0168811,10.8135124 54.0168811,11.7920365 54.0168811,11.7920365 C54.0168811,11.7920365 54.0168811,11.7920365 54.0168811,11.7920365 Z M56.1685869,9.45307026 C56.2387825,9.31235849 56.3093236,9.16729228 56.3799799,9.01870339 C56.3799799,9.01870339 55.3122464,8.65200147 55.3122464,8.65200147 C55.2436056,8.79623593 55.1755982,8.93621381 55.1082242,9.07120121 C55.1082242,9.07120121 56.1685869,9.45307026 56.1685869,9.45307026 C56.1685869,9.45307026 56.1685869,9.45307026 56.1685869,9.45307026 Z M57.3493013,6.84496091 C57.4114351,6.70033504 57.4735688,6.55541561 57.5355298,6.41093652 C57.5355298,6.41093652 56.4534578,6.0759877 56.4534578,6.0759877 C56.3914392,6.22051572 56.3294782,6.36509267 56.2674596,6.5092782 C56.2674596,6.5092782 57.3493013,6.84496091 57.3493013,6.84496091 C57.3493013,6.84496091 57.3493013,6.84496091 57.3493013,6.84496091 Z M58.4800323,4.25967074 C58.5470032,4.1147611 58.6132254,3.97383894 58.6787567,3.83757456 C58.6787567,3.83757456 57.6125204,3.46758969 57.6125204,3.46758969 C57.5447434,3.60861948 57.4765056,3.75376886 57.4079224,3.90222076 C57.4079224,3.90222076 58.4800323,4.25967074 58.4800323,4.25967074 C58.4800323,4.25967074 58.4800323,4.25967074 58.4800323,4.25967074 Z M59.8126549,2.00552293 C59.8212925,1.99934355 59.8276268,1.99512611 59.8322336,1.99243517 C59.8362645,1.98973933 59.8379921,1.98890759 59.8374162,1.98927943 C59.8362645,1.98984208 59.8212925,1.99686788 59.7942278,2.00219595 C59.7942278,2.00219595 59.5362488,1.04850184 59.5362488,1.04850184 C59.3370061,1.08736393 59.176921,1.1785477 59.0569723,1.26724603 C59.0569723,1.26724603 59.8126549,2.00552293 59.8126549,2.00552293 C59.8126549,2.00552293 59.8126549,2.00552293 59.8126549,2.00552293 Z M59.7942278,2.00219595 C59.8523882,1.99085974 59.9036385,1.98467547 59.9485545,1.98212642 C59.9485545,1.98212642 59.8713911,1.00578437 59.8713911,1.00578437 C59.7608287,1.01207628 59.6491146,1.02651441 59.5362488,1.04850184 C59.5362488,1.04850184 59.7942278,2.00219595 59.7942278,2.00219595 C59.7942278,2.00219595 59.7942278,2.00219595 59.7942278,2.00219595 Z M60.9534056,3.04325269 C61.0058075,3.16754482 61.0570578,3.2957902 61.108884,3.42826769 C61.108884,3.42826769 62.2012636,3.11767434 62.2012636,3.11767434 C62.1488616,2.98477119 62.0941563,2.84735704 62.0365717,2.7117336 C62.0365717,2.7117336 60.9534056,3.04325269 60.9534056,3.04325269 C60.9534056,3.04325269 60.9534056,3.04325269 60.9534056,3.04325269 Z M62.7442863,5.46044709 C62.8732758,5.4914663 63.006872,5.50692698 63.145075,5.50692698 C63.145075,5.50692698 63.145075,4.52840772 63.145075,4.52840772 C63.1093726,4.52840772 63.0811561,4.52453766 63.0575465,4.51892582 C63.0575465,4.51892582 62.7442863,5.46044709 62.7442863,5.46044709 C62.7442863,5.46044709 62.7442863,5.46044709 62.7442863,5.46044709 Z M63.145075,5.50692698 C63.2665785,5.50692698 63.3852028,5.49616322 63.4997961,5.47551636 C63.4997961,5.47551636 63.2613959,4.51819682 63.2613959,4.51819682 C63.2251176,4.52479697 63.1865359,4.52840772 63.145075,4.52840772 C63.145075,4.52840772 63.145075,5.50692698 63.145075,5.50692698 C63.145075,5.50692698 63.145075,5.50692698 63.145075,5.50692698 Z M65.488192,3.86656823 C65.573993,3.75439512 65.6574907,3.6471293 65.7415642,3.54497138 C65.7415642,3.54497138 64.7977528,2.98437 64.7977528,2.98437 C64.7027382,3.10007558 64.6106028,3.21820791 64.5230743,3.33261696 C64.5230743,3.33261696 65.488192,3.86656823 65.488192,3.86656823 C65.488192,3.86656823 65.488192,3.86656823 65.488192,3.86656823 Z M67.0683131,2.8187401 C67.11726,2.82829539 67.1708137,2.84150058 67.2283983,2.85919229 C67.2283983,2.85919229 67.6199735,1.93900286 67.6199735,1.93900286 C67.520928,1.90853161 67.4218825,1.88370156 67.3239887,1.86467905 C67.3239887,1.86467905 67.0683131,2.8187401 67.0683131,2.8187401 C67.0683131,2.8187401 67.0683131,2.8187401 67.0683131,2.8187401 Z" id="形状" fill="#6AA1FF"></path>
                        <path d="M1.29129918,22.4438015 C0.876738625,22.243253 0.349325861,22.3662045 0.113291236,22.7184243 C-0.122747996,23.0706441 0.0219793524,23.5187592 0.436536571,23.7193077 C0.436536571,23.7193077 1.29129918,22.4438015 1.29129918,22.4438015 C1.29129918,22.4438015 1.29129918,22.4438015 1.29129918,22.4438015 Z M13.107726,13.6320447 C13.107726,13.6320447 13.7991442,13.1921492 13.7991442,13.1921492 C13.7991442,13.1921492 13.107726,13.6320447 13.107726,13.6320447 C13.107726,13.6320447 13.107726,13.6320447 13.107726,13.6320447 Z M22.0535496,11.5606069 C22.0535496,11.5606069 21.9295124,12.2869165 21.9295124,12.2869165 C21.9295124,12.2869165 22.0535496,11.5606069 22.0535496,11.5606069 C22.0535496,11.5606069 22.0535496,11.5606069 22.0535496,11.5606069 Z M30.5670857,15.5948663 C30.5670857,15.5948663 29.8388709,15.2002764 29.8388709,15.2002764 C29.8388709,15.2002764 30.5670857,15.5948663 30.5670857,15.5948663 C30.5670857,15.5948663 30.5670857,15.5948663 30.5670857,15.5948663 Z M38.7289526,9.05949917 C38.7289526,9.05949917 39.0680683,9.73443621 39.0680683,9.73443621 C39.0680683,9.73443621 38.7289526,9.05949917 38.7289526,9.05949917 C38.7289526,9.05949917 38.7289526,9.05949917 38.7289526,9.05949917 Z M46.170206,2.86897375 C46.170206,2.86897375 46.0186434,3.59148174 46.0186434,3.59148174 C46.0186434,3.59148174 46.170206,2.86897375 46.170206,2.86897375 C46.170206,2.86897375 46.170206,2.86897375 46.170206,2.86897375 Z M54.6634723,12.7784291 C54.6634723,12.7784291 54.8004084,12.053832 54.8004084,12.053832 C54.8004084,12.053832 54.6634723,12.7784291 54.6634723,12.7784291 C54.6634723,12.7784291 54.6634723,12.7784291 54.6634723,12.7784291 Z M60.5595584,4.64982411 C60.5595584,4.64982411 59.7320679,4.43977901 59.7320679,4.43977901 C59.7320679,4.43977901 60.5595584,4.64982411 60.5595584,4.64982411 C60.5595584,4.64982411 60.5595584,4.64982411 60.5595584,4.64982411 Z M65.4790099,2.29373365 C65.9062875,2.47452088 66.4245488,2.32699369 66.6376118,1.96423032 C66.850099,1.60146206 66.6767694,1.16082725 66.2494917,0.980041979 C66.2494917,0.980041979 65.4790099,2.29373365 65.4790099,2.29373365 C65.4790099,2.29373365 65.4790099,2.29373365 65.4790099,2.29373365 Z M0.863917877,23.0815546 C0.436536571,23.7193077 0.437201673,23.7196502 0.437824033,23.7199438 C0.438118419,23.7200905 0.438808858,23.720433 0.439291993,23.7206287 C0.440258838,23.721118 0.441274055,23.7216072 0.442337642,23.7220965 C0.444464817,23.723124 0.446786052,23.7242003 0.449298467,23.7253746 C0.454322723,23.727723 0.460118036,23.730414 0.466668283,23.7333495 C0.479763594,23.7392696 0.495909737,23.7463639 0.514984057,23.7543389 C0.553083749,23.7702888 0.60316737,23.7899572 0.664229492,23.8111422 C0.785910337,23.8533655 0.95401415,23.9026831 1.15997234,23.9403563 C1.57317575,24.0158984 2.14746686,24.0456455 2.79570234,23.8700004 C4.12427671,23.5100992 5.45049012,22.386411 6.42924963,19.8597149 C6.42924963,19.8597149 4.78830189,19.400836 4.78830189,19.400836 C3.89232599,21.7138225 2.84610613,22.3157616 2.27093398,22.4715916 C1.9672962,22.5538365 1.70688717,22.538963 1.52335932,22.5053996 C1.43095275,22.48852 1.36018187,22.4671393 1.31758021,22.4523636 C1.2965008,22.4450736 1.28309108,22.4395938 1.27823266,22.4375878 C1.27582793,22.4365604 1.27562926,22.4364625 1.27774838,22.4373921 C1.27881139,22.4378814 1.28046119,22.4386642 1.28271217,22.4396917 C1.28383795,22.4402299 1.28511517,22.440817 1.28654558,22.4415019 C1.28726078,22.4418444 1.28801398,22.4421869 1.28880635,22.4425783 C1.28920138,22.442774 1.28982675,22.4430676 1.29002368,22.4431654 C1.29065596,22.443459 1.29129918,22.4438015 0.863917877,23.0815546 C0.863917877,23.0815546 0.863917877,23.0815546 0.863917877,23.0815546 Z M6.42924963,19.8597149 C6.91162422,18.6144451 7.28540579,17.2083058 7.64525189,15.9573116 C8.01511771,14.6718245 8.364541,13.5734311 8.79654059,12.8237348 C9.01161903,12.4505746 9.21235891,12.2277158 9.38234861,12.1105864 C9.52250951,12.0139572 9.63272641,11.9912554 9.77386624,12.0095538 C9.95819451,12.0334298 10.2737005,12.1418013 10.7419208,12.4787561 C11.2032885,12.8106715 11.7572523,13.3241031 12.4163079,14.0719402 C12.4163079,14.0719402 13.7991442,13.1921492 13.7991442,13.1921492 C13.0978791,12.3965112 12.4558685,11.7885052 11.8583708,11.3586395 C11.2677832,10.9337154 10.6616479,10.6398157 10.0343213,10.5585493 C9.36386396,10.4716563 8.77247023,10.6408921 8.29394229,10.9707526 C7.84518558,11.280064 7.51010086,11.7182961 7.24503899,12.1783003 C6.71681555,13.0949328 6.32892,14.3512599 5.96714482,15.6088103 C5.59543053,16.9009025 5.24329501,18.2262645 4.78830189,19.400836 C4.78830189,19.400836 6.42924963,19.8597149 6.42924963,19.8597149 C6.42924963,19.8597149 6.42924963,19.8597149 6.42924963,19.8597149 Z M12.4163079,14.0719402 C12.7959055,14.5026376 13.2341818,14.8229086 13.7400624,15.0123509 C14.2507801,15.2035545 14.7718631,15.2394174 15.2710063,15.1779172 C16.2187911,15.0610324 17.1332344,14.5837573 17.9120083,14.1261015 C18.7648361,13.6248525 19.464201,13.1446907 20.2190198,12.7594947 C20.9648554,12.3788977 21.5105269,12.2352504 21.9295124,12.2869165 C21.9295124,12.2869165 22.1775868,10.8343463 22.1775868,10.8343463 C21.1361695,10.7059639 20.1452539,11.0849952 19.3295682,11.5012105 C18.5229233,11.9128267 17.6360054,12.5036106 16.9292697,12.9189452 C16.1484227,13.377873 15.5299642,13.6628193 15.0229319,13.725347 C14.7947242,13.7534795 14.6079198,13.733273 14.4367208,13.6691797 C14.2607423,13.6032761 14.0430725,13.4689247 13.7991442,13.1921492 C13.7991442,13.1921492 12.4163079,14.0719402 12.4163079,14.0719402 C12.4163079,14.0719402 12.4163079,14.0719402 12.4163079,14.0719402 Z M21.9295124,12.2869165 C22.4919987,12.3562449 23.1230682,12.7179564 23.8584234,13.3625102 C24.5928572,14.0062813 25.2443117,14.7531398 25.9816248,15.4943719 C26.3338121,15.8484508 26.7014897,16.1949952 27.0788416,16.4816538 C27.4504349,16.763958 27.8803039,17.0263982 28.3643599,17.1640766 C28.8793389,17.3105616 29.4394066,17.3094363 29.9874392,17.0797278 C30.5035123,16.863425 30.9287745,16.4778865 31.295358,15.9895051 C31.295358,15.9895051 29.8388709,15.2002764 29.8388709,15.2002764 C29.5632711,15.5674187 29.3486533,15.7108214 29.2232341,15.7633682 C29.1297167,15.802558 29.0466222,15.8102884 28.9126804,15.7721749 C28.7478157,15.7253036 28.5230631,15.6098377 28.230303,15.3874192 C27.9432438,15.169404 27.6367786,14.8844578 27.3010605,14.5469159 C26.662505,13.905004 25.8829248,13.0281974 25.098853,12.340931 C24.3157602,11.6544963 23.3408531,10.977749 22.1775868,10.8343463 C22.1775868,10.8343463 21.9295124,12.2869165 21.9295124,12.2869165 C21.9295124,12.2869165 21.9295124,12.2869165 21.9295124,12.2869165 Z M31.295358,15.9895051 C33.0372918,13.6688861 34.2416735,12.3894658 35.35916,11.5513599 C36.4590833,10.7264151 37.5134571,10.2983597 39.0680683,9.73443621 C39.0680683,9.73443621 38.3897794,8.38451321 38.3897794,8.38451321 C36.8083914,8.95812407 35.5358295,9.46103656 34.2158756,10.4510094 C32.9134273,11.4278212 31.6049327,12.8473662 29.8388709,15.2002764 C29.8388709,15.2002764 31.295358,15.9895051 31.295358,15.9895051 C31.295358,15.9895051 31.295358,15.9895051 31.295358,15.9895051 Z M39.0680683,9.73443621 C40.2323711,9.31210518 41.0571552,8.60120739 41.6934649,7.84363399 C42.3176242,7.10044489 42.8044443,6.25407043 43.2344285,5.56236149 C43.6895771,4.83018079 44.074818,4.28230511 44.5215016,3.93718454 C44.9091035,3.63774636 45.3424275,3.48908408 46.0186434,3.59148174 C46.0186434,3.59148174 46.3217687,2.14646577 46.3217687,2.14646577 C45.0868096,1.95946001 44.1192733,2.26405501 43.3592719,2.85125268 C42.6583522,3.39277284 42.1494196,4.16491646 41.7068821,4.87686618 C41.2391225,5.62928275 40.8246862,6.35114002 40.2872492,6.99099697 C39.7619626,7.6164696 39.1647528,8.10343215 38.3897794,8.38451321 C38.3897794,8.38451321 39.0680683,9.73443621 39.0680683,9.73443621 C39.0680683,9.73443621 39.0680683,9.73443621 39.0680683,9.73443621 Z M46.0186434,3.59148174 C46.0606225,3.59783236 46.2018775,3.64053516 46.4398171,3.86816434 C46.6701554,4.08851819 46.9204181,4.41430313 47.1946935,4.84501521 C47.7490027,5.7154418 48.2940984,6.83467773 48.9421554,8.04746057 C49.5728218,9.22760962 50.2904986,10.4732219 51.1513306,11.4671579 C52.003237,12.4507214 53.0979776,13.3081043 54.5264786,13.5030263 C54.5264786,13.5030263 54.8004084,12.053832 54.8004084,12.053832 C54.0400039,11.9500595 53.2964717,11.4675003 52.542747,10.597201 C51.7980055,9.73732286 51.1427505,8.6150535 50.5151936,7.44067774 C49.9050273,6.29893576 49.3065507,5.07685694 48.7140628,4.14650553 C48.4149685,3.67682862 48.09094,3.23734896 47.731497,2.893476 C47.3795976,2.55687347 46.9155234,2.23637746 46.3217687,2.14646577 C46.3217687,2.14646577 46.0186434,3.59148174 46.0186434,3.59148174 C46.0186434,3.59148174 46.0186434,3.59148174 46.0186434,3.59148174 Z M54.5264786,13.5030263 C55.753491,13.6704518 56.7681315,13.2190096 57.5453507,12.5538579 C58.3059279,11.9029925 58.9086082,10.9961453 59.3934705,10.0655688 C60.3608916,8.20979773 60.9966254,5.97083661 61.387049,4.85986921 C61.387049,4.85986921 59.7320679,4.43977901 59.7320679,4.43977901 C59.3007593,5.66685808 58.72261,7.7288531 57.8141555,9.47121321 C57.3615406,10.3396534 56.8611306,11.0561288 56.3194323,11.5197046 C55.7944336,11.968994 55.3076711,12.1230137 54.8004084,12.053832 C54.8004084,12.053832 54.5264786,13.5030263 54.5264786,13.5030263 C54.5264786,13.5030263 54.5264786,13.5030263 54.5264786,13.5030263 Z M61.387049,4.85986921 C61.8868832,3.43821061 62.3550459,2.57073427 62.7650482,2.06113846 C63.169292,1.5583385 63.4474256,1.48483666 63.5648981,1.4714162 C63.718649,1.45389083 63.935167,1.49760151 64.2967983,1.67558526 C64.4718554,1.76189599 64.6411541,1.85874542 64.8427002,1.970943 C65.0292742,2.07529281 65.2515508,2.19746155 65.4790099,2.29373365 C65.4790099,2.29373365 66.2494917,0.980041979 66.2494917,0.980041979 C66.1256848,0.927577428 65.9822992,0.850995681 65.7905425,0.744083844 C65.613182,0.645017815 65.3909055,0.518085129 65.1628705,0.405598885 C64.7165899,0.185982838 64.0768251,-0.0679833209 63.3351356,0.0166981593 C62.5571678,0.105484548 61.9007035,0.53406981 61.3381021,1.23320428 C60.7818349,1.92554437 60.2520567,2.95984929 59.7320679,4.43977901 C59.7320679,4.43977901 61.387049,4.85986921 61.387049,4.85986921 C61.387049,4.85986921 61.387049,4.85986921 61.387049,4.85986921 Z" id="形状" fill="#165DFF"></path>
                    </g>
                </g>
            </g>
        </g>
    </g>
</svg>