<?xml version="1.0" standalone="no"?><!DOCTYPE svg PUBLIC "-//W3C//DTD SVG 1.1//EN" "http://www.w3.org/Graphics/SVG/1.1/DTD/svg11.dtd"><svg t="1626143565026" class="icon" viewBox="0 0 1024 1024" version="1.1" xmlns="http://www.w3.org/2000/svg" p-id="3397" xmlns:xlink="http://www.w3.org/1999/xlink" width="200" height="200"><defs><style type="text/css"></style></defs><path d="M837.27472871 961.99925029H197.37526221a136.79988575 136.79988575 0 0 1-93.74992208-39.59996748C77.37536182 896.97430391 62.00037529 864.27433143 62.00037529 831.94935839V184.02489863C62.00037529 150.72492588 78.20036123 120.04995166 106.47533779 98.52496982A151.12487373 151.12487373 0 0 1 197.37526221 68.44999502h347.24971055c17.47498537 0 31.49997364 13.87498887 31.49997362 30.89997422a31.27497363 31.27497363 0 0 1-31.49997362 30.74997393H197.3002625c-34.19997188 0-71.99994023 21.14998242-71.99994023 53.84995488v647.92446064c0 33.67497217 37.42496895 68.32494317 71.99994023 68.32494316h639.89946651c33.67497217 0 53.47495547-35.02497041 53.47495547-68.32494316V497.82463701c0-16.94998565 14.24998828-30.74997481 31.64997392-30.7499748 17.39998565 0 31.72497364 13.79998828 31.72497363 30.7499748v334.12472138c0 32.54997305-10.34999121 63.37494756-29.69997539 87.59992677a109.34990859 109.34990859 0 0 1-86.99992734 42.44996513zM500.07500967 550.84959248a40.42496602 40.42496602 0 0 1-28.27497657-11.47499034 38.24996836 38.24996836 0 0 1 0-54.97495399L893.74968213 73.39999062a40.72496572 40.72496572 0 0 1 56.54995224 1e-8 38.24996836 38.24996836 0 0 1 0 54.89995429L528.19998682 539.44960185a40.42496602 40.42496602 0 0 1-28.19997685 11.47499034v-0.07499971z" p-id="3398" fill="#ffffff"></path></svg>