<?xml version="1.0" encoding="UTF-8"?>
<svg width="25px" height="23px" viewBox="0 0 25 23" version="1.1" xmlns="http://www.w3.org/2000/svg" xmlns:xlink="http://www.w3.org/1999/xlink">
    <title>编组</title>
    <g id="相关推荐" stroke="none" stroke-width="1" fill="none" fill-rule="evenodd" fill-opacity="0.15">
        <g id="相关推荐配置-相关文档2" transform="translate(-923.000000, -529.000000)" fill="#000000" fill-rule="nonzero">
            <g id="编组-48" transform="translate(880.000000, 242.000000)">
                <g id="编组" transform="translate(24.000000, 224.000000)">
                    <g id="编组-2备份-6" transform="translate(0.000000, 34.000000)">
                        <g id="编组" transform="translate(19.510163, 29.918249)">
                            <path d="M23.0350823,0 L0.961192176,0 C0.428438373,0 0,0.432163924 0,0.961192176 L0,20.1962124 C0,20.7289662 0.432163924,21.1574045 0.961192176,21.1574045 L23.0388078,21.1574045 C23.5715616,21.1574045 24,20.7252406 24,20.1962124 L24,0.961192176 C24,0.428438373 23.5678361,0 23.0350823,0 L23.0350823,0 Z M21.6752561,19.2350202 L2.32474387,19.2350202 C2.10493636,19.2350202 1.92238435,19.0561937 1.92238435,18.8326607 L1.92238435,2.32846942 C1.92238435,2.10493636 2.10493636,1.92238435 2.32846942,1.92238435 L21.6976094,1.92238435 C21.9062403,1.92238435 22.0776156,2.09003415 22.0776156,2.30239056 L22.0776156,18.8177585 C22.0776156,18.8922695 22.0478112,18.963055 21.991928,19.0152127 L21.9025147,19.0971748 C21.8540826,19.1418814 21.7981993,19.1791369 21.7385905,19.2089413 L21.6752561,19.2350202 L21.6752561,19.2350202 Z" id="形状"></path>
                            <path d="M20.9785781,16.9326296 C20.8034772,17.2194971 20.4905309,17.394598 20.1552313,17.394598 L3.84104315,17.394598 C3.4796647,17.394598 3.14809066,17.1934182 2.98416641,16.8730208 C2.82024216,16.5526234 2.85004657,16.1651661 3.05867743,15.8708476 L6.82520956,10.6327228 C7.13070475,10.2080099 7.71934182,10.1036945 8.15150574,10.4017386 L11.2101832,12.5066749 L15.1182862,7.52933871 C15.319466,7.27227569 15.6398634,7.1344303 15.9677119,7.16423471 C16.2955604,7.19403912 16.5824278,7.39149333 16.7314499,7.68208631 L21.012108,15.9900652 C21.1648556,16.2918348 21.1499534,16.6457622 20.9785781,16.9326296 Z M6.67618752,5.80068302 C6.67618752,6.87736728 7.53678982,7.74914623 8.60229742,7.74914623 C9.66407948,7.74914623 10.5284073,6.87736728 10.5284073,5.80068302 C10.5284073,4.72399876 9.66780503,3.85220791 8.60229742,3.85220791 C7.53678982,3.84849426 6.67618752,4.72027321 6.67618752,5.80068302 Z" id="形状"></path>
                        </g>
                    </g>
                </g>
            </g>
        </g>
    </g>
</svg>