<?xml version="1.0" encoding="UTF-8"?>
<svg width="160px" height="160px" viewBox="0 0 160 160" version="1.1" xmlns="http://www.w3.org/2000/svg" xmlns:xlink="http://www.w3.org/1999/xlink">
    <title>编组</title>
    <defs>
        <linearGradient x1="50%" y1="3.85205925%" x2="50%" y2="121.56033%" id="linearGradient-1">
            <stop stop-color="#779EEA" stop-opacity="0.4" offset="0%"></stop>
            <stop stop-color="#FFFFFF" stop-opacity="0" offset="100%"></stop>
        </linearGradient>
        <path d="M16.2222222,7.77777778 L66,7.77777778 C68.209139,7.77777778 70,9.56863878 70,11.7777778 L70,34.7345679 C70,36.9437069 68.209139,38.7345679 66,38.7345679 L16.2222222,38.7345679 C14.0130832,38.7345679 12.2222222,36.9437069 12.2222222,34.7345679 L12.2222222,11.7777778 C12.2222222,9.56863878 14.0130832,7.77777778 16.2222222,7.77777778 Z" id="path-2"></path>
        <mask id="mask-3" maskContentUnits="userSpaceOnUse" maskUnits="objectBoundingBox" x="0" y="0" width="57.7777778" height="30.9567901" fill="white">
            <use xlink:href="#path-2"></use>
        </mask>
    </defs>
    <g id="页面-1" stroke="none" stroke-width="1" fill="none" fill-rule="evenodd">
        <g id="普通用户" transform="translate(-901.000000, -318.000000)">
            <g id="编组-4" transform="translate(764.000000, 318.000000)">
                <g id="Group-4" transform="translate(137.000000, 0.000000)">
                    <rect id="Rectangle-25" x="0" y="0" width="160" height="160"></rect>
                    <path d="M80,111 C118.192094,111 150.35586,128.775673 160.000117,151.000269 L-0.000116904797,151.000269 C9.64413951,128.775673 41.8079061,111 80,111 Z" id="Combined-Shape" fill="url(#linearGradient-1)"></path>
                    <g id="Group-14-Copy" transform="translate(39.000000, 56.000000)">
                        <polygon id="Clip-2" points="1.81818182 5.40263749 39.9636838 5.40263749 39.9636838 20.62875 1.81818182 20.62875"></polygon>
                        <path d="M44.0573558,1 C44.8149772,1 45.5400794,1.21404557 46.1604627,1.5975095 C46.780846,1.98097343 47.2965104,2.53385573 47.6352563,3.2115292 L47.6352563,3.2115292 L66.3030913,40.5572082 C66.7969639,41.5452182 66.8436114,42.6398747 66.5197883,43.6109969 C66.1959652,44.5821191 65.5016715,45.429707 64.5136616,45.9235795 C63.9583397,46.2011661 63.3460263,46.345679 62.7251908,46.345679 L62.7251908,46.345679 L5,46.345679 C3.8954305,46.345679 2.8954305,45.8979638 2.17157288,45.1741061 C1.44771525,44.4502485 1,43.4502485 1,42.345679 L1,42.345679 L1,5 C1,3.8954305 1.44771525,2.8954305 2.17157288,2.17157288 C2.8954305,1.44771525 3.8954305,1 5,1 L5,1 Z" id="Rectangle-3-Copy-7" stroke="#779EEA" stroke-width="2" fill="#FFFFFF"></path>
                        <polygon id="Clip-5" points="24.8951375 11.8048106 63.2868911 11.8048106 63.2868911 55.8445693 24.8951375 55.8445693"></polygon>
                        <use id="Rectangle-3-Copy-8" stroke="#779EEA" mask="url(#mask-3)" stroke-width="4" fill="#F8FAFE" stroke-dasharray="3" xlink:href="#path-2"></use>
                        <polygon id="Clip-8" points="1.81823397 16.705961 63.2450397 16.705961 63.2450397 58.4628072 1.81823397 58.4628072"></polygon>
                        <path d="M76.2222222,17.6666667 C77.6029341,17.6666667 78.8529341,18.2263107 79.7577561,19.1311328 C80.6625782,20.0359548 81.2222222,21.2859548 81.2222222,22.6666667 L81.2222222,22.6666667 L81.2222222,59.8333333 C81.2222222,61.2140452 80.6625782,62.4640452 79.7577561,63.3688672 C78.8529341,64.2736893 77.6029341,64.8333333 76.2222222,64.8333333 L76.2222222,64.8333333 L6,64.8333333 C4.61928813,64.8333333 3.36928813,64.2736893 2.46446609,63.3688672 C1.55964406,62.4640452 1,61.2140452 1,59.8333333 L1,59.8333333 L1,17.6666667 Z" id="Rectangle-3" stroke="#779EEA" stroke-width="2" fill="#FFFFFF"></path>
                    </g>
                </g>
            </g>
        </g>
    </g>
</svg>