<?xml version="1.0" encoding="UTF-8"?>
<svg width="16px" height="15px" viewBox="0 0 16 15" version="1.1" xmlns="http://www.w3.org/2000/svg" xmlns:xlink="http://www.w3.org/1999/xlink">
    <title>qiye-2</title>
    <defs>
        <filter id="filter-1">
            <feColorMatrix in="SourceGraphic" type="matrix" values="0 0 0 0 0.000000 0 0 0 0 0.568627 0 0 0 0 1.000000 0 0 0 1.000000 0"></feColorMatrix>
        </filter>
    </defs>
    <g id="搜索-ai详细设计" stroke="none" stroke-width="1" fill="none" fill-rule="evenodd">
        <g id="文档预览-知识点备份-2" transform="translate(-1170.000000, -186.000000)">
            <g id="编组-82备份-2" transform="translate(1160.000000, 173.000000)">
                <g id="编组-80" transform="translate(0.000000, 8.000000)">
                    <g id="qiye-2" transform="translate(8.000000, 2.000000)" filter="url(#filter-1)">
                        <g transform="translate(2.000000, 3.000000)">
                            <path d="M6.93767587,6.46095238 L4.29276245,6.46095238 C4.02588085,6.46095238 3.80953057,6.65896665 3.80953057,6.90322963 C3.80953057,7.14749261 4.02588085,7.34550688 4.29276245,7.34550688 L6.93767587,7.34550688 C7.20455746,7.34550688 7.42090774,7.14749261 7.42090774,6.90322963 C7.42090774,6.65896665 7.20455746,6.46095238 6.93767587,6.46095238 Z M6.93767587,9.38590931 L4.29276245,9.38590931 C4.02587712,9.38590931 3.80952381,9.58392635 3.80952381,9.82819275 C3.80952381,10.0724591 4.02587712,10.2704762 4.29276245,10.2704762 L6.93767587,10.2704762 C7.2045612,10.2704762 7.4209145,10.0724591 7.4209145,9.82819275 C7.4209145,9.58392635 7.2045612,9.38590931 6.93767587,9.38590931 L6.93767587,9.38590931 Z M12.4691423,9.38590931 L10.6425054,9.38590931 C10.3756201,9.38590931 10.1592668,9.58392635 10.1592668,9.82819275 C10.1592668,10.0724591 10.3756201,10.2704762 10.6425054,10.2704762 L12.4691423,10.2704762 C12.7360276,10.2704762 12.952381,10.0724591 12.952381,9.82819275 C12.952381,9.58392635 12.7360276,9.38590931 12.4691423,9.38590931 L12.4691423,9.38590931 Z" id="形状" fill="#000000" fill-rule="nonzero"></path>
                            <path d="M14.3199905,13.1230829 L14.3199905,7.22210737 C14.320119,7.05767761 14.2355297,6.90470228 14.0959874,6.81700951 L8.75841229,3.4486725 L8.75841229,0.842659901 C8.75787772,0.672649149 8.6668731,0.515690853 8.51935661,0.430353653 C8.37184012,0.345016453 8.189972,0.344119882 8.04161593,0.427998494 L1.8431945,3.9366946 C1.69335614,4.02140268 1.60054629,4.17965087 1.60000269,4.35135601 L1.60000269,13.1230829 L0,13.1230829 L0,14.08 L16,14.08 L16,13.1230829 L14.3199905,13.1230829 Z M2.5600043,13.1230829 L2.5600043,4.62887296 L7.80159537,1.66243256 L7.80159537,13.119895 L2.5600043,13.1230829 Z M8.76159698,13.1230829 L8.76159698,4.59059198 L13.3632004,7.49323522 L13.3632004,13.1294586 L8.76159698,13.1230829 Z" id="形状" fill="#000000" fill-rule="nonzero"></path>
                        </g>
                    </g>
                </g>
            </g>
        </g>
    </g>
</svg>