<?xml version="1.0" standalone="no"?><!DOCTYPE svg PUBLIC "-//W3C//DTD SVG 1.1//EN" "http://www.w3.org/Graphics/SVG/1.1/DTD/svg11.dtd"><svg t="1689816386058" class="icon" viewBox="0 0 1092 1024" version="1.1" xmlns="http://www.w3.org/2000/svg" p-id="2429" xmlns:xlink="http://www.w3.org/1999/xlink" width="213.28125" height="200"><path d="M37.0688 22.7328h482.167467c12.0832 0 24.098133 6.485333 30.583466 16.725333L677.888 294.434133H0V59.869867c0-20.48 16.657067-37.137067 37.0688-37.137067z" fill="#89CBFF" p-id="2430"></path><path d="M1055.197867 923.989333H37.0688A37.205333 37.205333 0 0 1 0 886.920533V182.272c0-24.9856 19.456-44.4416 44.509867-44.4416h1010.688c20.411733 0 37.0688 16.657067 37.0688 37.0688v712.0896a37.205333 37.205333 0 0 1-37.0688 37.0688z" fill="#DCEEFE" p-id="2431"></path><path d="M1055.197867 970.3424H37.0688A37.205333 37.205333 0 0 1 0 933.2736V262.007467c0-20.48 16.657067-37.137067 37.0688-37.137067h1018.129067c20.411733 0 37.0688 16.725333 37.0688 37.137067v671.266133a37.205333 37.205333 0 0 1-37.0688 37.0688z" fill="#89CBFF" p-id="2432"></path><path d="M568.866133 295.799467a113.800533 113.800533 0 0 1 82.875734 191.829333l87.927466 87.790933a90.999467 90.999467 0 1 1-25.326933 15.428267L629.486933 505.924267a113.2544 113.2544 0 0 1-90.112 13.585066L430.8992 627.848533a136.533333 136.533333 0 1 1-18.8416-21.9136L510.634667 507.357867a113.732267 113.732267 0 0 1 58.1632-211.5584z" fill="#3B96E8" p-id="2433"></path></svg>