<?xml version="1.0" standalone="no"?><!DOCTYPE svg PUBLIC "-//W3C//DTD SVG 1.1//EN" "http://www.w3.org/Graphics/SVG/1.1/DTD/svg11.dtd"><svg t="1675067897445" class="icon" viewBox="0 0 1024 1024" version="1.1" xmlns="http://www.w3.org/2000/svg" p-id="4781" xmlns:xlink="http://www.w3.org/1999/xlink" width="200" height="200"><path d="M7.973764 957.445657l225.068869-227.18069c5.503532-5.503532 5.503532-5.503532 11.007064-5.503532L24.48436 503.084278a83.576896 83.576896 0 0 1-21.950134-60.986816A68.47418 68.47418 0 0 1 29.923898 386.614178a406.621437 406.621437 0 0 1 378.719809-77.561407l197.615202-155.18681a245.099167 245.099167 0 0 1 38.396737-121.973632c5.503532-5.503532 5.503532-11.071059 11.007064-11.071059a82.808961 82.808961 0 0 1 109.814666 0l236.011939 232.812211c17.40652 14.974727 25.725813 38.140758 21.950134 60.922822a73.593745 73.593745 0 0 1-32.957199 55.419289 239.595634 239.595634 0 0 1-120.757735 38.780704l-153.65094 199.535039a418.652415 418.652415 0 0 1-82.360999 382.367499l-5.503532 5.567527a79.033282 79.033282 0 0 1-109.750672 0l-214.125799-221.677158c0 5.567527-5.439538 5.567527-5.439538 11.071059l-225.068869 227.18069a39.548638 39.548638 0 0 1-54.907333 0 37.88478 37.88478 0 0 1-11.007064-55.355295z m565.391941-22.142118a337.571306 337.571306 0 0 0 54.907333-321.380682l-5.503532-22.206113 208.622267-266.025388h27.453666c28.925541 0.575951 57.467115-7.103396 82.297005-22.142118l-225.004874-227.180689c-15.614673 26.813721-23.230025 57.595104-22.014129 88.632466v22.142118L430.657835 397.749231l-21.950134-5.503532a329.316008 329.316008 0 0 0-318.372938 55.419289l483.030942 487.638551z" p-id="4782" fill="#50A06A"></path></svg>