<?xml version="1.0" standalone="no"?><!DOCTYPE svg PUBLIC "-//W3C//DTD SVG 1.1//EN" "http://www.w3.org/Graphics/SVG/1.1/DTD/svg11.dtd"><svg t="1697166595709" class="icon" viewBox="0 0 1024 1024" version="1.1" xmlns="http://www.w3.org/2000/svg" p-id="2120" xmlns:xlink="http://www.w3.org/1999/xlink" width="200" height="200"><path d="M72 104h416c10.4 0 20.8 5.6 26.4 14.4l110.4 220H40V136c0-17.6 14.4-32 32-32z" fill="#89CBFF" p-id="2121"></path><path d="M950.4 881.6H72c-17.6 0-32-14.4-32-32v-608c0-21.6 16.8-38.4 38.4-38.4h872c17.6 0 32 14.4 32 32v614.4c0 17.6-14.4 32-32 32z" fill="#DCEEFE" p-id="2122"></path><path d="M950.4 921.6H72c-17.6 0-32-14.4-32-32V310.4c0-17.6 14.4-32 32-32h878.4c17.6 0 32 14.4 32 32v579.2c0 17.6-14.4 32-32 32z" fill="#89CBFF" p-id="2123"></path></svg>