<?xml version="1.0" standalone="no"?><!DOCTYPE svg PUBLIC "-//W3C//DTD SVG 1.1//EN" "http://www.w3.org/Graphics/SVG/1.1/DTD/svg11.dtd"><svg t="1609835177256" class="icon" viewBox="0 0 1279 1024" version="1.1" xmlns="http://www.w3.org/2000/svg" p-id="2127" xmlns:xlink="http://www.w3.org/1999/xlink" width="59.953125" height="48"><defs><style type="text/css"></style></defs><path d="M43.349297 0.000853h564.052863a44.373296 44.373296 0 0 1 35.839971 17.919985l149.674542 273.407773H0V39.766154C0 17.920838 19.541317 0.000853 43.349297 0.000853z" fill="#89CBFF" p-id="2128"></path><path d="M1234.430971 966.314715H43.349297c-23.893313 0-43.349297-17.919985-43.349297-39.7653V171.008711c0-26.879978 22.783981-47.786627 52.05329-47.786627h1182.377681c23.893313 0 43.43463 17.919985 43.434631 39.850633v763.476698c0 21.930648-19.62665 39.7653-43.434631 39.7653z" fill="#DCEEFE" p-id="2129"></path><path d="M1234.430971 1016.064007H43.349297c-23.893313 0-43.349297-17.919985-43.349297-39.765301V256.51264c0-21.845315 19.541317-39.7653 43.349297-39.765301h1191.081674c23.893313 0 43.43463 17.919985 43.434631 39.765301v719.786066c0 21.845315-19.62665 39.7653-43.434631 39.765301z" fill="#89CBFF" p-id="2130"></path><path d="M869.972608 506.027098H477.268936c-23.893313 0-43.349297-17.919985-43.349298-39.7653s19.541317-39.7653 43.349298-39.7653h392.703672c23.893313 0 43.349297 17.919985 43.349298 39.7653s-19.455984 39.7653-43.349298 39.7653z m0 166.058529H477.268936c-23.893313 0-43.349297-17.919985-43.349298-39.765301 0-21.930648 19.541317-39.7653 43.349298-39.7653h392.703672c23.893313 0 43.349297 17.919985 43.349298 39.7653s-19.455984 39.7653-43.349298 39.765301z m0 165.973195H477.268936c-23.893313 0-43.349297-17.919985-43.349298-39.765301s19.541317-39.7653 43.349298-39.7653h392.703672c23.893313 0 43.349297 17.919985 43.349298 39.7653 0 21.930648-19.455984 39.7653-43.349298 39.765301z" fill="#3B96E8" p-id="2131"></path></svg>