<?xml version="1.0" encoding="UTF-8"?>
<svg width="144px" height="112px" viewBox="0 0 144 112" version="1.1" xmlns="http://www.w3.org/2000/svg" xmlns:xlink="http://www.w3.org/1999/xlink">
    <title>编组 4</title>
    <defs>
        <linearGradient x1="50%" y1="3.85205925%" x2="50%" y2="121.56033%" id="linearGradient-1">
            <stop stop-color="#779EEA" stop-opacity="0.4" offset="0%"></stop>
            <stop stop-color="#FFFFFF" stop-opacity="0" offset="100%"></stop>
        </linearGradient>
    </defs>
    <g id="页面-1" stroke="none" stroke-width="1" fill="none" fill-rule="evenodd">
        <g id="问答配置1" transform="translate(-1025.000000, -277.000000)">
            <g id="编组-13备份" transform="translate(460.000000, 120.000000)">
                <g id="编组-2" transform="translate(565.000000, 133.000000)">
                    <g id="编组-4" transform="translate(0.000000, 24.000000)">
                        <path d="M72,76 C106.372614,76 135.319819,91.9978546 143.9999,111.999771 L9.95177594e-05,111.999771 C8.68018075,91.9978546 37.6273857,76 72,76 Z" id="Combined-Shape" fill="url(#linearGradient-1)"></path>
                        <g id="编组-10" transform="translate(18.000000, 0.000000)">
                            <g id="undraw_complete_task_re_44tb-2" transform="translate(0.000000, 32.000000)">
                                <rect id="矩形" stroke="#779EEA" stroke-width="1.5" fill="#FFFFFF" fill-rule="nonzero" x="0.75" y="0.75" width="114.5" height="26.5" rx="4"></rect>
                                <g id="编组-6" transform="translate(12.000000, 7.000000)" fill="#779EEA">
                                    <g id="编组" transform="translate(19.000000, 1.000000)" fill-rule="nonzero">
                                        <path d="M0.931566125,0 C0.416807309,0.000739231078 0,0.336309056 0,0.75 C0,1.16369094 0.416807309,1.49926077 0.931566125,1.5 L69.0684339,1.5 C69.5831927,1.49926077 70,1.16369094 70,0.75 C70,0.336309056 69.5831927,0.000739231078 69.0684339,0 L0.931566125,0 Z" id="路径"></path>
                                        <path d="M0.926930166,5 C0.416079331,4.99912812 0.00107950042,5.33420572 0,5.74841848 C-0.00107529663,6.16263124 0.412177725,6.49912521 0.923028561,6.5 L43.6188229,6.5 C43.9496792,6.50047817 44.2556562,6.35763419 44.4212553,6.12538693 C44.5868543,5.89313968 44.5868543,5.60686082 44.4212553,5.37461357 C44.2556562,5.14236632 43.9496792,4.99952233 43.6188229,5 L0.926930166,5 Z" id="路径"></path>
                                        <path d="M0.645540651,10 C0.289769534,9.99912812 0.000751794937,10.3342057 0,10.7484185 C-0.000748867296,11.1626312 0.287052344,11.4991252 0.642823462,11.5 L30.3773946,11.5 C30.6078123,11.5004782 30.8209035,11.3576342 30.9362314,11.1253869 C31.0515592,10.8931397 31.0515592,10.6068608 30.9362314,10.3746136 C30.8209035,10.1423663 30.6078123,9.99952233 30.3773946,10 L0.645540651,10 Z" id="路径"></path>
                                    </g>
                                    <path d="M7,0 C10.8659932,0 14,3.13400675 14,7 C14,10.8659932 10.8659932,14 7,14 C3.13400675,14 0,10.8659932 0,7 C0,3.13400675 3.13400675,0 7,0 Z M7,3 C6.77746963,3 6.6664,3.11106667 6.6664,3.3332 L6.666,6.666 L3.3332,6.6668 C3.11106667,6.6668 3,6.77786667 3,7.00039111 C3,7.22253037 3.11106667,7.3336 3.3332,7.3336 L6.666,7.333 L6.6664,10.6668 C6.6664,10.8889333 6.77746667,11 7,11 C7.22213333,11 7.3332,10.8889333 7.3332,10.6668 L7.333,7.333 L10.6668,7.3336 C10.8889333,7.3336 11,7.22253333 11,7 C11,6.77786667 10.8889333,6.6668 10.6668,6.6668 L7.333,6.666 L7.3332,3.3332 C7.3332,3.11106667 7.22213333,3 7,3 Z" id="形状结合"></path>
                                </g>
                            </g>
                            <g id="undraw_complete_task_re_44tb-2" transform="translate(10.000000, 68.000000)">
                                <rect id="矩形" stroke="#E8EDF6" stroke-width="1.5" fill="#FFFFFF" fill-rule="nonzero" x="0.75" y="0.75" width="94.5" height="22.5" rx="4"></rect>
                                <g id="编组-6" opacity="0.593800136" transform="translate(9.000000, 6.000000)" fill="#779EEA">
                                    <path d="M16.758561,0.620689655 C16.3394002,0.621428886 16,0.956998711 16,1.37068966 C16,1.7843806 16.3394002,2.11995042 16.758561,2.12068966 L72.241439,2.12068966 C72.6605998,2.11995042 73,1.7843806 73,1.37068966 C73,0.956998711 72.6605998,0.621428886 72.241439,0.620689655 L16.758561,0.620689655 Z" id="路径" fill-rule="nonzero"></path>
                                    <rect id="矩形" x="0" y="0" width="12" height="12" rx="6"></rect>
                                    <path d="M16.7491109,5.12068966 C16.33626,5.11981777 16.0008724,5.45489538 16,5.86910814 C15.999131,6.2833209 16.3331069,6.61981487 16.7459578,6.62068966 L51.2511304,6.62068966 C51.5185163,6.62116783 51.7657957,6.47832384 51.8996267,6.24607659 C52.0334578,6.01382934 52.0334578,5.72755047 51.8996267,5.49530322 C51.7657957,5.26305597 51.5185163,5.12021199 51.2511304,5.12068966 L16.7491109,5.12068966 Z" id="路径" fill-rule="nonzero"></path>
                                    <path d="M16.4994073,9.62068966 C16.2241734,9.61981777 16.0005816,9.95489538 16,10.3691081 C15.9994207,10.7833209 16.2220713,11.1198149 16.4973052,11.1206897 L39.5007536,11.1206897 C39.6790108,11.1211678 39.8438638,10.9783238 39.9330845,10.7460766 C40.0223052,10.5138293 40.0223052,10.2275505 39.9330845,9.99530322 C39.8438638,9.76305597 39.6790108,9.62021199 39.5007536,9.62068966 L16.4994073,9.62068966 Z" id="路径" fill-rule="nonzero"></path>
                                </g>
                            </g>
                            <g id="undraw_complete_task_re_44tb-2" transform="translate(10.000000, 0.000000)">
                                <rect id="矩形" stroke="#E8EDF6" stroke-width="1.5" fill="#FFFFFF" fill-rule="nonzero" x="0.75" y="0.75" width="94.5" height="22.5" rx="4"></rect>
                                <g id="编组-6" opacity="0.593800136" transform="translate(9.000000, 6.000000)" fill="#779EEA">
                                    <path d="M16.758561,0.620689655 C16.3394002,0.621428886 16,0.956998711 16,1.37068966 C16,1.7843806 16.3394002,2.11995042 16.758561,2.12068966 L72.241439,2.12068966 C72.6605998,2.11995042 73,1.7843806 73,1.37068966 C73,0.956998711 72.6605998,0.621428886 72.241439,0.620689655 L16.758561,0.620689655 Z" id="路径" fill-rule="nonzero"></path>
                                    <rect id="矩形" x="0" y="0" width="12" height="12" rx="6"></rect>
                                    <path d="M16.7491109,5.12068966 C16.33626,5.11981777 16.0008724,5.45489538 16,5.86910814 C15.999131,6.2833209 16.3331069,6.61981487 16.7459578,6.62068966 L51.2511304,6.62068966 C51.5185163,6.62116783 51.7657957,6.47832384 51.8996267,6.24607659 C52.0334578,6.01382934 52.0334578,5.72755047 51.8996267,5.49530322 C51.7657957,5.26305597 51.5185163,5.12021199 51.2511304,5.12068966 L16.7491109,5.12068966 Z" id="路径" fill-rule="nonzero"></path>
                                    <path d="M16.4994073,9.62068966 C16.2241734,9.61981777 16.0005816,9.95489538 16,10.3691081 C15.9994207,10.7833209 16.2220713,11.1198149 16.4973052,11.1206897 L39.5007536,11.1206897 C39.6790108,11.1211678 39.8438638,10.9783238 39.9330845,10.7460766 C40.0223052,10.5138293 40.0223052,10.2275505 39.9330845,9.99530322 C39.8438638,9.76305597 39.6790108,9.62021199 39.5007536,9.62068966 L16.4994073,9.62068966 Z" id="路径" fill-rule="nonzero"></path>
                                </g>
                            </g>
                        </g>
                    </g>
                </g>
            </g>
        </g>
    </g>
</svg>