<?xml version="1.0" standalone="no"?><!DOCTYPE svg PUBLIC "-//W3C//DTD SVG 1.1//EN" "http://www.w3.org/Graphics/SVG/1.1/DTD/svg11.dtd"><svg t="1686728891550" class="icon" viewBox="0 0 1170 1024" version="1.1" xmlns="http://www.w3.org/2000/svg" p-id="2091" xmlns:xlink="http://www.w3.org/1999/xlink" width="228.515625" height="200"><path d="M39.740952 0h516.583619c12.921905 0 25.84381 6.972952 32.768 17.895619l137.118477 273.164191H0V39.740952C0 17.895619 17.895619 0 39.740952 0z" fill="#89CBFF" p-id="2092"></path><path d="M1130.544762 965.632H39.740952A39.838476 39.838476 0 0 1 0 925.891048V170.861714c0-26.819048 20.870095-47.689143 47.689143-47.689143h1082.855619c21.845333 0 39.740952 17.895619 39.740952 39.740953v762.977524a39.838476 39.838476 0 0 1-39.740952 39.740952z" fill="#DCEEFE" p-id="2093"></path><path d="M1130.544762 1015.320381H39.740952A39.838476 39.838476 0 0 1 0 975.579429V256.341333c0-21.894095 17.895619-39.789714 39.740952-39.789714h1090.80381c21.845333 0 39.740952 17.895619 39.740952 39.740952v719.238096a39.838476 39.838476 0 0 1-39.740952 39.789714z" fill="#89CBFF" p-id="2094"></path><path d="M609.52381 292.571429a121.904762 121.904762 0 0 1 88.795428 205.433904l94.208 94.159238a97.52381 97.52381 0 1 1-27.062857 16.481524l-91.038476-90.940952a121.319619 121.319619 0 0 1-96.646095 14.482286l-116.053334 116.053333a146.285714 146.285714 0 1 1-20.138666-23.405714l105.569523-105.569524A121.856 121.856 0 0 1 609.52381 292.571429z" fill="#FFFFFF" fill-opacity=".75" p-id="2095"></path></svg>