<?xml version="1.0" encoding="UTF-8"?>
<svg width="20px" height="20px" viewBox="0 0 20 20" version="1.1" xmlns="http://www.w3.org/2000/svg" xmlns:xlink="http://www.w3.org/1999/xlink">
    <title>编组</title>
    <g id="控件" stroke="none" stroke-width="1" fill="none" fill-rule="evenodd">
        <g id="lie" transform="translate(-8.000000, -139.000000)">
            <g id="编组-12" transform="translate(0.000000, 129.000000)">
                <g id="编组" transform="translate(8.000000, 10.000000)">
                    <rect id="矩形" stroke-opacity="0.15" stroke="#FA8B16" stroke-width="0.75" fill="#FFF7E6" x="0.375" y="0.375" width="19.25" height="19.25" rx="2"></rect>
                    <g id="知识图谱" transform="translate(4.000000, 4.000000)" fill="#FA8B16" fill-rule="nonzero">
                        <g id="编组-5">
                            <path d="M8.96242554,0.275696068 C9.59836447,0.275696068 10.1142292,0.79584265 10.1142292,1.4372955 C10.1153308,1.7613716 9.98043477,2.07104907 9.7423726,2.29094211 C9.50431043,2.51083515 9.1849193,2.6207732 8.86194964,2.59399367 L7.56679077,4.85531409 L6.90144426,4.46811428 L8.15984365,2.27051029 C7.93589461,2.05119191 7.80997382,1.75074932 7.81062863,1.4372955 C7.81062863,0.79584265 8.32587395,0.275696068 8.96242554,0.275696068 L8.96242554,0.275696068 Z M10.6018982,10.1780862 C10.4341509,10.794343 9.79868116,11.1580171 9.18236973,10.9904706 C8.86885968,10.9077342 8.60447023,10.6972087 8.45362301,10.4101913 C8.3027758,10.1231739 8.27932247,9.78602012 8.38897772,9.48088146 L6.53936343,7.64474564 L7.0858543,7.10254338 L8.88278001,8.88660327 C9.14254697,8.73343878 9.46296707,8.68013754 9.7784859,8.76468434 C10.3961503,8.92762487 10.7647951,9.5604103 10.6018982,10.1780862 L10.6018982,10.1780862 Z M0.153629828,6.80111567 C-0.164952296,6.24972354 0.0280349521,5.54332895 0.583715694,5.22290885 C0.863804685,5.0599165 1.19942263,5.02189372 1.50887622,5.1180957 C1.81832982,5.21429769 2.07323606,5.43590081 2.21154781,5.7289643 L4.81779464,5.71977443 L4.81473135,6.48927279 L2.28261613,6.49846266 C2.20725921,6.79070049 2.01917322,7.05475606 1.7355126,7.21833572 C1.47049651,7.37286164 1.15494949,7.41578095 0.85828869,7.33765185 C0.561627894,7.25952275 0.308154401,7.0667452 0.153629828,6.80172833 L0.153629828,6.80111567 Z" id="形状" fill-opacity="0.45"></path>
                            <path d="M6.45175334,8.58885151 C8.04239137,8.58885151 9.33185827,7.28896136 9.33185827,5.68546559 C9.33185827,4.08196981 8.04239137,2.78207966 6.45175334,2.78207966 C4.86111531,2.78207966 3.57164842,4.08196981 3.57164842,5.68546559 C3.57164842,7.28896136 4.86111531,8.58885151 6.45175334,8.58885151 Z" id="路径"></path>
                            <path d="M1.51495575,7.93392019 C2.34694521,9.80130156 4.19043292,11.0278427 6.25509015,11.0278427 C6.81260886,11.0278427 7.35787442,10.9390073 7.87679569,10.7674631 C8.01978786,10.7243425 8.17111469,10.8029246 8.21809499,10.9446955 C8.2650753,11.0864665 8.19062345,11.2398675 8.05017788,11.290673 C7.47550474,11.4805969 6.87203668,11.5792349 6.25509015,11.5792349 C3.96987607,11.5792349 1.93095048,10.2228102 1.01135093,8.15876565 C0.953240679,8.0204815 1.01634781,7.86111312 1.15337616,7.8001005 C1.29040451,7.73908788 1.45106787,7.79882121 1.51495575,7.93453284 L1.51495575,7.93392019 Z M11.218232,2.87275303 C11.7319061,3.75891307 12.0016404,4.76534308 11.9999918,5.78961743 C12.0015935,6.7432977 11.7680153,7.68266076 11.3199332,8.52452243 C11.2483698,8.65902118 11.0813233,8.71004029 10.9468246,8.6384768 C10.8123258,8.56691332 10.7613067,8.39986687 10.8328702,8.26536813 C11.2385772,7.50330714 11.4500632,6.65294413 11.4485914,5.78961743 C11.4504059,4.86241998 11.2064553,3.95130441 10.7415842,3.14906176 C10.6894227,3.06376794 10.6875256,2.95691902 10.7366266,2.86982737 C10.7857275,2.78273572 10.8781305,2.7290517 10.9781087,2.72952867 C11.0780868,2.73001203 11.1699699,2.78458112 11.218232,2.87214037 L11.218232,2.87275303 Z M6.2557028,0 C6.35419952,0 6.44521425,0.052547372 6.49446261,0.137848033 C6.54371097,0.223148694 6.54371097,0.328243443 6.49446261,0.413544104 C6.44521425,0.498844765 6.35419952,0.551392138 6.2557028,0.551392136 C4.42431218,0.552957844 2.72979491,1.52122016 1.79861637,3.09821115 C1.71840041,3.22347088 1.55328297,3.2625158 1.42546017,3.18645048 C1.29763737,3.11038517 1.25319894,2.94663688 1.32503179,2.8163885 C2.35552243,1.08317922 4.21248861,0 6.25509015,0 L6.2557028,0 Z" id="形状"></path>
                        </g>
                    </g>
                </g>
            </g>
        </g>
    </g>
</svg>