<?xml version="1.0" encoding="UTF-8"?>
<svg width="18px" height="17px" viewBox="0 0 18 17" version="1.1" xmlns="http://www.w3.org/2000/svg" xmlns:xlink="http://www.w3.org/1999/xlink">
    <title>批量</title>
    <g id="控件" stroke="none" stroke-width="1" fill="none" fill-rule="evenodd">
        <g id="顶部按钮" transform="translate(-1107.000000, -12.000000)">
            <g id="编组" transform="translate(775.000000, 0.000000)">
                <g id="批量创建关系类" transform="translate(311.000000, 13.000000)">
                    <g id="批量" transform="translate(21.007104, 0.000000)">
                        <path d="M11.9216387,13.4578305 L11.9240223,12.2660242 L14.301676,12.2660242 L14.301676,5.17000931 C14.301676,4.84090107 14.5684709,4.57410614 14.8975791,4.57410614 C15.2266874,4.57410614 15.4934823,4.84090107 15.4934823,5.17000931 L15.4934823,12.8619274 C15.4934823,13.1910356 15.2266874,13.4578305 14.8975792,13.4578305 L11.9228306,13.4578305 L11.9216387,13.4578305 Z M2.38361267,3.92337989 L2.38361267,0.943864054 C2.38361267,0.614755826 2.65040761,0.347960894 2.97951583,0.347960894 L10.2376164,0.347960894 C10.5667246,0.347960894 10.8335196,0.61475583 10.8335196,0.943864063 C10.8335196,1.27297229 10.5667246,1.53976723 10.2376164,1.53976723 L3.57541899,1.53976723 L3.57541899,3.92337989 L2.38361267,3.92337989 L2.38361267,3.92337989 Z" id="形状" fill="#555555" fill-rule="nonzero"></path>
                        <path d="M1.19180634,14.6496369 L1.19180634,3.92337989 L7.85400374,3.92337989 C8.06689944,3.92337989 8.26362318,3.80980139 8.37007103,3.62542831 C8.47651889,3.44105522 8.47651889,3.21389821 8.37007103,3.02952513 C8.26362318,2.84515205 8.06689944,2.73157355 7.85400374,2.73157355 L0.595903177,2.73157355 C0.437859827,2.73157355 0.286289519,2.79435602 0.174535995,2.90610955 C0.0627824698,3.01786307 0,3.16943338 0,3.32747673 L0,15.24554 C0,15.4035834 0.0627824698,15.5551537 0.174535995,15.6669072 C0.286289519,15.7786607 0.437859827,15.8414432 0.595903177,15.8414432 L12.5139665,15.8414432 C12.6720098,15.8414432 12.8235801,15.7786607 12.9353337,15.6669072 C13.0470872,15.5551537 13.1098697,15.4035834 13.1098697,15.24554 L13.1098697,7.55362198 C13.1098697,7.22451375 12.8430747,6.95771881 12.5139665,6.95771881 C12.1848583,6.95771881 11.9180633,7.22451375 11.9180633,7.55362198 L11.9180633,14.6496369 L1.19180634,14.6496369 Z" id="路径" fill="#555555" fill-rule="nonzero"></path>
                        <path d="M6.55493483,9.28650838 C7.85202616,9.8874435 8.89935233,9.30486492 9.69691332,7.53877266 C10.8932548,4.88963426 11.5077918,0.945641577 15.2247307,1.4826408" id="路径-2" stroke="#126EE3" stroke-linecap="round"></path>
                        <circle id="椭圆形" stroke="#126EE3" fill="#FFFFFF" cx="6.49289572" cy="9.5" r="1"></circle>
                        <path d="M15.2434583,1.15207058 L16.6828975,0.20414555 C16.7751479,0.143395194 16.8991795,0.168931007 16.9599298,0.261181384 C16.9814346,0.29383674 16.9928957,0.332079403 16.9928957,0.371179634 L16.9928957,2.29043185 C16.9928957,2.4008888 16.9033527,2.49043185 16.7928957,2.49043185 C16.7530287,2.49043185 16.7140713,2.47851719 16.6810244,2.4562173 L15.2415853,1.48489011 C15.1500245,1.42310531 15.1258863,1.29879415 15.1876711,1.20723338 C15.2024426,1.18534303 15.2214031,1.16659477 15.2434583,1.15207058 Z" id="路径-28" stroke="#126EE3" fill="#126EE3" transform="translate(15.992896, 1.333333) rotate(-180.000000) translate(-15.992896, -1.333333) "></path>
                    </g>
                </g>
            </g>
        </g>
    </g>
</svg>