<?xml version="1.0" encoding="UTF-8"?>
<svg width="18px" height="19px" viewBox="0 0 18 19" version="1.1" xmlns="http://www.w3.org/2000/svg" xmlns:xlink="http://www.w3.org/1999/xlink">
    <title>手册</title>
    <g id="控件" stroke="none" stroke-width="1" fill="none" fill-rule="evenodd">
        <g id="汇总信息" transform="translate(-15.000000, 0.000000)" fill-rule="nonzero">
            <g id="手册" transform="translate(15.000000, 0.000000)">
                <path d="M9.40370468,8.3868201 L7.66460265,7.07121857 L7.66460266,7.07121857 C7.45169311,6.91061452 7.15811222,6.91061452 6.94520182,7.07121857 L5.20609979,8.3868201 C4.81339934,8.68382044 4.25019868,8.40332012 4.25019868,7.91161954 L4.25019868,0.788015551 L10.3585144,0.788015551 L10.3585144,7.91052384 C10.3585144,8.40332441 9.79641373,8.68382474 9.40371327,8.38682439 L9.40370468,8.3868201 Z" id="路径" fill="#54639C"></path>
                <path d="M14.7640195,0.238002022 L3.38450627,0.238002022 C1.74660436,0.238002022 0.41450281,1.57010357 0.41450281,3.20800548 L0.41450281,15.70402 C0.41450281,17.3419219 1.74660436,18.6740235 3.38450627,18.6740235 L14.7640195,18.6740235 C16.4019214,18.6740235 17.734023,17.3419219 17.734023,15.70402 L17.734023,3.20800548 C17.734023,1.57120357 16.4008214,0.238002022 14.7640195,0.238002022 Z M9.80961374,1.3380033 L9.80961374,7.91051095 C9.80961374,7.92151096 9.80961374,7.93911098 9.78430942,7.951211 C9.75900939,7.96441101 9.74470937,7.953411 9.73590936,7.94681099 L7.99570733,6.63230946 C7.58870686,6.3243091 7.0200062,6.3243091 6.61300573,6.63230946 L4.8739037,7.94791099 C4.86510369,7.954511 4.85190368,7.96551101 4.82550365,7.952311 C4.80020362,7.93911098 4.80020362,7.92261096 4.80020362,7.91161095 L4.80020362,1.3380033 L9.80961374,1.3380033 L9.80961374,1.3380033 Z M16.6340217,15.70402 C16.6340217,16.7347212 15.7947207,17.5740222 14.7640195,17.5740222 L3.38450627,17.5740222 C2.35380507,17.5740222 1.51450409,16.7347212 1.51450409,15.70402 L1.51450409,3.20800548 C1.51450409,2.17730428 2.35380507,1.3380033 3.38450627,1.3380033 L3.70020663,1.3380033 L3.70020663,7.91051095 C3.70020663,8.34831146 3.94330692,8.74101192 4.33600737,8.93681214 C4.49880756,9.01821224 4.67370777,9.05781229 4.84750797,9.05781229 C5.09170825,9.05781229 5.33370853,8.97861219 5.53720877,8.82461201 L7.27631079,7.50901048 L7.27631079,7.50901048 C7.29264719,7.49690912 7.31497455,7.49690912 7.33131086,7.50901048 L9.07041288,8.82461201 C9.42021329,9.08861232 9.88001382,9.13151237 10.2716143,8.93681214 C10.6632147,8.74211192 10.907415,8.34831146 10.907415,7.91051095 L10.907415,1.3380033 L14.7618238,1.3380033 C15.792525,1.3380033 16.631826,2.17730428 16.631826,3.20800548 L16.631826,15.70402 L16.6340217,15.70402 Z" id="形状" fill="#555555"></path>
            </g>
        </g>
    </g>
</svg>