<?xml version="1.0" encoding="UTF-8"?>
<svg width="144px" height="144px" viewBox="0 0 144 144" version="1.1" xmlns="http://www.w3.org/2000/svg" xmlns:xlink="http://www.w3.org/1999/xlink">
    <title>缺醒图</title>
    <defs>
        <linearGradient x1="50%" y1="3.85205925%" x2="50%" y2="121.56033%" id="linearGradient-1">
            <stop stop-color="#779EEA" stop-opacity="0.4" offset="0%"></stop>
            <stop stop-color="#FFFFFF" stop-opacity="0" offset="100%"></stop>
        </linearGradient>
    </defs>
    <g id="页面-1" stroke="none" stroke-width="1" fill="none" fill-rule="evenodd">
        <g id="无数据-导入失败" transform="translate(-1057.000000, -315.000000)">
            <g id="词内容" transform="translate(378.000000, 167.000000)">
                <g id="缺醒图" transform="translate(679.000000, 148.000000)">
                    <g id="Group-4">
                        <rect id="Rectangle-25" x="0" y="0" width="144" height="144"></rect>
                        <path d="M41.0259172,104.561391 C41.3089731,107.611867 43.8755974,110 47,110 L47,110 L98,110 C101.020063,110 103.518979,107.768708 103.938149,104.864724 C123.379938,111.079838 138.205338,122.647501 143.999743,135.999407 L0.000257172396,135.999407 C5.86913627,122.475891 21.0026519,110.782777 40.8136707,104.626993 Z" id="Combined-Shape" fill="url(#linearGradient-1)"></path>
                    </g>
                    <g id="Group-2" transform="translate(41.000000, 36.000000)" stroke="#779EEA" stroke-width="2">
                        <path d="M57,1 C58.3807119,1 59.6307119,1.55964406 60.5355339,2.4644661 C61.4403559,3.36928813 62,4.61928813 62,6 L62,6 L62,11.9250748 L56.8432943,12.857584 L52.1849826,8.24736345 L46.4443266,9.49740347 L42.2849728,8.49043527 L34.475316,10.6542124 L41.8087471,12.2040785 L46.2463694,15.4528124 L51.6264856,13.8022007 L56.8348198,18.3832404 L62,17.8012895 L62,68 C62,69.3807119 61.4403559,70.6307119 60.5355339,71.5355339 C59.6307119,72.4403559 58.3807119,73 57,73 L57,73 L16.4506857,73 L1,61.6125525 L1,6 C1,4.61928813 1.55964406,3.36928813 2.46446609,2.4644661 C3.36928813,1.55964406 4.61928813,1 6,1 L6,1 Z" id="Rectangle-4" transform="translate(31.500000, 37.000000) scale(-1, -1) translate(-31.500000, -37.000000) "></path>
                        <polyline id="Path-4" points="46 1 46 13 61.2026367 13"></polyline>
                    </g>
                    <rect id="Rectangle-23" fill="#779EEA" x="57" y="56" width="20" height="2"></rect>
                    <rect id="Rectangle-23-Copy" fill="#779EEA" x="57" y="64.5" width="32" height="2"></rect>
                    <rect id="Rectangle-23-Copy-2" fill="#779EEA" x="57" y="73" width="32" height="2"></rect>
                    <g id="点缀" transform="translate(14.000000, 10.000000)">
                        <path d="M20.0961941,2.1746212 C20.5225381,2.1746212 20.8681582,2.52024132 20.8681582,2.94658535 L20.8674271,6.4196212 L24.3419969,6.42042401 C24.7683409,6.42042401 25.113961,6.76604413 25.113961,7.19238816 C25.113961,7.61873218 24.7683409,7.9643523 24.3419969,7.9643523 L20.8674271,7.9636212 L20.8681582,11.438191 C20.8681582,11.864535 20.5225381,12.2101551 20.0961941,12.2101551 C19.6698501,12.2101551 19.3242299,11.864535 19.3242299,11.438191 L19.3234271,7.9636212 L15.8503913,7.9643523 C15.4240472,7.9643523 15.0784271,7.61873218 15.0784271,7.19238816 C15.0784271,6.76604413 15.4240472,6.42042401 15.8503913,6.42042401 L19.3234271,6.4196212 L19.3242299,2.94658535 C19.3242299,2.52024132 19.6698501,2.1746212 20.0961941,2.1746212 Z" id="Combined-Shape" fill="#779EEA" transform="translate(20.096194, 7.192388) rotate(-315.000000) translate(-20.096194, -7.192388) "></path>
                        <path d="M101.681981,39.6642136 C101.959349,39.6642136 102.184201,39.8890655 102.184201,40.1664344 L102.183214,43.1792136 L105.197527,43.1797596 C105.474896,43.1797596 105.699747,43.4046116 105.699747,43.6819805 C105.699747,43.9593494 105.474896,44.1842014 105.197527,44.1842014 L102.183214,44.1832136 L102.184201,47.1975266 C102.184201,47.4748955 101.959349,47.6997475 101.681981,47.6997475 C101.404612,47.6997475 101.17976,47.4748955 101.17976,47.1975266 L101.179214,44.1832136 L98.1664344,44.1842014 C97.8890655,44.1842014 97.6642136,43.9593494 97.6642136,43.6819805 C97.6642136,43.4046116 97.8890655,43.1797596 98.1664344,43.1797596 L101.179214,43.1792136 L101.17976,40.1664344 C101.17976,39.8890655 101.404612,39.6642136 101.681981,39.6642136 Z" id="Combined-Shape-Copy" fill="#779EEA" opacity="0.3" transform="translate(101.681981, 43.681981) rotate(-315.000000) translate(-101.681981, -43.681981) "></path>
                        <path d="M12.6819805,51.4215729 C12.9593494,51.4215729 13.1842014,51.6464248 13.1842014,51.9237937 L13.1832136,54.9365729 L16.1975266,54.937119 C16.4748955,54.937119 16.6997475,55.1619709 16.6997475,55.4393398 C16.6997475,55.7167088 16.4748955,55.9415607 16.1975266,55.9415607 L13.1832136,55.9405729 L13.1842014,58.9548859 C13.1842014,59.2322548 12.9593494,59.4571068 12.6819805,59.4571068 C12.4046116,59.4571068 12.1797596,59.2322548 12.1797596,58.9548859 L12.1792136,55.9405729 L9.16643443,55.9415607 C8.8890655,55.9415607 8.66421356,55.7167088 8.66421356,55.4393398 C8.66421356,55.1619709 8.8890655,54.937119 9.16643443,54.937119 L12.1792136,54.9365729 L12.1797596,51.9237937 C12.1797596,51.6464248 12.4046116,51.4215729 12.6819805,51.4215729 Z" id="Combined-Shape-Copy-4" fill="#779EEA" opacity="0.3" transform="translate(12.681981, 55.439340) rotate(-315.000000) translate(-12.681981, -55.439340) "></path>
                        <path d="M42.6819805,12.6035534 C42.9415825,12.6035534 43.1520315,12.8140024 43.1520315,13.0736043 L43.1515729,15.8935534 L45.9723372,15.8939101 C46.2319392,15.8939101 46.4423882,16.1043591 46.4423882,16.363961 C46.4423882,16.623563 46.2319392,16.834012 45.9723372,16.834012 L43.1515729,16.8335534 L43.1520315,19.6543177 C43.1520315,19.9139197 42.9415825,20.1243687 42.6819805,20.1243687 C42.4223785,20.1243687 42.2119296,19.9139197 42.2119296,19.6543177 L42.2115729,16.8335534 L39.3916238,16.834012 C39.1320219,16.834012 38.9215729,16.623563 38.9215729,16.363961 C38.9215729,16.1043591 39.1320219,15.8939101 39.3916238,15.8939101 L42.2115729,15.8935534 L42.2119296,13.0736043 C42.2119296,12.8140024 42.4223785,12.6035534 42.6819805,12.6035534 Z" id="Combined-Shape-Copy-2" fill="#779EEA" opacity="0.3" transform="translate(42.681981, 16.363961) rotate(-315.000000) translate(-42.681981, -16.363961) "></path>
                        <circle id="Oval-7-Copy-3" stroke="#779EEA" opacity="0.6" cx="67" cy="14" r="2"></circle>
                        <circle id="Oval-7-Copy-4" stroke="#779EEA" cx="8.5" cy="74.5" r="1.5"></circle>
                        <circle id="Oval-7-Copy-5" stroke="#779EEA" cx="108.5" cy="73.5" r="1.5"></circle>
                        <path d="M111.278175,20.3890873 C111.747266,20.3890873 112.12754,20.7693613 112.12754,21.238453 L112.126981,24.6350873 L115.525003,24.6359157 C115.994095,24.6359157 116.374369,25.0161897 116.374369,25.4852814 C116.374369,25.9543731 115.994095,26.3346471 115.525003,26.3346471 L112.126981,26.3340873 L112.12754,29.7321098 C112.12754,30.2012015 111.747266,30.5814755 111.278175,30.5814755 C110.809083,30.5814755 110.428809,30.2012015 110.428809,29.7321098 L110.427981,26.3340873 L107.031346,26.3346471 C106.562254,26.3346471 106.181981,25.9543731 106.181981,25.4852814 C106.181981,25.0161897 106.562254,24.6359157 107.031346,24.6359157 L110.427981,24.6350873 L110.428809,21.238453 C110.428809,20.7693613 110.809083,20.3890873 111.278175,20.3890873 Z" id="Combined-Shape-Copy-3" fill="#779EEA" transform="translate(111.278175, 25.485281) rotate(-315.000000) translate(-111.278175, -25.485281) "></path>
                        <path d="M83.5355339,17.0355339 C83.8116763,17.0355339 84.0355339,17.2593915 84.0355339,17.5355339 L84.0355339,19.0355339 L85.5355339,19.0355339 C85.8116763,19.0355339 86.0355339,19.2593915 86.0355339,19.5355339 C86.0355339,19.8116763 85.8116763,20.0355339 85.5355339,20.0355339 L84.0355339,20.0355339 L84.0355339,21.5355339 C84.0355339,21.8116763 83.8116763,22.0355339 83.5355339,22.0355339 C83.2593915,22.0355339 83.0355339,21.8116763 83.0355339,21.5355339 L83.0355339,20.0345339 L81.5355339,20.0355339 C81.2593915,20.0355339 81.0355339,19.8116763 81.0355339,19.5355339 C81.0355339,19.2593915 81.2593915,19.0355339 81.5355339,19.0355339 L83.0355339,19.0345339 L83.0355339,17.5355339 C83.0355339,17.2593915 83.2593915,17.0355339 83.5355339,17.0355339 Z" id="Combined-Shape-Copy-5" fill="#779EEA" transform="translate(83.535534, 19.535534) rotate(-315.000000) translate(-83.535534, -19.535534) "></path>
                        <path d="M4.24264069,26.2426407 C4.51878306,26.2426407 4.74264069,26.4664983 4.74264069,26.7426407 L4.74264069,28.7426407 L6.74264069,28.7426407 C7.01878306,28.7426407 7.24264069,28.9664983 7.24264069,29.2426407 C7.24264069,29.5187831 7.01878306,29.7426407 6.74264069,29.7426407 L4.74264069,29.7426407 L4.74264069,31.7426407 C4.74264069,32.0187831 4.51878306,32.2426407 4.24264069,32.2426407 C3.96649831,32.2426407 3.74264069,32.0187831 3.74264069,31.7426407 L3.74264069,29.7416407 L1.74264069,29.7426407 C1.46649831,29.7426407 1.24264069,29.5187831 1.24264069,29.2426407 C1.24264069,28.9664983 1.46649831,28.7426407 1.74264069,28.7426407 L3.74264069,28.7416407 L3.74264069,26.7426407 C3.74264069,26.4664983 3.96649831,26.2426407 4.24264069,26.2426407 Z" id="Combined-Shape-Copy-7" fill="#779EEA" transform="translate(4.242641, 29.242641) rotate(-315.000000) translate(-4.242641, -29.242641) "></path>
                    </g>
                </g>
            </g>
        </g>
    </g>
</svg>