<?xml version="1.0" standalone="no"?><!DOCTYPE svg PUBLIC "-//W3C//DTD SVG 1.1//EN" "http://www.w3.org/Graphics/SVG/1.1/DTD/svg11.dtd"><svg t="1650618694004" class="icon" viewBox="0 0 1024 1024" version="1.1" xmlns="http://www.w3.org/2000/svg" p-id="3997" xmlns:xlink="http://www.w3.org/1999/xlink" width="200" height="200"><defs><style type="text/css"></style></defs><path d="M983.676721 312.832664a510.504965 510.504965 0 0 0-109.695634-162.815457A510.334299 510.334299 0 0 0 511.998293 0.001707a507.304976 507.304976 0 0 0-231.167229 55.039816 514.85695 514.85695 0 0 0-176.340746 147.19951 35.96788 35.96788 0 0 0 57.173143 43.519854 443.561188 443.561188 0 0 1 151.679495-126.463578A434.857217 434.857217 0 0 1 511.998293 72.0228a437.417209 437.417209 0 0 1 311.038964 128.767571 439.337202 439.337202 0 0 1 128.980903 311.294962 437.502542 437.502542 0 0 1-128.810237 311.038963A439.294536 439.294536 0 0 1 511.998293 952.147866a435.07055 435.07055 0 0 1-198.826004-47.359842 444.499852 444.499852 0 0 1-151.679494-126.548911 35.96788 35.96788 0 1 0-57.173143 43.605188 516.350279 516.350279 0 0 0 176.511412 147.199509A508.11564 508.11564 0 0 0 511.998293 1023.998293a509.438302 509.438302 0 0 0 361.982794-149.8875A510.419632 510.419632 0 0 0 1023.996587 512.085333c0-69.11977-13.439955-136.319546-40.319866-199.252669z" fill="#000000" p-id="3998"></path><path d="M442.878524 622.506298a35.839881 35.839881 0 0 0 25.429248 61.439796 35.839881 35.839881 0 0 0 25.429249-10.538632l135.89288-135.722214a36.266546 36.266546 0 0 0 0-51.19983L493.694354 350.720538a35.96788 35.96788 0 1 0-50.901163 50.81583l74.239752 74.325086-480.97973 0.170666a36.053213 36.053213 0 0 0 0 72.106426H517.118276l-74.325085 74.239753h0.085333v0.170666z" fill="#3461EC" p-id="3999"></path></svg>