<?xml version="1.0" encoding="UTF-8"?>
<svg width="228px" height="230px" viewBox="0 0 228 230" version="1.1" xmlns="http://www.w3.org/2000/svg" xmlns:xlink="http://www.w3.org/1999/xlink">
    <title>编组 3</title>
    <defs>
        <linearGradient x1="80.8023183%" y1="-453.26324%" x2="38.061176%" y2="222.914598%" id="linearGradient-1">
            <stop stop-color="#FEBBBA" offset="0%"></stop>
            <stop stop-color="#FF928E" offset="100%"></stop>
        </linearGradient>
        <linearGradient x1="-0.000935434483%" y1="49.9927545%" x2="99.9989404%" y2="49.9927545%" id="linearGradient-2">
            <stop stop-color="#DAE3FE" offset="0%"></stop>
            <stop stop-color="#E9EFFD" offset="100%"></stop>
        </linearGradient>
    </defs>
    <g id="页面-1" stroke="none" stroke-width="1" fill="none" fill-rule="evenodd">
        <g id="配置设置（默认）" transform="translate(-627.000000, -331.000000)" fill-rule="nonzero">
            <g id="全量更新" transform="translate(541.000000, 283.000000)">
                <g id="编组-4" transform="translate(56.000000, 48.000000)">
                    <g id="编组-3" transform="translate(30.000000, 0.000000)">
                        <path d="M201.063649,197.375498 C196.39949,202.296184 191.986036,205.469409 188.499243,207.976405 C147.512121,237.446764 99.0133161,228.856244 88.7060832,226.758401 C73.4853765,223.660655 44.0640133,217.672387 22.7930464,192.605772 C-9.38828936,154.681927 -4.37725759,94.9343248 20.5847904,55.4939161 C25.1508357,48.2795842 49.2693271,8.23839899 98.2903868,1.81702529 C127.957451,-2.06922182 162.539658,5.76872558 187.583143,26.7939547 C240.151865,70.928052 236.409365,160.086688 201.063649,197.375498 Z" id="路径" fill="#F7F7F8"></path>
                        <g id="Metaphor_illustration" transform="translate(10.633157, 14.501882)">
                            <g id="编组" transform="translate(0.366843, 0.498118)">
                                <g id="编组-2" transform="translate(30.612696, 96.028657) scale(-1, 1) translate(-30.612696, -96.028657) translate(0.664509, 29.508833)">
                                    <g id="编组" transform="translate(0.359491, 0.000000)">
                                        <path d="M41.7881266,1.40306006 C42.0160792,0.480177217 40.9213319,-0.18851688 40.2060586,0.431502777 C32.9431806,6.7267304 15.3220577,25.7613339 17.9910193,60.509476 C21.3396245,104.106129 11.690906,119.532257 0.118765246,128.689619 C0.118765246,128.689619 15.6310389,124.829852 25.9662971,109.201107 C51.3420244,70.8286506 37.7353583,17.8113684 41.7881266,1.40306006 Z" id="路径" fill="#4455A2"></path>
                                        <path d="M35.889325,14.7120428 C34.8062626,19.5008737 33.8172546,24.3086336 33.0040957,29.146139 C32.165843,33.9784293 31.4733649,38.834091 30.9318337,43.7044323 C30.4088835,48.576512 29.9769228,53.4578631 29.7508858,58.3504169 C29.5032028,63.2416187 29.4641252,68.1382288 29.4420961,73.0545404 C29.3926745,77.9679548 29.3706454,82.917875 28.8461628,87.8807364 C28.3270437,92.8335538 27.2133322,97.8035619 25.2320597,102.421067 C24.7368852,103.571869 24.2191071,104.717843 23.6394561,105.82171 C23.0797269,106.936973 22.4711508,108.027512 21.8432275,109.106462 C20.576462,111.258761 19.166029,113.330129 17.6096296,115.286378 C14.4862951,119.191729 10.7754559,122.614199 6.72747653,125.470539 C6.3014541,125.771277 5.71433236,125.666589 5.4162699,125.237017 C5.12357104,124.815172 5.21820012,124.23668 5.62506687,123.931306 L5.62794022,123.929181 C6.59300363,123.206405 7.54868075,122.473198 8.46872829,121.699622 C8.93497766,121.32027 9.38341224,120.920831 9.83931754,120.52989 C10.2798983,120.122145 10.7363783,119.73159 11.1639332,119.310518 C12.90212,117.656166 14.5228825,115.880515 16.0055325,113.993028 C18.9859655,110.236598 21.4248673,106.011772 23.3254944,101.604031 C24.2512886,99.3885716 25.0136849,97.1084059 25.5992742,94.7768615 C26.1831395,92.4445446 26.5903893,90.0635532 26.8631663,87.6572589 C27.4091033,82.841966 27.4711677,77.9426518 27.5554527,73.0300101 C27.6462507,68.1164026 27.7707626,63.1792305 28.0967924,58.2549996 C28.2531028,55.792691 28.4532797,53.333666 28.6971315,50.8792766 C28.8120656,49.6514059 28.9503697,48.4260462 29.0865666,47.2008796 C29.2344485,45.976872 29.3890349,44.753637 29.5535822,43.5321403 C30.2203916,38.6469262 31.0345082,33.7845041 31.9999547,28.954918 C32.9883881,24.1299675 34.1034405,19.3330242 35.3998972,14.5876525 C35.4370593,14.4520594 35.575938,14.3722874 35.7104109,14.409759 C35.8408611,14.4462649 35.9190163,14.5803127 35.889325,14.7120428 Z" id="路径" fill="#FFFFFF"></path>
                                    </g>
                                    <g id="编组" transform="translate(19.549819, 21.024788)">
                                        <path d="M5.62709931,110.010566 C6.16357549,111.673255 8.2324815,112.250326 9.57454255,111.124864 C16.9793843,104.915095 36.3199989,85.4738832 35.7208403,52.2164594 C35.2149315,24.132079 37.6231737,8.85567284 39.1991329,1.99607293 C39.5324717,0.545503441 37.8108339,-0.485255531 36.6769403,0.484870561 C24.1659984,11.1876327 -13.815084,49.7632338 5.62709931,110.010566 Z" id="路径" fill="#5573E1"></path>
                                        <path d="M8.00148526,110.111429 C8.0368892,110.136644 8.07500165,110.15878 8.11620952,110.177451 C8.46018884,110.334327 8.86704403,110.183996 9.02471734,109.841757 C9.20347824,109.453706 26.9128029,70.591687 27.9822729,31.5104269 C27.992333,31.1343106 27.6942047,30.8209444 27.3157888,30.80991 C26.9373728,30.7999635 26.6226066,31.0967759 26.6119661,31.4732772 C25.5502346,70.2698516 7.9564081,108.887992 7.77880798,109.27354 C7.63970723,109.575165 7.74030861,109.925103 8.00148526,110.111429 Z" id="路径" fill="#FFFFFF"></path>
                                    </g>
                                </g>
                                <g transform="translate(30.998940, 0.000000)">
                                    <path d="M0.227437904,35.9956236 C0.227437904,29.0774278 5.82255723,23.4691544 12.7247712,23.4691544 L119.001436,23.4691544 C124.864633,23.4691544 129.699341,28.074741 129.997532,33.9441155 L137.842304,188.387829 C138.075617,192.9809 134.468437,196.854962 129.880998,196.938642 L8.07441281,199.159058 C3.76386473,199.236282 0.227437904,195.755344 0.227437904,191.433925 L0.227437904,35.9956236 L0.227437904,35.9956236 Z" id="路径" fill="#C9CDD4"></path>
                                    <path d="M25.8767536,196.532021 C25.8755295,196.532021 25.8743054,196.532021 25.8728365,196.532021 L12.2434549,196.355336 C7.68612808,196.295951 3.97832717,192.531335 3.97832717,187.963049 L3.97832717,167.336803 C3.97832717,167.175578 4.10857148,167.045028 4.26917348,167.045028 C4.42977549,167.045028 4.56026462,167.175578 4.56026462,167.336803 L4.56026462,187.963049 C4.56026462,192.213793 8.01026994,195.716817 12.2510443,195.772031 L25.8804259,195.948716 C26.0410279,195.950679 26.1698033,196.083192 26.1678668,196.244172 C26.1653966,196.403925 26.0356419,196.532021 25.8767536,196.532021 Z" id="路径" fill="#FFFFFF"></path>
                                    <path d="M4.2694183,161.239456 C4.1088163,161.239456 3.97857199,161.108906 3.97857199,160.947681 L3.97857199,157.607355 C3.97857199,157.44613 4.1088163,157.315824 4.2694183,157.315824 C4.43002031,157.315824 4.56050944,157.446375 4.56050944,157.607355 L4.56050944,160.947681 C4.56050944,161.108906 4.43002031,161.239456 4.2694183,161.239456 Z" id="路径" fill="#FFFFFF"></path>
                                    <g transform="translate(8.813525, 22.085613)">
                                        <path d="M0.12063167,3.76068918 C0.107720859,1.54721992 2.04963416,-0.165887496 4.23808133,0.131532098 C18.7512636,2.10426817 68.6578478,8.20554158 109.920078,5.03061195 C111.801765,4.88582848 113.434716,6.31476767 113.535092,8.20382381 L121.760804,163.336117 C121.873666,165.463207 120.253201,167.282326 118.131835,167.407968 C100.77776,168.437403 29.3081526,172.41674 3.81601142,169.740454 C2.26458623,169.577512 1.08675657,168.268326 1.07769823,166.704664 L0.12063167,3.76068918 Z" id="路径" fill="#FFFFFF"></path>
                                        <path d="M106.099905,89.8248892 L12.3440759,89.8248892 C11.5515932,89.8248892 10.9089403,89.1809708 10.9089403,88.3863795 L10.9089403,84.8634788 C10.9089403,84.0691329 11.5513483,83.4249692 12.3440759,83.4249692 L106.099905,83.4249692 C106.892387,83.4249692 107.53504,84.0688875 107.53504,84.8634788 L107.53504,88.3863795 C107.53504,89.1807254 106.892632,89.8248892 106.099905,89.8248892 Z" id="路径" fill="#D8DEE8" opacity="0.58"></path>
                                        <path d="M106.487455,99.6986307 L11.9567705,99.6986307 C11.3780157,99.6986307 10.9091851,99.2284526 10.9091851,98.6485825 L10.9091851,94.3492498 C10.9091851,93.7693797 11.3782605,93.2992015 11.9567705,93.2992015 L106.487455,93.2992015 C107.06621,93.2992015 107.53504,93.7693797 107.53504,94.3492498 L107.53504,98.6485825 C107.53504,99.2284526 107.065965,99.6986307 106.487455,99.6986307 Z" id="路径" fill="#D8DEE8" opacity="0.58"></path>
                                        <path d="M108.370856,156.077312 L12.2530028,156.077312 C11.5552655,156.077312 10.9894861,155.510203 10.9894861,154.810825 L10.9894861,150.944125 C10.9894861,150.244747 11.5552655,149.677638 12.2530028,149.677638 L108.370856,149.677638 C109.068593,149.677638 109.634373,150.244747 109.634373,150.944125 L109.634373,154.810825 C109.634373,155.510448 109.068593,156.077312 108.370856,156.077312 Z" id="路径" fill="#FFFFFF" opacity="0.58"></path>
                                        <path d="M105.111321,76.7207585 L13.2256732,76.7207585 C11.9462432,76.7207585 10.9091851,75.6812623 10.9091851,74.3988244 L10.9091851,39.9131206 C10.9091851,38.6306826 11.9462432,37.5911864 13.2256732,37.5911864 L103.55353,37.5911864 C104.792075,37.5911864 105.811506,38.5678613 105.86757,39.8080912 L107.425606,74.293795 C107.485097,75.6162325 106.431881,76.7207585 105.111321,76.7207585 Z" id="路径" fill="#D8DEE8"></path>
                                        <path d="M105.164936,77.0890975 L13.279044,77.0890975 C11.7991063,77.0890975 10.5953257,75.8822414 10.5953257,74.3990698 L10.5953257,39.9131206 C10.5953257,38.4299489 11.7991063,37.2230929 13.279044,37.2230929 L103.606901,37.2230929 C105.045219,37.2230929 106.223049,38.3511769 106.287682,39.7914043 L107.845472,74.2771081 C107.879257,75.0177123 107.615831,75.7212618 107.104891,76.2574514 C106.593707,76.7936411 105.904783,77.0890975 105.164936,77.0890975 Z M13.279044,37.95928 C12.2040388,37.95928 11.3297861,38.835588 11.3297861,39.9131206 L11.3297861,74.3990698 C11.3297861,75.4766023 12.2040388,76.3529104 13.279044,76.3529104 L105.164692,76.3529104 C105.702072,76.3529104 106.202484,76.1384345 106.573876,75.7489915 C106.945268,75.3595486 107.136228,74.8486347 107.111991,74.3107273 L105.5542,39.8247781 C105.50695,38.7789016 104.651549,37.95928 103.606901,37.95928 L13.279044,37.95928 L13.279044,37.95928 Z" id="形状" fill="#FFFFFF"></path>
                                        <path d="M106.579997,145.773883 L13.9273277,145.773883 C12.3046599,145.773883 10.9892413,144.455372 10.9892413,142.828889 L10.9892413,109.58955 C10.9892413,107.963067 12.3046599,106.644556 13.9273277,106.644556 L105.294446,106.644556 C106.872802,106.644556 108.169369,107.894602 108.230329,109.475441 L109.51588,142.71478 C109.580512,144.384698 108.247467,145.773883 106.579997,145.773883 Z" id="路径" fill="#D8DEE8"></path>
                                        <path d="M106.579997,146.141976 L13.9275726,146.141976 C12.1051315,146.141976 10.6222559,144.655615 10.6222559,142.828889 L10.6222559,109.58955 C10.6222559,107.762579 12.1051315,106.276217 13.9275726,106.276217 L105.294446,106.276217 C107.077471,106.276217 108.52852,107.674973 108.59756,109.460717 L109.882865,142.700547 C109.918119,143.608757 109.591284,144.470095 108.962342,145.125547 C108.333399,145.780999 107.4873,146.141976 106.579997,146.141976 Z M13.9275726,107.012159 C12.510064,107.012159 11.3567163,108.168463 11.3567163,109.58955 L11.3567163,142.828889 C11.3567163,144.24973 12.510064,145.405789 13.9275726,145.405789 L106.579997,145.405789 C107.285813,145.405789 107.943645,145.125057 108.43304,144.615124 C108.921946,144.105437 109.176314,143.435507 109.148894,142.729013 L107.863589,109.489183 C107.809728,108.100243 106.681352,107.012159 105.294446,107.012159 L13.9275726,107.012159 L13.9275726,107.012159 Z" id="形状" fill="#FFFFFF"></path>
                                        <polygon id="矩形" fill="#FFFFFF" transform="translate(39.866193, 57.166388) rotate(-0.951118) translate(-39.866193, -57.166388) " points="39.4997103 37.5981903 40.2341989 37.5981616 40.2326754 76.7345858 39.4981868 76.7346145"></polygon>
                                        <polygon id="矩形" fill="#FFFFFF" transform="translate(75.390399, 57.148228) rotate(-1.547229) translate(-75.390399, -57.148228) " points="75.0245426 37.5770752 75.7587335 37.5770286 75.7562555 76.7193802 75.0220646 76.7194268"></polygon>
                                        <polygon id="矩形" fill="#FFFFFF" transform="translate(59.046095, 50.968642) rotate(-89.799466) translate(-59.046095, -50.968642) " points="58.6783926 3.11568531 59.4145842 3.11567927 59.4137967 98.8215995 58.6776051 98.8216056"></polygon>
                                        <rect id="矩形" fill="#FFFFFF" x="11.2005211" y="64.3402998" width="95.704352" height="1"></rect>
                                        <polygon id="矩形" fill="#FFFFFF" transform="translate(39.780467, 126.225603) rotate(-89.289498) translate(-39.780467, -126.225603) " points="20.2146784 125.85895 59.3462765 125.857812 59.3462551 126.592256 20.214657 126.593394"></polygon>
                                        <rect id="矩形" fill="#FFFFFF" x="11.2005211" y="115.784319" width="97.4068312" height="1"></rect>
                                        <rect id="矩形" fill="#FFFFFF" x="11.2005211" y="124.805311" width="97.6501824" height="1"></rect>
                                        <polygon id="矩形" fill="#FFFFFF" transform="translate(60.133193, 135.499444) rotate(-89.283768) translate(-60.133193, -135.499444) " points="59.7665515 86.3613164 60.5027223 86.3612948 60.4998344 184.637572 59.7636636 184.637594"></polygon>
                                    </g>
                                    <path d="M72.4545184,2.41150359 C68.6157387,-0.265518153 65.2776162,-0.212267285 62.9278326,0.482693351 C60.7844323,1.11655046 59.3950781,3.19088035 59.5990132,5.4217727 L60.6123238,16.5085052 L72.6706946,17.5811299 C72.6706946,17.5808845 79.9832272,7.6612539 72.4545184,2.41150359 Z M67.1517143,11.3556862 C65.4910994,11.3556862 64.1450783,10.0065007 64.1450783,8.34198159 C64.1450783,6.67746252 65.4913442,5.32803154 67.1517143,5.32803154 C68.8120845,5.32803154 70.1583504,6.67746252 70.1583504,8.34198159 C70.1583504,10.0065007 68.8123293,11.3556862 67.1517143,11.3556862 Z" id="形状" fill="#343590"></path>
                                    <path d="M61.8168388,11.8447599 C61.6679882,11.8447599 61.5411714,11.7311417 61.5274614,11.5794871 L61.366125,9.81386502 C61.3514357,9.65362163 61.4691942,9.51178291 61.6293066,9.49681377 C61.7926016,9.48135384 61.9311698,9.60012537 61.9456142,9.76085955 L62.1069507,11.5264816 C62.1216399,11.686725 62.0038814,11.8285638 61.843769,11.8435329 C61.8347107,11.8442691 61.8256523,11.8447599 61.8168388,11.8447599 Z M61.500776,8.38468044 C61.3519254,8.38468044 61.2251086,8.27106223 61.2113986,8.11940768 L61.0887437,6.77905634 C60.8943566,4.65392954 62.2283815,2.67530397 64.2606334,2.0740845 C65.699931,1.64832295 67.1828065,1.58721942 68.6676406,1.89273707 C68.82506,1.92488391 68.9264155,2.07923781 68.8943441,2.23702724 C68.8620278,2.39457129 68.7095049,2.49542892 68.5508614,2.46401827 C67.1597934,2.17862307 65.7719081,2.23530947 64.4251525,2.6335867 C62.6587753,3.15627955 61.4990623,4.87748503 61.6679882,6.72629627 L61.7906431,8.06664761 C61.8053323,8.226891 61.6875738,8.36897511 61.5274614,8.38369886 C61.5184031,8.38443504 61.5095896,8.38468044 61.500776,8.38468044 Z" id="形状" fill="#BDD0FB"></path>
                                    <path d="M44.1547799,23.6730782 L44.1547799,18.0991602 C44.1547799,16.1750125 45.745866,14.6339275 47.6642766,14.6996935 L86.0045783,16.0164869 C87.7060783,16.074891 89.083926,17.4211319 89.186016,19.1246689 L89.5064855,24.4804301 L44.1547799,23.6730782 Z" id="路径" fill="#343590"></path>
                                    <path d="M58.4510516,16.8000353 L56.802188,16.8000353 C56.641586,16.8000353 56.5110969,16.6694848 56.5110969,16.5082598 C56.5110969,16.3470349 56.6413412,16.2164844 56.802188,16.2164844 L58.4510516,16.2164844 C58.6116536,16.2164844 58.7421428,16.3470349 58.7421428,16.5082598 C58.7418979,16.6694848 58.6116536,16.8000353 58.4510516,16.8000353 Z" id="路径" fill="#BDD0FB"></path>
                                    <path d="M46.2301202,21.9229161 C46.0695182,21.9229161 45.9392739,21.792611 45.9392739,21.6311406 L45.9392739,19.3761995 C45.9392739,17.6338899 47.353355,16.2167298 49.0915779,16.2167298 L55.1533244,16.2167298 C55.3139264,16.2167298 55.4444156,16.3472803 55.4444156,16.5085052 C55.4444156,16.6697302 55.3141713,16.8002807 55.1533244,16.8002807 L49.0915779,16.8002807 C47.6743142,16.8002807 46.5212114,17.9560945 46.5212114,19.3764448 L46.5212114,21.631386 C46.5209665,21.7923656 46.3907222,21.9229161 46.2301202,21.9229161 Z" id="路径" fill="#BDD0FB"></path>
                                    <path d="M28.5328072,25.080668 C28.6253493,23.1503854 30.2134975,21.6331037 32.141456,21.6331037 L99.1866736,21.6311406 C101.597417,21.6311406 103.658558,23.3700145 104.069611,25.7510891 L104.126409,26.0796739 C104.576878,28.6877395 102.573515,31.0729857 99.9331302,31.0729857 L31.1484656,31.0729857 C29.5681516,31.0729857 28.3087968,29.7485851 28.3846911,28.166519 L28.5328072,25.080668 Z" id="路径" fill="#7D97F4"></path>
                                </g>
                            </g>
                            <g id="编组-5" transform="translate(69.366843, 41.498118)" fill="#D8DEE8">
                                <polygon id="路径" points="1.67690043 0.194389239 6.73650123 7.34772498 6.79381455 7.34772498 6.79381455 0.194389239 8.48528616 0.194389239 8.48528616 10.1117705 6.85112787 10.1117705 1.73421375 2.86124016 1.67690043 2.86124016 1.67690043 10.1117705 -5.98513831e-14 10.1117705 -5.98513831e-14 0.194389239"></polygon>
                                <path d="M16.2971408,3.93085165 C16.8848452,4.65310417 17.1857401,5.66694054 17.1857401,6.95871116 L11.6387332,6.95871116 C11.6958037,7.62542389 11.8823149,8.13940222 12.197781,8.4867612 C12.5130043,8.83412018 12.9717537,9.01462448 13.5592153,9.01462448 C14.0609497,9.01462448 14.4623858,8.90354491 14.7776091,8.68115044 C15.0214336,8.50041081 15.2363586,8.20882695 15.4371981,7.80616353 L17.0711135,7.80616353 C16.8991735,8.47287626 16.5552936,9.04239437 16.0392308,9.48694797 C15.3798847,10.0286962 14.562927,10.3063951 13.5740293,10.3063951 C12.4702621,10.3063951 11.5957482,9.97292107 10.9509734,9.32032862 C10.2629706,8.63973094 9.91884782,7.70920424 9.91884782,6.51462824 C9.91884782,5.44525209 10.234314,4.55614489 10.89366,3.83389237 C11.5243494,3.09775491 12.3986205,2.73651088 13.5023877,2.73651088 C14.7205387,2.73627565 15.6518802,3.12528947 16.2971408,3.93085165 Z M12.2694227,4.47259987 C11.9685277,4.76418373 11.7679311,5.19485239 11.6673899,5.7643705 L15.4799402,5.7643705 C15.3366569,4.59756438 14.6916391,4.02828131 13.544887,4.02828131 C13.0004104,4.02804627 12.5848888,4.16689573 12.2694227,4.47259987 Z" id="形状"></path>
                                <path d="M20.7976938,2.69532683 L22.4459376,2.69532683 L22.4459376,4.0009824 L20.7976938,4.0009824 L20.7976938,8.05679856 C20.7976938,8.22341791 20.8263505,8.34861776 20.9125633,8.44581238 C20.9985333,8.52912205 21.1131599,8.57077689 21.2850999,8.57077689 L22.2599121,8.57077689 L22.2599121,9.87643246 L21.0128616,9.87643246 C20.3678439,9.87643246 19.8947661,9.70981311 19.5936283,9.37633908 C19.3070617,9.07087027 19.1635355,8.64020162 19.1635355,8.05679856 L19.1635355,4.0009824 L17.8307579,4.0009824 L17.8307579,2.69532683 L19.1635355,2.69532683 L19.1635355,1.02842733 L20.7976938,0.375599547 L20.7976938,2.69532683 L20.7976938,2.69532683 Z" id="路径"></path>
                                <polygon id="路径" points="24.7345849 2.78781469 26.1348757 8.11304436 27.6726213 2.82735148 29.1775817 2.84759055 30.563787 8.17258489 32.115861 2.88689201 33.9217164 2.91113183 31.3253743 10.0578781 29.8060855 10.0374037 28.4050661 4.7677138 26.8396353 9.99763156 25.3203465 9.97715715 22.9292152 2.76333953"></polygon>
                                <path d="M40.9889835,3.88119532 C41.6522152,4.59850574 41.9834668,5.50596931 41.9676814,6.6170003 C41.9518959,7.71414634 41.5949019,8.61243173 40.9258417,9.2979715 C40.2276391,10.0110458 39.3052832,10.3595815 38.1874305,10.3447552 C37.0552495,10.3294582 36.1574217,9.9564474 35.4798617,9.2250167 C34.8163871,8.52159124 34.4997067,7.61436301 34.5152493,6.51721696 C34.5310348,5.40618597 34.8737004,4.50790058 35.5716601,3.8087112 C36.2555344,3.09540153 37.1633191,2.76028013 38.2955001,2.77557711 C39.4133528,2.7904034 40.3114235,3.14976463 40.9889835,3.88119532 Z M36.68927,4.82372426 C36.3677325,5.26404178 36.201621,5.84509145 36.191664,6.53957407 C36.181707,7.2340567 36.3313045,7.80569285 36.6399708,8.2542472 C37.0052218,8.77316762 37.5173989,9.04404173 38.2054017,9.05321992 C38.8790761,9.06216276 39.41311,8.80540894 39.7929322,8.29660805 C40.1149553,7.84240559 40.2949094,7.2754762 40.3046236,6.59487852 C40.3145805,5.9003959 40.1508976,5.3148748 39.8419885,4.86632045 C39.4769803,4.33351508 38.950232,4.07652591 38.2765576,4.06734773 C37.5890406,4.05793421 37.069335,4.30080309 36.68927,4.82372426 Z" id="形状"></path>
                                <path d="M47.8811536,3.08481132 L47.8585682,4.66793047 C47.4877316,4.5519088 47.1443373,4.5055472 46.8002146,4.50107578 C46.3701218,4.49519233 45.9810712,4.64274929 45.6323342,4.9717519 C45.2255553,5.34123266 45.0324871,5.82485238 45.0237444,6.43602533 L44.9693453,10.2414418 L43.3497582,10.2197907 L43.452485,3.03939107 L45.0720721,3.06104218 L45.0572581,4.08876349 C45.2629546,3.73034363 45.4963364,3.45570411 45.7712461,3.26484494 C46.1046834,3.00526706 46.4934911,2.88547998 46.9519977,2.89159877 C47.3104488,2.89630553 47.6251864,2.95631674 47.8811536,3.08481132 Z" id="路径"></path>
                                <polygon id="路径" points="50.3963828 2.21313128e-14 50.3963828 5.77825544 53.4352032 2.93090023 55.5421964 2.93090023 52.2597944 5.90321995 55.828763 10.1117705 53.7360981 10.1117705 51.1416988 6.91705633 50.3963828 7.597654 50.3963828 10.1117705 48.7622245 10.1117705 48.7622245 6.2263573e-14 50.3963828 6.2263573e-14"></polygon>
                            </g>
                        </g>
                        <g id="编组" transform="translate(144.633157, 59.489686)">
                            <g transform="translate(0.366843, -0.489686)" id="路径">
                                <path d="M45.632536,13.2223084 C45.632536,13.2223084 48.7100133,14.7302258 49.2758566,16.4626391 C49.7299224,17.8526296 53.1326576,18.0319364 53.4687095,20.7655199 C53.6423723,22.1770175 54.679072,23.3072305 56.0743709,23.5227854 C59.5497855,24.0594976 64.9057473,25.8776979 65.7627876,31.9567313 C66.4169014,36.5967186 64.0688558,38.3561971 61.604955,38.9654054 C59.7951681,39.4127059 58.5924813,41.1862003 58.9585164,43.0268744 C59.3096799,44.7923943 58.786053,46.8336407 55.7498326,48.4476439 C48.9460412,52.0644706 42.1513647,39.879097 42.1513647,39.879097 L40.7589441,18.6024801 L45.632536,13.2223084 Z" fill="#343590"></path>
                                <path d="M8.61117967,8.17803498 C8.61117967,8.17803498 22.1957354,29.8253482 38.3497327,34.0064356 C38.3497327,34.0064356 35.2022146,43.0382321 32.7726147,44.0720254 C32.7726147,44.0720254 12.8990194,27.3660413 7.79155847,11.2540413 L8.61117967,8.17803498 Z" fill="#F3ADA7"></path>
                                <path d="M73.5987212,146.634328 L74.0391147,150.280636 C74.1225879,150.97249 74.6632453,151.519351 75.3504606,151.598372 C76.5106911,151.732006 78.3727688,151.868782 80.194549,151.674734 C80.9942613,151.589672 81.5133308,150.773851 81.2696272,150.001768 C80.8256357,148.594137 80.0129707,146.481119 78.8417063,145.237571 L74.8265939,145.237571 C74.0844493,145.237571 73.5092513,145.891727 73.5987212,146.634328 Z" fill="#000073"></path>
                                <path d="M42.1513647,103.918703 L41.473744,107.934983 C41.473744,107.934983 43.7431137,131.093838 44.1468077,140.35738 C44.2101322,141.809717 43.837141,143.244897 43.0806045,144.482887 L39.1343335,150.9389 L49.1633595,144.976827 L49.3629278,143.743911 L47.7210469,141.469711 L49.8714432,115.526041 C49.9978524,114.001933 49.6855472,112.473475 48.9721865,111.123358 L46.8978277,107.197215 L42.1513647,103.918703 Z" fill="#F6C1C0"></path>
                                <path d="M38.4737433,151.873857 L41.6742717,151.873857 C42.2732165,151.873857 42.8383401,151.59668 43.2036556,151.118448 C44.2014971,149.812312 46.2686599,147.264076 47.2569067,147.197622 C48.5874419,147.107968 48.4173771,151.873857 48.4173771,151.873857 L49.1631197,151.873857 L50.1079508,145.951898 C50.3456577,144.461863 49.6102294,142.985844 48.2820928,142.287707 C48.2820928,142.287707 47.9779431,144.553933 46.3286263,145.556312 C44.6793096,146.55869 39.6169434,150.148693 39.6169434,150.148693 C39.6169434,150.148693 38.9968905,150.059523 38.3161515,150.183491 C37.3065567,150.36739 37.4475977,151.873857 38.4737433,151.873857 Z" fill="#000073"></path>
                                <path d="M55.8877554,105.826315 C55.8877554,105.826315 69.1827931,131.233755 71.2962501,137.034645 C73.409707,142.835536 74.1499326,147.674887 74.1782368,148.133062 C74.222612,148.849081 75.1065172,149.53586 77.5433131,149.53586 C78.8009291,149.53586 79.4169043,149.027905 79.7184155,148.536382 C79.9757915,148.117113 79.9889841,147.592242 79.7721455,147.150258 C79.0031359,145.582169 76.5625021,140.571243 75.6586881,138.298493 C74.5795322,135.584967 72.2581116,123.287707 70.9849043,119.012134 C69.7116971,114.73656 68.2727426,110.098506 62.728726,105.826315 C62.7289658,105.826315 58.9230163,102.070779 55.8877554,105.826315 Z" fill="#F6C1C0"></path>
                                <path d="M47.4890967,64.1949889 C44.0594965,49.5544165 52.7476731,41.2739205 52.7476731,41.2739205 C47.2657817,35.9727695 37.2775329,33.5603434 37.2775329,33.5603434 C37.2775329,33.5603434 27.7467081,40.5801335 28.8774351,46.0746073 C29.5401841,49.2948808 35.576645,65.3638665 35.576645,65.3638665 C35.576645,65.3638665 41.1585604,68.0254372 47.4890967,64.1949889 Z" fill="#607FEE"></path>
                                <path d="M55.0928403,71.4431415 C53.6970617,67.2071987 47.4890967,64.1949889 47.4890967,64.1949889 C41.1585604,68.0254372 35.576645,65.3641081 35.576645,65.3641081 C35.576645,65.3641081 34.3247858,70.1846105 35.1887822,74.6643816 C36.0527785,79.1441526 41.4735041,107.934741 41.4735041,107.934741 C50.014643,109.67827 63.1508896,106.180579 63.1508896,106.180579 C57.710495,96.4496789 56.488619,75.6790843 55.0928403,71.4431415 Z" fill="#26264F"></path>
                                <path d="M43.5082851,23.8855072 L46.2964843,36.5031987 C46.5634549,37.6145628 45.5576979,37.4325978 44.4423223,37.2209094 C42.6157447,36.8738951 40.2617025,36.1595676 39.474703,34.7275294 C39.3945879,34.5818124 39.3545303,34.4170048 39.3319829,34.2519555 L38.1340934,25.5026518 C38.0391066,24.8083816 38.4116181,24.1346518 39.0472623,23.8507091 L41.3588483,22.818124 C42.2492299,22.4206041 43.2792133,22.9321844 43.5082851,23.8855072 Z" fill="#F3ADA7"></path>
                                <path d="M52.7476731,41.2741622 C52.7476731,41.2741622 79.660368,68.114124 40.6301362,57.4001781 C40.6301362,57.4001781 40.1849454,54.0073641 40.7659002,54.0658442 C53.4226553,55.3379078 58.7164919,58.2573227 48.4279312,48.2064738 C48.0642948,47.8512432 48.1765519,46.5098251 48.410421,46.0569666 C49.1228222,44.6780922 50.7522301,41.940159 52.7476731,41.2741622 Z" fill="#F6C1C0"></path>
                                <g transform="translate(33.341336, 7.491256)">
                                    <path d="M4.82633833,4.8920318 C4.82633833,4.8920318 1.85799994,6.91636248 0.58239399,12.0715548 C-0.693211957,17.2267472 1.37970767,19.0761208 3.5044383,18.9627854 C5.62916893,18.8494499 8.71000435,18.1875612 11.37947,14.4890556 C14.0489357,10.7905501 8.71624086,2.41822576 4.82633833,4.8920318 Z" fill="#F6C1C0"></path>
                                    <path d="M8.68769684,12.409628 C8.68769684,12.409628 9.77524805,5.02252464 3.68769572,6.15249603 L2.4567048,7.44365024 C2.4567048,7.44365024 -0.523147155,4.06291892 2.77452689,1.50719237 C6.07220093,-1.04829253 10.6481194,-0.393895072 13.1796623,4.25841653 C15.7114451,8.91096979 16.6301309,12.1800572 14.5082786,15.0711987 C12.3861865,17.9623402 10.7901199,15.4827345 10.7901199,15.4827345 C10.7901199,15.4827345 11.7632552,12.980655 10.9558672,11.9067472 C10.1484791,10.8330811 9.1065024,12.5311797 9.1065024,12.5311797 L8.68769684,12.409628 Z" fill="#343590"></path>
                                    <path d="M8.6284867,13.9390318 C8.6284867,13.9390318 9.16554607,10.1385485 11.0921476,11.2250223 C13.0187491,12.311496 10.3977363,14.7753943 9.34688456,15.61369 L8.6284867,13.9390318 Z" fill="#F6C1C0"></path>
                                </g>
                                <g>
                                    <path d="M8.70448744,12.6346073 C8.66323053,13.0811828 10.3115878,13.3897742 10.8361742,11.4860286 C10.6920149,10.6595739 10.4358383,7.04033068 9.80691033,6.47800318 C6.45694556,3.48343402 0.483089578,0.11454372 0.483089578,0.11454372 C-0.185176343,1.14229571 0.691053165,1.81892528 0.691053165,1.81892528 L3.67306391,3.84639746 C3.36195806,4.88429889 2.9081321,5.80209857 2.85680083,6.98716693 C2.81794258,7.88466773 3.14703836,8.7630779 3.73830738,9.44381558 C4.3317352,10.1269698 5.13072794,11.0090048 5.85080486,11.6786264 C7.21372193,12.9463402 8.70448744,12.6346073 8.70448744,12.6346073 Z" fill="#F3ADA7"></path>
                                    <path d="M7.08467417,11.1593132 L7.54041905,10.9703402 C7.47997289,10.8217234 6.04869409,7.31847377 5.35668146,6.58964706 C5.09354875,6.31319555 4.96665978,6.0763752 4.9784132,5.885469 C4.98416998,5.78228299 5.03502152,5.68006359 5.13144754,5.57615262 L7.54425691,6.87624801 L8.60998034,8.55743084 L9.02542778,8.28967886 L7.89062302,6.49902703 L5.06428513,4.97661049 L4.93667657,5.08124642 C4.65075662,5.31685851 4.50299933,5.56962798 4.48620873,5.85502067 C4.46534041,6.19478537 4.63348629,6.54735771 5.00000112,6.93327822 C5.52146921,7.48207313 6.68169974,10.1697424 7.08467417,11.1593132 Z" fill="url(#linearGradient-1)"></path>
                                </g>
                            </g>
                            <g transform="translate(13.366843, 35.510314)" id="路径">
                                <path d="M30.18721,26.4525369 L23.6268004,4.14405277 C23.5523875,3.89091619 23.330357,3.70600416 23.0616977,3.675656 C21.8730251,3.54061846 18.4290154,3.16161937 14.4522775,2.83390631 C9.66231353,2.43938025 4.09971241,2.11966594 0.77577798,2.39162307 C0.303208148,2.43020523 0.0176368086,2.91695205 0.227828912,3.33100444 C2.11810824,7.05488813 9.89328324,22.2021479 13.7869108,27.1641894 C13.9159252,27.3286341 14.1152453,27.424619 14.3278534,27.4227641 L29.5489025,27.2848763 C29.9919971,27.2808769 30.309218,26.8670598 30.18721,26.4525369 Z" fill="#C9CDD4"></path>
                                <path d="M13.7721731,0.89985818 L9.01579161,0.128215087 C8.76259469,0.087045105 8.55506019,0.32277266 8.63551303,0.560382271 L9.10639166,1.9495751 C9.14746368,2.07049721 9.25570053,2.15801283 9.3854398,2.17495134 L13.9623124,2.77038691 C14.1990806,2.80120558 14.3942934,2.59159156 14.3399334,2.36527429 L14.0485637,1.15228898 C14.0169141,1.02125081 13.9079524,0.921972342 13.7721731,0.89985818 Z" fill="url(#linearGradient-2)"></path>
                                <path d="M17.3336005,4.82065202 L16.9417251,2.83320054 C16.9023443,2.63393783 16.7334658,2.48337332 16.5259313,2.4626707 L6.91918579,1.51340854 C6.59592483,1.48141358 6.3369295,1.77007397 6.41279194,2.07779018 L7.02355704,4.55434105 C7.07236026,4.75242748 7.24945315,4.89569901 7.45867885,4.90581507 L16.846293,5.36597784 C17.1521588,5.38103429 17.3911013,5.11331178 17.3336005,4.82065202 Z" fill="#343590"></path>
                                <path d="M29.049984,21.5067509 C29.049984,21.5067509 29.9637157,17.8475629 29.5952755,16.5494145 C29.2265937,15.2512662 28.5124238,13.5821175 26.1316962,13.9531178 C23.7509686,14.3241182 20.9428504,15.3006702 20.9428504,15.3006702 C20.9428504,15.3006702 21.0846697,16.9916978 22.894013,16.4461367 L21.772022,17.2914152 C21.772022,17.2914152 21.9324445,18.6453195 23.4608069,17.9221394 L22.417336,19.0433744 C22.417336,19.0433744 23.0737635,20.1554345 24.1981704,19.4421351 C25.3223358,18.7286005 25.8611041,21.9473873 29.049984,21.5067509 Z" fill="#F6C1C0"></path>
                            </g>
                        </g>
                    </g>
                </g>
            </g>
        </g>
    </g>
</svg>