<?xml version="1.0" encoding="UTF-8"?>
<svg width="144px" height="144px" viewBox="0 0 144 144" version="1.1" xmlns="http://www.w3.org/2000/svg" xmlns:xlink="http://www.w3.org/1999/xlink">
    <title>编组</title>
    <defs>
        <linearGradient x1="50%" y1="3.85205925%" x2="50%" y2="121.56033%" id="linearGradient-1">
            <stop stop-color="#779EEA" stop-opacity="0.4" offset="0%"></stop>
            <stop stop-color="#FFFFFF" stop-opacity="0" offset="100%"></stop>
        </linearGradient>
    </defs>
    <g id="添加大模型以及高级配置" stroke="none" stroke-width="1" fill="none" fill-rule="evenodd">
        <g id="高级配置-大意图2" transform="translate(-408.000000, -326.000000)">
            <g id="编组-2" transform="translate(0.000000, 106.000000)">
                <g transform="translate(382.000000, 220.000000)" id="编组">
                    <g transform="translate(26.000000, 0.000000)" id="Group-4">
                        <rect id="Rectangle-25" x="0" y="0" width="144" height="144"></rect>
                        <path d="M72,100 C106.372614,100 135.319819,115.997855 143.9999,135.999771 L9.95177594e-05,135.999771 C8.68018075,115.997855 37.6273857,100 72,100 Z" id="Combined-Shape" fill="url(#linearGradient-1)"></path>
                        <g id="编组-4" transform="translate(26.000000, 34.000000)" stroke="#779EEA" stroke-width="2">
                            <line x1="15.5" y1="38.5" x2="29.5" y2="38.5" id="直线" stroke-linecap="square" stroke-dasharray="1,4"></line>
                            <path d="M58,1 C59.3807119,1 60.6307119,1.55964406 61.5355339,2.46446609 C62.4403559,3.36928813 63,4.61928813 63,6 L63,14 C63,15.3807119 62.4403559,16.6307119 61.5355339,17.5355339 C60.6307119,18.4403559 59.3807119,19 58,19 L6,19 C4.61928813,19 3.36928813,18.4403559 2.46446609,17.5355339 C1.55964406,16.6307119 1,15.3807119 1,14 L1,6 C1,4.61928813 1.55964406,3.36928813 2.46446609,2.46446609 C3.36928813,1.55964406 4.61928813,1 6,1 Z" id="Rectangle-3备份" fill="#FFFFFF"></path>
                            <path d="M86,29 C87.3807119,29 88.6307119,29.5596441 89.5355339,30.4644661 C90.4403559,31.3692881 91,32.6192881 91,34 L91,42 C91,43.3807119 90.4403559,44.6307119 89.5355339,45.5355339 C88.6307119,46.4403559 87.3807119,47 86,47 L34,47 C32.6192881,47 31.3692881,46.4403559 30.4644661,45.5355339 C29.5596441,44.6307119 29,43.3807119 29,42 L29,34 C29,32.6192881 29.5596441,31.3692881 30.4644661,30.4644661 C31.3692881,29.5596441 32.6192881,29 34,29 Z" id="Rectangle-3备份-2" fill="#FFFFFF"></path>
                            <path d="M73,57 C74.3807119,57 75.6307119,57.5596441 76.5355339,58.4644661 C77.4403559,59.3692881 78,60.6192881 78,62 L78,70 C78,71.3807119 77.4403559,72.6307119 76.5355339,73.5355339 C75.6307119,74.4403559 74.3807119,75 73,75 L34,75 C32.6192881,75 31.3692881,74.4403559 30.4644661,73.5355339 C29.5596441,72.6307119 29,71.3807119 29,70 L29,62 C29,60.6192881 29.5596441,59.3692881 30.4644661,58.4644661 C31.3692881,57.5596441 32.6192881,57 34,57 Z" id="Rectangle-3备份-3" fill="#FFFFFF"></path>
                            <path d="M12,19 L12,59 C12,62.8659932 15.1340068,66 19,66 L27,66 L27,66" id="路径-3" stroke-dasharray="3,3"></path>
                        </g>
                        <g id="Group备份" transform="translate(94.000000, 96.000000)">
                            <rect id="Rectangle-5" stroke="#779EEA" stroke-width="2" fill="#FFFFFF" x="1" y="1" width="22" height="22" rx="4"></rect>
                            <path d="M13,6 L13,11 L18,11 L18,13 L13,13 L13,18 L11,18 L11,12.999 L6,13 L6,11 L11,10.999 L11,6 L13,6 Z" id="Combined-Shape" fill="#779EEA"></path>
                        </g>
                    </g>
                </g>
            </g>
        </g>
    </g>
</svg>