<?xml version="1.0" encoding="UTF-8"?>
<svg width="144px" height="144px" viewBox="0 0 144 144" version="1.1" xmlns="http://www.w3.org/2000/svg" xmlns:xlink="http://www.w3.org/1999/xlink">
    <title>为空不可新增</title>
    <defs>
        <linearGradient x1="50%" y1="3.85205925%" x2="50%" y2="121.56033%" id="linearGradient-1">
            <stop stop-color="#779EEA" stop-opacity="0.4" offset="0%"></stop>
            <stop stop-color="#FFFFFF" stop-opacity="0" offset="100%"></stop>
        </linearGradient>
    </defs>
    <g id="保留线条" stroke="none" stroke-width="1" fill="none" fill-rule="evenodd">
        <g id="为空不可新增">
            <rect id="Rectangle-25" x="0" y="0" width="144" height="144"></rect>
            <path d="M72,100 C106.372614,100 135.319819,115.997855 143.9999,135.999771 L9.95177594e-05,135.999771 C8.68018075,115.997855 37.6273857,100 72,100 Z" id="Combined-Shape" fill="url(#linearGradient-1)" fill-rule="nonzero"></path>
            <g id="Group" transform="translate(37.000000, 60.000000)">
                <path d="M0.460962271,20.0342721 L15.5878842,1.80687959 C16.5378053,0.662259174 17.9480291,0 19.4354786,0 L51.4395208,0 C52.916024,0 54.3170329,0.65258865 55.2670558,1.78286221 L70.531014,19.9428972 C70.8339267,20.3032824 71,20.7589726 71,21.2297523 L71,38.5254664 L71,38.5254664 L0,39 L0,21.3115203 C0,20.8450417 0.163057818,20.3932362 0.460962271,20.0342721 Z" id="Path-2" fill="#FFFFFF" fill-rule="nonzero"></path>
                <path d="M0.497432218,20.0234655 L16.5939267,1.70010411 C17.5432355,0.619463376 18.9119542,0 20.3503462,0 L51.4395208,0 C52.916024,0 54.3170329,0.65258865 55.2670558,1.78286221 L70.531014,19.9428972 C70.8339267,20.3032824 71,20.7589726 71,21.2297523 L71,38.5254664 L71,38.5254664 L0,39 L0,21.3434239 C0,20.857627 0.176816364,20.388437 0.497432218,20.0234655 Z" id="Path-2" stroke="#779EEA" stroke-width="2"></path>
                <path d="M0,21 L0,47 C0,50.3137085 2.6862915,53 6,53 L65,53 C68.3137085,53 71,50.3137085 71,47 L71,21 C71,20.4477153 70.5522847,20 70,20 L55.2035967,20 C53.5467425,20 52.2035967,21.3431458 52.2035967,23 L52.2035967,27.3544191 C52.2035967,28.4589886 51.3081662,29.3544191 50.2035967,29.3544191 L23.103271,29.3544191 C21.9987015,29.3544191 21.103271,28.4589886 21.103271,27.3544191 L21.103271,23 C21.103271,21.3431458 19.7601252,20 18.103271,20 L1,20 C0.44771525,20 0,20.4477153 0,21 Z" id="Path" fill="#F8FAFE" fill-rule="nonzero"></path>
                <path d="M0,21 L0,47 C0,50.3137085 2.6862915,53 6,53 L65,53 C68.3137085,53 71,50.3137085 71,47 L71,21 C71,20.4477153 70.5522847,20 70,20 L56.2035967,20 C53.9944577,20 52.2035967,21.790861 52.2035967,24 L52.2035967,25.3544191 C52.2035967,27.5635581 50.4127357,29.3544191 48.2035967,29.3544191 L25.103271,29.3544191 C22.894132,29.3544191 21.103271,27.5635581 21.103271,25.3544191 L21.103271,24 C21.103271,21.790861 19.31241,20 17.103271,20 L1,20 C0.44771525,20 0,20.4477153 0,21 Z" id="Path" stroke="#779EEA" stroke-width="2"></path>
            </g>
            <g id="Group-13"></g>
        </g>
    </g>
</svg>