<?xml version="1.0" encoding="UTF-8"?>
<svg width="110px" height="20px" viewBox="0 0 110 20" version="1.1" xmlns="http://www.w3.org/2000/svg" xmlns:xlink="http://www.w3.org/1999/xlink">
    <title>未标题-1</title>
    <defs>
        <linearGradient x1="44.4645111%" y1="95.0687751%" x2="55.7423585%" y2="3.26674184%" id="linearGradient-1">
            <stop stop-color="#FFAA00" offset="0%"></stop>
            <stop stop-color="#FFA700" offset="40.56%"></stop>
            <stop stop-color="#FF9C00" offset="74.83%"></stop>
            <stop stop-color="#FF9500" offset="89.94%"></stop>
        </linearGradient>
    </defs>
    <g id="页面-1" stroke="none" stroke-width="1" fill="none" fill-rule="evenodd">
        <g id="知识网络" transform="translate(-24.000000, -15.000000)" fill-rule="nonzero">
            <g id="未标题-1" transform="translate(24.000000, 15.000000)">
                <path d="M3.80488278,19.7106162 L0.339041397,19.7106162 C0.0934423824,19.7106162 -0.0508220797,19.4693811 0.0165678939,19.1721363 L4.21870714,0.624059541 C4.28609711,0.326814721 4.53968309,0.0855796682 4.78478292,0.0855796682 L8.25012512,0.0855796682 C8.49572413,0.0855796682 8.6399886,0.326814721 8.57259862,0.624059541 L4.37045938,19.1721363 C4.30356859,19.4698725 4.04998261,19.7106162 3.80488278,19.7106162 Z" id="路径" fill="url(#linearGradient-1)"></path>
                <g id="编组" transform="translate(14.714072, 0.000000)" fill="#3E75FF">
                    <path d="M16.017848,1.68038411 C16.1371532,1.38657848 16.0787485,1.02300631 15.8740827,0.819111101 C14.4653826,-0.587520173 12.2440094,-0.184642896 11.3035449,2.0444476 L7.16480216,11.8554919 L5.07271787,1.49221094 C4.92296237,0.749344548 4.39632221,0.229534598 3.79280755,0.229534598 L0,0.229534598 L3.83873257,17.3017049 C4.56155244,20.4765743 7.9450283,20.9447963 9.18749974,18.0421147 L12.7806333,9.64801923 L16.017848,1.68038411 Z" id="路径"></path>
                    <path d="M23.1402194,0.43932557 L20.7521184,11.9606331 L17.1310305,3.14449909 C17.0052359,2.83791931 16.6593007,2.83890194 16.5345044,3.14646435 L14.7039931,7.65230277 C14.5242865,8.09448515 14.5282799,8.6216648 14.7149751,9.05942536 L18.5472183,18.0578367 C19.7846979,20.9639576 23.1676746,20.5124402 23.9044716,17.3434665 L27.8340559,0.43932557 L23.1402194,0.43932557 Z" id="路径"></path>
                </g>
                <g id="编组" transform="translate(42.821182, 6.068799)" fill="#FFFFFF">
                    <path d="M14.1169515,7.92783871 L3.26616739,7.92783871 C3.42241229,8.86919586 3.8412285,9.61844933 4.52211682,10.1741252 C5.20300515,10.7302924 6.07058866,11.0078846 7.12636492,11.0078846 C8.38830457,11.0078846 9.47303356,10.5735633 10.3800527,9.70442924 L13.2264055,11.0196762 C12.5165644,12.010656 11.6669516,12.7427135 10.6770678,13.2183052 C9.68718392,13.6929143 8.51210245,13.9307101 7.15132417,13.9307101 C5.03977166,13.9307101 3.32007937,13.2752976 1.9922473,11.9639812 C0.663916037,10.6531561 -7.09384537e-15,9.01118554 -7.09384537e-15,7.03856082 C-7.09384537e-15,5.01729604 0.661919297,3.33896826 1.98625708,2.00308617 C3.3090973,0.66769539 4.96938658,0 6.96512817,0 C9.08466763,0 10.8088526,0.66769539 12.1371838,2.00308617 C13.4650159,3.33896826 14.128932,5.10278463 14.128932,7.29453528 L14.1169515,7.92783871 Z M10.7389667,5.30962772 C10.5163302,4.57118315 10.0755498,3.97030643 9.41912158,3.50748888 C8.76269331,3.04467132 8.00043783,2.81375386 7.13285432,2.81375386 C6.19039306,2.81375386 5.36474109,3.07316752 4.65340248,3.59297747 C4.20763028,3.91724455 3.79380592,4.49011638 3.41442533,5.30962772 L10.7389667,5.30962772 Z" id="形状"></path>
                    <path d="M25.975091,0.341463058 L29.3525766,0.341463058 L29.3525766,13.5902297 L25.975091,13.5902297 L25.975091,12.1894942 C25.3161668,12.8065843 24.6547467,13.2517145 23.991829,13.5229197 C23.327913,13.7951075 22.6095858,13.9312015 21.8348506,13.9312015 C20.0966885,13.9312015 18.5931433,13.2679279 17.3242151,11.9399068 C16.055786,10.6128684 15.4218211,8.96254547 15.4218211,6.98992076 C15.4218211,4.94409029 16.0348202,3.26772777 17.2623161,1.96034187 C18.489812,0.653447291 19.9813768,-1.74549709e-15 21.736012,-1.74549709e-15 C22.542695,-1.74549709e-15 23.300957,0.150342008 24.0093005,0.450043397 C24.717644,0.750727414 25.3725747,1.20126212 25.9745918,1.80213884 L25.9745918,0.341463058 L25.975091,0.341463058 Z M22.4243881,3.06923701 C21.3800931,3.06923701 20.5130088,3.43280919 19.822636,4.15946223 C19.1322631,4.88611527 18.7868271,5.81715483 18.7868271,6.95405485 C18.7868271,8.09832458 19.1382533,9.04017305 19.8406066,9.77910893 C20.5434591,10.5175535 21.4085467,10.8870214 22.4363686,10.8870214 C23.4966375,10.8870214 24.3767006,10.5239406 25.0755596,9.79679623 C25.7739194,9.07014319 26.1233489,8.11895976 26.1233489,6.9412807 C26.1233489,5.78914995 25.7739194,4.8551625 25.0755596,4.14079231 C24.3767006,3.42691342 23.4931432,3.06923701 22.4243881,3.06923701 Z" id="形状"></path>
                    <polygon id="路径" points="30.5151784 0.341463058 33.9560606 0.341463058 37.3570079 8.15924749 40.7504675 0.341463058 44.1743773 0.341463058 38.4457304 13.5902297 36.256305 13.5902297"></polygon>
                    <path d="M58.8219625,7.92783871 L47.9721767,7.92783871 C48.1284216,8.86919586 48.5472378,9.61844933 49.227627,10.1741252 C49.9085153,10.7302924 50.7760988,11.0078846 51.8323743,11.0078846 C53.0938147,11.0078846 54.1790429,10.5735633 55.086062,9.70442924 L57.9314165,11.0196762 C57.2215754,12.010656 56.3724617,12.7427135 55.3825779,13.2183052 C54.3926941,13.6929143 53.2176126,13.9307101 51.8563351,13.9307101 C49.7452818,13.9307101 48.0250903,13.2752976 46.6972583,11.9639812 C45.3694262,10.6531561 44.7055101,9.01118554 44.7055101,7.03856082 C44.7055101,5.01729604 45.3669303,3.33896826 46.691268,2.00308617 C48.0146074,0.66769539 49.6748967,0 51.6706383,0 C53.7901778,0 55.5143627,0.66769539 56.8421948,2.00308617 C58.1700269,3.33896826 58.8339429,5.10278463 58.8339429,7.29453528 L58.8219625,7.92783871 Z M55.4444768,5.30962772 C55.2213411,4.57118315 54.78106,3.97030643 54.1241325,3.50748888 C53.4677043,3.04467132 52.705948,2.81375386 51.8378653,2.81375386 C50.8959032,2.81375386 50.0697521,3.07316752 49.3594118,3.59297747 C48.9136396,3.91724455 48.4998153,4.49011638 48.1204347,5.30962772 L55.4444768,5.30962772 Z" id="形状"></path>
                    <path d="M59.9536149,0.341463058 L62.8488878,0.341463058 L62.8488878,2.00947325 C63.1618768,1.35258676 63.5791954,0.852920674 64.0983478,0.51194893 C64.6184986,0.170977186 65.1870703,0.000491313753 65.8060597,0.000491313753 C66.2428465,0.000491313753 66.7005992,0.114476104 67.1788184,0.341463058 L66.1270356,3.20336567 C65.7311819,3.00831411 65.4052141,2.91103398 65.1501306,2.91103398 C64.630479,2.91103398 64.1911962,3.22694873 63.8327814,3.86025215 C63.4738674,4.49355558 63.29466,5.73608806 63.29466,7.58686697 L63.3066404,8.23196192 L63.3066404,13.5897384 L59.954114,13.5897384 L59.954114,0.341463058 L59.9536149,0.341463058 Z" id="路径"></path>
                </g>
                <path d="M18.7210295,0.687439015 C18.870785,0.536114379 18.7869219,0.229534598 18.595734,0.229534598 L12.55909,0.229534598 C12.5166592,0.229534598 12.4752269,0.246730579 12.4407831,0.278174659 L7.6555958,4.67543274 L5.66534524,13.45914 L10.4515309,19.2684338 C10.5668427,19.3711184 10.7041185,19.4266369 10.8448887,19.4266369 L16.1502268,19.4266369 C16.3454081,19.4266369 16.4267753,19.1087569 16.2690328,18.9623454 L9.06130073,10.1545637 C8.95347677,10.0543357 8.94998247,9.85142313 9.05481132,9.74579067 L18.7210295,0.687439015 Z" id="路径" fill="#3E75FF"></path>
            </g>
        </g>
    </g>
</svg>