<?xml version="1.0" standalone="no"?><!DOCTYPE svg PUBLIC "-//W3C//DTD SVG 1.1//EN" "http://www.w3.org/Graphics/SVG/1.1/DTD/svg11.dtd"><svg class="icon" width="200px" height="200.00px" viewBox="0 0 1024 1024" version="1.1" xmlns="http://www.w3.org/2000/svg"><path d="M512 512m-512 0a512 512 0 1 0 1024 0 512 512 0 1 0-1024 0Z" fill="#000000" fill-opacity=".04" /><path d="M491.242667 550.229333a8.832 8.832 0 0 1-6.528-14.784l115.904-126.528a8.832 8.832 0 0 1 13.034666 11.882667l-115.882666 126.528a8.64 8.64 0 0 1-6.528 2.901333z" fill="#126EE3" /><path d="M490.602667 551.317333a8.810667 8.810667 0 0 1-7.616-4.352l-109.653334-187.584a8.874667 8.874667 0 0 1 15.274667-8.917333l109.653333 187.52a8.874667 8.874667 0 0 1-7.68 13.333333zM624.298667 435.2c-27.52 0-49.92-22.378667-49.92-49.898667s22.4-49.92 49.92-49.92c27.52 0 49.92 22.4 49.92 49.92 0 27.52-22.4 49.92-49.92 49.92z" fill="#126EE3" /><path d="M310.037333 664.810667a8.874667 8.874667 0 0 1-4.842666-16.298667l180.394666-116.394667a8.938667 8.938667 0 0 1 12.245334 2.602667 8.874667 8.874667 0 0 1-2.602667 12.245333l-180.416 116.394667a8.810667 8.810667 0 0 1-4.778667 1.450667z m237.12 48.96a8.917333 8.917333 0 0 1-8.469333-6.229334l-38.890667-127.466666a8.810667 8.810667 0 1 1 16.874667-5.141334l38.890667 127.466667a8.810667 8.810667 0 0 1-8.405334 11.370667zM362.901333 386.24a75.861333 75.861333 0 0 1-75.626666-71.253333 75.072 75.072 0 0 1 18.986666-54.826667 75.008 75.008 0 0 1 52.224-25.386667 75.989333 75.989333 0 0 1 80.256 71.146667 75.946667 75.946667 0 0 1-71.125333 80.256c-1.664 0.064-3.2 0.064-4.714667 0.064z" fill="#126EE3" /><path d="M547.072 770.538667a35.498667 35.498667 0 1 0 32.426667-63.146667 35.498667 35.498667 0 0 0-32.426667 63.146667zM705.792 609.045333a8.128 8.128 0 0 1-2.325333-0.298666l-222.357334-60.992a8.810667 8.810667 0 1 1 4.693334-17.002667l222.378666 60.970667a8.810667 8.810667 0 0 1-2.389333 17.322666z" fill="#126EE3" /><path d="M411.797333 542.848a79.381333 79.381333 0 1 0 158.762667 0 79.381333 79.381333 0 0 0-158.762667 0zM753.728 684.864c-19.904 0-38.826667-7.466667-53.44-21.12a77.461333 77.461333 0 0 1-24.704-54.549333c-0.64-20.864 6.826667-40.789333 21.077333-56.064a77.461333 77.461333 0 0 1 54.528-24.704 77.525333 77.525333 0 0 1 56.064 21.077333 77.461333 77.461333 0 0 1 24.704 54.528A78.293333 78.293333 0 0 1 756.266667 684.8c-0.789333 0-1.664 0.064-2.538667 0.064zM270.186667 764.394667c-19.904 0-38.826667-7.466667-53.44-21.141334a77.461333 77.461333 0 0 1-24.704-54.549333c-0.64-20.842667 6.805333-40.768 21.077333-56.042667a77.461333 77.461333 0 0 1 54.528-24.704 78.293333 78.293333 0 0 1 80.768 75.690667 78.293333 78.293333 0 0 1-75.690667 80.746667h-2.538666z" fill="#126EE3" /></svg>