<?xml version="1.0" standalone="no"?><!DOCTYPE svg PUBLIC "-//W3C//DTD SVG 1.1//EN" "http://www.w3.org/Graphics/SVG/1.1/DTD/svg11.dtd"><svg class="icon" width="200px" height="200.00px" viewBox="0 0 1024 1024" version="1.1" xmlns="http://www.w3.org/2000/svg"><path d="M512 512m-512 0a512 512 0 1 0 1024 0 512 512 0 1 0-1024 0Z" fill="#000000" fill-opacity=".04" /><path d="M511.509333 192a62.037333 62.037333 0 0 1 8.277334 123.52v71.786667a62.037333 62.037333 0 0 1 29.418666 110.762666l72.789334 62.442667a62.250667 62.250667 0 0 1 118.016 28.096 62.101333 62.101333 0 0 1-18.986667 44.202667l50.24 64.554666a41.770667 41.770667 0 1 1 18.986667 78.933334 41.749333 41.749333 0 0 1-31.36-69.248l-50.389334-64.853334c-6.72 3.84-14.08 6.357333-21.76 7.466667v99.541333a41.749333 41.749333 0 1 1-15.616 0v-99.264a62.122667 62.122667 0 0 1-20.906666-6.08l-50.88 63.573334a41.749333 41.749333 0 1 1-12.224-9.792l50.048-62.549334-3.370667-3.029333a62.122667 62.122667 0 0 1-17.152-55.530667l-81.856-70.186666a61.866667 61.866667 0 0 1-58.858667-6.741334l-73.024 71.936a62.186667 62.186667 0 0 1-16.170666 60.714667l50.645333 65.152a41.770667 41.770667 0 1 1-12.373333 9.664l-50.730667-65.216a60.906667 60.906667 0 0 1-21.397333 7.658667v99.733333a41.749333 41.749333 0 1 1-15.637334 0v-99.2a62.336 62.336 0 0 1-11.818666-2.176l-60.224 59.242667a41.749333 41.749333 0 1 1-12.501334-9.706667l57.386667-56.426667a62.144 62.144 0 0 1-11.178667-96.853333 62.250667 62.250667 0 0 1 97.322667 11.946667l68.053333-67.072a61.994667 61.994667 0 0 1 39.914667-101.738667v-71.637333A62.037333 62.037333 0 0 1 511.573333 192h-0.042666z" fill="#126EE3" /></svg>