<?xml version="1.0" encoding="UTF-8"?>
<svg width="94px" height="43px" viewBox="0 0 94 43" version="1.1" xmlns="http://www.w3.org/2000/svg" xmlns:xlink="http://www.w3.org/1999/xlink">
    <title>编组 3备份</title>
    <g id="页面-1" stroke="none" stroke-width="1" fill="none" fill-rule="evenodd">
        <g id="基本信息" transform="translate(-949.000000, -470.000000)">
            <rect id="Rectangle" fill="#F5F5F5" x="0" y="107" width="1920" height="973"></rect>
            <rect id="Rectangle" fill="#FFFFFF" x="35" y="135" width="1872" height="925"></rect>
            <g id="编组-3" transform="translate(714.000000, 451.000000)">
                <g id="编组-6" transform="translate(196.000000, 0.000000)">
                    <rect id="矩形" stroke-opacity="0.85" stroke="#126EE3" stroke-width="2" fill="#FFFFFF" x="1" y="1" width="170" height="106" rx="2"></rect>
                    <g id="编组-3备份" transform="translate(39.500000, 19.000000)">
                        <rect id="矩形" fill="#8CBAF1" x="34.3695652" y="17.2" width="24.2608696" height="8.6" rx="1"></rect>
                        <rect id="矩形备份-5" stroke="#FFC484" fill="#FFE7CC" x="0.5" y="0.5" width="23.2608696" height="7.6" rx="1"></rect>
                        <rect id="矩形备份-16" stroke="#FFC484" fill="#FFE7CC" x="0.5" y="34.9" width="23.2608696" height="7.6" rx="1"></rect>
                        <rect id="矩形备份-17" stroke="#8CBAF1" x="69.2391304" y="0.5" width="23.2608696" height="7.6" rx="1"></rect>
                        <rect id="矩形备份-22" stroke="#8CBAF1" x="69.2391304" y="17.7" width="23.2608696" height="7.6" rx="1"></rect>
                        <rect id="矩形备份-23" stroke="#FFC484" fill="#FFE7CC" x="0.5" y="17.7" width="23.2608696" height="7.6" rx="1"></rect>
                        <rect id="矩形备份-18" stroke="#8CBAF1" x="69.2391304" y="34.9" width="23.2608696" height="7.6" rx="1"></rect>
                        <rect id="矩形" stroke="#D9D9D9" x="24.7608696" y="3.725" width="5.06521739" height="1"></rect>
                        <rect id="矩形备份-20" stroke="#D9D9D9" x="30.826087" y="22" width="3.04347826" height="1"></rect>
                        <rect id="矩形备份-24" stroke="#D9D9D9" x="24.7608696" y="22" width="4.05434783" height="1"></rect>
                        <rect id="矩形备份-20" stroke-opacity="0.15" stroke="#000000" x="59.1304348" y="22" width="3.04347826" height="1"></rect>
                        <rect id="矩形备份-25" stroke-opacity="0.15" stroke="#000000" x="64.1847826" y="22" width="4.05434783" height="1"></rect>
                        <rect id="矩形备份-19" stroke="#D9D9D9" x="24.7608696" y="39.2" width="5.06521739" height="1"></rect>
                        <rect id="矩形" stroke="#D9D9D9" x="29.8152174" y="4.8" width="1" height="33.4"></rect>
                        <rect id="矩形" stroke-opacity="0.15" stroke="#000000" x="63.173913" y="3.725" width="5.06521739" height="1"></rect>
                        <rect id="矩形备份-19" stroke-opacity="0.15" stroke="#000000" x="63.173913" y="39.2" width="5.06521739" height="1"></rect>
                        <rect id="矩形" stroke-opacity="0.15" stroke="#000000" x="63.173913" y="4.8" width="1" height="33.4"></rect>
                    </g>
                </g>
            </g>
        </g>
    </g>
</svg>