<?xml version="1.0" encoding="UTF-8"?>
<svg width="144px" height="144px" viewBox="0 0 144 144" version="1.1" xmlns="http://www.w3.org/2000/svg" xmlns:xlink="http://www.w3.org/1999/xlink">
    <title>文件锁为空</title>
    <defs>
        <linearGradient x1="50%" y1="3.85205925%" x2="50%" y2="121.56033%" id="linearGradient-1">
            <stop stop-color="#779EEA" stop-opacity="0.4" offset="0%"></stop>
            <stop stop-color="#FFFFFF" stop-opacity="0" offset="100%"></stop>
        </linearGradient>
    </defs>
    <g id="页面-1" stroke="none" stroke-width="1" fill="none" fill-rule="evenodd">
        <g id="为添加许可证" transform="translate(-998.000000, -347.000000)">
            <g id="文件锁为空" transform="translate(998.000000, 347.000000)">
                <g id="Group-3">
                    <rect id="Rectangle-3" x="0" y="0" width="144" height="144"></rect>
                </g>
                <rect id="Rectangle-25" x="0" y="0" width="144" height="144"></rect>
                <path d="M72,100 C106.372614,100 135.319819,115.997855 143.9999,135.999771 L9.95177594e-05,135.999771 C8.68018075,115.997855 37.6273857,100 72,100 Z" id="Combined-Shape" fill="url(#linearGradient-1)" fill-rule="nonzero"></path>
                <g id="编组" transform="translate(41.000000, 26.000000)">
                    <g id="Group-2" transform="translate(0.000000, 6.822146)">
                        <path d="M4.17241379,0.27586207 L46.2931817,0.27586207 L46.2931817,0.27586207 L60.9137931,11.7578139 L60.9137931,67.4482759 C60.9137931,69.1051301 59.5706474,70.4482759 57.9137931,70.4482759 L4.17241379,70.4482759 C2.51555954,70.4482759 1.17241379,69.1051301 1.17241379,67.4482759 L1.17241379,3.27586207 C1.17241379,1.61900782 2.51555954,0.27586207 4.17241379,0.27586207 Z" id="Rectangle" fill="#FFFFFF" fill-rule="nonzero"></path>
                        <path d="M45.7823789,0 L61,11.7295866 L61,67 C61,68.3807119 60.4403559,69.6307119 59.5355339,70.5355339 C58.6307119,71.4403559 57.3807119,72 56,72 L56,72 L5,72 C3.61928813,72 2.36928813,71.4403559 1.46446609,70.5355339 C0.55964406,69.6307119 0,68.3807119 0,67 L0,67 L0,5 C0,3.61928813 0.55964406,2.36928813 1.46446609,1.46446609 C2.36928813,0.55964406 3.61928813,0 5,0 L5,0 L45.7823789,0 Z" id="Rectangle-4" stroke="#779EEA" stroke-width="2" fill="#FFFFFF" fill-rule="nonzero"></path>
                        <polyline id="Path-4" stroke="#779EEA" stroke-width="2" points="45 0 45 12 60.2026367 12"></polyline>
                    </g>
                    <path d="M68.274049,1.54473307 C68.5909173,1.54473307 68.8477899,1.80160559 68.8477899,2.11847391 L68.8477335,4.69973307 L71.4296236,4.7003077 C71.746492,4.7003077 72.0033645,4.95718022 72.0033645,5.27404854 C72.0033645,5.59091686 71.746492,5.84778938 71.4296236,5.84778938 L68.8477335,5.84773307 L68.8477899,8.42962317 C68.8477899,8.74649149 68.5909173,9.00336401 68.274049,9.00336401 C67.9571807,9.00336401 67.7003082,8.74649149 67.7003082,8.42962317 L67.6997335,5.84773307 L65.1184744,5.84778938 C64.8016061,5.84778938 64.5447335,5.59091686 64.5447335,5.27404854 C64.5447335,4.95718022 64.8016061,4.7003077 65.1184744,4.7003077 L67.6997335,4.69973307 L67.7003082,2.11847391 C67.7003082,1.80160559 67.9571807,1.54473307 68.274049,1.54473307 Z" id="Combined-Shape" fill="#779EEA" fill-rule="nonzero" transform="translate(68.274049, 5.274049) rotate(45.000000) translate(-68.274049, -5.274049) "></path>
                    <path d="M76.4519034,22.126078 C76.7193766,22.126078 76.9362066,22.342908 76.9362066,22.6103812 L76.9359326,24.789078 L79.1155709,24.7897456 C79.3830442,24.7897456 79.5998741,25.0065756 79.5998741,25.2740488 C79.5998741,25.5415221 79.3830442,25.758352 79.1155709,25.758352 L76.9359326,25.758078 L76.9362066,27.9377164 C76.9362066,28.2051897 76.7193766,28.4220196 76.4519034,28.4220196 C76.1844301,28.4220196 75.9676002,28.2051897 75.9676002,27.9377164 L75.9669326,25.758078 L73.7882358,25.758352 C73.5207625,25.758352 73.3039326,25.5415221 73.3039326,25.2740488 C73.3039326,25.0065756 73.5207625,24.7897456 73.7882358,24.7897456 L75.9669326,24.789078 L75.9676002,22.6103812 C75.9676002,22.342908 76.1844301,22.126078 76.4519034,22.126078 Z" id="Combined-Shape-Copy-10" fill="#779EEA" fill-rule="nonzero" opacity="0.3" transform="translate(76.451903, 25.274049) rotate(45.000000) translate(-76.451903, -25.274049) "></path>
                    <circle id="Oval-7-Copy-3" stroke="#779EEA" cx="80.5" cy="11.3221458" r="1.5"></circle>
                </g>
                <g id="编组-2" transform="translate(48.000000, 78.000000)" fill="#779EEA" fill-rule="nonzero">
                    <path d="M5.30097386,16.5152892 C6.59111284,16.3534493 6.33316936,17.5220195 8,17.8699034 L8,17.8699034 L6.94862208,22 L5.23878918,20.5208094 L3,20.9682451 L4.29210643,16.5898846 C4.62242301,16.5989782 4.95372336,16.5590482 5.30097386,16.5152892 Z M10.6708354,16.8591331 C11.3913441,16.1984457 11.1979203,16.6615673 12.7080728,16.6108133 L12.7080728,16.6108133 L14,20.9719765 L11.7613996,20.526159 L10.0517811,22 L9,17.8830009 C9.70413829,17.733464 10.1681304,17.3203471 10.6708354,16.8591331 Z M7.99962761,0.00292037024 C8.89935275,-0.057482706 9.44536303,1.11060802 10.2907938,1.38242183 C11.1153849,1.64728721 12.2306148,1.01222944 12.8994321,1.57773422 C13.6633167,2.05263443 13.4111512,3.31442558 13.933534,4.02639749 C14.4434409,4.72041358 15.7227387,4.85456617 15.9280675,5.70186019 C16.2640094,6.52947853 15.3097112,7.40380943 15.3097112,8.28357529 C15.3097112,9.14105119 16.2649852,9.99384887 15.9279979,10.7986269 C15.7073356,11.6637391 14.4164681,11.8161226 13.8940853,12.5280258 C13.3843177,13.2221106 13.6498652,14.4671155 12.8994321,14.9222712 C12.2074056,15.4942428 11.0727302,14.8664775 10.2268115,15.1382225 C9.40180212,15.4036382 8.87753748,16.5656748 7.99962767,16.497085 C7.09997221,16.5574881 6.55438012,15.3893974 5.70894937,15.118134 C4.8843582,14.852787 3.7691981,15.4878447 3.10031109,14.9222712 C2.33642641,14.447371 2.588592,13.1855111 2.06620918,12.4740896 C1.55630223,11.7800047 0.277004501,11.6455769 0.0721635215,10.7986269 C-0.264336089,9.97052695 0.690031893,9.09619604 0.690031893,8.21684297 C0.690031893,7.35902313 -0.26524209,6.5061566 0.0721635215,5.70186019 C0.291850055,4.83619757 1.58320545,4.68388277 2.10558827,3.97239242 C2.61500735,3.27789477 2.34945982,2.03295869 3.10031109,1.57773422 C3.79233763,1.00624421 4.92750092,1.63352799 5.77293167,1.36171418 C6.59801071,1.096436 7.12220567,-0.0657382675 7.99962761,0.00292037024 Z M7.99962754,3.58355633 C5.39468315,3.58355633 3.28340628,5.67255297 3.28340628,8.2502091 C3.28340628,10.8274524 5.39468321,12.9165179 7.99962754,12.9165179 C10.6050597,12.9165179 12.7168245,10.8274524 12.7168245,8.2502091 C12.7168245,5.67255303 10.6050597,3.58355633 7.99962754,3.58355633 Z M8.38713475,5 C8.38713475,5 13.1410816,12 8.38713475,12 C3.87095508,12 3.87095508,5 8.38713475,5 Z" id="形状结合"></path>
                </g>
                <rect id="Rectangle-23" fill="#779EEA" fill-rule="nonzero" x="54.3046332" y="53" width="20" height="2"></rect>
                <rect id="Rectangle-23-Copy" fill="#779EEA" fill-rule="nonzero" x="54.3046332" y="61.5" width="32" height="2"></rect>
                <rect id="Rectangle-23-Copy-2" fill="#779EEA" fill-rule="nonzero" x="54.3046332" y="70" width="32" height="2"></rect>
                <rect id="Rectangle-23-Copy-2" fill="#779EEA" fill-rule="nonzero" x="78.3046332" y="94" width="16" height="2"></rect>
            </g>
        </g>
    </g>
</svg>