<?xml version="1.0" encoding="UTF-8"?>
<svg width="144px" height="144px" viewBox="0 0 144 144" version="1.1" xmlns="http://www.w3.org/2000/svg" xmlns:xlink="http://www.w3.org/1999/xlink">
    <title>搜索无结果</title>
    <defs>
        <linearGradient x1="50%" y1="3.85205925%" x2="50%" y2="121.56033%" id="linearGradient-1">
            <stop stop-color="#779EEA" stop-opacity="0.4" offset="0%"></stop>
            <stop stop-color="#FFFFFF" stop-opacity="0" offset="100%"></stop>
        </linearGradient>
    </defs>
    <g id="保留线条" stroke="none" stroke-width="1" fill="none" fill-rule="evenodd">
        <g id="搜索无结果">
            <rect id="Rectangle-25" x="0" y="0" width="144" height="144"></rect>
            <g id="Group-10" transform="translate(0.000100, 10.096194)">
                <path d="M71.9999005,89.9038059 C106.372514,89.9038059 135.319719,105.901661 143.9998,125.903577 L0,125.903577 C8.68008123,105.901661 37.6272862,89.9038059 71.9999005,89.9038059 Z" id="Combined-Shape" fill="url(#linearGradient-1)" fill-rule="nonzero"></path>
                <g id="Group-2" transform="translate(38.999900, 26.903806)">
                    <path d="M4.17241379,0.27586207 L46.2931817,0.27586207 L46.2931817,0.27586207 L60.9137931,11.7578139 L60.9137931,67.4482759 C60.9137931,69.1051301 59.5706474,70.4482759 57.9137931,70.4482759 L4.17241379,70.4482759 C2.51555954,70.4482759 1.17241379,69.1051301 1.17241379,67.4482759 L1.17241379,3.27586207 C1.17241379,1.61900782 2.51555954,0.27586207 4.17241379,0.27586207 Z" id="Rectangle" fill="#FFFFFF" fill-rule="nonzero"></path>
                    <path d="M45.7823789,0 L61,11.7295866 L61,67 C61,68.3807119 60.4403559,69.6307119 59.5355339,70.5355339 C58.6307119,71.4403559 57.3807119,72 56,72 L56,72 L5,72 C3.61928813,72 2.36928813,71.4403559 1.46446609,70.5355339 C0.55964406,69.6307119 0,68.3807119 0,67 L0,67 L0,5 C0,3.61928813 0.55964406,2.36928813 1.46446609,1.46446609 C2.36928813,0.55964406 3.61928813,0 5,0 L5,0 L45.7823789,0 Z" id="Rectangle-4" stroke="#779EEA" stroke-width="2" fill="#FFFFFF" fill-rule="nonzero"></path>
                    <polyline id="Path-4" stroke="#779EEA" stroke-width="2" points="45 0 45 12 60.2026367 12"></polyline>
                    <path d="M18.1501261,22.1020294 C18.7024108,22.1020294 19.1501261,22.5497447 19.1501261,23.1020294 L19.1501261,27.6020294 L23.6501261,27.6020294 C24.2024108,27.6020294 24.6501261,28.0497447 24.6501261,28.6020294 C24.6501261,29.1543142 24.2024108,29.6020294 23.6501261,29.6020294 L19.1501261,29.6020294 L19.1501261,34.1020294 C19.1501261,34.6543142 18.7024108,35.1020294 18.1501261,35.1020294 C17.5978413,35.1020294 17.1501261,34.6543142 17.1501261,34.1020294 L17.1501261,29.6020294 L12.6501261,29.6020294 C12.0978413,29.6020294 11.6501261,29.1543142 11.6501261,28.6020294 C11.6501261,28.0497447 12.0978413,27.6020294 12.6501261,27.6020294 L17.1501261,27.6020294 L17.1501261,23.1020294 C17.1501261,22.5497447 17.5978413,22.1020294 18.1501261,22.1020294 Z" id="Combined-Shape" fill="#779EEA" fill-rule="nonzero" transform="translate(18.150126, 28.602029) rotate(45.000000) translate(-18.150126, -28.602029) "></path>
                    <path d="M44.1501261,22.1020294 C44.7024108,22.1020294 45.1501261,22.5497447 45.1501261,23.1020294 L45.1501261,27.6020294 L49.6501261,27.6020294 C50.2024108,27.6020294 50.6501261,28.0497447 50.6501261,28.6020294 C50.6501261,29.1543142 50.2024108,29.6020294 49.6501261,29.6020294 L45.1501261,29.6020294 L45.1501261,34.1020294 C45.1501261,34.6543142 44.7024108,35.1020294 44.1501261,35.1020294 C43.5978413,35.1020294 43.1501261,34.6543142 43.1501261,34.1020294 L43.1501261,29.6020294 L38.6501261,29.6020294 C38.0978413,29.6020294 37.6501261,29.1543142 37.6501261,28.6020294 C37.6501261,28.0497447 38.0978413,27.6020294 38.6501261,27.6020294 L43.1501261,27.6020294 L43.1501261,23.1020294 C43.1501261,22.5497447 43.5978413,22.1020294 44.1501261,22.1020294 Z" id="Combined-Shape-Copy-6" fill="#779EEA" fill-rule="nonzero" transform="translate(44.150126, 28.602029) rotate(45.000000) translate(-44.150126, -28.602029) "></path>
                    <path d="M41,50 C41,46.6862915 36.5228475,44 31,44 C25.4771525,44 21,46.6862915 21,50" id="Oval-11" stroke="#779EEA" stroke-width="2"></path>
                </g>
                <g id="点缀" transform="translate(15.999901, 0.000000)">
                    <path d="M20.0961937,2.07842712 C20.5225377,2.07842712 20.8681578,2.42404724 20.8681578,2.85039127 L20.8674267,6.32342712 L24.3419965,6.32422993 C24.7683405,6.32422993 25.1139606,6.66985005 25.1139606,7.09619408 C25.1139606,7.5225381 24.7683405,7.86815822 24.3419965,7.86815822 L20.8674267,7.86742712 L20.8681578,11.3419969 C20.8681578,11.7683409 20.5225377,12.113961 20.0961937,12.113961 C19.6698497,12.113961 19.3242295,11.7683409 19.3242295,11.3419969 L19.3234267,7.86742712 L15.8503909,7.86815822 C15.4240468,7.86815822 15.0784267,7.5225381 15.0784267,7.09619408 C15.0784267,6.66985005 15.4240468,6.32422993 15.8503909,6.32422993 L19.3234267,6.32342712 L19.3242295,2.85039127 C19.3242295,2.42404724 19.6698497,2.07842712 20.0961937,2.07842712 Z" id="Combined-Shape" fill="#779EEA" fill-rule="nonzero" transform="translate(20.096194, 7.096194) rotate(45.000000) translate(-20.096194, -7.096194) "></path>
                    <path d="M101.681981,39.5680192 C101.959349,39.5680192 102.184201,39.7928711 102.184201,40.07024 L102.183214,43.0830192 L105.197527,43.0835652 C105.474896,43.0835652 105.699747,43.3084172 105.699747,43.5857861 C105.699747,43.863155 105.474896,44.088007 105.197527,44.088007 L102.183214,44.0870192 L102.184201,47.1013322 C102.184201,47.3787011 101.959349,47.6035531 101.681981,47.6035531 C101.404612,47.6035531 101.17976,47.3787011 101.17976,47.1013322 L101.179214,44.0870192 L98.1664346,44.088007 C97.8890657,44.088007 97.6642138,43.863155 97.6642138,43.5857861 C97.6642138,43.3084172 97.8890657,43.0835652 98.1664346,43.0835652 L101.179214,43.0830192 L101.17976,40.07024 C101.17976,39.7928711 101.404612,39.5680192 101.681981,39.5680192 Z" id="Combined-Shape-Copy" fill="#779EEA" fill-rule="nonzero" opacity="0.3" transform="translate(101.681981, 43.585786) rotate(45.000000) translate(-101.681981, -43.585786) "></path>
                    <path d="M12.6819804,51.3253785 C12.9593493,51.3253785 13.1842013,51.5502304 13.1842013,51.8275993 L13.1832135,54.8403785 L16.1975265,54.8409246 C16.4748954,54.8409246 16.6997474,55.0657765 16.6997474,55.3431454 C16.6997474,55.6205144 16.4748954,55.8453663 16.1975265,55.8453663 L13.1832135,55.8443785 L13.1842013,58.8586915 C13.1842013,59.1360604 12.9593493,59.3609124 12.6819804,59.3609124 C12.4046115,59.3609124 12.1797595,59.1360604 12.1797595,58.8586915 L12.1792135,55.8443785 L9.16643437,55.8453663 C8.88906544,55.8453663 8.6642135,55.6205144 8.6642135,55.3431454 C8.6642135,55.0657765 8.88906544,54.8409246 9.16643437,54.8409246 L12.1792135,54.8403785 L12.1797595,51.8275993 C12.1797595,51.5502304 12.4046115,51.3253785 12.6819804,51.3253785 Z" id="Combined-Shape-Copy-4" fill="#779EEA" fill-rule="nonzero" opacity="0.3" transform="translate(12.681980, 55.343145) rotate(45.000000) translate(-12.681980, -55.343145) "></path>
                    <path d="M42.6819803,12.507359 C42.9415823,12.507359 43.1520313,12.717808 43.1520313,12.9774099 L43.1515727,15.797359 L45.972337,15.7977157 C46.231939,15.7977157 46.442388,16.0081647 46.442388,16.2677666 C46.442388,16.5273686 46.231939,16.7378176 45.972337,16.7378176 L43.1515727,16.737359 L43.1520313,19.5581233 C43.1520313,19.8177253 42.9415823,20.0281743 42.6819803,20.0281743 C42.4223783,20.0281743 42.2119294,19.8177253 42.2119294,19.5581233 L42.2115727,16.737359 L39.3916236,16.7378176 C39.1320217,16.7378176 38.9215727,16.5273686 38.9215727,16.2677666 C38.9215727,16.0081647 39.1320217,15.7977157 39.3916236,15.7977157 L42.2115727,15.797359 L42.2119294,12.9774099 C42.2119294,12.717808 42.4223783,12.507359 42.6819803,12.507359 Z" id="Combined-Shape-Copy-2" fill="#779EEA" fill-rule="nonzero" opacity="0.3" transform="translate(42.681980, 16.267767) rotate(45.000000) translate(-42.681980, -16.267767) "></path>
                    <circle id="Oval-7-Copy-3" stroke="#779EEA" cx="66.9999997" cy="13.9038059" r="2"></circle>
                    <circle id="Oval-7-Copy-4" stroke="#779EEA" cx="8.49999969" cy="74.4038059" r="1.5"></circle>
                    <circle id="Oval-7-Copy-5" stroke="#779EEA" cx="108.5" cy="73.4038059" r="1.5"></circle>
                    <path d="M111.278174,20.2928931 C111.747265,20.2928931 112.127539,20.6731671 112.127539,21.1422588 L112.12698,24.5388931 L115.525002,24.5397215 C115.994094,24.5397215 116.374368,24.9199955 116.374368,25.3890872 C116.374368,25.8581789 115.994094,26.2384529 115.525002,26.2384529 L112.12698,26.2378931 L112.127539,29.6359156 C112.127539,30.1050073 111.747265,30.4852813 111.278174,30.4852813 C110.809082,30.4852813 110.428808,30.1050073 110.428808,29.6359156 L110.42798,26.2378931 L107.031345,26.2384529 C106.562253,26.2384529 106.18198,25.8581789 106.18198,25.3890872 C106.18198,24.9199955 106.562253,24.5397215 107.031345,24.5397215 L110.42798,24.5388931 L110.428808,21.1422588 C110.428808,20.6731671 110.809082,20.2928931 111.278174,20.2928931 Z" id="Combined-Shape-Copy-3" fill="#779EEA" fill-rule="nonzero" transform="translate(111.278174, 25.389087) rotate(45.000000) translate(-111.278174, -25.389087) "></path>
                    <path d="M83.5355337,16.9393398 C83.8116761,16.9393398 84.0355337,17.1631974 84.0355337,17.4393398 L84.0355337,18.9393398 L85.5355337,18.9393398 C85.8116761,18.9393398 86.0355337,19.1631974 86.0355337,19.4393398 C86.0355337,19.7154822 85.8116761,19.9393398 85.5355337,19.9393398 L84.0355337,19.9393398 L84.0355337,21.4393398 C84.0355337,21.7154822 83.8116761,21.9393398 83.5355337,21.9393398 C83.2593913,21.9393398 83.0355337,21.7154822 83.0355337,21.4393398 L83.0355337,19.9383398 L81.5355337,19.9393398 C81.2593913,19.9393398 81.0355337,19.7154822 81.0355337,19.4393398 C81.0355337,19.1631974 81.2593913,18.9393398 81.5355337,18.9393398 L83.0355337,18.9383398 L83.0355337,17.4393398 C83.0355337,17.1631974 83.2593913,16.9393398 83.5355337,16.9393398 Z" id="Combined-Shape-Copy-5" fill="#779EEA" fill-rule="nonzero" transform="translate(83.535534, 19.439340) rotate(45.000000) translate(-83.535534, -19.439340) "></path>
                    <path d="M4.24264069,26.1464465 C4.51878306,26.1464465 4.74264069,26.3703041 4.74264069,26.6464465 L4.74264069,28.6464465 L6.74264069,28.6464465 C7.01878306,28.6464465 7.24264069,28.8703041 7.24264069,29.1464465 C7.24264069,29.4225889 7.01878306,29.6464465 6.74264069,29.6464465 L4.74264069,29.6464465 L4.74264069,31.6464465 C4.74264069,31.9225889 4.51878306,32.1464465 4.24264069,32.1464465 C3.96649831,32.1464465 3.74264069,31.9225889 3.74264069,31.6464465 L3.74264069,29.6454465 L1.74264069,29.6464465 C1.46649831,29.6464465 1.24264069,29.4225889 1.24264069,29.1464465 C1.24264069,28.8703041 1.46649831,28.6464465 1.74264069,28.6464465 L3.74264069,28.6454465 L3.74264069,26.6464465 C3.74264069,26.3703041 3.96649831,26.1464465 4.24264069,26.1464465 Z" id="Combined-Shape-Copy-7" fill="#779EEA" fill-rule="nonzero" transform="translate(4.242641, 29.146447) rotate(45.000000) translate(-4.242641, -29.146447) "></path>
                </g>
                <g id="Group-4" transform="translate(105.113744, 82.936609) rotate(-45.000000) translate(-105.113744, -82.936609) translate(91.467297, 62.550444)" fill-rule="nonzero">
                    <circle id="Oval-6" stroke="#779EEA" stroke-width="2" fill="#F8FAFE" cx="13.6464466" cy="13.6464466" r="13.6464466"></circle>
                    <path d="M14.0619444,26.7723301 C14.8903715,26.7723301 15.5619444,27.443903 15.5619444,28.2723301 L15.5619444,39.2723301 C15.5619444,40.1007572 14.8903715,40.7723301 14.0619444,40.7723301 C13.2335173,40.7723301 12.5619444,40.1007572 12.5619444,39.2723301 L12.5619444,28.2723301 C12.5619444,27.443903 13.2335173,26.7723301 14.0619444,26.7723301 Z" id="Rectangle-2" fill="#779EEA"></path>
                </g>
            </g>
        </g>
    </g>
</svg>