<?xml version="1.0" encoding="UTF-8"?>
<svg width="22px" height="24px" viewBox="0 0 22 24" version="1.1" xmlns="http://www.w3.org/2000/svg" xmlns:xlink="http://www.w3.org/1999/xlink">
    <title>pdf</title>
    <g id="搜索-ai详细设计" stroke="none" stroke-width="1" fill="none" fill-rule="evenodd">
        <g id="编组" transform="translate(-1.000000, 0.000000)" fill-rule="nonzero">
            <g id="pdf" transform="translate(1.560000, 0.480000)">
                <g id="pdf-copy" fill="#FF4A80">
                    <path d="M0.96,0 L15.288,0 C15.528,0 15.768,0.096 15.936,0.252 L20.568,4.548 C20.76,4.728 20.88,4.98 20.88,5.256 L20.88,22.08 C20.88,22.608 20.448,23.04 19.92,23.04 L0.96,23.04 C0.432,23.04 0,22.608 0,22.08 L0,0.96 C0,0.432 0.432,0 0.96,0 Z" id="Rectangle-18"></path>
                </g>
                <path d="M2.904,5.448 L5.04,5.448 C6.384,5.448 7.476,5.916 7.476,7.428 C7.476,8.868 6.36,9.504 5.076,9.504 L4.368,9.504 L4.368,11.52 L2.904,11.52 L2.904,5.448 Z M5.004,8.352 C5.712,8.352 6.06,8.016 6.06,7.416 C6.06,6.804 5.664,6.588 4.968,6.588 L4.368,6.588 L4.368,8.34 L5.004,8.34 L5.004,8.352 L5.004,8.352 Z M8.52,5.448 L10.26,5.448 C12.108,5.448 13.332,6.336 13.332,8.448 C13.332,10.56 12.108,11.52 10.332,11.52 L8.52,11.52 L8.52,5.448 Z M10.176,10.344 C11.16,10.344 11.844,9.9 11.844,8.448 C11.844,6.996 11.148,6.6 10.176,6.6 L9.984,6.6 L9.984,10.332 L10.176,10.332 L10.176,10.344 Z M14.46,5.448 L18.336,5.448 L18.336,6.66 L15.924,6.66 L15.924,7.992 L18,7.992 L18,9.204 L15.924,9.204 L15.924,11.52 L14.46,11.52 L14.46,5.448 Z M15.048,17.916 C14.844,17.7 14.58,17.58 14.232,17.52 C13.668,17.436 13.068,17.46 12.42,17.592 C12.36,17.604 12.288,17.58 12.264,17.568 L12.252,17.556 C11.712,17.124 11.244,16.668 10.872,16.212 C10.812,16.116 10.788,16.032 10.788,15.936 C10.872,15.24 10.944,14.496 10.86,13.716 C10.836,13.548 10.728,13.428 10.596,13.392 C10.38,13.236 10.128,13.188 9.9,13.272 C9.672,13.356 9.492,13.548 9.432,13.788 C9.396,13.932 9.396,14.088 9.408,14.28 C9.444,15 9.756,15.636 10.056,16.176 C10.104,16.26 10.128,16.392 10.104,16.464 C9.996,16.86 9.888,17.244 9.78,17.628 C9.708,17.892 9.624,18.144 9.564,18.408 C9.444,18.792 9.264,19.008 8.952,19.14 C8.94,19.14 8.904,19.152 8.88,19.188 C8.472,19.464 8.016,19.8 7.692,20.28 C7.56,20.484 7.404,20.784 7.488,21.144 C7.524,21.288 7.596,21.396 7.704,21.456 C7.776,21.492 7.848,21.516 7.944,21.516 C8.004,21.516 8.076,21.504 8.148,21.48 C8.472,21.372 8.736,21.144 8.964,20.796 C9.156,20.496 9.336,20.172 9.504,19.872 C9.588,19.716 9.672,19.56 9.768,19.404 L9.78,19.392 C9.816,19.308 9.876,19.248 9.924,19.224 C10.548,18.876 11.244,18.576 12.048,18.324 C12.12,18.3 12.192,18.312 12.276,18.372 C12.66,18.672 13.14,19.02 13.728,19.236 C13.968,19.32 14.22,19.368 14.448,19.392 C14.796,19.416 15.156,19.2 15.288,18.888 C15.408,18.564 15.312,18.156 15.048,17.916 Z M14.712,18.576 C14.664,18.72 14.508,18.732 14.424,18.744 C14.328,18.756 14.208,18.744 14.124,18.708 C13.704,18.576 13.308,18.324 12.948,18.072 C13.092,18.048 13.224,18.024 13.356,17.988 C13.62,17.976 13.872,17.976 14.1,18.024 C14.28,18.072 14.484,18.18 14.604,18.264 C14.772,18.396 14.724,18.528 14.712,18.576 Z M11.604,17.784 C11.436,17.844 11.28,17.916 11.124,17.976 C10.812,18.096 10.5,18.228 10.188,18.348 C10.296,17.988 10.404,17.64 10.512,17.292 C10.56,17.136 10.608,16.992 10.644,16.836 C10.98,17.196 11.316,17.52 11.604,17.784 L11.604,17.784 Z M9.996,13.968 C10.008,13.872 10.044,13.812 10.128,13.788 C10.14,13.788 10.152,13.776 10.164,13.776 C10.188,13.776 10.2,13.776 10.212,13.788 C10.224,13.788 10.224,13.8 10.224,13.824 L10.224,13.992 C10.236,14.364 10.236,14.76 10.236,15.132 C10.08,14.724 9.996,14.328 9.996,13.968 L9.996,13.968 Z M8.844,19.848 C8.64,20.22 8.424,20.592 8.064,20.82 C8.088,20.736 8.1,20.652 8.148,20.58 C8.304,20.304 8.532,20.076 8.844,19.848 Z" id="形状" fill="#FFFFFF"></path>
            </g>
        </g>
    </g>
</svg>