<?xml version="1.0" encoding="UTF-8"?>
<svg width="15px" height="16px" viewBox="0 0 15 16" version="1.1" xmlns="http://www.w3.org/2000/svg" xmlns:xlink="http://www.w3.org/1999/xlink">
    <title>产品</title>
    <defs>
        <filter id="filter-1">
            <feColorMatrix in="SourceGraphic" type="matrix" values="0 0 0 0 0.501961 0 0 0 0 0.313725 0 0 0 0 0.831373 0 0 0 1.000000 0"></feColorMatrix>
        </filter>
    </defs>
    <g id="搜索-ai详细设计" stroke="none" stroke-width="1" fill="none" fill-rule="evenodd">
        <g id="文档预览-知识点备份-3" transform="translate(-1171.000000, -185.000000)">
            <g id="编组-80" transform="translate(1160.000000, 181.000000)">
                <g id="产品" transform="translate(8.000000, 2.000000)" filter="url(#filter-1)">
                    <g transform="translate(3.000000, 2.000000)">
                        <path d="M7.00178571,6.9375 C6.675,6.9375 6.35,6.86428571 6.09642857,6.75714286 L1.09464286,4.29285714 C0.767857143,4.1125 0.551785714,3.85714286 0.551785714,3.56785714 C0.551785714,3.27857143 0.733928571,2.9875 1.09464286,2.80714286 L6.13214286,0.233928571 C6.42142857,0.0892857143 6.74821429,0.0160714286 7.11071429,0.0160714286 C7.4375,0.0160714286 7.7625,0.0892857143 8.01607143,0.196428571 L13.0178571,2.66071429 C13.3446429,2.84107143 13.5607143,3.09642857 13.5607143,3.38571429 C13.5607143,3.675 13.3803571,3.96607143 13.0178571,4.14642857 L7.98035714,6.71964286 C7.68928571,6.86428571 7.36428571,6.9375 7.00178571,6.9375 Z M1.45714286,3.53035714 L6.45892857,5.99464286 C6.60357143,6.06785714 6.78571429,6.10357143 7.00178571,6.10357143 C7.21964286,6.10357143 7.4375,6.06785714 7.58214286,5.99464286 L12.6553571,3.42142857 L7.65357143,0.957142857 C7.50892857,0.883928571 7.32678571,0.848214286 7.11071429,0.848214286 C6.89285714,0.848214286 6.675,0.883928571 6.53035714,0.957142857 L1.45714286,3.53035714 Z M5.98571429,15.9607143 C5.80535714,15.9607143 5.62321429,15.925 5.44285714,15.8160714 L0.948214286,13.4607143 C0.405357143,13.2071429 0.00535714286,12.6267857 0.00535714286,12.1553571 L0.00535714286,5.85 C0.00535714286,5.41428571 0.332142857,5.08928571 0.801785714,5.08928571 C0.982142857,5.08928571 1.16428571,5.125 1.34464286,5.23392857 L5.80535714,7.58928571 C6.34821429,7.84285714 6.74821429,8.42321429 6.74821429,8.89464286 L6.74821429,15.2 C6.74821429,15.6357143 6.42142857,15.9607143 5.98571429,15.9607143 L5.98571429,15.9607143 Z M5.80535714,15.0910714 C5.84107143,15.1267857 5.87857143,15.1267857 5.91428571,15.1267857 L5.91428571,8.89464286 C5.91428571,8.75 5.73392857,8.45892857 5.44285714,8.31428571 L0.948214286,5.95892857 C0.9125,5.92321429 0.875,5.92321429 0.839285714,5.92321429 L0.839285714,12.1571429 C0.839285714,12.3017857 1.02142857,12.5928571 1.31071429,12.7375 L5.80535714,15.0910714 L5.80535714,15.0910714 Z M8.37857143,15.9607143 C7.94285714,15.9607143 7.61785714,15.6339286 7.61785714,15.2 L7.61785714,8.89464286 C7.61785714,8.42321429 8.01607143,7.84285714 8.56071429,7.58928571 L13.0178571,5.23392857 C13.1982143,5.16071429 13.3803571,5.08928571 13.5607143,5.08928571 C13.9964286,5.08928571 14.3214286,5.41607143 14.3214286,5.85 L14.3214286,12.1553571 C14.3214286,12.6267857 13.9232143,13.2071429 13.3785714,13.4607143 L8.92142857,15.8160714 C8.70357143,15.925 8.55892857,15.9607143 8.37857143,15.9607143 L8.37857143,15.9607143 Z M13.3785714,5.95892857 L8.92142857,8.31428571 C8.63214286,8.45892857 8.45,8.75 8.45,8.89464286 L8.45,15.1285714 C8.48571429,15.1285714 8.52321429,15.0928571 8.55892857,15.0928571 L13.0160714,12.7375 C13.3053571,12.5928571 13.4875,12.3017857 13.4875,12.1571429 L13.4875,5.92321429 C13.4517857,5.92321429 13.4160714,5.95892857 13.3785714,5.95892857 L13.3785714,5.95892857 Z" id="形状" fill="#000000" fill-rule="nonzero"></path>
                    </g>
                </g>
            </g>
        </g>
    </g>
</svg>