<?xml version="1.0" encoding="UTF-8"?>
<svg width="24px" height="24px" viewBox="0 0 24 24" version="1.1" xmlns="http://www.w3.org/2000/svg" xmlns:xlink="http://www.w3.org/1999/xlink">
    <title>编组 5</title>
    <defs>
        <linearGradient x1="76.7202373%" y1="41.3049811%" x2="18.306123%" y2="66.0646665%" id="linearGradient-1">
            <stop stop-color="#797BEB" offset="0%"></stop>
            <stop stop-color="#373080" offset="100%"></stop>
        </linearGradient>
    </defs>
    <g id="页面-1" stroke="none" stroke-width="1" fill="none" fill-rule="evenodd">
        <g id="编组-5">
            <g id="编组-23备份" fill="#FFFFFF">
                <rect id="矩形" x="0" y="0" width="24" height="24" rx="2"></rect>
            </g>
            <g id="编组备份-2" transform="translate(5.000000, 5.000000)" fill="url(#linearGradient-1)" fill-rule="nonzero">
                <path d="M7.03473613,0 C7.17106048,0 7.30337529,0.073405185 7.37554697,0.19574716 L8.16943566,1.58228954 L11.6898109,1.58228954 C11.8261353,1.58228954 11.95845,1.65569473 12.0306218,1.7780367 L13.0289969,3.51529275 C13.1011686,3.63763472 13.1011686,3.79260122 13.0289969,3.9149432 L13.0089493,3.94756773 C12.9929111,3.97203612 12.9728634,3.99650452 12.9488061,4.01689485 L12.158927,5.3952811 L13.907086,8.45383047 L13.9511909,8.51907951 C14.0033149,8.64142148 14.0153435,8.79638801 13.9792577,8.90649579 L13.0610733,10.5050976 C12.9889015,10.6274395 12.8605963,10.7008448 12.7202624,10.7008448 L11.1284755,10.7090009 L9.37229739,13.7960967 C9.30012565,13.9184387 9.17182044,13.9918439 9.03148656,13.9918439 L7.0427552,14 L7.01468846,14 C6.88638318,13.9918439 6.7620875,13.9184387 6.69793489,13.8042528 L5.84390306,12.3157588 L2.36763277,12.3157588 C2.339566,12.3239149 2.31550876,12.3239149 2.28744199,12.3239149 C2.15111766,12.3239149 2.01880288,12.2505098 1.94663118,12.1281678 L1.02844675,10.529566 C0.956275048,10.4113021 0.956275048,10.2604136 1.02844675,10.1339936 L1.81832593,8.73929507 L0.0541287763,5.65627731 C-0.0180429254,5.5380134 -0.0180429254,5.38712497 0.0541287763,5.26070493 L1.03646583,3.51529275 C1.10061845,3.39295077 1.23293324,3.31954559 1.37727664,3.31954559 C1.41336249,3.31138946 1.44142926,3.31954559 1.46949604,3.32770172 L3.09736886,3.32770172 L4.83750879,0.269152345 C4.84552787,0.24468395 4.8495374,0.224293621 4.86156602,0.207981358 L4.8695851,0.19574716 C4.9417568,0.073405185 5.07006205,0 5.21039592,0 L7.03874567,0 L7.03473613,0 Z M5.18232914,0.424118847 L3.29383628,3.73958637 L1.36123849,3.73958637 L5.12218605,10.3175066 L3.20562642,10.3175066 L2.27942291,11.9446548 L6.05239909,11.9446548 L7.01468846,13.6329741 L10.775636,7.03874162 L11.7379254,8.71890477 L13.5943419,8.71074861 L11.7018395,5.3952811 L12.6561098,3.72327411 L5.1582719,3.73143024 L6.12056129,2.05126711 L5.18633868,0.424118847 L5.18232914,0.424118847 Z M9.25201118,5.73376056 L7.00265986,9.66909411 L4.75330847,5.73376056 L9.25201118,5.73376056 Z" id="_形状"></path>
            </g>
        </g>
    </g>
</svg>