<?xml version="1.0" encoding="UTF-8"?>
<svg width="19px" height="20px" viewBox="0 0 19 20" version="1.1" xmlns="http://www.w3.org/2000/svg" xmlns:xlink="http://www.w3.org/1999/xlink">
    <title>rabbitmq</title>
    <g id="页面-1" stroke="none" stroke-width="1" fill="none" fill-rule="evenodd">
        <g id="流程2" transform="translate(-483.000000, -314.000000)" fill="#FF6600" fill-rule="nonzero">
            <g id="编组-14" transform="translate(44.000000, 150.000000)">
                <g id="编组-9备份" transform="translate(0.000000, 151.000000)">
                    <g id="编组-10" transform="translate(439.000000, 12.000000)">
                        <g id="rabbitmq" transform="translate(0.000000, 1.000000)">
                            <path d="M18.21625,8 L11.9009766,8 C11.5839997,7.99987772 11.3270584,7.74419957 11.3268945,7.42874026 L11.3268945,0.878531593 C11.3268945,0.393470465 10.9316797,-1.13686838e-14 10.4445078,-1.13686838e-14 L8.19011329,-1.13686838e-14 C7.70264454,-1.13686838e-14 7.30765235,0.393470465 7.30765235,0.878531593 L7.30765235,7.3890756 C7.30765235,7.72685306 7.03326563,8.00140341 6.69386328,8.00288066 L4.62427344,8.01270451 C4.28197657,8.0145511 4.00387891,7.73815415 4.00454689,7.39779148 L4.01738672,0.880008863 C4.01850001,0.3942091 3.62313673,-1.13686838e-14 3.13500001,-1.13686838e-14 L0.882460943,-1.13686838e-14 C0.394917972,-1.13686838e-14 0,0.393470465 0,0.878531593 L0,19.2200022 C0,19.6509214 0.35075781,20 0.783378913,20 L18.21625,20 C18.6492422,20 19,19.6509214 19,19.2200022 L19,8.77999779 C19,8.34907857 18.6492422,8 18.21625,8 Z M15.2547734,14.8865088 C15.2547734,15.4511947 14.7947656,15.9090741 14.2273633,15.9090741 L12.4457422,15.9090741 C11.8782656,15.9090741 11.4182578,15.4511947 11.4182578,14.8865088 L11.4182578,13.1134173 C11.4182578,12.5486575 11.8782656,12.090852 12.4457422,12.090852 L14.2273633,12.090852 C14.7947656,12.090852 15.2547734,12.5486575 15.2547734,13.1134173 L15.2547734,14.8865088 Z" id="形状"></path>
                        </g>
                    </g>
                </g>
            </g>
        </g>
    </g>
</svg>