<?xml version="1.0" encoding="UTF-8"?>
<svg width="32px" height="32px" viewBox="0 0 32 32" version="1.1" xmlns="http://www.w3.org/2000/svg" xmlns:xlink="http://www.w3.org/1999/xlink">
    <title>汇总</title>
    <defs>
        <filter x="-30.0%" y="-30.0%" width="160.0%" height="160.0%" filterUnits="objectBoundingBox" id="filter-1">
            <feOffset dx="-1" dy="2" in="SourceAlpha" result="shadowOffsetOuter1"></feOffset>
            <feGaussianBlur stdDeviation="2" in="shadowOffsetOuter1" result="shadowBlurOuter1"></feGaussianBlur>
            <feColorMatrix values="0 0 0 0 0   0 0 0 0 0   0 0 0 0 0  0 0 0 0.1 0" type="matrix" in="shadowBlurOuter1" result="shadowMatrixOuter1"></feColorMatrix>
            <feMerge>
                <feMergeNode in="shadowMatrixOuter1"></feMergeNode>
                <feMergeNode in="SourceGraphic"></feMergeNode>
            </feMerge>
        </filter>
        <filter id="filter-2">
            <feColorMatrix in="SourceGraphic" type="matrix" values="0 0 0 0 0.000000 0 0 0 0 0.000000 0 0 0 0 0.000000 0 0 0 0.850000 0"></feColorMatrix>
        </filter>
    </defs>
    <g id="控件" stroke="none" stroke-width="1" fill="none" fill-rule="evenodd">
        <g id="右侧边tab收起" transform="translate(-5.000000, -78.000000)">
            <g id="汇总信息" filter="url(#filter-1)" transform="translate(1.000000, 73.000000)">
                <g filter="url(#filter-2)" id="汇总">
                    <g transform="translate(13.000001, 14.013443)">
                        <path d="M13.9981507,6.78666574 C14,6.76228956 14,6.73778024 13.9981507,6.71340406 L11.8112348,0.303006761 C11.745605,0.111863996 11.5675355,-0.0111709019 11.3738516,0.000802316498 L2.62618792,0.000802316498 C2.44203644,0.000884339818 2.27765921,0.12170816 2.21504772,0.303006761 L0.00188880877,6.71340406 C0,6.73778024 0,6.76228956 0.00188880877,6.78666574 C-0.000629602923,6.81407562 -0.000629602923,6.84167526 0.00188880877,6.86908514 L0.00188880877,11.4479404 C0.00188880877,11.8122567 0.14013274,12.1616516 0.386208515,12.4192622 C0.632284291,12.6768728 0.966034664,12.8215969 1.31403836,12.8215969 L13.5607675,12.8215969 C13.8023276,12.8215969 13.9981507,12.6165946 13.9981507,12.3637114 L13.9981507,6.86908514 C14.0006164,6.84167264 14.0006164,6.81407824 13.9981507,6.78666574 L13.9981507,6.78666574 Z M2.93235615,0.916573359 L11.0589357,0.916573359 L12.9309357,6.41119962 L9.62431887,6.41119962 C9.45706568,6.41084921 9.30426522,6.51038173 9.230674,6.66761551 L8.47837493,8.2427417 L5.5216646,8.2427417 L4.76936552,6.66761551 C4.69577431,6.51038173 4.54297384,6.41084921 4.37572066,6.41119962 L1.06035612,6.41119962 L2.93235615,0.916573359 Z M13.1233843,11.9058259 L1.31403836,11.9058259 C1.0724783,11.9058259 0.876655178,11.7008235 0.876655178,11.4479404 L0.876655178,7.32697066 L4.10454308,7.32697066 L4.85684216,8.90209685 C4.93043337,9.05933063 5.08323384,9.15886315 5.25048702,9.15851274 L8.7495525,9.15851274 C8.91680569,9.15886315 9.06960615,9.05933063 9.14319737,8.90209685 L9.89549645,7.32697066 L13.1233843,7.32697066 L13.1233843,11.9058259 Z" id="形状" fill="#000000" fill-rule="nonzero"></path>
                        <rect id="矩形" fill="#000000" x="3.91895265" y="1.89129716" width="6.29831786" height="1"></rect>
                        <rect id="矩形" fill="#000000" x="3.21913955" y="4.23567103" width="7.69794405" height="1"></rect>
                    </g>
                </g>
            </g>
        </g>
    </g>
</svg>