<?xml version="1.0" encoding="UTF-8"?>
<svg width="144px" height="144px" viewBox="0 0 144 144" version="1.1" xmlns="http://www.w3.org/2000/svg" xmlns:xlink="http://www.w3.org/1999/xlink">
    <title>收藏为空</title>
    <defs>
        <linearGradient x1="50%" y1="3.85205925%" x2="50%" y2="121.56033%" id="linearGradient-1">
            <stop stop-color="#779EEA" stop-opacity="0.4" offset="0%"></stop>
            <stop stop-color="#FFFFFF" stop-opacity="0" offset="100%"></stop>
        </linearGradient>
    </defs>
    <g id="收藏为空" stroke="none" stroke-width="1" fill="none" fill-rule="evenodd">
        <g id="Group-3">
            <rect id="Rectangle-3" x="0" y="0" width="144" height="144"></rect>
            <g id="Group-6" transform="translate(0.000000, 23.927624)">
                <path d="M72,76.0723764 C106.372614,76.0723764 135.319819,92.0702309 143.9999,112.072147 L9.95177594e-05,112.072147 C8.68018075,92.0702309 37.6273857,76.0723764 72,76.0723764 Z" id="Combined-Shape" fill="url(#linearGradient-1)"></path>
                <g id="Group" transform="translate(37.000000, 36.072376)">
                    <path d="M0.460962271,20.0342721 L15.5878842,1.80687959 C16.5378053,0.662259174 17.9480291,1.59436054e-15 19.4354786,0 L51.4395208,0 C52.916024,-9.15301344e-15 54.3170329,0.65258865 55.2670558,1.78286221 L70.531014,19.9428972 C70.8339267,20.3032824 71,20.7589726 71,21.2297523 L71,38.5254664 L71,38.5254664 L0,39 L0,21.3115203 C3.49558653e-15,20.8450417 0.163057818,20.3932362 0.460962271,20.0342721 Z" id="Path-2" fill="#FFFFFF"></path>
                    <path d="M0.497432218,20.0234655 L16.5939267,1.70010411 C17.5432355,0.619463376 18.9119542,-2.40030694e-15 20.3503462,0 L51.4395208,0 C52.916024,2.39330602e-15 54.3170329,0.65258865 55.2670558,1.78286221 L70.531014,19.9428972 C70.8339267,20.3032824 71,20.7589726 71,21.2297523 L71,38.5254664 L71,38.5254664 L0,39 L0,21.3434239 C2.13572335e-15,20.857627 0.176816364,20.388437 0.497432218,20.0234655 Z" id="Path-2" stroke="#779EEA" stroke-width="2"></path>
                    <path d="M0,21 L0,47 C4.05812251e-16,50.3137085 2.6862915,53 6,53 L65,53 C68.3137085,53 71,50.3137085 71,47 L71,21 C71,20.4477153 70.5522847,20 70,20 L55.2035967,20 C53.5467425,20 52.2035967,21.3431458 52.2035967,23 L52.2035967,27.3544191 C52.2035967,28.4589886 51.3081662,29.3544191 50.2035967,29.3544191 L23.103271,29.3544191 C21.9987015,29.3544191 21.103271,28.4589886 21.103271,27.3544191 L21.103271,23 C21.103271,21.3431458 19.7601252,20 18.103271,20 L1,20 C0.44771525,20 -6.76353751e-17,20.4477153 0,21 Z" id="Path" fill="#F8FAFE"></path>
                    <path d="M0,21 L0,47 C4.05812251e-16,50.3137085 2.6862915,53 6,53 L65,53 C68.3137085,53 71,50.3137085 71,47 L71,21 C71,20.4477153 70.5522847,20 70,20 L56.2035967,20 C53.9944577,20 52.2035967,21.790861 52.2035967,24 L52.2035967,25.3544191 C52.2035967,27.5635581 50.4127357,29.3544191 48.2035967,29.3544191 L25.103271,29.3544191 C22.894132,29.3544191 21.103271,27.5635581 21.103271,25.3544191 L21.103271,24 C21.103271,21.790861 19.31241,20 17.103271,20 L1,20 C0.44771525,20 -6.76353751e-17,20.4477153 0,21 Z" id="Path" stroke="#779EEA" stroke-width="2"></path>
                </g>
                <g id="Group-2-Copy-2" transform="translate(47.487140, 15.236593) rotate(24.000000) translate(-47.487140, -15.236593) translate(36.987140, 3.236593)">
                    <rect id="Rectangle-12" stroke="#779EEA" stroke-width="1.8" fill="#FFFFFF" x="0.9" y="0.9" width="18.6280782" height="21.9229295" rx="3"></rect>
                    <path d="M5.27176211,15.8152863 L15.8152863,15.8152863 C14.6631365,12.8421281 13.6922237,11.3555491 12.902548,11.3555491 C11.7180345,11.3555491 11.315547,13.5854177 10.5435242,13.5854177 C9.77150146,13.5854177 9.11069235,8.56661343 7.74494172,8.56661343 C6.83444131,8.56661343 6.0100481,10.9828377 5.27176211,15.8152863 Z" id="Path-5" fill="#779EEA"></path>
                    <circle id="Oval-2" fill="#779EEA" cx="13.8383755" cy="8.56661343" r="1.31794053"></circle>
                </g>
                <g id="Group-2" transform="translate(88.865741, 22.655445) rotate(-30.000000) translate(-88.865741, -22.655445) translate(73.865741, 5.155445)">
                    <path d="M26.7584956,1.36429448 C27.3383946,1.36429448 27.8633946,1.59934499 28.2434198,1.97937024 C28.6234451,2.3593955 28.8584956,2.8843955 28.8584956,3.46429448 L28.8584956,31.1526258 C28.8584956,31.7325247 28.6234451,32.2575247 28.2434198,32.63755 C27.8633946,33.0175753 27.3383946,33.2526258 26.7584956,33.2526258 L3.46429448,33.2526258 C2.8843955,33.2526258 2.3593955,33.0175753 1.97937024,32.63755 C1.59934499,32.2575247 1.36429448,31.7325247 1.36429448,31.1526258 L1.36429448,3.46429448 C1.36429448,2.8843955 1.59934499,2.3593955 1.97937024,1.97937024 C2.3593955,1.59934499 2.8843955,1.36429448 3.46429448,1.36429448 Z" id="Rectangle-12" stroke="#779EEA" stroke-width="1.8" fill="#FFFFFF"></path>
                    <path d="M8.12355028,10.9853254 L22.6353609,10.9853254 C23.0771887,10.9853254 23.4353609,11.3434976 23.4353609,11.7853254 C23.4353609,12.2271532 23.0771887,12.5853254 22.6353609,12.5853254 L8.12355028,12.5853254 C7.68172248,12.5853254 7.32355028,12.2271532 7.32355028,11.7853254 C7.32355028,11.3434976 7.68172248,10.9853254 8.12355028,10.9853254 Z" id="Rectangle-13" fill="#779EEA"></path>
                    <path d="M8.12355028,15.3794556 L22.6353609,15.3794556 C23.0771887,15.3794556 23.4353609,15.7376278 23.4353609,16.1794556 C23.4353609,16.6212834 23.0771887,16.9794556 22.6353609,16.9794556 L8.12355028,16.9794556 C7.68172248,16.9794556 7.32355028,16.6212834 7.32355028,16.1794556 C7.32355028,15.7376278 7.68172248,15.3794556 8.12355028,15.3794556 Z" id="Rectangle-13-Copy" fill="#779EEA"></path>
                    <path d="M8.12355028,19.7735858 L18.2412307,19.7735858 C18.6830585,19.7735858 19.0412307,20.131758 19.0412307,20.5735858 C19.0412307,21.0154135 18.6830585,21.3735858 18.2412307,21.3735858 L8.12355028,21.3735858 C7.68172248,21.3735858 7.32355028,21.0154135 7.32355028,20.5735858 C7.32355028,20.131758 7.68172248,19.7735858 8.12355028,19.7735858 Z" id="Rectangle-13-Copy-2" fill="#779EEA"></path>
                    <path d="M21.3059408,19.7735858 L22.6353609,19.7735858 C23.0771887,19.7735858 23.4353609,20.131758 23.4353609,20.5735858 C23.4353609,21.0154135 23.0771887,21.3735858 22.6353609,21.3735858 L21.3059408,21.3735858 C20.864113,21.3735858 20.5059408,21.0154135 20.5059408,20.5735858 C20.5059408,20.131758 20.864113,19.7735858 21.3059408,19.7735858 Z" id="Rectangle-13-Copy-3" fill="#779EEA"></path>
                </g>
                <g id="Group-2-Copy-3" transform="translate(68.932244, 40.303858) rotate(12.000000) translate(-68.932244, -40.303858) translate(56.932244, 26.303858)" stroke="#779EEA">
                    <path d="M21,0.9 C21.579899,0.9 22.104899,1.13505051 22.4849242,1.51507576 C22.8649495,1.89510101 23.1,2.42010101 23.1,3 L23.1,25 C23.1,25.579899 22.8649495,26.104899 22.4849242,26.4849242 C22.104899,26.8649495 21.579899,27.1 21,27.1 L3,27.1 C2.42010101,27.1 1.89510101,26.8649495 1.51507576,26.4849242 C1.13505051,26.104899 0.9,25.579899 0.9,25 L0.9,3 C0.9,2.42010101 1.13505051,1.89510101 1.51507576,1.51507576 C1.89510101,1.13505051 2.42010101,0.9 3,0.9 Z" id="Rectangle-12" stroke-width="1.8" fill="#FFFFFF"></path>
                    <g id="Group-4" transform="translate(6.212847, 6.212847)">
                        <rect id="Rectangle-12" stroke-width="1.4" fill="#FFFFFF" x="0.7" y="0.7" width="10.6" height="13.6" rx="1"></rect>
                        <line x1="0.569510934" y1="4.09687708" x2="11.0778545" y2="4.09687708" id="Path-7" stroke-width="1.2"></line>
                        <line x1="0.505420549" y1="7.57708821" x2="11.0137642" y2="7.57708821" id="Path-7-Copy" stroke-width="1.2"></line>
                        <line x1="0.569510934" y1="11.0300537" x2="11.0778545" y2="11.0300537" id="Path-7-Copy-2" stroke-width="1.2"></line>
                        <line x1="4.12895427" y1="0.157572195" x2="4.12895427" y2="14.1814976" id="Path-7-Copy-3" stroke-width="1.2"></line>
                    </g>
                </g>
            </g>
        </g>
    </g>
</svg>