<?xml version="1.0" encoding="UTF-8"?>
<svg width="14px" height="14px" viewBox="0 0 14 14" version="1.1" xmlns="http://www.w3.org/2000/svg" xmlns:xlink="http://www.w3.org/1999/xlink">
    <title>形状</title>
    <defs>
        <filter id="filter-1">
            <feColorMatrix in="SourceGraphic" type="matrix" values="0 0 0 0 1.000000 0 0 0 0 1.000000 0 0 0 0 1.000000 0 0 0 1.000000 0"></feColorMatrix>
        </filter>
    </defs>
    <g id="页面-1" stroke="none" stroke-width="1" fill="none" fill-rule="evenodd">
        <g id="出边信息" transform="translate(-1042.000000, -403.000000)">
            <g id="编组-2" transform="translate(919.000000, 385.000000)">
                <g id="icon" transform="translate(113.000000, 18.000000)" filter="url(#filter-1)">
                    <g transform="translate(10.000000, 0.000000)">
                        <path d="M13.3256124,6.80433417 C12.4462155,5.92493719 11.0391803,5.92493719 10.1597833,6.80433417 C9.7200848,7.24403266 9.4562657,7.77167085 9.4562657,8.38724874 C9.4562657,8.82694724 9.5442054,9.26664573 9.8080245,9.61840452 L6.99395415,12.5204146 C6.29043656,13.2239322 5.14722048,13.2239322 4.53164259,12.5204146 C4.17988379,12.1686558 4.0040044,11.7289573 4.0040044,11.2892588 C4.0040044,10.8495603 4.17988379,10.4098618 4.53164259,10.058103 L10.0718436,4.51790201 C11.12712,3.46262563 11.12712,1.79177136 10.0718436,0.736494975 C9.10450691,-0.230841709 7.34571294,-0.230841709 6.29043656,0.736494975 L3.47636621,3.55056533 C2.59696922,2.93498744 1.36581344,3.02292714 0.662295854,3.81438442 C-0.217101131,4.69378141 -0.217101131,6.10081658 0.662295854,6.98021357 C1.10199435,7.41991206 1.62963254,7.68373116 2.24521043,7.68373116 C2.86078832,7.68373116 3.38842651,7.41991206 3.828125,6.98021357 C4.61958229,6.18875628 4.70752198,5.0455402 4.0919441,4.16614322 L6.81807475,1.44001256 C7.52159234,0.736494975 8.66480842,0.736494975 9.28038631,1.44001256 C9.98390389,2.14353015 9.98390389,3.28674623 9.28038631,3.90232412 L3.7401853,9.44252513 C3.21254711,9.97016332 2.94872802,10.5857412 2.94872802,11.2892588 C2.94872802,11.9927764 3.21254711,12.696294 3.7401853,13.1359925 C4.26782349,13.6636307 4.88340138,13.9274497 5.58691897,13.9274497 C6.29043656,13.9274497 6.99395415,13.6636307 7.43365264,13.1359925 L10.4236024,10.2339824 C10.7753612,10.4978015 11.2150597,10.5857412 11.6547582,10.5857412 C12.2703361,10.5857412 12.7979742,10.3219221 13.2376727,9.97016332 C14.2050094,9.09076633 14.2050094,7.68373116 13.3256124,6.80433417 Z M3.21254711,6.36463568 C2.68490892,6.89227387 1.71757224,6.89227387 1.27787374,6.36463568 C1.01405465,6.10081658 0.838175251,5.74905779 0.838175251,5.39729899 C0.838175251,5.0455402 1.01405465,4.69378141 1.27787374,4.42996231 C1.54169284,4.16614322 1.89345163,3.99026382 2.24521043,3.99026382 C2.59696922,3.99026382 2.94872802,4.16614322 3.21254711,4.42996231 C3.47636621,4.69378141 3.5643059,5.0455402 3.5643059,5.39729899 C3.5643059,5.74905779 3.47636621,6.10081658 3.21254711,6.36463568 L3.21254711,6.36463568 Z M12.7100345,9.35458543 C12.1823964,9.88222362 11.3029994,9.88222362 10.7753612,9.35458543 C10.5115421,9.09076633 10.3356627,8.73900754 10.3356627,8.38724874 C10.3356627,8.03548995 10.5115421,7.68373116 10.7753612,7.41991206 C11.0391803,7.15609296 11.3909391,6.98021357 11.7426979,6.98021357 C12.0944567,6.98021357 12.4462155,7.15609296 12.7100345,7.41991206 C13.3256124,7.94755025 13.3256124,8.82694724 12.7100345,9.35458543 Z" id="形状" fill="#000000" fill-rule="nonzero"></path>
                    </g>
                </g>
            </g>
        </g>
    </g>
</svg>