<?xml version="1.0" encoding="UTF-8"?>
<svg width="19px" height="18px" viewBox="0 0 19 18" version="1.1" xmlns="http://www.w3.org/2000/svg" xmlns:xlink="http://www.w3.org/1999/xlink">
    <title>xingxing-copy</title>
    <g id="页面-1" stroke="none" stroke-width="1" fill="none" fill-rule="evenodd">
        <g id="配置1" transform="translate(-815.000000, -182.000000)" fill="#54639C" fill-rule="nonzero">
            <g id="bj" transform="translate(224.000000, 132.000000)">
                <g id="编组-3" transform="translate(443.000000, 30.000000)">
                    <g id="xingxing-copy" transform="translate(148.000000, 20.000000)">
                        <path d="M18.9529125,6.81225701 C18.8529688,6.4949791 18.5738071,6.2630368 18.2371409,6.2175561 L12.7571936,5.42337871 L10.3063916,0.48866609 C10.1618476,0.190278476 9.85415217,0 9.5161798,0 C9.17820742,0 8.87051203,0.190278476 8.72596795,0.48866609 L6.25226133,5.42337871 L0.762770368,6.2175561 C0.428870226,6.26988894 0.152358213,6.49901874 0.0450900543,6.81225701 C-0.0621315832,7.12861344 0.0253723426,7.47699515 0.270319511,7.70896905 L4.24237469,11.5568145 L3.30137364,16.9818291 C3.24100106,17.3096325 3.3782528,17.6422335 3.65448762,17.8375273 C3.92530897,18.0309629 4.28638685,18.0535046 4.58021888,17.8953195 L9.49900129,15.3263607 L14.4139662,17.8953195 C14.5423919,17.9614415 14.6849143,17.9972 14.8300681,17.9997184 C15.0183272,18 15.2017131,17.9412918 15.3530586,17.8319345 C15.6263322,17.6343912 15.7628144,17.3036549 15.7061725,16.9762363 L14.7651715,11.5568145 L18.7295918,7.72015464 C18.9748825,7.48373335 19.0621104,7.13211851 18.9548212,6.81225701 L18.9529125,6.81225701 Z" id="路径"></path>
                    </g>
                </g>
            </g>
        </g>
    </g>
</svg>