<?xml version="1.0" encoding="UTF-8"?>
<svg width="22px" height="24px" viewBox="0 0 22 24" version="1.1" xmlns="http://www.w3.org/2000/svg" xmlns:xlink="http://www.w3.org/1999/xlink">
    <title>未知类型</title>
    <g id="搜索-ai详细设计" stroke="none" stroke-width="1" fill="none" fill-rule="evenodd">
        <g id="编组" transform="translate(-1.000000, 0.000000)">
            <g id="未知类型" transform="translate(1.560000, 0.480000)">
                <path d="M0.96,0 L15.288,0 C15.5276823,0.00123171933 15.7584583,0.0909779467 15.936,0.252 L20.568,4.548 C20.7656122,4.73057166 20.8785981,4.9869628 20.88,5.256 L20.88,22.08 C20.88,22.6101934 20.4501934,23.04 19.92,23.04 L0.96,23.04 C0.42980664,23.04 0,22.6101934 0,22.08 L0,0.96 C0,0.42980664 0.42980664,0 0.96,0 Z" id="路径" fill="#8992AD" fill-rule="nonzero"></path>
                <path d="M9.40032,12.99888 C9.1152,10.91232 11.42208,10.4328 11.42208,9.1368 C11.42208,8.43696 10.98144,8.02224 10.24272,8.02224 C9.62064,8.02224 9.1152,8.2944 8.62272,8.83872 L7.56,7.85376 C8.28576,7.02432 9.25776,6.48 10.45008,6.48 C12.07008,6.48 13.24944,7.3224 13.24944,8.96832 C13.24944,10.92528 10.87776,11.15856 11.07216,12.99888 L9.40032,12.99888 Z M8.89488,15.1632 C8.89488,14.41152 9.46512,13.89312 10.24272,13.89312 C11.02032,13.89312 11.59056,14.41152 11.59056,15.1632 C11.59056,15.91488 11.02032,16.44624 10.24272,16.44624 C9.46512,16.44624 8.89488,15.91488 8.89488,15.1632 Z" id="？" fill="#FFFFFF"></path>
            </g>
        </g>
    </g>
</svg>