<?xml version="1.0" standalone="no"?><!DOCTYPE svg PUBLIC "-//W3C//DTD SVG 1.1//EN" "http://www.w3.org/Graphics/SVG/1.1/DTD/svg11.dtd"><svg t="1693749619483" class="icon" viewBox="0 0 1030 1024" version="1.1" xmlns="http://www.w3.org/2000/svg" p-id="36747" xmlns:xlink="http://www.w3.org/1999/xlink" width="201.171875" height="200"><path d="M516.46462902 141.24175512C311.79770703 138.64634084 143.83735191 302.89896158 141.24193835 507.56588355S302.89914479 880.19316066 507.56606679 882.78857422h8.89856222c204.66692197-2.59541356 368.91954272-170.55576867 366.32412843-375.22269067C880.56411724 306.23592259 717.79458998 143.46639532 516.46462902 141.24175512z" p-id="36748" data-spm-anchor-id="a313x.manage_type_myprojects.0.i4.14543a81QUViZb" class="selected" fill="#faad14"></path><path d="M516.46462902 723.72678133c-21.8756315 0-39.67275452-17.79712375-39.67275525-39.67275451s17.79712375-39.67275452 39.67275525-39.67275524c21.8756315 0 39.67275452 17.79712375 39.67275451 39.67275524 0 22.24640485-17.79712375 40.04352788-39.67275451 39.67275451z m39.67275451-198.36377402c0 21.8756315-17.79712375 39.67275452-39.67275451 39.67275525-21.8756315 0-39.67275452-17.79712375-39.67275525-39.67275525v-185.38670478c0-21.8756315 17.79712375-39.67275452 39.67275525-39.67275452 21.8756315 0 39.67275452 17.79712375 39.67275451 39.67275452v185.38670478z" fill="#ffffff" p-id="36749" data-spm-anchor-id="a313x.manage_type_myprojects.0.i3.14543a81QUViZb" class=""></path></svg>