<?xml version="1.0" standalone="no"?><!DOCTYPE svg PUBLIC "-//W3C//DTD SVG 1.1//EN" "http://www.w3.org/Graphics/SVG/1.1/DTD/svg11.dtd"><svg t="1649830118357" class="icon" viewBox="0 0 1024 1024" version="1.1" xmlns="http://www.w3.org/2000/svg" p-id="4972" xmlns:xlink="http://www.w3.org/1999/xlink" width="200" height="200"><defs><style type="text/css"></style></defs><path d="M834.376 1012.05H194.744c-64.092 0-116.234-52.582-116.234-117.217v-765.67c0-64.636 52.142-117.218 116.234-117.218h639.632c31.027 0 60.231 12.267 82.242 34.534 21.919 22.175 33.997 51.543 33.992 82.693v765.666c0 64.63-52.147 117.212-116.234 117.212zM194.744 73.385c-30.213 0-54.794 25.021-54.794 55.777v765.67c0 30.756 24.581 55.778 54.794 55.778h639.632c30.213 0 54.794-25.022 54.794-55.777V129.167c0-14.873-5.765-28.897-16.24-39.495-10.384-10.501-24.075-16.287-38.554-16.287H194.744z" p-id="4973" fill="#ffffff"></path><path d="M716.8 757.76c0 8.448-6.912 15.36-15.36 15.36H322.56c-8.448 0-15.36-6.912-15.36-15.36v-30.72c0-8.448 6.912-15.36 15.36-15.36h378.88c8.448 0 15.36 6.912 15.36 15.36v30.72z m0-204.8c0 8.448-6.912 15.36-15.36 15.36H322.56c-8.448 0-15.36-6.912-15.36-15.36v-30.72c0-8.448 6.912-15.36 15.36-15.36h378.88c8.448 0 15.36 6.912 15.36 15.36v30.72z m0-204.8c0 8.448-6.912 15.36-15.36 15.36H322.56c-8.448 0-15.36-6.912-15.36-15.36v-30.72c0-8.448 6.912-15.36 15.36-15.36h378.88c8.448 0 15.36 6.912 15.36 15.36v30.72z" p-id="4974" fill="#ffffff"></path></svg>