<?xml version="1.0" encoding="UTF-8"?>
<svg width="20px" height="20px" viewBox="0 0 20 20" version="1.1" xmlns="http://www.w3.org/2000/svg" xmlns:xlink="http://www.w3.org/1999/xlink">
    <title>word</title>
    <g id="搜索-ai详细设计" stroke="none" stroke-width="1" fill="none" fill-rule="evenodd">
        <g id="文档预览-问答回答来源于图谱" transform="translate(-1176.000000, -1024.000000)" fill-rule="nonzero">
            <g id="编组-16" transform="translate(1143.000000, 60.000000)">
                <g id="编组-5" transform="translate(1.000000, 0.000000)">
                    <g id="编组-14备份" transform="translate(16.000000, 746.000000)">
                        <g id="编组-2备份" transform="translate(16.000000, 153.000000)">
                            <g id="word" transform="translate(0.000000, 65.000000)">
                                <rect id="矩形" fill="#000000" opacity="0" x="0" y="0" width="20" height="20"></rect>
                                <path d="M2.1,0.4 L14.04,0.4 C14.24,0.4 14.44,0.48 14.58,0.61 L18.44,4.19 C18.6,4.34 18.7,4.55 18.7,4.78 L18.7,18.8 C18.7,19.24 18.34,19.6 17.9,19.6 L2.1,19.6 C1.66,19.6 1.3,19.24 1.3,18.8 L1.3,1.2 C1.3,0.76 1.66,0.4 2.1,0.4 Z" id="路径" fill="#2A92FF"></path>
                                <path d="M15.4,7.1 L12.5,7.1 L12.5,5.7 C12.48,5.54 12.34,5.42 12.17,5.43 L4.57,6.22 C4.42,6.24 4.3,6.36 4.3,6.52 L4.3,14.48 C4.3,14.63 4.42,14.76 4.57,14.78 L12.17,15.57 L12.2,15.57 C12.37,15.57 12.5,15.44 12.5,15.27 L12.5,13.9 L15.4,13.9 C15.57,13.9 15.7,13.77 15.7,13.6 L15.7,7.4 C15.7,7.23 15.57,7.1 15.4,7.1 Z M10.47,12.86 L9.03,12.86 L8.6,10.79 C8.52,10.43 8.46,10.04 8.41,9.68 L8.38,9.68 C8.32,10.04 8.26,10.42 8.19,10.79 L7.77,12.86 L6.37,12.86 L5.5,8.1 L6.67,8.1 L6.97,10.27 L7.16,11.78 L7.19,11.78 C7.28,11.27 7.38,10.76 7.47,10.27 L7.96,8.1 L8.92,8.1 L9.42,10.27 C9.52,10.76 9.6,11.27 9.7,11.78 L9.73,11.78 C9.79,11.27 9.85,10.76 9.91,10.27 L10.22,8.1 L11.3,8.1 L10.47,12.86 L10.47,12.86 Z M15.1,13.3 L12.5,13.3 L12.5,11.8 L14.1,11.8 L14.1,11.1 L12.5,11.1 L12.5,9.8 L14.1,9.8 L14.1,9.1 L12.5,9.1 L12.5,7.7 L15.1,7.7 L15.1,13.3 Z" id="形状" fill="#FFFFFF"></path>
                            </g>
                        </g>
                    </g>
                </g>
            </g>
        </g>
    </g>
</svg>