<?xml version="1.0" encoding="UTF-8"?>
<svg width="396px" height="257px" viewBox="0 0 396 257" version="1.1" xmlns="http://www.w3.org/2000/svg" xmlns:xlink="http://www.w3.org/1999/xlink">
    <title>编组 4</title>
    <g id="页面-1" stroke="none" stroke-width="1" fill="none" fill-rule="evenodd">
        <g id="本体_关于1" transform="translate(-915.000000, -321.000000)">
            <g id="编组-4" transform="translate(915.000000, 321.000000)">
                <circle id="椭圆形" fill="#F2F4F8" fill-rule="nonzero" cx="142.428117" cy="110.501118" r="100"></circle>
                <circle id="椭圆形" fill="#D2DDF4" fill-rule="nonzero" opacity="0.3" cx="258.626956" cy="188.846762" r="20"></circle>
                <path d="M382.412153,233.384549 C379.890154,234.601735 376.924572,234.470342 374.520317,233.034894 C373.91448,232.670699 373.431277,233.655197 374.033166,234.017019 C376.695703,235.589926 379.965464,235.742059 382.762795,234.423185 C383.042967,234.318682 383.193725,234.014737 383.107256,233.728712 C383.009194,233.442988 382.699108,233.289464 382.412153,233.384567 L382.412153,233.384549 Z" id="路径" fill="#FFFFFF" fill-rule="nonzero"></path>
                <path d="M221.598976,238.309464 C174.008137,238.311765 132.600867,202.842394 126.483747,154.464268 L127.652915,154.316518 C133.694367,202.097404 174.597323,237.129288 221.599842,237.132161 C225.593326,237.132034 229.582835,236.880517 233.544657,236.379107 C285.384656,229.836176 322.231494,182.377203 315.682553,130.584738 L316.851721,130.436988 C323.482076,182.873289 286.176946,230.923204 233.692531,237.547191 C229.681316,238.054212 225.642166,238.309464 221.598976,238.309464 Z" id="路径" fill="#96B4EE" fill-rule="nonzero"></path>
                <g id="编组-3" transform="translate(198.630421, 217.807226)" fill-rule="nonzero">
                    <path d="M25.5193978,35.4814391 L6.78225745,35.4857414 C5.97122659,35.4876384 5.20409844,35.1185447 4.70004416,34.4839043 C4.20208276,33.8654312 4.01498541,33.0530788 4.19223179,32.2790487 C5.97197812,24.4378457 5.86886584,16.2878806 3.89133005,8.49586022 C3.61452633,7.39190551 4.07837664,6.23480068 5.04151907,5.62663879 C11.5245276,1.61274557 18.5827811,1.73646975 26.6207583,6.00542447 C27.3614731,6.3949695 27.8773954,7.10797273 28.0155223,7.93298425 C29.3448204,16.2996175 29.3894272,24.8204595 28.1478044,33.2017084 C27.9650597,34.511129 26.8424507,35.4848162 25.5193978,35.4814391 Z" id="路径" stroke="#779EEA" stroke-width="1.5" fill="#FFFFFF" transform="translate(16.429496, 19.096423) rotate(-345.000000) translate(-16.429496, -19.096423) "></path>
                    <path d="M18.0974961,14.642506 L11.6518941,14.6439835 C10.9107709,14.6431338 10.3108839,14.2482274 10.3110674,13.7612683 C10.3110674,13.2743092 10.9111756,12.8791278 11.6522992,12.8779384 L18.0979013,12.8764608 C18.8401233,12.8762908 19.4416959,13.2714955 19.4416959,13.7591754 C19.4414987,14.2468553 18.8397182,14.6423359 18.0974961,14.642506 Z" id="路径" fill="#779EEA" transform="translate(14.876382, 13.760222) rotate(-345.000000) translate(-14.876382, -13.760222) "></path>
                    <path d="M15.3526342,24.877068 L8.90703208,24.8785454 C8.1659089,24.8776958 7.56602192,24.4827894 7.56613363,23.9958303 C7.56624534,23.5088712 8.16631357,23.1136898 8.90743722,23.1125003 L15.3530393,23.1110228 C16.0952613,23.1108527 16.6968605,23.5060575 16.6967487,23.9937374 C16.6966368,24.4814172 16.0948562,24.8768978 15.3526342,24.877068 Z" id="路径" fill="#779EEA" transform="translate(12.131441, 23.994784) rotate(-345.000000) translate(-12.131441, -23.994784) "></path>
                    <path d="M24.4701048,20.785113 L10.1434438,20.788397 C9.40232058,20.7875473 8.80243361,20.392641 8.80264633,19.9056819 C8.80264633,19.4187228 9.40272525,19.0235414 10.1438489,19.0223519 L24.47051,19.0190679 C25.2116331,19.0199176 25.8115346,19.4148239 25.8115346,19.901783 C25.8112967,20.3887421 25.2112285,20.7839235 24.4701048,20.785113 L24.4701048,20.785113 Z" id="路径" fill="#779EEA" transform="translate(17.307090, 19.903732) rotate(-345.000000) translate(-17.307090, -19.903732) "></path>
                </g>
                <path d="M136.706626,157.901665 L117.968335,157.901665 C117.157254,157.903182 116.389994,157.575239 115.885764,157.011521 C115.38763,156.462162 115.200334,155.740685 115.377414,155.053316 C117.162049,148.065984 117.049937,140.802369 115.050316,133.861025 C114.791549,132.925997 115.199628,131.945307 116.081102,131.383852 C125.716356,125.234824 133.304426,125.413261 138.634713,131.915074 C138.875005,132.211425 139.03463,132.553156 139.101059,132.91345 C140.525263,140.510734 140.604079,148.258736 139.334659,155.877594 C139.152204,157.040431 138.029756,157.90492 136.706626,157.901665 Z" id="路径" fill="#D2DDF4" fill-rule="nonzero"></path>
                <g id="编组-9" transform="translate(122.101894, 138.153400)" fill="#FFFFFF" fill-rule="nonzero">
                    <path d="M10.2369021,1.99681768 L1.7630979,1.99681768 C0.788769248,1.99566487 0,1.54899984 0,0.998408839 C0,0.447817843 0.788769248,0.00115280474 1.7630979,0 L10.2369021,0 C11.2112308,0.00115280474 12,0.447817843 12,0.998408839 C12,1.54899984 11.2112308,1.99566487 10.2369021,1.99681768 L10.2369021,1.99681768 Z" id="路径"></path>
                    <path d="M10.2369021,6.9967074 L1.7630979,6.9967074 C0.788769248,6.9955546 0,6.54888956 0,5.99829856 C0,5.44770757 0.788769248,5.00104253 1.7630979,4.99988973 L10.2369021,4.99988973 C11.2112308,5.00104253 12,5.44770757 12,5.99829856 C12,6.54888956 11.2112308,6.9955546 10.2369021,6.9967074 L10.2369021,6.9967074 Z" id="路径"></path>
                    <path d="M10.2369021,11.9965971 L1.7630979,11.9965971 C0.788769248,11.9954443 0,11.5487793 0,10.9981883 C0,10.4475973 0.788769248,10.0009323 1.7630979,9.99977945 L10.2369021,9.99977945 C11.2112308,10.0009323 12,10.4475973 12,10.9981883 C12,11.5487793 11.2112308,11.9954443 10.2369021,11.9965971 L10.2369021,11.9965971 Z" id="路径"></path>
                </g>
                <g id="编组-10" transform="translate(360.000000, 144.503272) scale(-1, 1) rotate(-180.000000) translate(-360.000000, -144.503272) translate(324.000000, 120.503272)">
                    <g id="Group-2">
                        <path d="M2.9851306,1.26106619 L55.6563124,1 L55.6563124,1 L70.9150921,13 L70.9150921,43.2758621 C70.9150921,44.9327163 69.5719463,46.2758621 67.9150921,46.2758621 L3,46.2758621 C1.34314575,46.2758621 1.53517375e-15,44.9327163 0,43.2758621 L0,4.26102934 C6.85983068e-16,2.609979 1.33410054,1.26924956 2.9851306,1.26106619 Z" id="Rectangle" fill="#FFFFFF"></path>
                        <path d="M55.801043,1 L71,12.7292273 L71,42 C71,43.3807119 70.4403559,44.6307119 69.5355339,45.5355339 C68.6307119,46.4403559 67.3807119,47 66,47 L66,47 L6.0861038,47 C4.70539193,47 3.45539193,46.4403559 2.5505699,45.5355339 C1.64574787,44.6307119 1.0861038,43.3807119 1.0861038,42 L1.0861038,42 L1.0861038,6 C1.0861038,4.61928813 1.64574787,3.36928813 2.5505699,2.46446609 C3.45539193,1.55964406 4.70539193,1 6.0861038,1 L6.0861038,1 L55.801043,1 Z" id="Rectangle-4" stroke="#E8EDF6" stroke-width="2" fill="#FFFFFF"></path>
                        <polyline id="Path-4" stroke="#E8EDF6" stroke-width="2" points="55.0203301 1 55.0203301 13 70.2047862 13"></polyline>
                    </g>
                    <rect id="Rectangle-23" fill="#779EEA" x="11.377218" y="15" width="19.9760823" height="2"></rect>
                    <rect id="Rectangle-23-Copy" fill="#779EEA" x="11.377218" y="23.5" width="48.9414016" height="2"></rect>
                    <rect id="Rectangle-23-Copy-2" fill="#779EEA" x="11.377218" y="32" width="31.9617316" height="2"></rect>
                </g>
                <circle id="椭圆形" fill="#ADC3EE" fill-rule="nonzero" cx="315.702637" cy="124.195276" r="12.5"></circle>
                <g id="编组-10" transform="translate(288.000000, 24.000000) scale(-1, 1) rotate(-180.000000) translate(-288.000000, -24.000000) translate(252.000000, 0.000000)">
                    <g id="Group-2">
                        <path d="M2.9851306,1.26106619 L55.6563124,1 L55.6563124,1 L70.9150921,13 L70.9150921,43.2758621 C70.9150921,44.9327163 69.5719463,46.2758621 67.9150921,46.2758621 L3,46.2758621 C1.34314575,46.2758621 1.53517375e-15,44.9327163 0,43.2758621 L0,4.26102934 C6.85983068e-16,2.609979 1.33410054,1.26924956 2.9851306,1.26106619 Z" id="Rectangle" fill="#FFFFFF"></path>
                        <path d="M55.801043,1 L71,12.7292273 L71,42 C71,43.3807119 70.4403559,44.6307119 69.5355339,45.5355339 C68.6307119,46.4403559 67.3807119,47 66,47 L66,47 L6.0861038,47 C4.70539193,47 3.45539193,46.4403559 2.5505699,45.5355339 C1.64574787,44.6307119 1.0861038,43.3807119 1.0861038,42 L1.0861038,42 L1.0861038,6 C1.0861038,4.61928813 1.64574787,3.36928813 2.5505699,2.46446609 C3.45539193,1.55964406 4.70539193,1 6.0861038,1 L6.0861038,1 L55.801043,1 Z" id="Rectangle-4" stroke="#E8EDF6" stroke-width="2" fill="#FFFFFF"></path>
                        <polyline id="Path-4" stroke="#E8EDF6" stroke-width="2" points="55.0203301 1 55.0203301 13 70.2047862 13"></polyline>
                    </g>
                    <rect id="Rectangle-23" fill="#779EEA" x="11.377218" y="15" width="19.9760823" height="2"></rect>
                    <rect id="Rectangle-23-Copy" fill="#779EEA" x="11.377218" y="23.5" width="48.9414016" height="2"></rect>
                    <rect id="Rectangle-23-Copy-2" fill="#779EEA" x="11.377218" y="32" width="31.9617316" height="2"></rect>
                </g>
                <path d="M179.436464,34.0529311 C182.964193,16.163247 200.339746,4.51796009 218.245847,8.0424547 C236.151948,11.5669493 247.807921,28.9265711 244.280192,46.8162552 L243.123692,46.5887378 C246.525651,29.3371843 235.285503,12.5967325 218.018118,9.19789227 C200.750733,5.79905203 183.994919,17.028895 180.592959,34.2804485 L179.436464,34.0529311 Z" id="路径" fill="#779EEA" fill-rule="nonzero"></path>
                <path d="M173.068443,52.7932207 C172.258126,52.8284686 171.476227,52.4912578 170.946137,51.8779299 C170.422805,51.2805092 170.202023,50.4766023 170.3469,49.6960034 C171.783659,41.8688772 171.36495,33.8143085 169.124339,26.1779963 C168.767664,24.973695 169.312382,23.6854073 170.425232,23.1013169 C178.093778,19.12079 185.279193,18.9189611 191.780656,22.5006925 C192.470373,22.8750751 192.959991,23.5340047 193.11908,24.3019478 C194.811336,32.6347868 195.217037,41.1773156 194.322091,49.6328006 C194.194021,50.9485201 193.112844,51.9674615 191.79069,52.0184867 L173.068443,52.7932207 Z" id="路径" stroke="#779EEA" stroke-width="1.5" fill="#FFFFFF" fill-rule="nonzero"></path>
                <g id="编组-10" transform="translate(36.000000, 170.503272) scale(-1, 1) rotate(-180.000000) translate(-36.000000, -170.503272) translate(0.000000, 146.503272)">
                    <g id="Group-2">
                        <path d="M2.9851306,1.26106619 L55.6563124,1 L55.6563124,1 L70.9150921,13 L70.9150921,43.2758621 C70.9150921,44.9327163 69.5719463,46.2758621 67.9150921,46.2758621 L3,46.2758621 C1.34314575,46.2758621 1.53517375e-15,44.9327163 0,43.2758621 L0,4.26102934 C6.85983068e-16,2.609979 1.33410054,1.26924956 2.9851306,1.26106619 Z" id="Rectangle" fill="#FFFFFF"></path>
                        <path d="M55.801043,1 L71,12.7292273 L71,42 C71,43.3807119 70.4403559,44.6307119 69.5355339,45.5355339 C68.6307119,46.4403559 67.3807119,47 66,47 L66,47 L6.0861038,47 C4.70539193,47 3.45539193,46.4403559 2.5505699,45.5355339 C1.64574787,44.6307119 1.0861038,43.3807119 1.0861038,42 L1.0861038,42 L1.0861038,6 C1.0861038,4.61928813 1.64574787,3.36928813 2.5505699,2.46446609 C3.45539193,1.55964406 4.70539193,1 6.0861038,1 L6.0861038,1 L55.801043,1 Z" id="Rectangle-4" stroke="#779EEA" stroke-width="2" fill="#FFFFFF"></path>
                        <polyline id="Path-4" stroke="#779EEA" stroke-width="2" points="55.0203301 1 55.0203301 13 70.2047862 13"></polyline>
                    </g>
                    <rect id="Rectangle-23" fill="#779EEA" x="11.377218" y="15" width="19.9760823" height="2"></rect>
                    <rect id="Rectangle-23-Copy" fill="#779EEA" x="11.377218" y="23.5" width="48.9414016" height="2"></rect>
                    <rect id="Rectangle-23-Copy-2" fill="#779EEA" x="11.377218" y="32" width="31.9617316" height="2"></rect>
                </g>
                <circle id="椭圆形" fill="#779EEA" fill-rule="nonzero" transform="translate(244.750732, 48.486918) rotate(-58.134260) translate(-244.750732, -48.486918) " cx="244.750732" cy="48.4869182" r="12.5"></circle>
                <path d="M76.1178671,147.41432 C65.292173,118.822113 79.716047,86.8756374 108.334492,76.0598682 C136.952936,65.2440989 168.928729,79.6547479 179.754424,108.246954 L178.651999,108.663715 C168.056694,80.6798011 136.76124,66.5756735 108.751646,77.161264 C80.7420525,87.7468546 66.6249818,119.013616 77.2202866,146.997529 L76.1178671,147.41432 Z" id="路径" fill="#779EEA" fill-rule="nonzero"></path>
                <path d="M115.826845,74.4302697 L109.380847,74.4302697 C108.639678,74.4287192 108.039663,73.8279985 108.039663,73.0875074 C108.039663,72.3470164 108.639678,71.7462956 109.380847,71.7447452 L115.826845,71.7447452 C116.568014,71.7462956 117.168028,72.3470164 117.168028,73.0875074 C117.168028,73.8279985 116.568014,74.4287192 115.826845,74.4302697 Z" id="路径" fill="#FFFFFF" fill-rule="nonzero"></path>
                <path d="M123.708388,79.7359083 L109.380847,79.7359083 C108.638579,79.7359083 108.036852,79.1347332 108.036852,78.3931461 C108.036852,77.6515589 108.638579,77.0503838 109.380847,77.0503838 L123.708388,77.0503838 C124.449557,77.0519342 125.049571,77.652655 125.049571,78.3931461 C125.049571,79.1336371 124.449557,79.7343579 123.708388,79.7359083 L123.708388,79.7359083 Z" id="路径" fill="#FFFFFF" fill-rule="nonzero"></path>
                <circle id="椭圆形" fill="#B4C9F1" fill-rule="nonzero" transform="translate(75.654436, 145.024786) rotate(-58.134260) translate(-75.654436, -145.024786) " cx="75.6544356" cy="145.024786" r="12.5"></circle>
                <path d="M188.803362,127.908025 L170.065071,127.908025 C169.253991,127.909733 168.486731,127.540486 167.9825,126.905769 C167.484366,126.287219 167.297071,125.474874 167.47415,124.700932 C169.244789,116.892755 169.148002,108.777509 167.191642,101.013701 C166.906352,99.8672818 167.417271,98.6709434 168.443072,98.0834239 C177.54582,92.8775901 184.753565,93.021302 190.478565,98.5228948 C190.879753,98.9153769 191.143917,99.4263955 191.232015,99.9804282 C192.623026,108.468448 192.690279,117.120464 191.431384,125.629044 C191.248921,126.938326 190.126482,127.911684 188.803362,127.908025 Z" id="路径" fill="#779EEA" fill-rule="nonzero"></path>
                <path d="M180.226458,109.652078 L173.78046,109.652078 C173.039291,109.650923 172.439276,109.203556 172.439276,108.6521 C172.439276,108.100643 173.039291,107.653276 173.78046,107.652122 L180.226458,107.652122 C180.967627,107.653276 181.567641,108.100643 181.567641,108.6521 C181.567641,109.203556 180.967627,109.650923 180.226458,109.652078 L180.226458,109.652078 Z" id="路径" fill="#FFFFFF" fill-rule="nonzero"></path>
                <path d="M188.108001,114.957716 L173.78046,114.957716 C173.038192,114.957716 172.436465,114.510011 172.436465,113.957738 C172.436465,113.405466 173.038192,112.95776 173.78046,112.95776 L188.108001,112.95776 C188.84917,112.958915 189.449184,113.406282 189.449184,113.957738 C189.449184,114.509194 188.84917,114.956562 188.108001,114.957716 Z" id="路径" fill="#FFFFFF" fill-rule="nonzero"></path>
                <g id="编组-3" transform="translate(117.019066, 74.766032) rotate(-10.000000) translate(-117.019066, -74.766032) translate(100.589587, 55.669645)" fill-rule="nonzero">
                    <path d="M25.5193978,35.4814391 L6.78225745,35.4857414 C5.97122659,35.4876384 5.20409844,35.1185447 4.70004416,34.4839043 C4.20208276,33.8654312 4.01498541,33.0530788 4.19223179,32.2790487 C5.97197812,24.4378457 5.86886584,16.2878806 3.89133005,8.49586022 C3.61452633,7.39190551 4.07837664,6.23480068 5.04151907,5.62663879 C11.5245276,1.61274557 18.5827811,1.73646975 26.6207583,6.00542447 C27.3614731,6.3949695 27.8773954,7.10797273 28.0155223,7.93298425 C29.3448204,16.2996175 29.3894272,24.8204595 28.1478044,33.2017084 C27.9650597,34.511129 26.8424507,35.4848162 25.5193978,35.4814391 Z" id="路径" stroke="#779EEA" stroke-width="1.5" fill="#FFFFFF" transform="translate(16.429496, 19.096423) rotate(-345.000000) translate(-16.429496, -19.096423) "></path>
                    <path d="M18.0974961,14.642506 L11.6518941,14.6439835 C10.9107709,14.6431338 10.3108839,14.2482274 10.3110674,13.7612683 C10.3110674,13.2743092 10.9111756,12.8791278 11.6522992,12.8779384 L18.0979013,12.8764608 C18.8401233,12.8762908 19.4416959,13.2714955 19.4416959,13.7591754 C19.4414987,14.2468553 18.8397182,14.6423359 18.0974961,14.642506 Z" id="路径" fill="#779EEA" transform="translate(14.876382, 13.760222) rotate(-345.000000) translate(-14.876382, -13.760222) "></path>
                    <path d="M15.3526342,24.877068 L8.90703208,24.8785454 C8.1659089,24.8776958 7.56602192,24.4827894 7.56613363,23.9958303 C7.56624534,23.5088712 8.16631357,23.1136898 8.90743722,23.1125003 L15.3530393,23.1110228 C16.0952613,23.1108527 16.6968605,23.5060575 16.6967487,23.9937374 C16.6966368,24.4814172 16.0948562,24.8768978 15.3526342,24.877068 Z" id="路径" fill="#779EEA" transform="translate(12.131441, 23.994784) rotate(-345.000000) translate(-12.131441, -23.994784) "></path>
                    <path d="M24.4701048,20.785113 L10.1434438,20.788397 C9.40232058,20.7875473 8.80243361,20.392641 8.80264633,19.9056819 C8.80264633,19.4187228 9.40272525,19.0235414 10.1438489,19.0223519 L24.47051,19.0190679 C25.2116331,19.0199176 25.8115346,19.4148239 25.8115346,19.901783 C25.8112967,20.3887421 25.2112285,20.7839235 24.4701048,20.785113 L24.4701048,20.785113 Z" id="路径" fill="#779EEA" transform="translate(17.307090, 19.903732) rotate(-345.000000) translate(-17.307090, -19.903732) "></path>
                </g>
                <g id="编组-3" transform="translate(184.075975, 30.833958) rotate(7.000000) translate(-184.075975, -30.833958) translate(167.075975, 10.833958)" fill-rule="nonzero">
                    <path d="M26.4628165,37.171123 L7.05922743,37.1165846 C6.21935497,37.1160241 5.4237788,36.7273617 4.89979777,36.0616395 C4.38217724,35.4128552 4.18586752,34.5621596 4.36698153,33.7527146 C6.18534555,25.5526951 6.05290743,17.0236361 3.98050124,8.86325622 C3.69037633,7.70712381 4.16708248,6.49770291 5.16256831,5.86430896 C11.8635345,1.68428046 19.1732328,1.83597596 27.510553,6.32863583 C28.2788407,6.73861692 28.8153586,7.4863812 28.9609958,8.35016994 C30.3639163,17.1098271 30.4369355,26.0268153 29.1775358,34.7936733 C28.9924134,36.1633738 27.8329397,37.1787789 26.4628165,37.171123 Z" id="路径" stroke="#779EEA" stroke-width="1.5" fill="#FFFFFF" transform="translate(16.983502, 20.005618) rotate(-345.000000) translate(-16.983502, -20.005618) "></path>
                    <path d="M18.7314383,15.3447519 L12.0565769,15.3259972 C11.28909,15.3227747 10.6666224,14.9076265 10.6652026,14.3980364 C10.6637876,13.8884462 11.2839555,13.476788 12.0514365,13.4778743 L18.7262978,13.4966228 C19.4949195,13.4987815 20.1191612,13.9142473 20.1205831,14.4245917 C20.1220002,14.9349362 19.5000599,15.3469021 18.7314383,15.3447519 Z" id="路径" fill="#779EEA" transform="translate(15.392893, 14.411313) rotate(-345.000000) translate(-15.392893, -14.411313) "></path>
                    <path d="M15.8912569,26.0636196 L9.21639557,26.0448648 C8.44890866,26.0416424 7.82644101,25.6264942 7.82502119,25.116904 C7.82360623,24.6073139 8.44377417,24.1956556 9.21125514,24.196742 L15.8861165,24.2154904 C16.6547381,24.2176491 17.2789798,24.633115 17.2804017,25.1434594 C17.2818188,25.6538038 16.6598785,26.0657698 15.8912569,26.0636196 Z" id="路径" fill="#779EEA" transform="translate(12.552711, 25.130181) rotate(-345.000000) translate(-12.552711, -25.130181) "></path>
                    <path d="M24.38449,21.6523429 L10.4282708,21.6133442 C9.70630747,21.61026 9.1206881,21.1952236 9.11926141,20.6856334 C9.11783992,20.1760432 9.70114872,19.7642731 10.4231061,19.7652218 L24.3793252,19.8042205 C25.1012886,19.8073048 25.6869079,20.2223412 25.6883346,20.7319313 C25.6897561,21.2415215 25.1064473,21.6532916 24.38449,21.6523429 L24.38449,21.6523429 Z" id="路径" fill="#779EEA" transform="translate(17.403798, 20.708782) rotate(-345.000000) translate(-17.403798, -20.708782) "></path>
                </g>
                <g id="编组-3" transform="translate(223.075975, 233.833958) rotate(7.000000) translate(-223.075975, -233.833958) translate(206.075975, 213.833958)" fill-rule="nonzero">
                    <path d="M26.4628165,37.171123 L7.05922743,37.1165846 C6.21935497,37.1160241 5.4237788,36.7273617 4.89979777,36.0616395 C4.38217724,35.4128552 4.18586752,34.5621596 4.36698153,33.7527146 C6.18534555,25.5526951 6.05290743,17.0236361 3.98050124,8.86325622 C3.69037633,7.70712381 4.16708248,6.49770291 5.16256831,5.86430896 C11.8635345,1.68428046 19.1732328,1.83597596 27.510553,6.32863583 C28.2788407,6.73861692 28.8153586,7.4863812 28.9609958,8.35016994 C30.3639163,17.1098271 30.4369355,26.0268153 29.1775358,34.7936733 C28.9924134,36.1633738 27.8329397,37.1787789 26.4628165,37.171123 Z" id="路径" stroke="#779EEA" stroke-width="1.5" fill="#FFFFFF" transform="translate(16.983502, 20.005618) rotate(-345.000000) translate(-16.983502, -20.005618) "></path>
                    <path d="M18.7314383,15.3447519 L12.0565769,15.3259972 C11.28909,15.3227747 10.6666224,14.9076265 10.6652026,14.3980364 C10.6637876,13.8884462 11.2839555,13.476788 12.0514365,13.4778743 L18.7262978,13.4966228 C19.4949195,13.4987815 20.1191612,13.9142473 20.1205831,14.4245917 C20.1220002,14.9349362 19.5000599,15.3469021 18.7314383,15.3447519 Z" id="路径" fill="#779EEA" transform="translate(15.392893, 14.411313) rotate(-345.000000) translate(-15.392893, -14.411313) "></path>
                    <path d="M15.8912569,26.0636196 L9.21639557,26.0448648 C8.44890866,26.0416424 7.82644101,25.6264942 7.82502119,25.116904 C7.82360623,24.6073139 8.44377417,24.1956556 9.21125514,24.196742 L15.8861165,24.2154904 C16.6547381,24.2176491 17.2789798,24.633115 17.2804017,25.1434594 C17.2818188,25.6538038 16.6598785,26.0657698 15.8912569,26.0636196 Z" id="路径" fill="#779EEA" transform="translate(12.552711, 25.130181) rotate(-345.000000) translate(-12.552711, -25.130181) "></path>
                    <path d="M24.38449,21.6523429 L10.4282708,21.6133442 C9.70630747,21.61026 9.1206881,21.1952236 9.11926141,20.6856334 C9.11783992,20.1760432 9.70114872,19.7642731 10.4231061,19.7652218 L24.3793252,19.8042205 C25.1012886,19.8073048 25.6869079,20.2223412 25.6883346,20.7319313 C25.6897561,21.2415215 25.1064473,21.6532916 24.38449,21.6523429 L24.38449,21.6523429 Z" id="路径" fill="#779EEA" transform="translate(17.403798, 20.708782) rotate(-345.000000) translate(-17.403798, -20.708782) "></path>
                </g>
                <g id="编组-3" transform="translate(117.075975, 72.833958) rotate(16.000000) translate(-117.075975, -72.833958) translate(100.075975, 52.833958)" fill-rule="nonzero">
                    <path d="M26.4628165,37.171123 L7.05922743,37.1165846 C6.21935497,37.1160241 5.4237788,36.7273617 4.89979777,36.0616395 C4.38217724,35.4128552 4.18586752,34.5621596 4.36698153,33.7527146 C6.18534555,25.5526951 6.05290743,17.0236361 3.98050124,8.86325622 C3.69037633,7.70712381 4.16708248,6.49770291 5.16256831,5.86430896 C11.8635345,1.68428046 19.1732328,1.83597596 27.510553,6.32863583 C28.2788407,6.73861692 28.8153586,7.4863812 28.9609958,8.35016994 C30.3639163,17.1098271 30.4369355,26.0268153 29.1775358,34.7936733 C28.9924134,36.1633738 27.8329397,37.1787789 26.4628165,37.171123 Z" id="路径" stroke="#779EEA" stroke-width="1.5" fill="#FFFFFF" transform="translate(16.983502, 20.005618) rotate(-345.000000) translate(-16.983502, -20.005618) "></path>
                    <path d="M18.7314383,15.3447519 L12.0565769,15.3259972 C11.28909,15.3227747 10.6666224,14.9076265 10.6652026,14.3980364 C10.6637876,13.8884462 11.2839555,13.476788 12.0514365,13.4778743 L18.7262978,13.4966228 C19.4949195,13.4987815 20.1191612,13.9142473 20.1205831,14.4245917 C20.1220002,14.9349362 19.5000599,15.3469021 18.7314383,15.3447519 Z" id="路径" fill="#779EEA" transform="translate(15.392893, 14.411313) rotate(-345.000000) translate(-15.392893, -14.411313) "></path>
                    <path d="M15.8912569,26.0636196 L9.21639557,26.0448648 C8.44890866,26.0416424 7.82644101,25.6264942 7.82502119,25.116904 C7.82360623,24.6073139 8.44377417,24.1956556 9.21125514,24.196742 L15.8861165,24.2154904 C16.6547381,24.2176491 17.2789798,24.633115 17.2804017,25.1434594 C17.2818188,25.6538038 16.6598785,26.0657698 15.8912569,26.0636196 Z" id="路径" fill="#779EEA" transform="translate(12.552711, 25.130181) rotate(-345.000000) translate(-12.552711, -25.130181) "></path>
                    <path d="M24.38449,21.6523429 L10.4282708,21.6133442 C9.70630747,21.61026 9.1206881,21.1952236 9.11926141,20.6856334 C9.11783992,20.1760432 9.70114872,19.7642731 10.4231061,19.7652218 L24.3793252,19.8042205 C25.1012886,19.8073048 25.6869079,20.2223412 25.6883346,20.7319313 C25.6897561,21.2415215 25.1064473,21.6532916 24.38449,21.6523429 L24.38449,21.6523429 Z" id="路径" fill="#779EEA" transform="translate(17.403798, 20.708782) rotate(-345.000000) translate(-17.403798, -20.708782) "></path>
                </g>
            </g>
        </g>
    </g>
</svg>