<?xml version="1.0" standalone="no"?><!DOCTYPE svg PUBLIC "-//W3C//DTD SVG 1.1//EN" "http://www.w3.org/Graphics/SVG/1.1/DTD/svg11.dtd"><svg t="1604450787991" class="icon" viewBox="0 0 1024 1024" version="1.1" xmlns="http://www.w3.org/2000/svg" p-id="1365" xmlns:xlink="http://www.w3.org/1999/xlink" width="200" height="200"><defs><style type="text/css"></style></defs><path d="M534.219 90.125c3.937 0 5.906 3.15 5.906 9.394v384.356h383.963c6.524 0 9.787 1.969 9.787 5.906v44.438c0 3.937-3.263 5.906-9.787 5.906H540.125v384.356c0 6.244-1.969 9.394-5.906 9.394H489.78c-3.937 0-5.906-3.15-5.906-9.394V540.125H99.913c-6.525 0-9.788-1.969-9.788-5.906V489.78c0-3.937 3.263-5.906 9.787-5.906h383.963V99.519c0-6.244 1.969-9.394 5.906-9.394h44.438z" p-id="1366"></path></svg>