<?xml version="1.0" standalone="no"?><!DOCTYPE svg PUBLIC "-//W3C//DTD SVG 1.1//EN" "http://www.w3.org/Graphics/SVG/1.1/DTD/svg11.dtd"><svg t="1612244431173" class="icon" viewBox="0 0 1024 1024" version="1.1" xmlns="http://www.w3.org/2000/svg" p-id="1754" xmlns:xlink="http://www.w3.org/1999/xlink" width="48" height="48"><defs><style type="text/css"></style></defs><path d="M794.196742 1023.424349H229.931181C132.07057 1023.424349 52.374935 946.15924 52.374935 851.240843V172.420802C52.374935 77.502406 132.006608 0.237296 229.931181 0.237296H394.311422c16.438024 0 29.614028 12.920159 29.614028 28.718571A29.230261 29.230261 0 0 1 394.311422 57.610478H229.931181c-65.240407 0-118.456112 51.552714-118.456112 114.810324v678.820041c0 63.257611 53.215705 114.810324 118.456112 114.810325h564.329522c65.240407 0 118.456112-51.552714 118.456112-114.810325V403.384636h-234.161893c-38.37671 0-74.386856-14.455227-101.506398-40.871196a135.277903 135.277903 0 0 1-41.638731-98.628145L536.433172 28.636061c0-11.513013 7.099691-21.746802 18.037054-26.224085a30.317601 30.317601 0 0 1 31.980592 5.436701l376.091759 345.774158 0.319806 0.319806 0.639612 0.639612c5.116895 5.116895 8.12307 12.152625 8.12307 19.764006v476.510817C971.88091 946.15924 892.121314 1023.424349 794.196742 1023.424349zM595.277461 95.347576L594.509927 264.333023c-0.127922 21.810764 8.63476 42.406265 24.497133 57.884871s37.097486 23.985444 59.611823 23.985444h189.389065l-272.794448-250.72784z m139.883108 515.463178H288.967353a29.1663 29.1663 0 0 1-29.550067-28.718571c0-15.862374 13.303926-28.65461 29.550067-28.65461h446.193216c16.374063 0 29.550067 12.856198 29.550067 28.65461a29.1663 29.1663 0 0 1-29.550067 28.718571z m0 171.415972H288.967353a29.1663 29.1663 0 0 1-29.550067-28.782532c0-15.734451 13.303926-28.65461 29.550067-28.654611h446.193216c16.374063 0 29.550067 12.920159 29.550067 28.718572a29.1663 29.1663 0 0 1-29.550067 28.65461z" p-id="1755" fill="#ffffff"></path></svg>