<?xml version="1.0" encoding="UTF-8"?>
<svg width="139px" height="77px" viewBox="0 0 139 77" version="1.1" xmlns="http://www.w3.org/2000/svg" xmlns:xlink="http://www.w3.org/1999/xlink">
    <title>编组 6</title>
    <defs>
        <linearGradient x1="40.9304398%" y1="93.4043008%" x2="58.333554%" y2="31.360615%" id="linearGradient-1">
            <stop stop-color="#FFAA00" offset="0%"></stop>
            <stop stop-color="#FFA700" offset="41%"></stop>
            <stop stop-color="#FF9C00" offset="75%"></stop>
            <stop stop-color="#FF9500" offset="90%"></stop>
        </linearGradient>
    </defs>
    <g id="页面-1" stroke="none" stroke-width="1" fill="none" fill-rule="evenodd">
        <g id="子品牌logo" transform="translate(-193.000000, -276.000000)" fill-rule="nonzero">
            <g id="竖版anyshare" transform="translate(177.420000, 276.310000)">
                <g id="编组-6" transform="translate(15.986658, 0.000000)">
                    <path d="M31.5933417,3.47 L29.8533417,3.47 L0.0533416848,74.47 C-0.0468100308,74.7642357 -0.00445362583,75.0883122 0.167954683,75.3469247 C0.340362992,75.6055371 0.623219581,75.7692801 0.933341685,75.7900104 L17.5033417,75.7900104 C17.887337,75.7918064 18.232959,75.5574191 18.3733417,75.2 L39.7033417,23.92 C39.7852048,23.6972843 39.7852048,23.4527157 39.7033417,23.23 L39.4533417,22.54 L31.5933417,3.47 Z" id="路径" fill="url(#linearGradient-1)"></path>
                    <path d="M81.7533417,7.62 L104.393342,21.08 C104.66722,21.2470425 104.982563,21.3336754 105.303342,21.3301123 L119.303342,21.3301123 C122.993342,21.3301123 126.463342,19.6 129.163342,14.33 L137.753342,0 L84.3833417,0 C77.4233417,0.13 76.5233417,3.91 81.7533417,7.62 Z" id="路径" fill="#3E75FF"></path>
                    <path d="M96.4333417,58.04 C96.2966519,57.9607668 96.141334,57.9193487 95.9833417,57.92 L76.2733417,57.92 C74.7988183,57.9013873 73.3402456,58.2266559 72.0133417,58.87 L47.9033417,1.39 C47.6060173,0.686879414 46.9167422,0.23 46.1533417,0.23 L31.1533417,0.23 C30.5216042,0.232755475 29.9325526,0.549326629 29.5816617,1.07466033 C29.2307709,1.59999403 29.1639381,2.2653755 29.4033417,2.85 L59.0233417,74.62 C59.2374316,75.1369107 59.6695422,75.5324017 60.2033417,75.7 L60.1333417,75.81 L63.9633417,75.81 L110.263342,75.81 C115.463342,76.11 116.373342,71.1 112.903342,67.87 L96.4333417,58.04 Z" id="路径" fill="#3E75FF"></path>
                    <path d="M129.033342,44.66 L76.7533417,12.1 C74.3433417,10.5 71.6233417,8.23 71.3933417,5.87 L63.2933417,19.98 C61.4033417,23.85 61.9633417,28.53 67.4633417,31.76 L119.743342,64.31 C122.163342,65.92 124.873342,68.19 125.113342,70.55 L133.203342,56.47 C135.103342,52.56 134.593342,47.89 129.033342,44.66 Z" id="路径" fill="#3E75FF"></path>
                </g>
            </g>
        </g>
    </g>
</svg>