<?xml version="1.0" encoding="UTF-8"?>
<svg width="16px" height="16px" viewBox="0 0 16 16" version="1.1" xmlns="http://www.w3.org/2000/svg" xmlns:xlink="http://www.w3.org/1999/xlink">
    <title>认识</title>
    <g id="控件" stroke="none" stroke-width="1" fill="none" fill-rule="evenodd">
        <g id="编组-17" transform="translate(-12.000000, -55.000000)" stroke="#000000" stroke-width="0.75">
            <g id="b" transform="translate(0.000000, 43.000000)">
                <g id="认识" transform="translate(12.000000, 12.000000)">
                    <path d="M11.2977424,8.84616712 C11.9807286,8.84616712 12.5990566,9.12300197 13.0466379,9.57058336 C13.4942193,10.0181647 13.7710542,10.6364927 13.7710542,11.3194789 C13.7710542,11.9874547 13.5213245,12.5761631 13.1104284,13.018798 L13.1104284,13.018798 L13.4811049,13.3894911 L12.9429385,13.2095788 C12.4947304,13.577258 11.9234699,13.8094126 11.2977424,13.8094126 C10.6147563,13.8094126 9.99642833,13.5325777 9.54884694,13.0849963 C9.10126555,12.6374149 8.8244307,12.019087 8.8244307,11.3361008 C8.8244307,10.6458798 9.1005269,10.023598 9.54780414,9.57371061 C9.99537339,9.12352946 10.6141733,8.84616712 11.2977424,8.84616712 Z M6.39774637,8.84616712 L7.02274637,13.8875812 L2,14.5125812 L1.375,9.47116712 L6.39774637,8.84616712 Z M6.39774637,1.375 L7.02274637,6.41641411 L2,7.04141411 L1.375,2 L6.39774637,1.375 Z M13.8471771,1.375 L14.4721771,6.41641411 L9.4494307,7.04141411 L8.8244307,2 L13.8471771,1.375 Z" id="形状结合"></path>
                </g>
            </g>
        </g>
    </g>
</svg>