<?xml version="1.0" standalone="no"?><!DOCTYPE svg PUBLIC "-//W3C//DTD SVG 1.1//EN" "http://www.w3.org/Graphics/SVG/1.1/DTD/svg11.dtd"><svg t="1609835161969" class="icon" viewBox="0 0 1024 1024" version="1.1" xmlns="http://www.w3.org/2000/svg" p-id="1990" xmlns:xlink="http://www.w3.org/1999/xlink" width="48" height="48"><defs><style type="text/css"></style></defs><path d="M910.656 1003.2H167.552a32.448 32.448 0 0 1-32.64-32V51.2c0-17.6 14.72-32 32.64-32h566.72l209.024 224v728c0 17.6-13.888 32-32.64 32z" fill="#FFFFFF" p-id="1991"></path><path d="M740.8 4.8H167.552a46.912 46.912 0 0 0-47.36 46.4v920c0 25.6 21.248 46.4 47.36 46.4h743.04c26.24 0 47.36-20.8 47.36-46.4V237.568L740.864 4.864z m-8.192 32.832l183.744 196.8h-165.76a17.92 17.92 0 0 1-17.92-17.6v-179.2z m178.048 951.936H167.552a17.92 17.92 0 0 1-17.92-17.536V51.2a17.92 17.92 0 0 1 17.92-17.6h535.68v182.4c0 25.6 21.248 46.4 47.36 46.4h178.816v709.632c0 8.768-8.128 17.536-18.752 17.536z" fill="#C0C0C0" p-id="1992"></path><path d="M563.584 223.168l-495.68 50.432a32.448 32.448 0 0 0-30.208 32V768c0 16 12.288 30.4 29.44 32l495.616 47.232c19.648 2.368 35.968-12.8 35.968-32v-560a32.576 32.576 0 0 0-35.136-32z" fill="#EFB825" p-id="1993"></path><path d="M369.856 546.88l-2.432 9.152a67.84 67.84 0 0 1-21.568 37.632 61.76 61.76 0 0 1-38.016 11.008c-24.128 0-41.984-7.296-53.056-21.696-11.072-14.336-16-35.328-16-63.04 0-27.776 5.504-48 16.448-62.464 10.88-14.464 28.032-22.912 51.456-22.912 13.312-0.768 26.496 2.56 37.824 9.536a49.28 49.28 0 0 1 19.2 30.208l2.56 9.088h65.6l-2.176-14.08a107.712 107.712 0 0 0-38.592-70.208 128.256 128.256 0 0 0-83.648-26.624c-45.376 0-80.512 15.424-104.32 45.632-20.48 25.984-31.488 60.288-31.488 101.76 0 41.6 10.176 76.224 30.208 101.376 23.68 30.08 59.456 45.44 106.752 45.44 28.672 0.512 56.704-8.896 79.296-26.624a127.36 127.36 0 0 0 45.056-78.592l2.816-14.592h-65.92z" fill="#FFFFFF" p-id="1994"></path></svg>