<?xml version="1.0" standalone="no"?><!DOCTYPE svg PUBLIC "-//W3C//DTD SVG 1.1//EN" "http://www.w3.org/Graphics/SVG/1.1/DTD/svg11.dtd"><svg t="1591085527160" class="icon" viewBox="0 0 1024 1024" version="1.1" xmlns="http://www.w3.org/2000/svg" p-id="1022" width="16" height="16" xmlns:xlink="http://www.w3.org/1999/xlink"><defs><style type="text/css"></style></defs><path d="M677.4784 232.0384l-50.8928 0L422.912 232.0384l-50.8928 0L66.56 232.0384l0-50.8928 305.4592 0 0-50.8928L372.0192 79.2576 422.912 79.2576l203.6736 0 50.8928 0 0 50.8928 0 50.8928L957.44 181.0432l0 50.8928L677.4784 231.936zM626.5856 130.1504 422.912 130.1504l0 50.8928 203.6736 0L626.5856 130.1504zM448.4096 384.7168l25.4976 381.8496L422.912 766.5664l-25.4976-381.8496L448.4096 384.7168zM601.088 384.7168l50.8928 0-25.4976 381.8496-50.8928 0L601.088 384.7168zM291.5328 893.8496l464.2816 0L779.264 308.3264l50.8928 0-25.4976 636.3136-50.8928 0L295.6288 944.64 244.736 944.64l-50.8928-636.3136L244.736 308.3264 291.5328 893.8496z" p-id="1023" fill="#ffffff"></path></svg>