<?xml version="1.0" standalone="no"?><!DOCTYPE svg PUBLIC "-//W3C//DTD SVG 1.1//EN" "http://www.w3.org/Graphics/SVG/1.1/DTD/svg11.dtd"><svg t="1591085598472" class="icon" viewBox="0 0 1097 1024" version="1.1" xmlns="http://www.w3.org/2000/svg" p-id="1662" width="17.140625" height="16" xmlns:xlink="http://www.w3.org/1999/xlink"><defs><style type="text/css"></style></defs><path d="M365.714 1024a73.143 73.143 0 0 1-73.143-73.143V292.571a73.143 73.143 0 0 1 73.143-73.142H512v73.142H365.714v658.286H1024V292.571H877.714V219.43H1024a73.143 73.143 0 0 1 73.143 73.142v658.286A73.143 73.143 0 0 1 1024 1024zM219.43 804.571H73.143A73.143 73.143 0 0 1 0 731.43V73.143A73.143 73.143 0 0 1 73.143 0h658.286a73.143 73.143 0 0 1 73.142 73.143v658.286a73.143 73.143 0 0 1-73.142 73.142H585.143V731.43h146.286V73.143H73.143v658.286h146.286v73.142z" fill="#ffffff" p-id="1663"></path></svg>