<?xml version="1.0" encoding="UTF-8"?>
<svg width="323px" height="460px" viewBox="0 0 323 460" version="1.1" xmlns="http://www.w3.org/2000/svg" xmlns:xlink="http://www.w3.org/1999/xlink">
    <title>编组 4</title>
    <defs>
        <path d="M3,0 L323,0 L323,0 L323,460 L3,460 C1.34314575,460 2.02906125e-16,458.656854 0,457 L0,3 C-2.02906125e-16,1.34314575 1.34314575,3.04359188e-16 3,0 Z" id="path-1"></path>
        <filter id="filter-3">
            <feColorMatrix in="SourceGraphic" type="matrix" values="0 0 0 0 0.827451 0 0 0 0 0.862745 0 0 0 0 0.925490 0 0 0 0.800000 0"></feColorMatrix>
        </filter>
        <linearGradient x1="40.8893537%" y1="93.4279416%" x2="58.3232986%" y2="31.3722789%" id="linearGradient-4">
            <stop stop-color="#FFAA00" offset="0%"></stop>
            <stop stop-color="#FFA700" offset="41%"></stop>
            <stop stop-color="#FF9C00" offset="75%"></stop>
            <stop stop-color="#FF9500" offset="90%"></stop>
        </linearGradient>
    </defs>
    <g id="页面-1" stroke="none" stroke-width="1" fill="none" fill-rule="evenodd">
        <g id="登录-空" transform="translate(-557.000000, -310.000000)">
            <g id="编组-4" transform="translate(557.000000, 310.000000)">
                <g id="编组-3">
                    <mask id="mask-2" fill="white">
                        <use xlink:href="#path-1"></use>
                    </mask>
                    <use id="矩形" fill="#0C0E56" xlink:href="#path-1"></use>
                    <g id="编组" opacity="0.1" mask="url(#mask-2)">
                        <g transform="translate(-284.000000, -215.000000)">
                            <g filter="url(#filter-3)" fill="none" id="编组-2" stroke-width="1">
                                <g transform="translate(109.000000, 109.000000)">
                                    <path d="M253.012372,181.378969 C238.961928,191.305186 223.249517,196.309832 204.091402,169.278042 C201.934325,166.178779 199.280798,163.348842 196.136175,160.918206 C179.544608,148.096395 155.713716,151.171539 142.909078,167.785358 C130.103102,184.399176 133.17279,208.262027 149.765695,221.083837 C165.372393,233.145906 187.379403,231.133328 200.594849,217.025182 L200.594849,217.034562 C223.395374,192.759012 238.290183,199.872712 250.841913,211.666794 C250.845928,211.669474 250.849942,211.673494 250.853956,211.676174 C250.874029,211.696273 250.896777,211.716371 250.916849,211.73647 L250.918187,211.732451 C251.378506,212.166589 251.861574,212.584647 252.372743,212.978588 C260.956895,219.612591 273.283818,218.022092 279.908937,209.426428 C286.532717,200.832103 284.945686,188.485969 276.361534,181.853305 C269.360399,176.442659 259.868989,176.508316 253.012372,181.378969" id="Fill-3" fill="#D3DCEC"></path>
                                    <path d="M142.315977,76.8826872 C144.840821,96.4728545 161.866746,110.639929 181.224328,110.021871 L181.216279,110.028575 C214.569169,109.005628 220.091091,124.592494 220.638453,141.828409 C220.638453,141.832431 220.639795,141.836453 220.639795,141.840475 C220.639795,141.86997 220.642478,141.900806 220.642478,141.931642 L220.646503,141.92762 C220.665285,142.561766 220.71224,143.198594 220.795418,143.840785 C222.183948,154.614573 232.049888,162.224331 242.830783,160.836717 C253.611678,159.447761 261.225115,149.588325 259.836585,138.814537 C258.704296,130.026312 251.928002,123.346992 243.618288,121.936586 C226.631268,119.004496 211.950415,111.413508 217.505876,78.7194329 C218.171297,74.9976765 218.293381,71.1150373 217.784924,67.1667042 C215.099091,46.3404204 196.029948,31.6330473 175.188584,34.3157687 C154.348561,36.9984901 139.631486,56.0564033 142.315977,76.8826872" id="Fill-11" fill="#D3DCEC"></path>
                                    <path d="M167.937311,285.380167 C165.006538,302.368342 157.414146,317.050375 124.718461,311.493634 C120.996674,310.829561 117.114003,310.707479 113.166978,311.215931 C92.3405221,313.900392 77.6330278,332.97201 80.3157713,353.811804 C82.9985148,374.650256 102.056585,389.368511 122.883041,386.68405 C142.473369,384.157892 156.640561,367.132154 156.021157,347.776125 L156.027861,347.784174 C155.006246,314.432992 170.5919,308.91113 187.827957,308.361091 C187.83332,308.361091 187.838683,308.361091 187.844045,308.361091 C187.873541,308.359749 187.903036,308.358408 187.931191,308.357066 L187.92851,308.354383 C188.562661,308.33426 189.199494,308.288647 189.84169,308.20547 C200.615567,306.816955 208.225388,296.951123 206.836421,286.170346 C205.448795,275.38957 195.589277,267.774875 184.815401,269.163389 C176.027103,270.297008 169.34907,277.071886 167.937311,285.380167" id="Fill-21" fill="#D3DCEC"></path>
                                    <path d="M169.278042,469.908215 C166.178779,472.065293 163.348842,474.718821 160.918206,477.863445 C148.096395,494.456355 151.171539,518.287253 167.785358,531.091895 C184.399176,543.896536 208.262027,540.826848 221.083837,524.235276 C233.145906,508.627235 231.133328,486.620219 217.025182,473.404769 L217.035902,473.406107 C192.759012,450.604237 199.872712,435.710762 211.666794,423.159029 C211.669474,423.155014 211.673494,423.151 211.677513,423.146985 C211.696273,423.125575 211.716371,423.104165 211.73647,423.082755 L211.732451,423.082755 C212.166589,422.621097 212.584647,422.138029 212.978588,421.628199 C219.612591,413.044044 218.022092,400.715779 209.426428,394.090659 C200.832103,387.466876 188.487309,389.055246 181.853305,397.638062 C176.442659,404.640538 176.508316,414.130612 181.378969,420.987231 C191.305186,435.037679 196.309832,450.751432 169.278042,469.908215 Z" id="Fill-39" fill="#D3DCEC"></path>
                                    <path d="M285.380421,505.062411 C302.368553,507.994525 317.05055,515.585574 311.493822,548.282594 C310.82841,552.004381 310.706328,555.88571 311.21612,559.834075 C313.900575,580.660527 332.970803,595.368019 353.810545,592.683935 C374.650287,590.001192 389.368506,570.944466 386.684051,550.116673 C384.1579,530.526348 367.132204,516.359159 347.774882,516.978563 L347.784273,516.971859 C314.431831,517.994814 308.911325,502.409164 308.361287,485.171769 C308.361287,485.166406 308.361287,485.161043 308.359946,485.15568 C308.359946,485.127526 308.357262,485.09803 308.357262,485.068535 L308.354579,485.071216 C308.334456,484.438405 308.288843,483.800232 308.205667,483.159376 C306.817155,472.384161 296.951347,464.775682 286.169256,466.163308 C275.388506,467.550934 267.77383,477.41045 269.163683,488.185665 C270.295957,496.973961 277.07216,503.651994 285.380421,505.062411" id="Fill-57" fill="#D3DCEC"></path>
                                    <path d="M290.084488,658.235 C302.145244,642.626949 300.134001,620.621257 286.024485,607.405799 L286.035205,607.405799 C261.756922,584.603914 268.873317,569.709091 280.667425,557.157349 C280.670105,557.154673 280.672785,557.151997 280.675465,557.14932 C280.695564,557.12791 280.715663,557.105162 280.735762,557.082413 L280.731742,557.082413 C281.165881,556.620755 281.583941,556.139026 281.979221,555.627857 C288.6119,547.043696 287.021397,534.715424 278.427054,528.091637 C269.831371,521.466512 257.486549,523.054882 250.853871,531.639043 C245.441873,538.640185 245.50753,548.132941 250.380874,554.989564 C260.304432,569.038683 265.30775,584.751109 238.27858,603.907904 C235.179311,606.064983 232.349368,608.719851 229.918726,611.864477 C217.096888,628.457398 220.170698,652.286973 236.784553,665.092961 C253.399747,677.896273 277.26265,674.826583 290.084488,658.235" id="Fill-65" fill="#D3DCEC"></path>
                                    <path d="M420.987572,491.621389 C435.037991,481.695097 450.751712,476.690413 469.908455,503.722406 C472.065529,506.821692 474.719051,509.65165 477.863668,512.082305 C494.455206,524.902872 518.286054,521.829045 531.092008,505.215102 C543.896623,488.601159 540.826941,464.738129 524.234065,451.916223 C508.627395,439.854063 486.620424,441.866656 473.405002,455.974907 L473.405002,455.965528 C450.604517,480.24126 435.709735,473.127507 423.158027,461.333336 C423.154013,461.330656 423.151337,461.326636 423.145984,461.322617 C423.125912,461.303857 423.104502,461.283758 423.083092,461.263659 L423.081754,461.267679 C422.621435,460.833538 422.138369,460.415476 421.627201,460.021533 C413.043064,453.387479 400.716163,454.97799 394.091056,463.573719 C387.467287,472.168108 389.054315,484.512995 397.638452,491.147049 C404.639575,496.557735 414.130968,496.492078 420.987572,491.621389" id="Fill-75" fill="#D3DCEC"></path>
                                    <path d="M530.684023,596.117313 C528.159179,576.525805 511.133254,562.35873 491.775672,562.978129 L491.783721,562.971425 C458.430831,563.994372 452.910251,548.407506 452.361547,531.17025 C452.361547,531.167569 452.360205,531.163547 452.361547,531.159525 C452.360205,531.128689 452.357522,531.099194 452.357522,531.068358 L452.353497,531.07238 C452.334715,530.438234 452.28776,529.800065 452.204582,529.159215 C450.816052,518.385427 440.950112,510.775669 430.169217,512.163283 C419.388322,513.552239 411.774885,523.411675 413.163415,534.185463 C414.295704,542.973688 421.071998,549.651667 429.381712,551.063414 C446.368732,553.995504 461.049585,561.586492 455.494124,594.280567 C454.828703,598.002323 454.706619,601.884963 455.215076,605.833296 C457.900909,626.65958 476.970052,641.366953 497.811416,638.684231 C518.651439,636.00151 533.368514,616.943597 530.684023,596.117313" id="Fill-83" fill="#D3DCEC"></path>
                                    <path d="M505.062502,387.619833 C507.994622,370.631658 515.58569,355.949625 548.282785,361.506366 C552.003239,362.170439 555.885919,362.292521 559.832952,361.784069 C580.659452,359.099608 595.366977,340.02799 592.684228,319.188196 C590.001479,298.349744 570.943368,283.631489 550.116868,286.31595 C530.526498,288.842108 516.359276,305.866505 516.978681,325.223875 L516.971978,325.215826 C517.993594,358.567008 502.407908,364.08887 485.171814,364.638909 C485.166451,364.638909 485.161088,364.638909 485.155725,364.638909 C485.12623,364.640251 485.098075,364.641592 485.06858,364.641592 L485.071261,364.645617 C484.437108,364.66574 483.800273,364.711353 483.158076,364.79453 C472.384177,366.183045 464.77568,376.048877 466.163309,386.829654 C467.550938,397.61043 477.410477,405.225125 488.184376,403.836611 C496.972693,402.702992 503.65074,395.928114 505.062502,387.619833" id="Fill-93" fill="#D3DCEC"></path>
                                    <path d="M491.621031,253.012428 C481.694814,238.962009 476.690168,223.248288 503.721958,204.091545 C506.821221,201.934471 509.651158,199.280949 512.081794,196.136332 C524.903605,179.544794 521.828461,155.713946 505.214642,142.907992 C488.600824,130.103377 464.737973,133.173059 451.916163,149.765935 C439.854094,165.372605 441.866672,187.379576 455.974818,200.594998 L455.965438,200.594998 C480.240988,223.395483 473.127288,238.290265 461.333206,250.841973 C461.330526,250.845987 461.326506,250.850001 461.323826,250.852678 C461.303727,250.874088 461.283629,250.895498 461.26353,250.916908 L461.267549,250.918246 C460.833411,251.378565 460.415353,251.861631 460.021412,252.372799 C453.387409,260.956936 454.977908,273.283837 463.573572,279.908944 C472.167897,286.532713 484.514031,284.945685 491.146695,276.361548 C496.557341,269.360425 496.491684,259.869032 491.621031,253.012428" id="Fill-111" fill="#D3DCEC"></path>
                                    <path d="M387.619434,167.937498 C370.631151,165.005378 355.949024,157.41431 361.505801,124.717215 C362.171219,120.996761 362.293302,117.114081 361.783505,113.167048 C359.099027,92.3405484 340.028629,77.6330228 319.188702,80.315772 C298.348775,82.9985212 283.630425,102.056632 286.316246,122.883132 C288.841078,142.473502 305.866925,156.640724 325.224419,156.021319 L325.215028,156.028022 C358.567765,155.006406 364.08832,170.592092 364.638364,187.828186 C364.638364,187.833549 364.638364,187.838912 364.639705,187.844275 C364.639705,187.87377 364.642388,187.901925 364.642388,187.93142 L364.645071,187.928739 C364.665195,188.562892 364.71215,189.199727 364.793985,189.841924 C366.182509,200.615823 376.048405,208.22432 386.830592,206.836691 C397.611437,205.449062 405.226181,195.589523 403.836316,184.815624 C402.704032,176.027307 395.92911,169.34926 387.619434,167.937498" id="Fill-129" fill="#D3DCEC"></path>
                                    <path d="M382.915625,14.7649998 C370.854873,30.3730506 372.866115,52.3787429 386.974288,65.5942015 L386.963568,65.5928633 C411.241845,88.3960863 404.126792,103.290909 392.332686,115.842651 C392.330007,115.845327 392.327327,115.848003 392.324647,115.85068 C392.304548,115.87209 392.284449,115.894838 392.26301,115.916248 L392.26703,115.917587 C391.834231,116.379245 391.416171,116.860974 391.02089,117.372143 C384.388214,125.956304 385.977376,138.284576 394.573057,144.908363 C403.167398,151.533488 415.512217,149.945118 422.146233,141.360957 C427.556889,134.359815 427.491233,124.867059 422.61923,118.010436 C412.694334,103.961317 407.691018,88.248891 434.72018,69.0920962 C437.820789,66.9350165 440.649391,64.2801492 443.081373,61.135523 C455.903208,44.5426021 452.829398,20.7130267 436.214207,7.90703858 C419.600357,-4.89627329 395.73746,-1.82658292 382.915625,14.7649998" id="Fill-137" fill="#D3DCEC"></path>
                                </g>
                            </g>
                            <path d="M579.334069,190.22533 C573.935899,197.220693 575.22939,207.267324 582.224856,212.665415 C589.220322,218.064833 599.267101,216.770034 604.665271,209.77467 C610.064767,202.779307 608.76995,192.732676 601.77581,187.334585 C594.780344,181.935167 584.732239,183.229966 579.334069,190.22533" id="Fill-143" fill="#D3DCEC"></path>
                        </g>
                    </g>
                </g>
                <g id="编组-14" transform="translate(68.000000, 251.092208)" fill="#FFFFFF" fill-rule="nonzero">
                    <path d="M13.7588652,0.0472813239 C13.6879433,0.24822695 2.25768322,28.8061466 0,34.4444444 L6.87943262,34.4444444 L17.1985816,8.64066194 C17.9787234,10.5910165 20.5200946,16.9148936 22.8723404,22.8250591 C19.217629,21.6746409 15.2977375,21.6746409 11.643026,22.8250591 C14.1742894,23.3219095 16.5837176,24.3097751 18.7352246,25.7328605 C22.1402894,27.7302115 25.0624551,30.4546064 27.2931442,33.7115839 L27.5650118,34.3971631 L34.4444444,34.3971631 C32.0803783,28.4160757 21.0047281,0.780141844 20.6855792,0 L13.7588652,0.0472813239 Z" id="路径"></path>
                    <path d="M50.7328605,11.2529551 C47.6918506,11.1482869 44.8517195,12.7672988 43.392435,15.4373522 L43.321513,15.4373522 L43.321513,11.7966903 L37.3049645,11.7966903 L37.3049645,34.4444444 L43.321513,34.4444444 L43.321513,21.536643 C43.2669885,20.0816505 43.7367927,18.6554593 44.6453901,17.5177305 C45.4809118,16.4805595 46.753841,15.8943996 48.0851064,15.9338061 C50.8825848,15.9338061 52.2852639,17.8723404 52.2931442,21.749409 L52.2931442,34.4444444 L58.286052,34.4444444 L58.286052,20.5910165 C58.286052,14.3656422 55.7683215,11.2529551 50.7328605,11.2529551 Z" id="路径"></path>
                    <path d="M73.8061466,26.5602837 C73.5241336,27.4094618 73.3068066,28.2787696 73.1560284,29.1607565 L73.0732861,29.1607565 C72.8250591,27.8723404 72.6241135,26.9858156 72.4822695,26.5130024 L67.7541371,11.6666667 L61.0992908,11.6666667 L70.1891253,34.2671395 L68.8179669,37.5059102 C68.2767747,39.1750725 66.707105,40.2935222 64.9527187,40.2600473 C63.9766258,40.2663661 63.0141639,40.030827 62.1513002,39.5744681 L62.1513002,44.4680851 C63.3308852,44.825419 64.5597695,44.9929942 65.7919622,44.964539 C69.9527187,44.964539 73.104807,42.2064618 75.248227,36.6903073 L84.7990544,11.6903073 L78.8061466,11.6903073 L73.8061466,26.5602837 Z" id="路径"></path>
                    <path d="M97.4349882,2.35224586 L88.7115839,2.35224586 L88.7115839,34.3853428 L97.8368794,34.3853428 C107.293144,34.3853428 113.333333,29.0189125 113.333333,18.2387707 C113.333333,7.45862884 107.222222,2.35224586 97.4349882,2.35224586 Z M97.0449173,29.2316785 L95.0472813,29.2316785 L95.0472813,7.45862884 L97.0449173,7.45862884 C102.955083,7.45862884 106.737589,10.4018913 106.737589,18.2387707 C106.737589,26.0756501 103.014184,29.2316785 97.0449173,29.2316785 L97.0449173,29.2316785 Z" id="形状"></path>
                    <polygon id="路径" points="164.078014 2.6713948 140.141844 2.6713948 140.141844 7.87234043 148.93617 7.87234043 148.93617 33.9716312 155.189125 33.9716312 155.189125 7.87234043 164.078014 7.87234043"></polygon>
                    <path d="M130.520095,2.68321513 L124.29078,2.68321513 L114.172577,33.9716312 L120.413712,33.9716312 L123.026005,25.8865248 L132.789598,25.8865248 L135.401891,33.9716312 L141.631206,33.9716312 L131.524823,2.68321513 L130.520095,2.68321513 Z M124.609929,21.0756501 L127.943262,10.7683215 L131.264775,21.0756501 L124.609929,21.0756501 Z" id="形状"></path>
                    <path d="M183.758865,33.9716312 L190,33.9716312 L179.893617,2.68321513 L172.635934,2.68321513 L162.529551,33.9716312 L168.758865,33.9716312 L171.371158,25.8865248 L181.146572,25.8865248 L183.758865,33.9716312 Z M172.943262,21.0756501 L176.264775,10.7683215 L179.598109,21.0756501 L172.943262,21.0756501 Z" id="形状"></path>
                </g>
                <g id="编组-13" transform="translate(81.518227, 139.000000)" fill-rule="nonzero">
                    <path d="M37.4865012,3.84161638 L35.4179433,3.84161638 L0.0633333412,88.0732948 C-0.0546998849,88.4192255 -0.00605640489,88.8003029 0.195090404,89.1054911 C0.396237214,89.4106793 0.72725791,89.6056443 1.09170214,89.6335785 L20.8198345,89.6335785 C21.2713422,89.6189781 21.6750448,89.3483138 21.8600236,88.936179 L47.1673522,28.0851151 C47.2641171,27.8218579 47.2641171,27.5327696 47.1673522,27.2695123 L46.871844,26.4420891 L37.4865012,3.84161638 Z" id="路径" fill="url(#linearGradient-4)"></path>
                    <path d="M161.73,14.3498906 L145.760733,2.37589534 L145.760733,2.37589534 C145.574297,2.20264596 145.329655,2.10563297 145.075154,2.10402443 C144.669337,2.10330676 144.300154,2.33866099 144.129527,2.70686461 C144.039089,2.8427228 143.997417,3.00524407 144.011324,3.16785752 L136.103522,62.2695123 C136.110025,63.4334394 137.055416,64.3735494 138.219362,64.3735312 L160.890757,66.4893705 C162.059303,66.4893705 163.006771,65.5420771 163.006771,64.3735312 L163.006771,16.9149024 C163.014118,15.9053201 162.539961,14.952615 161.73,14.3498906 L161.73,14.3498906 Z" id="路径" fill="#3E75FF"></path>
                    <path d="M77.1200709,19.0307416 L134.507778,25.3191577 C135.676324,25.3191577 136.623617,24.3718643 136.623617,23.2033185 L139.259551,2.10402773 C139.253048,0.940100752 138.307657,-2.76523617e-15 137.143712,-2.76523617e-15 L76.0680615,-2.76523617e-15 C75.7615924,-0.000860645396 75.4686734,0.126244792 75.2599632,0.350664255 C75.0512532,0.57508372 74.9457018,0.876441148 74.9687707,1.18203748 L75.157896,16.9149024 C75.1928632,18.0107885 76.0299239,18.9134023 77.1200709,19.0307416 L77.1200709,19.0307416 Z" id="路径" fill="#3E75FF"></path>
                    <path d="M97.0609693,25.8392523 L76.9664066,23.7352333 C75.8024615,23.7352153 74.8570699,24.6753253 74.8505674,25.8392523 L74.8505674,44.4562735 L56.4935934,0.721049007 C56.3052005,0.313523017 55.9021967,0.0479068567 55.4534043,0.0354698111 L35.2760993,0.0354698111 C34.9124214,0.0609659536 34.5808565,0.252853513 34.3775642,0.555481883 C34.1742719,0.858110253 34.1220007,1.23761492 34.2359102,1.58393317 L70.29974,89.0543823 C70.4847188,89.4665172 70.8884215,89.7371815 71.3399291,89.7517818 L92.1318913,89.7517818 C93.8221986,89.7517818 93.6094326,87.8250679 93.7276359,87.5768409 C93.8458392,87.328614 99.1177069,28.0496542 99.1177069,28.0496542 C99.1432897,27.4824188 98.9398079,26.9287047 98.5530135,26.513012 C98.1662191,26.097319 97.6285755,25.8545364 97.0609693,25.8392523 Z" id="路径" fill="#3E75FF"></path>
                    <path d="M162.391939,70.7801506 C162.254261,70.6947007 162.092145,70.6572895 161.930946,70.6737676 L102.344657,65.9456352 C101.176111,65.9456352 100.228818,66.8929287 100.228818,68.0614745 L98.6448936,87.5650206 C98.6448936,88.7335664 99.5921871,89.6808598 100.760733,89.6808598 L148.219362,89.6808598 C149.214385,89.6799319 150.151156,89.2115468 150.748913,88.4160844 L162.722908,72.4586376 L162.722908,72.4586376 C162.945513,72.2138485 163.038383,71.8777568 162.973046,71.5534021 C162.907708,71.2290475 162.691957,70.955124 162.391939,70.8156116 L162.391939,70.7801506 Z" id="路径" fill="#3E75FF"></path>
                </g>
                <g id="深色竖版AD" transform="translate(118.000000, 307.000000)" fill="#FFFFFF" font-family="PingFangSC-Medium, PingFang SC" font-size="16" font-weight="400">
                    <text id="--Studio--">
                        <tspan x="0.764" y="17">-  Studio  -</tspan>
                    </text>
                </g>
            </g>
        </g>
    </g>
</svg>