<?xml version="1.0" encoding="UTF-8"?>
<svg width="16px" height="16px" viewBox="0 0 16 16" version="1.1" xmlns="http://www.w3.org/2000/svg" xmlns:xlink="http://www.w3.org/1999/xlink">
    <!-- Generator: Sketch 64 (93537) - https://sketch.com -->
    <title>编组</title>
    <desc>Created with Sketch.</desc>
    <g id="控件" stroke="none" stroke-width="1" fill="none" fill-rule="evenodd">
        <g id="画画" transform="translate(-97.000000, -15.000000)">
            <g id="关系">
                <g transform="translate(97.000000, 14.000000)">
                    <g id="编组" transform="translate(0.000000, 1.000000)">
                        <rect id="矩形" x="0" y="0" width="16" height="16"></rect>
                        <path d="M15.6139682,13.0345988 L13.2672988,11.079041 L13.2672988,11.079041 C13.0557853,10.9112152 12.7482701,10.9466308 12.5804454,11.1581441 C12.4182882,11.3625133 12.4451689,11.6581978 12.6415214,11.8299756 L13.7806339,12.7793989 L12.2758321,12.7793989 L12.2758322,12.7793989 C11.8431191,12.7794979 11.4432057,12.548794 11.2266754,12.1741538 L11.1464975,12.0353092 L7.43093762,3.34676956 L7.43093757,3.34676946 C6.99879557,2.59666216 6.1992837,2.13410207 5.33360179,2.13334582 L5.07742372,2.13334582 L5.0774238,2.1333462 C4.7773297,0.79107155 3.44592902,-0.0537848147 2.10365819,0.246309284 C0.761383536,0.546403384 -0.083472829,1.87780406 0.21662127,3.2200749 C0.516715369,4.56234955 1.84811605,5.40720591 3.19038688,5.10711182 C4.08657473,4.90675117 4.79977851,4.22945975 5.04613297,3.34481046 L5.33457775,3.34481046 L5.33457776,3.34481046 C5.74208813,3.34613821 6.12162868,3.5522581 6.34462338,3.89334443 L10.1784907,12.7823287 L10.1784907,12.7823288 C10.611305,13.5319854 11.4111759,13.9937931 12.2768005,13.9937969 L13.8412467,13.9937969 L12.6424898,14.993087 L12.6424898,14.993087 C12.4392741,15.1708691 12.4186548,15.4797287 12.5964373,15.6829463 C12.7682146,15.8792984 13.0638997,15.9061797 13.2682689,15.7440214 L15.6149383,13.7884635 L15.6149382,13.7884636 C15.8223038,13.6155382 15.850222,13.3072512 15.6772963,13.0998876 C15.6584313,13.0772656 15.6375605,13.0563946 15.6149384,13.0375297 L15.6139682,13.0345988 Z M2.64667182,3.99698068 L2.64667176,3.99698068 C1.9192749,3.99698068 1.32960356,3.40730933 1.32960356,2.67991248 C1.32960356,1.95251563 1.9192749,1.36284428 2.64667176,1.36284428 C3.37406861,1.36284428 3.96373999,1.95251563 3.96373999,2.67991248 L3.96373999,2.67989053 C3.96267512,3.40684051 3.37364468,3.99589119 2.6466928,3.99698068 L2.64667182,3.99698068 Z" id="形状" fill="#555555" fill-rule="nonzero"></path>
                    </g>
                </g>
            </g>
        </g>
    </g>
</svg>