<?xml version="1.0" encoding="UTF-8"?>
<svg width="201px" height="172px" viewBox="0 0 201 172" version="1.1" xmlns="http://www.w3.org/2000/svg" xmlns:xlink="http://www.w3.org/1999/xlink">
    <title>状态:60/异常态/通用</title>
    <defs>
        <linearGradient x1="50%" y1="100%" x2="50%" y2="0%" id="linearGradient-1">
            <stop stop-color="#B4B8BF" stop-opacity="0" offset="0%"></stop>
            <stop stop-color="#B4B8BF" offset="100%"></stop>
        </linearGradient>
        <linearGradient x1="50%" y1="100%" x2="50%" y2="0%" id="linearGradient-2">
            <stop stop-color="#B4B8BF" stop-opacity="0" offset="0%"></stop>
            <stop stop-color="#B4B8BF" offset="100%"></stop>
        </linearGradient>
        <linearGradient x1="62.6522593%" y1="52.2196338%" x2="0%" y2="36.6288896%" id="linearGradient-3">
            <stop stop-color="#B4B8BF" stop-opacity="0" offset="0%"></stop>
            <stop stop-color="#B4B8BF" offset="100%"></stop>
        </linearGradient>
        <linearGradient x1="46.3152118%" y1="50%" x2="50%" y2="45.8785039%" id="linearGradient-4">
            <stop stop-color="#B4B8BF" stop-opacity="0" offset="0%"></stop>
            <stop stop-color="#B4B8BF" offset="100%"></stop>
        </linearGradient>
        <linearGradient x1="50%" y1="100%" x2="50%" y2="0%" id="linearGradient-5">
            <stop stop-color="#B4B8BF" stop-opacity="0" offset="0%"></stop>
            <stop stop-color="#B4B8BF" offset="100%"></stop>
        </linearGradient>
        <linearGradient x1="100%" y1="49.927537%" x2="0%" y2="49.9346497%" id="linearGradient-6">
            <stop stop-color="#B4B8BF" stop-opacity="0" offset="0%"></stop>
            <stop stop-color="#B4B8BF" stop-opacity="0.911806468" offset="91.1806468%"></stop>
            <stop stop-color="#B4B8BF" offset="100%"></stop>
        </linearGradient>
        <linearGradient x1="100%" y1="49.0291146%" x2="0%" y2="49.124413%" id="linearGradient-7">
            <stop stop-color="#B4B8BF" stop-opacity="0" offset="0%"></stop>
            <stop stop-color="#B4B8BF" stop-opacity="0.911806468" offset="91.1806468%"></stop>
            <stop stop-color="#B4B8BF" offset="100%"></stop>
        </linearGradient>
    </defs>
    <g id="页面-1" stroke="none" stroke-width="1" fill="none" fill-rule="evenodd">
        <g id="本体管理_详情（失败4）" transform="translate(-998.000000, -462.000000)">
            <g id="状态:60/异常态/通用" transform="translate(998.000000, 462.000000)">
                <g id="background/default/mountain">
                    <path d="M0,80.8643481 C10.0590959,74.5027955 18.1463979,68.1039491 24.2619062,61.6678087 C33.4351687,52.0135981 41.6310668,47.5206657 54.6346667,47.5206657 C67.6382665,47.5206657 93.6071534,78.0599298 112.571429,89.8884882" id="路径-26" fill="url(#linearGradient-1)" opacity="0.16"></path>
                    <path d="M97.7142857,36.0699029 C108.09294,28.436061 115.939308,24.6191401 121.253387,24.6191401 C129.224507,24.6191401 144.03392,36.0699029 151.428571,36.0699029" id="路径-27" fill="url(#linearGradient-2)" opacity="0.16"></path>
                    <path d="M120.232615,93.3237171 C111.509525,89.8492683 102.249188,83.4390273 92.4516017,74.0929938 C82.6540158,64.7469603 73.4558628,57.130017 64.8571429,51.2421637 C95.9499089,65.2323077 117.977116,73.590416 130.938763,76.3164887 C143.900411,79.0425613 152.77127,80.7329184 157.551341,81.3875598" id="路径-28" fill="url(#linearGradient-3)" opacity="0.26"></path>
                    <path d="M102.571429,85.0609909 C102.571429,85.0609909 129.682097,75.8613037 142.072199,75.8613037 C154.462301,75.8613037 181.592234,98.2186962 200.285714,103.915673" id="路径-29" fill="url(#linearGradient-4)" opacity="0.16"></path>
                    <path d="M0.285714286,132.256311 C25.0688864,122.14147 58.4022197,117.08405 100.285714,117.08405 C142.169209,117.08405 175.502542,122.14147 200.285714,132.256311" id="路径-19" fill="url(#linearGradient-5)" opacity="0.16"></path>
                </g>
                <ellipse id="椭圆形备份-8" fill="url(#linearGradient-6)" opacity="0.16" cx="107.142857" cy="133.401387" rx="55.4285714" ry="2.0038835"></ellipse>
                <g id="objects/element/paper" transform="translate(42.857143, 28.626907)">
                    <path d="M66.1714286,17.1761442 C71.2840074,17.1761442 75.4285714,21.3207083 75.4285714,26.4332871 L75.428,87.8841442 L82.5714286,87.8846047 L82.5714286,104.488211 L68.2857143,104.488211 L68.2852518,104.245772 C67.6063258,104.40435 66.8986705,104.488211 66.1714286,104.488211 L19.2571429,104.488211 C14.144564,104.488211 10,100.343647 10,95.231068 L10,26.4332871 C10,21.3207083 14.144564,17.1761442 19.2571429,17.1761442 L66.1714286,17.1761442 Z" id="形状结合" fill="#E6E8ED"></path>
                    <path d="M62.70957,61.5478502 C64.0534374,61.5478502 65.1428571,62.63727 65.1428571,63.9811373 C65.1428571,65.3250047 64.0534374,66.4144244 62.70957,66.4144244 L19.0047157,66.4144244 C17.6608483,66.4144244 16.5714286,65.3250047 16.5714286,63.9811373 C16.5714286,62.63727 17.6608483,61.5478502 19.0047157,61.5478502 L62.70957,61.5478502 Z M62.70957,48.0932039 C64.0534374,48.0932039 65.1428571,49.1826236 65.1428571,50.526491 C65.1428571,51.8703583 64.0534374,52.9597781 62.70957,52.9597781 L19.0047157,52.9597781 C17.6608483,52.9597781 16.5714286,51.8703583 16.5714286,50.526491 C16.5714286,49.1826236 17.6608483,48.0932039 19.0047157,48.0932039 L62.70957,48.0932039 Z M35.8524272,34.6385576 C37.1962945,34.6385576 38.2857143,35.7279773 38.2857143,37.0718447 C38.2857143,38.415712 37.1962945,39.5051318 35.8524272,39.5051318 L19.0047157,39.5051318 C17.6608483,39.5051318 16.5714286,38.415712 16.5714286,37.0718447 C16.5714286,35.7279773 17.6608483,34.6385576 19.0047157,34.6385576 L35.8524272,34.6385576 Z" id="形状结合" fill="#F0F2F5"></path>
                    <path d="M90,97.2024965 C90,101.226285 86.7380746,104.488211 82.7142857,104.488211 C78.6904968,104.488211 75.4285714,101.226285 75.4285714,97.2024965 L75.4285714,97.2024965 L75.4285714,60.689043 L97.1428571,60.689043 L97.1428571,71.8535368 L90,71.8535368 Z" id="形状结合" fill="#DFE2E8"></path>
                    <path d="M97.1428571,60.689043 C101.087748,60.689043 104.285714,63.8870091 104.285714,67.8319001 L104.285714,77.00638 L104.285714,77.00638 L90,77.00638 L90,67.8319001 C90,63.8870091 93.1979661,60.689043 97.1428571,60.689043 Z" id="矩形" fill="#D7DAE0" transform="translate(97.142857, 68.847712) scale(-1, 1) translate(-97.142857, -68.847712) "></path>
                </g>
                <ellipse id="椭圆形备份-8" fill="url(#linearGradient-7)" opacity="0.16" cx="124.571429" cy="148.00111" rx="15.1428571" ry="2.0038835"></ellipse>
                <g id="objects/-element/warrant" transform="translate(107.428571, 116.225243)">
                    <path d="M17.1428571,2.14701803 C8.87142857,2.14701803 2.14285714,8.88865465 2.14285714,17.1761442 C2.14285714,25.4636338 8.87142857,32.2052705 17.1428571,32.2052705 C25.4142857,32.2052705 32.1428571,25.4636338 32.1428571,17.1761442 C32.1428571,8.88865465 25.4142857,2.14701803 17.1428571,2.14701803 Z" id="形状" fill="#C9CDD4"></path>
                    <path d="M17.1428571,27.923401 C16.5684251,27.9231452 16.0377641,27.615858 15.7507691,27.1172915 C15.4637741,26.6187249 15.4640464,26.0046231 15.7514834,25.5063122 C16.0389204,25.0080014 16.5698537,24.7011867 17.1442857,24.7014423 C18.0322807,24.7018377 18.751823,25.4234181 18.7514287,26.3131373 C18.751034,27.2028565 18.0308521,27.9237961 17.1428571,27.923401 Z" id="路径" fill="#FFFFFF"></path>
                    <path d="M20.1085714,16.947129 C19.1764286,17.8803662 18.2142857,18.8443773 18.2142857,19.7103412 L18.2142857,21.5260028 C18.2142857,22.1188854 17.7345908,22.5995118 17.1428571,22.5995118 C16.5511235,22.5995118 16.0714286,22.1188854 16.0714286,21.5260028 L16.0714286,19.7103412 C16.0714286,17.9540804 17.4107143,16.6121942 18.5935714,15.4284716 C19.46,14.5603606 20.3571429,13.6621914 20.3571429,12.9465187 C20.3571429,11.157337 18.915,9.70165882 17.1428571,9.70165882 C15.3407143,9.70165882 13.9285714,11.0950735 13.9285714,12.8735201 C13.9285714,13.4664028 13.4488765,13.9470291 12.8571429,13.9470291 C12.2654092,13.9470291 11.7857143,13.4664028 11.7857143,12.8735201 C11.7857143,9.94069348 14.1885714,7.55464079 17.1428571,7.55464079 C20.0971429,7.55464079 22.5,9.97289875 22.5,12.9465187 C22.5,14.5524882 21.2835714,15.7698474 20.1085714,16.947129 Z" id="路径" fill="#FFFFFF"></path>
                </g>
            </g>
        </g>
    </g>
</svg>