<?xml version="1.0" encoding="UTF-8"?>
<svg width="15px" height="16px" viewBox="0 0 15 16" version="1.1" xmlns="http://www.w3.org/2000/svg" xmlns:xlink="http://www.w3.org/1999/xlink">
    <!-- Generator: Sketch 64 (93537) - https://sketch.com -->
    <title>编组 3</title>
    <desc>Created with Sketch.</desc>
    <g id="页面-1" stroke="none" stroke-width="1" fill="none" fill-rule="evenodd">
        <g id="本体管理_配置-2" transform="translate(-1481.000000, -833.000000)">
            <g id="文件" transform="translate(1464.000000, 592.000000)">
                <g id="类别标题" transform="translate(0.000000, 225.000000)">
                    <g id="编组-2" transform="translate(16.012706, 16.000000)">
                        <g id="编组-3">
                            <rect id="矩形" x="0" y="0" width="16" height="16"></rect>
                            <path d="M11.4990284,0 L1.87566146,0 L1.87566145,0 C1.38945063,0.00384278134 0.997942254,0.3943375 1.00000986,0.873375 L1.00000986,15.12625 L1.00000986,15.1262564 C0.997735766,15.6054408 1.38930786,15.9961611 1.87566776,16 L14.1243419,16 L14.124342,16 C14.6105528,15.9961573 15.0020612,15.6056626 14.9999918,15.1266251 L14.9999918,3.49167202 L11.4990284,0 Z M4.93679915,5.08984375 L7.56226496,5.08984375 L7.56226497,5.08984375 C7.8070586,5.09484147 8.00138942,5.29440469 7.9963176,5.53557969 C7.99139293,5.76971875 7.79991556,5.95836563 7.56226497,5.96321875 L4.93678329,5.96321875 L4.9367833,5.96321875 C4.69198967,5.95822103 4.49765885,5.75865781 4.50273067,5.51748281 C4.50765533,5.28334375 4.69913271,5.09469688 4.9367833,5.08984375 L4.93679915,5.08984375 Z M11.0613107,11.2 L4.93678329,11.2 L4.9367833,11.2 C4.69198967,11.1950023 4.49765885,10.9954391 4.50273067,10.7542641 C4.50765533,10.520125 4.69913271,10.3314781 4.9367833,10.326625 L11.0613107,10.326625 L11.0613107,10.326625 C11.3061043,10.3316227 11.5004352,10.5311859 11.4953633,10.7723609 C11.4904387,11.0065 11.2989613,11.1951469 11.0613107,11.2 L11.0613107,11.2 Z M11.0613107,8.58170313 L4.93678329,8.58170313 L4.9367833,8.58170313 C4.69198967,8.57670541 4.49765885,8.37714219 4.50273067,8.13596719 C4.50765533,7.90182813 4.69913271,7.71318125 4.9367833,7.70832813 L11.0613107,7.70832813 L11.0613107,7.70832813 C11.3061043,7.71332584 11.5004352,7.91288906 11.4953633,8.15406406 C11.4904387,8.38820313 11.2989613,8.57685 11.0613107,8.58170313 L11.0613107,8.58170313 Z" id="形状" fill="#C2C2C2" fill-rule="nonzero"></path>
                            <path d="M14.9746179,3.62128382 L12.2914877,3.62128382 L12.2914877,3.62128382 C11.7950778,3.61637049 11.395654,3.21179342 11.3971018,2.7153613 L11.3971018,4.54747351e-11 L14.9746179,3.62128382 Z" id="路径" fill="#D2D2D2" fill-rule="nonzero"></path>
                        </g>
                    </g>
                </g>
            </g>
        </g>
    </g>
</svg>