<?xml version="1.0" encoding="UTF-8"?>
<svg width="144px" height="144px" viewBox="0 0 144 144" version="1.1" xmlns="http://www.w3.org/2000/svg" xmlns:xlink="http://www.w3.org/1999/xlink">
    <title>点击文件（流程4）</title>
    <defs>
        <linearGradient x1="50%" y1="3.85205925%" x2="50%" y2="121.56033%" id="linearGradient-1">
            <stop stop-color="#779EEA" stop-opacity="0.4" offset="0%"></stop>
            <stop stop-color="#FFFFFF" stop-opacity="0" offset="100%"></stop>
        </linearGradient>
    </defs>
    <g id="保留线条" stroke="none" stroke-width="1" fill="none" fill-rule="evenodd">
        <g id="点击文件（流程4）">
            <g id="Group-3">
                <rect id="Rectangle-3" x="0" y="0" width="144" height="144"></rect>
            </g>
            <rect id="Rectangle-25" x="0" y="0" width="144" height="144"></rect>
            <path d="M72,100 C106.372614,100 135.319819,115.997855 143.9999,135.999771 L9.95177594e-05,135.999771 C8.68018075,115.997855 37.6273857,100 72,100 Z" id="Combined-Shape" fill="url(#linearGradient-1)" fill-rule="nonzero"></path>
            <g id="编组" transform="translate(41.000000, 26.000000)">
                <g id="Group-2" transform="translate(0.000000, 6.822146)">
                    <path d="M4.17241379,0.27586207 L46.2931817,0.27586207 L46.2931817,0.27586207 L60.9137931,11.7578139 L60.9137931,67.4482759 C60.9137931,69.1051301 59.5706474,70.4482759 57.9137931,70.4482759 L4.17241379,70.4482759 C2.51555954,70.4482759 1.17241379,69.1051301 1.17241379,67.4482759 L1.17241379,3.27586207 C1.17241379,1.61900782 2.51555954,0.27586207 4.17241379,0.27586207 Z" id="Rectangle" fill="#FFFFFF" fill-rule="nonzero"></path>
                    <path d="M45.7823789,0 L61,11.7295866 L61,67 C61,68.3807119 60.4403559,69.6307119 59.5355339,70.5355339 C58.6307119,71.4403559 57.3807119,72 56,72 L56,72 L5,72 C3.61928813,72 2.36928813,71.4403559 1.46446609,70.5355339 C0.55964406,69.6307119 0,68.3807119 0,67 L0,67 L0,5 C0,3.61928813 0.55964406,2.36928813 1.46446609,1.46446609 C2.36928813,0.55964406 3.61928813,0 5,0 L5,0 L45.7823789,0 Z" id="Rectangle-4" stroke="#779EEA" stroke-width="2" fill="#FFFFFF" fill-rule="nonzero"></path>
                    <polyline id="Path-4" stroke="#779EEA" stroke-width="2" points="45 0 45 12 60.2026367 12"></polyline>
                </g>
                <path d="M68.274049,1.54473307 C68.5909173,1.54473307 68.8477899,1.80160559 68.8477899,2.11847391 L68.8477335,4.69973307 L71.4296236,4.7003077 C71.746492,4.7003077 72.0033645,4.95718022 72.0033645,5.27404854 C72.0033645,5.59091686 71.746492,5.84778938 71.4296236,5.84778938 L68.8477335,5.84773307 L68.8477899,8.42962317 C68.8477899,8.74649149 68.5909173,9.00336401 68.274049,9.00336401 C67.9571807,9.00336401 67.7003082,8.74649149 67.7003082,8.42962317 L67.6997335,5.84773307 L65.1184744,5.84778938 C64.8016061,5.84778938 64.5447335,5.59091686 64.5447335,5.27404854 C64.5447335,4.95718022 64.8016061,4.7003077 65.1184744,4.7003077 L67.6997335,4.69973307 L67.7003082,2.11847391 C67.7003082,1.80160559 67.9571807,1.54473307 68.274049,1.54473307 Z" id="Combined-Shape" fill="#779EEA" fill-rule="nonzero" transform="translate(68.274049, 5.274049) rotate(45.000000) translate(-68.274049, -5.274049) "></path>
                <path d="M76.4519034,22.126078 C76.7193766,22.126078 76.9362066,22.342908 76.9362066,22.6103812 L76.9359326,24.789078 L79.1155709,24.7897456 C79.3830442,24.7897456 79.5998741,25.0065756 79.5998741,25.2740488 C79.5998741,25.5415221 79.3830442,25.758352 79.1155709,25.758352 L76.9359326,25.758078 L76.9362066,27.9377164 C76.9362066,28.2051897 76.7193766,28.4220196 76.4519034,28.4220196 C76.1844301,28.4220196 75.9676002,28.2051897 75.9676002,27.9377164 L75.9669326,25.758078 L73.7882358,25.758352 C73.5207625,25.758352 73.3039326,25.5415221 73.3039326,25.2740488 C73.3039326,25.0065756 73.5207625,24.7897456 73.7882358,24.7897456 L75.9669326,24.789078 L75.9676002,22.6103812 C75.9676002,22.342908 76.1844301,22.126078 76.4519034,22.126078 Z" id="Combined-Shape-Copy-10" fill="#779EEA" fill-rule="nonzero" opacity="0.3" transform="translate(76.451903, 25.274049) rotate(45.000000) translate(-76.451903, -25.274049) "></path>
                <circle id="Oval-7-Copy-3" stroke="#779EEA" cx="80.5" cy="11.3221458" r="1.5"></circle>
            </g>
            <rect id="Rectangle-23" fill="#779EEA" fill-rule="nonzero" x="54.3046332" y="53" width="20" height="2"></rect>
            <rect id="Rectangle-23-Copy" fill="#779EEA" fill-rule="nonzero" x="54.3046332" y="61.5" width="32" height="2"></rect>
            <rect id="Rectangle-23-Copy-2" fill="#779EEA" fill-rule="nonzero" x="54.3046332" y="70" width="32" height="2"></rect>
            <path d="M99,87 C99,82.581722 95.6421356,79 91.5,79 C87.3578644,79 84,82.581722 84,87" id="Oval-15" stroke="#779EEA" stroke-width="2"></path>
            <g id="Group" transform="translate(80.961397, 85.000000)" fill="#F8FAFE" fill-rule="nonzero" stroke="#779EEA">
                <path d="M10.7430059,0 C11.6304129,0 12.4338091,0.35969274 13.0153536,0.94123722 C13.596898,1.52278169 13.9565908,2.32617791 13.9565908,3.21354795 L13.9565908,3.21354795 L13.9563154,10.672037 C14.3278292,10.5871041 14.6992519,10.5240238 15.0692401,10.4819905 C15.444176,10.4393951 15.8253958,10.4175322 16.2117253,10.4175322 L16.2117253,10.4175322 L20.9876849,10.4175322 C23.4869368,10.4175322 25.7495848,11.4305542 27.3874198,13.0683891 C29.0252548,14.7062241 30.0382768,16.9688721 30.0382768,19.468124 C30.0382768,19.8415962 30.0151598,20.2147104 29.9690585,20.5853264 L29.9690585,20.5853264 L29.7639289,22.234397 C29.4525203,24.737862 28.2330195,26.9292627 26.4606812,28.4947972 C24.6883428,30.0603317 22.3631669,31 19.8404082,31 L19.8404082,31 L16.2117253,31 C14.1038275,31 12.1481309,30.3480514 10.5357181,29.2342659 C8.80717336,28.0402616 7.47256349,26.3163117 6.76763137,24.2968272 L6.76763137,24.2968272 L1.14800715,19.5812975 C0.468213981,19.0108833 0.0839828108,18.2189295 0.0123034808,17.399631 C-0.0593758492,16.5803325 0.181496661,15.7336893 0.751910861,15.0538961 C1.32232506,14.3741029 2.11427881,13.9898718 2.93357731,13.9181924 C3.75287581,13.8465131 4.59951906,14.0873856 5.28004311,14.6584125 L5.28004311,14.6584125 L7.52889165,16.5417685 L7.52942101,3.21358487 C7.52942101,2.32617791 7.88911375,1.52278169 8.47065826,0.94123722 C9.05220266,0.35969274 9.85559896,0 10.7430059,0 Z" id="Combined-Shape" stroke-width="2"></path>
                <path d="M9.03860346,29 L28.0386035,29 C29.6954577,29 31.0386035,30.3431458 31.0386035,32 C31.0386035,33.6568542 29.6954577,35 28.0386035,35 L9.03860346,35 C7.38174921,35 6.03860346,33.6568542 6.03860346,32 C6.03860346,30.3431458 7.38174921,29 9.03860346,29 Z" id="Rectangle-19" stroke-width="2.21"></path>
            </g>
        </g>
    </g>
</svg>