<?xml version="1.0" encoding="UTF-8"?>
<svg width="253px" height="240px" viewBox="0 0 253 240" version="1.1" xmlns="http://www.w3.org/2000/svg" xmlns:xlink="http://www.w3.org/1999/xlink">
    <title>编组 3</title>
    <defs>
        <linearGradient x1="-0.00011731007%" y1="49.9999645%" x2="100%" y2="49.9999645%" id="linearGradient-1">
            <stop stop-color="#607FEE" offset="0%"></stop>
            <stop stop-color="#232349" offset="100%"></stop>
        </linearGradient>
        <linearGradient x1="65.7212337%" y1="11.6952801%" x2="43.1902158%" y2="77.6686005%" id="linearGradient-2">
            <stop stop-color="#5573E1" offset="0%"></stop>
            <stop stop-color="#5573E1" offset="100%"></stop>
        </linearGradient>
        <linearGradient x1="3.9126335e-05%" y1="49.9999107%" x2="100.000013%" y2="49.9999107%" id="linearGradient-3">
            <stop stop-color="#EBEFF2" offset="49.4%"></stop>
            <stop stop-color="#FFFFFF" offset="100%"></stop>
        </linearGradient>
        <linearGradient x1="34.490782%" y1="27.3636674%" x2="78.5053079%" y2="86.960609%" id="linearGradient-4">
            <stop stop-color="#444B8C" offset="0%"></stop>
            <stop stop-color="#26264F" offset="99.64%"></stop>
        </linearGradient>
        <linearGradient x1="8.88539108%" y1="78.1546249%" x2="65.8705575%" y2="43.1320067%" id="linearGradient-5">
            <stop stop-color="#444B8C" offset="0%"></stop>
            <stop stop-color="#26264F" offset="99.64%"></stop>
        </linearGradient>
        <linearGradient x1="41.7107573%" y1="22.6613696%" x2="66.513561%" y2="98.9683068%" id="linearGradient-6">
            <stop stop-color="#444B8C" offset="0%"></stop>
            <stop stop-color="#26264F" offset="100%"></stop>
        </linearGradient>
        <linearGradient x1="42.0482804%" y1="21.4383198%" x2="60.6301636%" y2="97.3038648%" id="linearGradient-7">
            <stop stop-color="#444B8C" offset="0%"></stop>
            <stop stop-color="#26264F" offset="99.64%"></stop>
        </linearGradient>
        <linearGradient x1="50.4924935%" y1="80.3560784%" x2="48.3369055%" y2="-29.4609055%" id="linearGradient-8">
            <stop stop-color="#444B8C" offset="0%"></stop>
            <stop stop-color="#26264F" offset="99.64%"></stop>
        </linearGradient>
    </defs>
    <g id="页面-1" stroke="none" stroke-width="1" fill="none" fill-rule="evenodd">
        <g id="配置设置（默认）" transform="translate(-1039.000000, -323.000000)" fill-rule="nonzero">
            <g id="全量更新" transform="translate(965.000000, 283.000000)">
                <g id="编组-4" transform="translate(60.000000, 40.000000)">
                    <g id="编组-3" transform="translate(14.000000, 0.000000)">
                        <path d="M206.719831,63.5086772 C158.953649,5.17688576 45.8681975,1.91667244 12.6167586,48.1825781 C-5.70448986,73.6748408 1.95146045,111.781426 5.72896846,130.583375 C12.6806093,165.183703 29.822432,187.458713 33.5656446,192.183469 C42.6480587,203.648474 64.7091739,231.496838 97.9020598,237.862442 C154.617099,248.739397 225.384869,193.359847 229.305414,130.879352 C231.56584,94.8577191 210.849772,68.5517281 206.719831,63.5086772 Z" id="路径" fill-opacity="0.1" fill="#B4B8BF"></path>
                        <g id="编组-6" transform="translate(9.000000, 0.000000)">
                            <g id="编组-2" transform="translate(0.865402, 0.682527)">
                                <g id="编组" transform="translate(0.407849, 0.128961)">
                                    <g transform="translate(4.839830, 0.000000)">
                                        <g id="SVGID_85_-link" transform="translate(35.391260, 8.495151)" fill="url(#linearGradient-1)">
                                            <path d="M101.402918,162.294999 C93.5878019,154.939108 83.2756356,142.992499 78.609434,126.100803 C72.4897709,103.94727 81.4576743,92.7524819 80.4464522,55.2460884 C79.8069896,31.5309652 79.1224561,14.9872661 67.2025586,6.13865653 C57.8613833,-0.795813576 42.738728,-2.17445517 33.560897,4.25303649 C25.9296943,9.59739644 21.5148614,20.963908 20.1678761,29.077687 C19.0698395,35.6902516 19.9518986,40.4915287 16.1514218,43.9748439 C12.2674578,47.5346154 8.07495466,45.5194443 4.44326686,48.155975 C-2.92144267,53.5030655 1.34275047,71.2151512 2.03212382,74.0777136 C9.69902027,105.920876 38.9515606,127.39692 51.8242997,136.610517 C62.4676919,144.228544 78.9327952,154.380249 101.402918,162.294999 Z" id="SVGID_85_"></path>
                                        </g>
                                        <g opacity="0.5" fill="#FFFFFF" id="路径">
                                            <g transform="translate(80.462182, 0.000000)">
                                                <path d="M65.2708612,176.65241 C51.6461335,171.459749 39.9192242,165.264964 30.4162171,158.240688 C16.3498548,147.843534 7.58855169,135.898745 4.37611422,122.73915 C1.86393971,112.448185 2.79560708,101.294963 3.97561824,87.1742019 C4.95386898,75.4651537 6.69832538,67.2642994 8.23739147,60.0285548 C10.2320066,50.6508187 11.8076739,43.2436541 10.7141747,32.533393 C9.60313113,21.6520152 6.02437898,10.8316205 0.0771347982,0.372269637 L0.602558894,0.071601984 C6.59215159,10.6046786 10.1966153,21.5054738 11.3161286,32.4714997 C12.419005,43.2770279 10.834868,50.7251513 8.82906074,60.1553753 C7.29362452,67.3732193 5.55370547,75.5543528 4.57847963,87.2218354 C3.3573299,101.840169 2.4752708,112.399945 4.96385113,122.594732 C11.7317491,150.319567 41.61135,166.985839 65.4856287,176.085359 L65.2708612,176.65241 Z"></path>
                                            </g>
                                            <g transform="translate(42.348517, 25.182054)">
                                                <path d="M43.1265194,53.7776409 L43.0291178,53.449364 C36.7382457,32.2691331 25.4417788,19.0176083 17.073107,11.630468 C8.01324682,3.63380069 0.356937497,0.607099873 0.280710167,0.577366845 L0.499410007,0.011529133 C0.576544805,0.0415655585 8.33297812,3.10770814 17.472393,11.1750673 C25.8567943,18.5755571 37.1571935,31.8167663 43.5079585,52.9399584 C45.0185906,52.216657 51.7928408,48.7485118 58.5710234,41.7454736 C65.6247738,34.4581514 74.128356,21.7381803 74.5814851,2.52366654 L75.1864639,2.53792625 C74.7281925,21.9608746 66.1244863,34.8194987 58.9872488,42.1866147 C51.2544097,50.1690223 43.5167307,53.6071311 43.4395959,53.6408083 L43.1265194,53.7776409 Z"></path>
                                            </g>
                                            <g transform="translate(32.668856, 45.206337)">
                                                <path d="M51.0348024,65.3528905 L50.8239673,65.2906938 C40.5547545,62.2676338 28.8986278,50.4114375 16.1786458,30.051292 C6.72282702,14.9159675 0.189055878,0.477852223 0.124323145,0.333738061 L0.67545884,0.0840413117 C0.740191573,0.227852076 7.2600482,14.6338072 16.6949952,29.7348476 C29.0677193,49.5382574 40.8496816,61.6022815 50.7852486,64.6456692 C51.8227873,63.1508261 59.1148994,52.8028224 68.3266092,43.7375865 C78.280628,33.9411608 101.451619,30.5582704 101.684536,30.5252 L101.76893,31.1259285 C101.538131,31.1586956 78.5619432,34.5145835 68.7500944,44.1708392 C58.8886373,53.8756386 51.2347479,65.0588976 51.158823,65.1708515 L51.0348024,65.3528905 Z"></path>
                                            </g>
                                            <g transform="translate(0.000000, 85.861701)">
                                                <path d="M107.057353,69.5027716 L106.458726,69.431473 C106.34378,69.4178201 94.7959446,67.9991299 79.7126129,62.7242481 C65.7884206,57.8547064 45.9100269,48.607735 30.2837267,32.2090603 L0.113736016,0.547937216 L0.550833206,0.128640853 L30.7208239,31.7897639 C46.2600071,48.0968123 66.0400918,57.2982741 79.8965264,62.1459711 C92.9785882,66.7224301 103.384829,68.3856593 105.932092,68.7482201 C102.698178,62.8786779 101.529056,56.752764 102.457699,50.5294594 C103.221787,45.4090074 105.400013,40.2175601 108.931577,35.0989285 C114.930547,26.4041418 122.880573,20.8492235 122.960128,20.7943084 L123.304058,21.2940053 C123.225109,21.348617 115.354939,26.8498338 109.420097,35.4578486 C101.488825,46.9605859 100.592852,58.2388086 106.756376,68.9791062 L107.057353,69.5027716 Z"></path>
                                            </g>
                                        </g>
                                    </g>
                                    <g transform="translate(0.000000, 27.002443)">
                                        <g id="SVGID_88_-link" transform="translate(0.907468, 17.597098)" fill="url(#linearGradient-2)">
                                            <path d="M105.123538,113.253404 C88.3048244,115.119303 66.6139142,115.089267 45.0990528,107.904797 C39.6082651,106.071361 5.6898257,94.7452015 7.9851153,79.5467702 C8.79366948,74.1930049 13.4126827,72.8802007 14.6184055,65.7415436 C16.0470629,57.2824974 10.4761155,53.7111967 5.84893513,43.8358875 C3.08811433,37.9432869 -4.99228513,20.6981311 4.6707389,9.67870716 C10.4449591,3.09375182 22.2940741,-0.970267562 31.7574551,0.231796253 C45.6380889,1.99484341 51.6664003,14.7412101 61.494281,36.485155 C70.2062784,55.7606518 69.0056979,60.8395383 75.5204122,74.6098741 C80.3557054,84.8295403 88.9046609,98.7033349 105.123538,113.253404 Z" id="SVGID_88_"></path>
                                        </g>
                                        <g opacity="0.5" fill="#FFFFFF" id="路径">
                                            <g transform="translate(21.779237, 0.000000)">
                                                <path d="M116.764238,136.129328 C112.27832,136.129328 107.819626,135.832301 103.392693,135.23673 C80.1137138,132.10475 59.010843,120.517972 40.6703054,100.798603 C21.6040958,80.2991978 10.2970418,56.1392928 4.16860648,39.481516 C-0.100426482,27.8765334 -0.882361593,14.6277392 1.84518537,0.102852002 L2.43957705,0.21510935 C-0.267400634,14.6304698 0.505157306,27.7706474 4.7363791,39.271261 C12.1888106,59.5288579 41.3336647,126.274346 103.472853,134.634788 C120.839677,136.972168 138.734346,134.687579 156.65896,127.846253 L156.87403,128.413304 C143.421116,133.548319 129.980605,136.129328 116.764238,136.129328 Z"></path>
                                            </g>
                                            <g transform="translate(0.000000, 16.686903)">
                                                <path d="M41.4743223,55.3058579 L41.2320283,55.1820714 C2.52064421,35.4250816 0.0895368638,8.32251704 0.266493165,0.486650772 C0.270123038,0.331007477 0.273450422,0.230279262 0.270425528,0.187803509 L0.871471975,0.121966091 C0.878126742,0.180825349 0.876916784,0.265170059 0.871471975,0.500607091 C0.696935588,8.23058738 3.09900395,34.9305424 41.2601598,54.5158088 C42.0121484,53.2964513 45.5313102,47.3559138 48.0819008,39.0261152 C50.7126512,30.4341806 52.8219098,17.4663331 47.9309586,4.48179876 L48.4969163,4.26729621 C53.4507853,17.419003 51.317025,30.5349088 48.6548158,39.2218071 C45.7733017,48.6253321 41.6639831,55.0145955 41.6225421,55.0780058 L41.4743223,55.3058579 Z"></path>
                                            </g>
                                            <g transform="translate(3.024894, 22.148071)">
                                                <path d="M37.7927237,81.2882761 C27.3347575,81.2882761 19.4376667,79.0276558 13.9765229,76.6028971 C4.48773281,72.3902126 0.080764671,66.7697602 0.0375086862,66.7133282 L0.516046924,66.3419687 C0.55869793,66.3971872 4.89427857,71.9160011 14.2575356,76.0640618 C22.8821135,79.8844524 37.6532761,83.2885807 59.09554,77.8474367 C59.7516396,75.865336 66.3144497,54.9988188 61.5444943,28.4648226 L56.4799142,0.292475901 L57.0755158,0.184769526 L62.1400959,28.3571162 C67.160815,56.2855308 59.6908392,77.9857863 59.6149143,78.2018058 L59.5607687,78.3547185 L59.4040792,78.3947671 C51.2616694,80.474562 44.0660515,81.2882761 37.7927237,81.2882761 Z"></path>
                                            </g>
                                        </g>
                                    </g>
                                </g>
                                <g id="编组" transform="translate(4.037722, 83.260078)">
                                    <path d="M237.654431,118.527072 L5.72158709,116.516149 L5.72158709,122.465788 C5.72158709,124.080777 6.73311166,125.453654 8.10338866,125.698496 L73.6870239,137.414523 C74.4653292,137.553479 75.254524,137.590494 76.040089,137.524353 L235.134089,124.166335 C236.554579,124.0471 237.654431,122.669672 237.654431,121.01069 L237.654431,118.527072 Z" id="路径" fill="#BFC8D6"></path>
                                    <g id="路径">
                                        <path d="M152.30281,108.992479 L4.89095118,119.876588 C2.25324357,120.071369 0.108291207,118.00189 0.108291207,115.253709 L0.108291207,5.15048847 C0.108291207,2.40230724 2.25294109,0.174453986 4.89095118,0.174453986 L152.30281,0.174453986 C154.476197,0.174453986 156.233055,2.18841148 156.233055,4.67263625 L156.233055,104.203945 C156.233055,106.68817 154.476197,108.831982 152.30281,108.992479 Z" fill="#BFC8D6"></path>
                                        <path d="M154.653455,108.992479 L7.24159635,119.876588 C4.60358625,120.071369 2.45893637,118.00189 2.45893637,115.253709 L2.45893637,5.15048847 C2.45893637,2.40230724 4.60358625,0.174453986 7.24159635,0.174453986 L154.653455,0.174453986 C156.826842,0.174453986 158.5837,2.18841148 158.5837,4.67263625 L158.5837,104.203945 C158.5837,106.68817 156.826539,108.831982 154.653455,108.992479 Z" fill="#FFFFFF"></path>
                                        <path d="M150.061061,101.975181 L12.7623305,111.429677 C10.6158657,111.577432 8.87140926,109.878706 8.87140926,107.635379 L8.87140926,11.2396911 C8.87140926,8.99606113 10.6158657,7.16990714 12.7623305,7.16050179 L150.061061,6.56672329 C151.853916,6.55886309 153.303748,8.2093495 153.303748,10.2527366 L153.303748,98.0522423 C153.303748,100.095326 151.853613,101.852002 150.061061,101.975181 Z" fill="#D8DEE8"></path>
                                        <path d="M86.1535198,3.18598489 C86.1535198,4.20904374 85.3948763,5.04065831 84.4580667,5.0437006 C83.520047,5.04672628 82.7586812,4.21784229 82.7586812,3.19265965 C82.7586812,2.16717361 83.520047,1.33555904 84.4580667,1.33464851 C85.3948763,1.33404205 86.1535198,2.16262263 86.1535198,3.18598489 Z" fill="#FFFFFF"></path>
                                        <path d="M7.24099137,119.876588 L153.907214,109.047394 L154.653758,108.992176 C155.650763,108.91845 156.557626,108.424214 157.250024,107.674214 C146.695867,107.094723 140.140316,103.338046 135.911514,99.4563693 C127.419427,91.6611584 128.892248,83.9736539 119.734381,78.8483475 C108.312079,72.4554432 99.3308657,80.5558727 90.6630318,72.5637564 C85.4081859,67.7181831 87.988118,64.1050135 81.5221045,56.8641112 C74.3603654,48.8440822 69.6977937,51.5400789 62.5006633,44.3219315 C53.4002695,35.1951057 57.9515251,28.0943734 50.1128147,21.5418816 C40.6031528,13.5925444 30.3472495,20.9499517 21.2946491,13.3264642 C17.3901159,10.0382341 15.2478859,5.25789145 14.1292801,0.174150588 L7.24189884,0.174150588 C4.60388874,0.174150588 2.45923873,2.40200384 2.45923873,5.15018508 L2.45923873,115.253405 C2.45923873,118.001587 4.60298127,120.071066 7.24099137,119.876588 Z" fill="#FFFFFF" opacity="0.48"></path>
                                    </g>
                                    <path d="M161.598612,108.388717 L5.72158709,119.845338 L73.6870239,131.986728 C74.4653292,132.125685 75.254524,132.162699 76.040089,132.096862 L237.654431,118.527072 L164.07842,108.46669 C163.255649,108.354129 162.425618,108.328037 161.598612,108.388717 Z" id="路径" fill="url(#linearGradient-3)"></path>
                                    <polygon id="路径" fill="#D8DEE8" points="28.4666729 119.943942 158.238862 110.263718 198.402196 115.711233 69.7480069 126.058934"></polygon>
                                </g>
                                <path d="M59.8597219,119.241317 C59.445009,119.243716 59.044513,119.089286 58.7483759,118.808036 L54.3683293,114.65148 C53.7509484,114.065618 53.7509484,113.112037 54.3683293,112.522231 C54.9857102,111.933032 55.9848327,111.931211 56.6010036,112.517073 L59.6413246,115.409369 L66.6596838,105.720953 C67.1503216,105.043161 68.1204051,104.877202 68.8267179,105.348987 C69.5321231,105.820164 69.7066595,106.750383 69.2175342,107.427568 L61.1495368,118.588375 C60.884556,118.955184 60.4634908,119.191531 60.000077,119.234007 C59.9534937,119.238861 59.9066078,119.240985 59.8597219,119.241317 Z" id="路径" fill="#97A6B7"></path>
                                <path d="M59.8597219,137.17458 C59.445009,137.176979 59.044513,137.022549 58.7483759,136.741299 L54.3683293,132.584743 C53.7509484,131.998881 53.7509484,131.0453 54.3683293,130.455494 C54.9857102,129.866295 55.9848327,129.864474 56.6010036,130.450336 L59.6413246,133.342632 L66.6596838,123.654216 C67.1503216,122.976728 68.1204051,122.810465 68.8267179,123.28225 C69.5321231,123.753427 69.7066595,124.683646 69.2175342,125.360831 L61.1495368,136.521942 C60.884556,136.888447 60.4634908,137.125098 60.000077,137.167573 C59.9534937,137.171821 59.9066078,137.174248 59.8597219,137.17458 Z" id="路径" fill="#97A6B7"></path>
                                <path d="M59.8597219,155.777139 C59.445009,155.779538 59.044513,155.625108 58.7483759,155.343858 L54.3683293,151.187302 C53.7509484,150.60144 53.7509484,149.64786 54.3683293,149.058054 C54.9857102,148.468854 55.9848327,148.467034 56.6010036,149.052896 L59.6413246,151.945191 L66.6596838,142.256775 C67.1503216,141.579287 68.1204051,141.413025 68.8267179,141.884809 C69.5321231,142.355987 69.7066595,143.286206 69.2175342,143.96339 L61.1495368,155.124198 C60.884556,155.491006 60.4634908,155.727354 60.000077,155.769829 C59.9534937,155.774684 59.9066078,155.777139 59.8597219,155.777139 Z" id="路径" fill="#97A6B7"></path>
                                <g id="编组" transform="translate(23.699534, 58.078024)" fill="#BFC8D6">
                                    <path d="M19.6618113,0.240594802 L19.6618113,116.28951 C19.6618113,126.377502 11.2256843,135.494922 0.0780422664,136.204874 L105.111136,129.119008 C114.575122,128.516156 122.205719,120.492789 122.205719,111.189386 L122.205719,4.17020877 L19.6618113,0.240594802 Z" id="路径"></path>
                                </g>
                                <g id="编组" transform="translate(24.304512, 58.684821)">
                                    <path d="M122.47675,110.955466 C122.47675,120.258566 114.910582,128.282236 105.446596,128.885088 L0.0229891948,135.598684 L0.0229891948,135.598684 C11.1706312,134.888732 20.0719869,126.143885 20.0719869,116.05559 L20.0719869,0.00637136298 L122.47675,3.93568193 L122.47675,110.955466 Z" id="路径" fill="#FFFFFF"></path>
                                    <g transform="translate(30.248940, 38.834974)" fill="#D8DEE8">
                                        <path d="M14.0073769,13.0197286 L0.285852487,13.115299 L0.285852487,0.233616643 L14.0073769,0.283677352 L14.0073769,13.0197286 Z M1.89237372,11.3492179 L11.9561962,11.2943028 L11.9561962,2.01668808 L1.89237372,1.99302302 L1.89237372,11.3492179 Z" id="形状"></path>
                                        <path d="M83.1231809,3.81189583 L21.3230831,3.76244154 C20.4225722,3.76183474 19.6929677,3.0294314 19.6929677,2.12621485 L19.6929677,1.94660309 C19.6929677,1.04035256 20.4271095,0.307039016 21.3303429,0.31036505 L83.1304407,0.539442066 C84.0291367,0.542779446 84.7560187,1.2742726 84.7560187,2.17566876 L84.7560187,2.17566876 C84.7560187,3.07979551 84.0249018,3.81250225 83.1231809,3.81189583 Z" id="路径"></path>
                                        <path d="M83.2211875,9.08404662 L21.239596,9.32435003 C20.3862734,9.3276754 19.6929677,8.63471383 19.6929677,7.7791308 L19.6929677,7.60922779 C19.6929677,6.75637534 20.3817361,6.06493076 21.2320338,6.06402057 L83.2136253,5.99363128 C84.0651329,5.99272198 84.7560187,6.68477336 84.7560187,7.5388394 L84.7560187,7.5388394 C84.7560187,8.38987145 84.0699728,9.08101264 83.2211875,9.08404662 Z" id="路径"></path>
                                    </g>
                                    <g transform="translate(30.248940, 61.286444)" fill="#D8DEE8">
                                        <path d="M14.0073769,13.6532241 L0.285852487,13.9654209 L0.285852487,1.0837385 L14.0073769,0.917476269 L14.0073769,13.6532241 Z M1.89237372,12.1732475 L11.9561962,11.9584415 L11.9561962,2.68082682 L1.89237372,2.81735603 L1.89237372,12.1732475 Z" id="形状"></path>
                                        <path d="M83.149195,3.35194372 L21.3487947,4.27973553 C20.4383016,4.29338845 19.6929677,3.55704093 19.6929677,2.64381224 L19.6929677,2.46420048 C19.6929677,1.56826549 20.41138,0.838896126 21.3046313,0.827973789 L83.1050316,0.0797937364 C84.0137097,0.0688713998 84.7560187,0.804612125 84.7560187,1.71602043 L84.7560187,1.71602043 C84.7560187,2.61013503 84.0403288,3.3385942 83.149195,3.35194372 Z" id="路径"></path>
                                        <path d="M83.2456891,8.6228813 L21.2637952,9.84345241 C20.4013979,9.86044271 19.6929677,9.16384035 19.6929677,8.29854858 L19.6929677,8.12864557 C19.6929677,7.28550187 20.3669141,6.59800146 21.2075322,6.58374175 L83.1894261,5.53337705 C84.0503109,5.51881393 84.7560187,6.21480949 84.7560187,7.07828087 L84.7560187,7.07828087 C84.7560187,7.91960418 84.0844922,8.60619439 83.2456891,8.6228813 Z" id="路径"></path>
                                    </g>
                                    <g transform="translate(30.248940, 83.434515)" fill="#D8DEE8">
                                        <path d="M14.0073769,14.7436373 L0.285852487,15.2721571 L0.285852487,2.39047471 L14.0073769,2.00788953 L14.0073769,14.7436373 Z M1.89237372,13.6492799 L11.9561962,13.2727627 L11.9561962,3.80188331 L1.89237372,4.09860679 L1.89237372,13.6492799 Z" id="形状"></path>
                                        <path d="M83.2626285,3.34587576 L21.2810371,5.25637446 C20.411985,5.2830735 19.6929677,4.58374057 19.6929677,3.71177403 L19.6929677,3.35133693 C19.6929677,2.51456459 20.356932,1.82979477 21.1908952,1.8067365 L83.1724867,0.0764563558 C84.0397238,0.0521844968 84.7560187,0.750910637 84.7560187,1.62105678 L84.7560187,1.80157873 C84.7560187,2.63622728 84.0947769,3.32008691 83.2626285,3.34587576 Z" id="路径"></path>
                                        <path d="M83.2707957,8.61772353 L21.2873894,10.8182709 C20.4162199,10.8492176 19.6929677,10.1492778 19.6929677,9.27488411 L19.6929677,9.1049811 C19.6929677,8.27154614 20.3520921,7.58859671 21.1824255,7.56129087 L83.1658319,5.53064646 C84.035489,5.50212703 84.7560187,6.20145997 84.7560187,7.0743367 L84.7560187,7.0743367 C84.7560187,7.90595126 84.0993142,8.5882939 83.2707957,8.61772353 Z" id="路径"></path>
                                    </g>
                                    <g transform="translate(30.248940, 105.582587)" fill="#D8DEE8">
                                        <path d="M14.0073769,15.83132 L0.285852487,16.5761627 L0.285852487,3.69448033 L14.0073769,3.09526882 L14.0073769,15.83132 Z M1.89237372,14.9274967 L11.9561962,14.3907852 L11.9561962,4.91990581 L1.89237372,5.37652016 L1.89237372,14.9274967 Z" id="形状"></path>
                                        <path d="M83.2018282,3.34162818 L21.398403,6.22391144 C20.469458,6.26729738 19.6929677,5.52366831 19.6929677,4.59102212 L19.6929677,4.41141037 C19.6929677,3.53640985 20.3802236,2.81644584 21.2516956,2.77821766 L83.0551208,0.075546161 C83.9822508,0.0348907973 84.7560187,0.77791308 84.7560187,1.70873887 L84.7560187,1.70873887 C84.7560187,2.581919 84.0717877,3.30097282 83.2018282,3.34162818 Z" id="路径"></path>
                                        <path d="M56.071856,9.82282133 L21.310681,11.7900555 C20.4310419,11.8352618 19.6932702,11.1319847 19.6932702,10.2484891 L19.6932702,10.078586 C19.6932702,9.25516322 20.3375726,8.57676477 21.1576214,8.5370196 L55.9187963,6.73999184 C56.7969231,6.69721269 57.5319723,7.399883 57.5319723,8.28155828 L57.5319723,8.28155828 C57.5319723,9.10316071 56.8900898,9.78064897 56.071856,9.82282133 Z" id="路径"></path>
                                    </g>
                                    <polygon id="路径" fill="#D8DEE8" points="38.6230571 11.8197885 44.9251214 21.0418813 44.9965089 21.0418813 44.9965089 11.8197885 47.1033476 11.8197885 47.1033476 24.6052936 45.0678964 24.6052936 38.6944446 15.2578973 38.6230571 15.2578973 38.6230571 24.6052936 36.5343678 24.6052936 36.5343678 11.8197885"></polygon>
                                    <path d="M56.8335243,16.6368423 C57.5655486,17.5679715 57.940333,18.8750111 57.940333,20.5403641 L51.0311725,20.5403641 C51.1022575,21.3998913 51.3345694,22.062513 51.7275031,22.5103288 C52.1201344,22.9581446 52.6915369,23.1908511 53.4232587,23.1908511 C54.0482018,23.1908511 54.5482168,23.0476471 54.9408481,22.7609358 C55.2445474,22.5279259 55.5122506,22.1520155 55.7624093,21.6329011 L57.797558,21.6329011 C57.5833955,22.4924283 57.1550705,23.226652 56.5122805,23.7997713 C55.6910218,24.4981941 54.6734474,24.856204 53.4417106,24.856204 C52.0668962,24.856204 50.9776319,24.4262887 50.1745225,23.5849654 C49.31757,22.7075377 48.8889426,21.507901 48.8889426,19.9678516 C48.8889426,18.58921 49.2818763,17.4429714 50.103135,16.5118423 C50.8887,15.5628126 51.9776619,15.0970961 53.3524762,15.0970961 C54.8697631,15.0967929 56.0298099,15.5983102 56.8335243,16.6368423 Z M51.8167375,17.3352651 C51.4419531,17.7111755 51.1920969,18.2663943 51.0668663,19.000618 L55.8156474,19.000618 C55.6371787,17.4963695 54.8337668,16.7624488 53.4054119,16.7624488 C52.7272306,16.7621458 52.2096712,16.9411508 51.8167375,17.3352651 Z" id="形状" fill="#D8DEE8"></path>
                                    <path d="M62.4392579,15.0440016 L64.4922535,15.0440016 L64.4922535,16.727255 L62.4392579,16.727255 L62.4392579,21.9560202 C62.4392579,22.1708262 62.4749517,22.332234 62.5823354,22.4575375 C62.6894167,22.5649405 62.8321917,22.618642 63.0463542,22.618642 L64.2605466,22.618642 L64.2605466,24.3018954 L62.7072635,24.3018954 C61.9038517,24.3018954 61.3146023,24.0870894 60.9395155,23.6571741 C60.582578,23.2633632 60.4038067,22.7081445 60.4038067,21.9560202 L60.4038067,16.727255 L58.7437449,16.727255 L58.7437449,15.0440016 L60.4038067,15.0440016 L60.4038067,12.8950319 L62.4392579,12.0534052 L62.4392579,15.0440016 L62.4392579,15.0440016 Z" id="路径" fill="#D8DEE8"></path>
                                    <polygon id="路径" fill="#D8DEE8" points="67.3429137 15.1632371 69.0870676 22.0285324 71.0024305 15.214208 72.8769573 15.2403002 74.6035668 22.1052922 76.5367766 15.2909678 78.7860878 15.3222178 75.5521736 24.5358154 73.6597999 24.5094198 71.9147385 17.7157265 69.9648918 24.4581455 68.0725181 24.4317498 65.0942074 15.1316837"></polygon>
                                    <path d="M87.588832,16.5728253 C88.4149306,17.4975831 88.8275261,18.6674867 88.8078643,20.0998298 C88.7882025,21.5142724 88.3435431,22.6723435 87.5101848,23.5561425 C86.6405277,24.4754392 85.491673,24.924772 84.0993142,24.9056579 C82.6891086,24.885937 81.5708053,24.4050508 80.7268599,23.4620891 C79.9004588,22.5552317 79.5060126,21.3856315 79.5253719,19.971189 C79.5450338,18.5388459 79.9718463,17.3807748 80.8412008,16.4793786 C81.693011,15.5597786 82.8237164,15.1277395 84.233922,15.1474604 C85.6262807,15.1665745 86.7448866,15.6298636 87.588832,16.5728253 Z M82.2332571,17.7879352 C81.8327611,18.3555933 81.6258584,19.1046836 81.6134563,20.0000118 C81.6010542,20.89534 81.7873877,21.6322943 82.1718517,22.2105713 C82.6267958,22.8795645 83.264746,23.2287758 84.1216984,23.2406084 C84.9608041,23.2521375 85.6259783,22.92113 86.0990717,22.265183 C86.5001726,21.6796244 86.7243173,20.9487381 86.7364169,20.0713104 C86.7488189,19.1759822 86.5449411,18.4211274 86.1601745,17.8428503 C85.705533,17.1559567 85.0494334,16.8246458 84.2103278,16.8128133 C83.3539803,16.8006774 82.706653,17.1137844 82.2332571,17.7879352 Z" id="形状" fill="#D8DEE8"></path>
                                    <path d="M96.1734813,15.5461257 L96.1453498,17.5870856 C95.6834485,17.4375103 95.2557284,17.3777408 94.827101,17.3719763 C94.2913922,17.3643913 93.8068042,17.554622 93.3724294,17.9787727 C92.8657597,18.455108 92.6252806,19.0785913 92.614391,19.8665166 L92.5466333,24.7724661 L90.5293315,24.7445534 L90.6572845,15.4875698 L92.6745864,15.5154824 L92.6561345,16.8404226 C92.912343,16.378347 93.2030353,16.0242813 93.5454534,15.7782253 C93.9607713,15.4435771 94.4450568,15.2891474 95.0161568,15.2970357 C95.4626312,15.3031037 95.8546575,15.3804702 96.1734813,15.5461257 Z" id="路径" fill="#D8DEE8"></path>
                                    <polygon id="路径" fill="#D8DEE8" points="99.3063641 11.5691816 99.3063641 19.0185185 103.091414 15.3477032 105.715812 15.3477032 101.627365 19.179623 106.07275 24.6052936 103.466198 24.6052936 100.234704 20.4866626 99.3063641 21.3640903 99.3063641 24.6052936 97.2709129 24.6052936 97.2709129 11.5691816 99.3063641 11.5691816"></polygon>
                                </g>
                            </g>
                            <g id="编组" transform="translate(108.541515, 83.939165)">
                                <path d="M27.2816681,7.22092575 C27.2816681,7.22092575 26.4414211,6.11439425 25.9994312,5.33458143 C25.5574412,4.5551003 26.6342765,2.39643512 27.1096039,0.594341088 C27.5849313,-1.20775294 27.8294059,1.60302284 27.8892699,2.23954381 C27.9491339,2.87606478 27.9566617,4.05192035 28.668219,6.07061063 L27.2816681,7.22092575 Z" id="路径" fill="#F3ADA7"></path>
                                <path d="M29.4009047,4.44364662 C29.4009047,4.44364662 27.6446452,17.9601512 41.4242446,27.4902976 L26.7613332,31.1055263 C26.7613332,31.1055263 22.0682788,22.0353177 25.4657868,7.01183431 L29.4009047,4.44364662 Z" id="路径" fill="#607FEE"></path>
                                <path d="M32.2101541,116.645724 L32.5504877,121.775586 C32.5504877,121.775586 31.7779192,122.54732 30.2918083,122.01017 L28.668219,116.972944 L32.2101541,116.645724 Z" id="路径" fill="#F3ADA7"></path>
                                <path d="M31.6884374,120.533915 C31.6884374,120.533915 34.0610445,121.591734 33.6003603,122.739008 C33.3532206,123.355009 32.497379,124.746283 31.7576232,125.903012 C31.073083,126.973559 29.8367195,127.447014 28.6924929,127.072468 C28.3086448,126.94665 27.9158158,126.82374 27.5678911,126.725558 C26.848758,126.523013 26.8065148,125.423739 27.5070209,125.15392 C27.8466301,125.023011 28.1829129,124.917193 28.4759547,124.867738 C29.344436,124.721192 30.5395541,122.477917 30.6795888,121.57937 C30.8199561,120.68046 31.6884374,120.533915 31.6884374,120.533915 Z" id="路径" fill="#3E4480"></path>
                                <path d="M37.2025473,70.5428901 C33.6519576,71.7662921 20.5216028,76.7230111 17.5969119,88.0913694 C17.4407752,88.6981769 17.0402946,90.3859655 17.0220449,93.1425857 C16.9466802,104.617253 23.6284532,114.328872 28.4882932,119.978459 C30.020258,119.952809 31.5525608,119.927498 33.0845257,119.901848 C33.8493253,116.973108 34.5519405,112.592823 33.4522243,107.664115 C31.7715578,100.131333 27.4112202,98.1772649 28.2523983,94.4800595 C29.7792938,87.7656914 45.3916142,88.781537 46.8627466,82.769486 C47.394017,80.5973989 46.2263711,76.9120056 37.2025473,70.5428901 Z" id="路径" fill="url(#linearGradient-4)"></path>
                                <path d="M81.0521753,138.863706 L74.047228,138.702204 C73.6154551,138.692373 73.4301052,138.160119 73.7606814,137.885566 C74.0866415,137.614875 74.5368784,137.393337 75.1124572,137.452671 C76.4439937,137.589597 79.4330269,135.747071 80.7890636,136.1424 C81.232199,136.271601 81.5918914,137.302053 81.7765311,137.586788 C82.1390641,138.146427 81.7236247,138.879505 81.0521753,138.863706 Z" id="路径" fill="#3E4480"></path>
                                <path d="M77.8526013,133.309399 L80.8015412,135.635266 C80.8015412,135.635266 79.7719717,136.300831 78.2697295,136.015634 L75.2554431,134.2209 L77.8526013,133.309399 Z" id="路径" fill="#F3ADA7"></path>
                                <path d="M25.745224,100.410498 C23.9311264,95.4394865 21.7558074,89.3101149 24.2404119,85.8299672 C26.7546466,82.3082565 32.2628581,85.2808615 37.7887145,82.4430831 C39.8385216,81.3904896 41.9449256,79.5066346 43.6970995,76.0974483 C46.7992763,79.3481542 47.2207568,81.5297091 46.8645292,83.0090844 C45.4153152,89.0289727 30.0356031,88.01186 28.5314568,94.7342657 C27.7031443,98.436421 31.9981843,100.392589 33.6538105,107.934767 C34.5849962,112.177243 34.2034664,116.011183 33.5995441,118.867547 C33.0612075,116.215282 32.2249049,113.429204 30.9461475,110.617445 C28.9642568,106.25839 27.6565351,105.647109 25.745224,100.410498 Z" id="路径" fill="url(#linearGradient-5)"></path>
                                <path d="M35.3235367,68.6315987 C37.4535196,78.4938518 41.9908895,93.5527756 52.3873774,109.272117 C60.0840887,120.909031 68.5394149,129.20019 75.1714678,134.739834 C75.6433542,134.881928 76.4475926,135.056606 77.4333258,134.934667 C78.1659654,134.843969 78.7470817,134.620583 79.1377118,134.432468 C78.6808111,131.652064 77.7173902,127.545116 75.4325539,123.108966 C71.2515133,114.991478 67.5283724,115.252151 63.3290158,108.087665 C60.2542609,102.841614 59.2542079,97.2690501 57.2547681,86.1235856 C55.7108968,77.5173345 55.7095647,75.4601651 53.5955666,72.9925023 C49.320615,68.0027579 41.2938829,67.9463235 35.3235367,68.6315987 Z" id="路径" fill="url(#linearGradient-6)"></path>
                                <path d="M73.89879,124.997427 C72.4259492,122.634525 69.8132264,120.173712 64.6587768,115.319254 C59.3317673,110.302391 59.5365385,111.209323 58.4883597,109.726954 C53.7940701,103.089375 56.3361255,95.9969946 55.1755362,87.4376165 C54.5280254,82.6623563 52.4540184,76.4217696 46.4157329,69.4319784 C49.245717,69.9626371 51.9550735,71.1034865 53.9278452,73.3160126 C56.3499303,76.0327981 56.171454,78.6934434 57.539444,86.3786382 C59.5132018,97.465997 60.4999163,103.009843 63.5346717,108.22821 C67.6793987,115.355345 71.3541051,115.095696 75.4807544,123.171199 C77.7358672,127.584221 78.686755,131.670093 79.1377118,134.435667 C78.7521634,134.622801 78.1786068,134.844688 77.4554982,134.935248 C76.8819416,135.00676 76.3734648,134.97468 75.9550479,134.90818 C76.2955663,129.297166 74.6462213,126.196087 73.89879,124.997427 Z" id="路径" fill="url(#linearGradient-7)"></path>
                                <path d="M43.7832597,17.4893957 C43.0819126,15.9965528 42.7927779,16.0053508 42.6205344,15.2174028 C42.2278581,13.4215572 43.2414577,11.1411183 44.1007219,11.1094456 C44.6548968,11.0890342 44.7004811,12.0198615 45.8733001,13.470826 C47.3101825,15.2480199 48.1821452,15.0150491 49.0274084,16.5578645 C49.2253746,16.9185821 50.1152453,18.5430429 49.567908,19.7557578 C48.8691658,21.3031482 46.1148969,21.5480842 44.9635676,20.3547249 C44.4178584,19.7884863 44.6470823,19.3288793 43.7832597,17.4893957 Z" id="路径" fill="url(#linearGradient-8)"></path>
                                <path d="M45.2392363,18.3342458 C45.2392363,18.3342458 44.7520015,21.1801032 45.0986444,23.4943479 C45.4120741,25.5854989 48.9510565,27.758192 49.6295093,28.3812308 C50.3076396,29.0042695 47.8305131,29.6802577 45.5578254,29.354442 C43.2854601,29.0289792 37.0629777,26.8492262 36.1175293,25.6345654 C35.1717584,24.4199046 37.2184027,25.0182336 38.9396864,24.7884329 C40.6609701,24.5582792 42.3038963,21.4007259 42.3541998,19.7889441 C42.4041809,18.1768094 45.2392363,18.3342458 45.2392363,18.3342458 Z" id="路径" fill="#F3ADA7"></path>
                                <path d="M45.2438255,20.8591209 C45.2438255,20.8591209 43.4661609,21.6690716 41.8914697,20.3626885 C40.4815296,19.1927218 42.5778228,15.5993991 44.0121461,15.5532432 C44.4905834,15.5378578 45.1891281,15.8937712 45.6013354,16.4141363 C45.8448376,16.7215004 45.8593357,16.9262959 46.26693,17.4206769 C46.6425625,17.8764237 46.8076432,17.9174512 46.864647,18.1386577 C46.936149,18.4152512 46.8132447,18.8781778 45.8481326,19.673427 C46.3292059,19.5814571 46.7440492,19.7130869 46.9045168,20.0040401 C46.930218,20.0505379 46.9832678,20.1955016 46.9674517,20.3452519 C46.9094593,20.8874983 46.2267307,21.1384497 45.2438255,20.8591209 Z" id="路径" fill="#F6C1C0"></path>
                                <path d="M4.81999711,11.7896515 C4.81999711,11.7896515 3.76411589,11.6416628 4.09312938,9.61177809 C4.35136296,8.0206555 4.1558294,7.48561939 3.78253806,7.76761107 C3.40956991,8.04960274 3.35656577,8.96908426 3.35656577,8.96908426 C3.35656577,8.96908426 1.99526436,7.80078656 1.43484255,6.26950995 C0.874420747,4.7385586 0.514057245,6.02784926 0.393828345,6.79316232 C0.273599445,7.55880062 1.19438475,9.93572701 1.71505346,10.3790426 C2.23539896,10.822033 2.99620227,12.775484 2.99620227,12.775484 L4.81999711,11.7896515 Z" id="路径" fill="#F3ADA7"></path>
                                <path d="M2.60155786,11.5236207 C3.83613484,10.6448449 5.07071182,9.76606907 6.3052888,8.88729324 C7.80724121,18.2729433 11.2220074,21.9565096 14.1219513,23.56788 C21.1182197,27.4550198 27.3625154,20.5281191 40.7542048,23.3548536 C44.4443178,24.1336995 50.8769388,25.5847093 54.4434946,30.9282606 C55.3811354,32.3330191 55.7146073,33.3964627 57.2713634,43.4725072 C59.2612344,56.3526669 59.3323131,58.6004155 59.051652,61.3734714 C58.5381583,66.4489674 58.2269399,69.524514 55.9245219,72.2465922 C49.8110907,79.4753084 36.816977,75.7481915 35.1878137,75.257657 C32.1782624,74.3515355 27.5006871,72.9430634 25.6423448,68.9009647 C24.7678113,66.9992573 24.8608114,65.2602737 26.2046636,58.3050144 C28.8667928,44.5271732 29.2069077,43.6355685 28.4639029,42.1268289 C25.9562203,37.0351281 18.010354,39.9486262 11.2980682,35.2137698 C7.37346194,32.4457779 2.94964414,26.412845 2.60155786,11.5236207 Z" id="路径" fill="#607FEE"></path>
                                <path d="M41.4868373,74.5303779 C40.1730952,71.7969932 41.9387379,69.2784686 40.0019257,65.9930692 C37.5336225,61.8063387 33.0925414,63.2275907 31.4214748,60.1340789 C28.5635446,54.843657 39.8127735,47.4651061 37.5266292,39.042322 C36.4353407,35.0207905 32.6246561,32.1100449 29.4410377,31.0073669 C22.3734715,28.559111 17.7508976,34.7998495 11.1249086,32.8485419 C9.55474532,32.3860522 7.75213797,31.4276278 5.92921673,29.4391588 C7.54067377,32.8877302 9.54175775,34.9714673 11.4289508,36.3001537 C18.1588403,41.0382232 26.1255456,38.122748 28.6398049,43.217904 C29.3847583,44.7276675 29.0437514,45.6198772 26.3746404,59.4070682 C25.0272639,66.3670473 24.9340198,68.107211 25.8108469,70.0102089 C27.6740629,74.0550507 32.3639057,75.4644785 35.3813499,76.371215 C36.2754938,76.6401279 40.5847011,77.8755732 45.3065133,77.7556434 C43.2001968,76.8880953 42.0662825,75.7360941 41.4868373,74.5303779 Z" id="路径" fill-opacity="0.533293611" fill="#000000" opacity="0.2"></path>
                            </g>
                        </g>
                    </g>
                </g>
            </g>
        </g>
    </g>
</svg>