<?xml version="1.0" encoding="UTF-8"?>
<svg width="196px" height="130px" viewBox="0 0 196 130" version="1.1" xmlns="http://www.w3.org/2000/svg" xmlns:xlink="http://www.w3.org/1999/xlink">
    <!-- Generator: Sketch 64 (93537) - https://sketch.com -->
    <title>画板</title>
    <desc>Created with Sketch.</desc>
    <g id="画板" stroke="none" stroke-width="1" fill="none" fill-rule="evenodd">
        <g id="图谱" transform="translate(98.500000, 64.860992) rotate(-360.000000) translate(-98.500000, -64.860992) translate(25.000000, 15.360992)">
            <path d="M22,11.8593972 C43.4202992,10.2115165 57.0869659,17.8047202 63,34.6390082" id="路径-25" stroke="#2A457E"></path>
            <path d="M22,87.3122839 C41.5405535,89.2763611 55.2072202,82.3852692 63,66.6390082" id="路径-26" stroke="#2A457E"></path>
            <line x1="22" y1="49.6390082" x2="63" y2="49.6390082" id="路径-27" stroke="#2A457E"></line>
            <path d="M73,36.6390082 C78.9502501,27.3056749 88.6083161,22.6390082 101.974198,22.6390082 C115.34008,22.6390082 118.419831,22.6390082 111.213452,22.6390082" id="路径-28" stroke="#2A457E"></path>
            <path d="M71,63.6390082 C81.8486102,72.9723416 91.72833,77.6390082 100.639159,77.6390082 C109.549989,77.6390082 112.713006,77.6390082 110.128213,77.6390082" id="路径-29" stroke="#2A457E"></path>
            <path d="M120,80.6390082 C123.797014,85.9723416 127.254916,88.6390082 130.373706,88.6390082 C133.492496,88.6390082 134.599552,88.6390082 133.694874,88.6390082" id="路径-29" stroke="#2A457E"></path>
            <path d="M120,67.6390082 C123.797014,72.9723416 127.254916,75.6390082 130.373706,75.6390082 C133.492496,75.6390082 134.599552,75.6390082 133.694874,75.6390082" id="路径-29" stroke="#2A457E" transform="translate(127.000000, 71.639008) scale(1, -1) translate(-127.000000, -71.639008) "></path>
            <circle id="椭圆形" fill="#31457A" cx="67" cy="49.6390082" r="17"></circle>
            <circle id="椭圆形" fill="#637990" cx="10.5" cy="88.1390082" r="10.5"></circle>
            <circle id="椭圆形" fill="#457EF0" cx="10.5" cy="11.1390082" r="10.5"></circle>
            <circle id="椭圆形" fill="#009390" cx="113.5" cy="23.1390082" r="10.5"></circle>
            <circle id="椭圆形" fill="#A8CB37" cx="113.5" cy="77.1390082" r="10.5"></circle>
            <circle id="椭圆形" fill="#EED100" cx="140.5" cy="88.1390082" r="6.5"></circle>
            <circle id="椭圆形" fill="#FF8C00" cx="140.5" cy="68.1390082" r="6.5"></circle>
            <circle id="椭圆形" fill="#A4A8B5" cx="10.5" cy="49.1390082" r="10.5"></circle>
        </g>
    </g>
</svg>