<?xml version="1.0" standalone="no"?><!DOCTYPE svg PUBLIC "-//W3C//DTD SVG 1.1//EN" "http://www.w3.org/Graphics/SVG/1.1/DTD/svg11.dtd"><svg t="1605752114735" class="icon" viewBox="0 0 1024 1024" version="1.1" xmlns="http://www.w3.org/2000/svg" p-id="2405" xmlns:xlink="http://www.w3.org/1999/xlink" width="48" height="48"><defs><style type="text/css"></style></defs><path d="M503.27000029 497.8L128.9299997 305.80000029 503.3299997 98.67999971l374.4 207.18z" fill="#1E62A1" p-id="2406"></path><path d="M503.27000029 513.82a15.36000029 15.36000029 0 0 1-7.32000059-1.8l-374.3399997-191.99999971a15.95999971 15.95999971 0 0 1-0.47999971-28.20000058L495.5899997 84.7a16.38 16.38 0 0 1 15.60000059 0l374.4 207.11999971a15.95999971 15.95999971 0 0 1-0.48000059 28.20000058l-374.5199997 191.99999971a15.36000029 15.36000029 0 0 1-7.31999971 1.8zM162.9499997 305.31999971L503.39 479.8l340.38-174.48000029L503.27000029 116.92 162.9499997 305.38z" fill="#2E3742" p-id="2407"></path><path d="M495.35000029 924.51999971a17.21999971 17.21999971 0 0 1-7.44000029-1.8L119.51000029 730.60000029a16.2 16.2 0 0 1-8.64-14.22V315.82a15.95999971 15.95999971 0 0 1 23.4-14.15999971l368.39999971 192.17999971a16.2 16.2 0 0 1 8.70000029 14.28000029v400.5a15.95999971 15.95999971 0 0 1-16.08000029 15.89999942zM142.85 706.6l336.3599997 175.5V517.71999971L142.91000029 342.21999971v364.32z" fill="#2E3742" p-id="2408"></path><path d="M511.37000029 924.51999971a16.02 16.02 0 0 1-16.02-16.02V508.12000029c0-6.00000029 3.24-11.45999971 8.57999971-14.28000029l368.3999997-192.17999971a16.02 16.02 0 0 1 23.4600003 14.15999971v384.48a16.02 16.02 0 0 1-8.1600003 13.92000029l-368.3999997 208.19999971a15.72000029 15.72000029 0 0 1-7.85999971 2.09999971z m16.02-406.8v363.30000029l336.35999971-190.14000029v-348.59999971L527.39000029 517.66000029z" fill="#2E3742" p-id="2409"></path></svg>
