<?xml version="1.0" standalone="no"?><!DOCTYPE svg PUBLIC "-//W3C//DTD SVG 1.1//EN" "http://www.w3.org/Graphics/SVG/1.1/DTD/svg11.dtd"><svg t="1650251089127" class="icon" viewBox="0 0 1024 1024" version="1.1" xmlns="http://www.w3.org/2000/svg" p-id="8851" width="200" height="200" xmlns:xlink="http://www.w3.org/1999/xlink"><defs><style type="text/css"></style></defs><path d="M1011.968 550.08a132.992 132.992 0 0 0-173.888-70.912 129.92 129.92 0 0 0-18.816 10.24l-80.576-80.576A182.72 182.72 0 0 0 804.736 268.8a184.256 184.256 0 0 0-184-184A184.256 184.256 0 0 0 436.736 268.8c0 54.08 23.872 102.272 61.12 136L377.472 525.248a223.936 223.936 0 0 0-151.552-59.648A225.856 225.856 0 0 0 0.32 691.2c0 124.416 101.184 225.6 225.6 225.6s225.6-101.184 225.6-225.6c0-49.728-16.64-95.296-44.032-132.608l127.808-127.808c25.664 13.568 54.464 22.016 85.504 22.016 28.672 0 55.424-7.168 79.616-18.88l85.568 85.568a132.416 132.416 0 0 0-18.816 133.632 132.928 132.928 0 0 0 173.888 70.848 132.928 132.928 0 0 0 70.912-173.888zM225.92 868.8C128 868.8 48.32 789.12 48.32 691.2S128 513.6 225.92 513.6 403.52 593.28 403.52 691.2 323.84 868.8 225.92 868.8zM484.8 268.8c0-75.008 60.992-136 136-136s136 60.992 136 136-60.992 136-136 136S484.8 343.808 484.8 268.8z m437.696 410.944a84.864 84.864 0 0 1-111.04-45.184 84.864 84.864 0 0 1 156.288-65.728 84.736 84.736 0 0 1-45.248 110.912z" p-id="8852" fill="#707070"></path></svg>