<?xml version="1.0" encoding="UTF-8"?>
<svg width="139px" height="77px" viewBox="0 0 139 77" version="1.1" xmlns="http://www.w3.org/2000/svg" xmlns:xlink="http://www.w3.org/1999/xlink">
    <title>编组 9</title>
    <defs>
        <linearGradient x1="40.8893537%" y1="93.4279416%" x2="58.3232986%" y2="31.3722789%" id="linearGradient-1">
            <stop stop-color="#FFAA00" offset="0%"></stop>
            <stop stop-color="#FFA700" offset="41%"></stop>
            <stop stop-color="#FF9C00" offset="75%"></stop>
            <stop stop-color="#FF9500" offset="90%"></stop>
        </linearGradient>
    </defs>
    <g id="页面-1" stroke="none" stroke-width="1" fill="none" fill-rule="evenodd">
        <g id="子品牌logo" transform="translate(-1268.000000, -277.000000)" fill-rule="nonzero">
            <g id="竖版anydata" transform="translate(1256.950000, 277.269996)">
                <g id="编组-9" transform="translate(11.436420, 0.000000)">
                    <path d="M31.71358,3.25000375 L29.96358,3.25000375 L0.0535800067,74.5100037 C-0.0462761026,74.8026611 -0.00512371853,75.1250525 0.165046482,75.3832418 C0.335216683,75.641431 0.615260192,75.8063714 0.923580007,75.8300037 L17.61358,75.8300037 C17.9955555,75.8176518 18.3370879,75.5886698 18.49358,75.2400037 L39.90358,23.7600037 C39.9854431,23.5372881 39.9854431,23.2927194 39.90358,23.0700037 L39.65358,22.3700037 L31.71358,3.25000375 Z" id="路径" fill="url(#linearGradient-1)"></path>
                    <path d="M136.82358,12.1400037 L123.31358,2.01000375 L123.31358,2.01000375 C123.155855,1.86343477 122.948888,1.78136178 122.73358,1.78000235 C122.390259,1.77939381 122.07793,1.97850349 121.93358,2.29000375 C121.857069,2.40493978 121.821815,2.54243277 121.83358,2.68000375 L115.14358,52.6800037 C115.149081,53.664686 115.948882,54.4600191 116.93358,54.4600037 L136.11358,56.2500037 C137.10217,56.2500037 137.90358,55.4485935 137.90358,54.4600037 L137.90358,14.2800024 C137.900435,13.4364535 137.500311,12.6436135 136.82358,12.1400037 Z" id="路径" fill="#3E75FF"></path>
                    <path d="M65.24358,16.1000037 L113.79358,21.4200037 C114.78217,21.4200037 115.58358,20.6185935 115.58358,19.6300037 L117.81358,1.78000375 C117.808079,0.795321525 117.008278,0 116.02358,0 L64.35358,0 C64.0943072,-0.000731817112 63.8464977,0.106799383 63.6699289,0.296658249 C63.4933602,0.486517116 63.4040637,0.7414655 63.42358,1 L63.58358,14.3100037 C63.6131623,15.2371234 64.3213156,16.0007346 65.24358,16.1000037 L65.24358,16.1000037 Z" id="路径" fill="#3E75FF"></path>
                    <path d="M82.11358,21.8600037 L65.11358,20.0800037 C64.1288824,20.0799884 63.3290811,20.8753215 63.32358,21.8600037 L63.32358,37.6100037 L47.79358,0.610003749 C47.6341996,0.265236761 47.2932584,0.0405254897 46.91358,0.0300037491 L29.84358,0.0300037491 C29.5359085,0.0515734856 29.2554046,0.213910361 29.0834193,0.469933962 C28.911434,0.725957563 28.8672126,1.04701851 28.96358,1.34000375 L59.47358,75.3400037 C59.6300721,75.6886698 59.9716046,75.9176518 60.35358,75.9300037 L77.94358,75.9300037 C79.37358,75.9300037 79.19358,74.3000037 79.29358,74.0900037 C79.39358,73.8800037 83.85358,23.7300037 83.85358,23.7300037 C83.8752231,23.2501226 83.7030775,22.7816805 83.3758494,22.4300044 C83.0486214,22.0783282 82.5937749,21.8729341 82.11358,21.8600037 Z" id="路径" fill="#3E75FF"></path>
                    <path d="M137.38358,59.8800037 C137.267105,59.8077131 137.129955,59.7760632 136.99358,59.7900037 L86.58358,55.7900037 C85.5949903,55.7900037 84.79358,56.591414 84.79358,57.5800037 L83.45358,74.0800037 C83.45358,75.0685935 84.2549903,75.8700037 85.24358,75.8700037 L125.39358,75.8700037 C126.23537,75.8692187 127.027878,75.4729649 127.53358,74.8000037 L137.66358,61.3000037 L137.66358,61.3000037 C137.851904,61.0929121 137.930472,60.8085785 137.875197,60.5341745 C137.819921,60.2597705 137.637396,60.0280312 137.38358,59.9100037 L137.38358,59.8800037 Z" id="路径" fill="#3E75FF"></path>
                </g>
            </g>
        </g>
    </g>
</svg>