<?xml version="1.0" encoding="UTF-8"?>
<svg width="237px" height="44px" viewBox="0 0 237 44" version="1.1" xmlns="http://www.w3.org/2000/svg" xmlns:xlink="http://www.w3.org/1999/xlink">
    <title>横版anydata</title>
    <defs>
        <linearGradient x1="40.9768178%" y1="93.4068786%" x2="58.3585799%" y2="31.3679816%" id="linearGradient-1">
            <stop stop-color="#FFAA00" offset="0%"></stop>
            <stop stop-color="#FFA700" offset="41%"></stop>
            <stop stop-color="#FF9C00" offset="75%"></stop>
            <stop stop-color="#FF9500" offset="90%"></stop>
        </linearGradient>
    </defs>
    <g id="页面-1" stroke="none" stroke-width="1" fill="none" fill-rule="evenodd">
        <g id="子品牌logo" transform="translate(-1220.000000, 0.000000)" fill-rule="nonzero">
            <g id="横版anydata" transform="translate(1220.126646, 0.069936)">
                <path d="M87.3533538,5.0700636 C87.2833538,5.2400636 77.6133538,29.4000636 75.7133538,34.1700636 L81.5333538,34.1700636 L90.2633538,12.3400636 C90.9233538,13.9900636 93.0633538,19.3400636 95.0633538,24.3400636 C93.5445873,23.8690366 91.9634852,23.62968 90.3733538,23.6300636 C88.7373746,23.6267589 87.1109814,23.8798284 85.5533538,24.3800636 C87.6953266,24.7986511 89.7340328,25.6345206 91.5533538,26.8400636 C94.4380281,28.5244635 96.9112576,30.8303059 98.7933538,33.5900636 L99.0333538,34.1700636 L104.853354,34.1700636 C102.853354,29.1100636 93.4733538,5.7300636 93.2133538,5.0700636 L87.3533538,5.0700636 Z" id="路径" fill="#1B1464"></path>
                <path d="M118.633354,14.5500636 C116.057115,14.4576737 113.649542,15.8279001 112.413354,18.0900636 L112.353354,18.0900636 L112.353354,15.0100636 L107.273354,15.0100636 L107.273354,34.1700636 L112.353354,34.1700636 L112.353354,23.2500636 C112.305512,22.0172353 112.707075,20.8089931 113.483354,19.8500636 C114.185094,18.971675 115.259616,18.4751717 116.383354,18.5100636 C118.763354,18.5100636 119.943354,20.1500636 119.943354,23.4300636 L119.943354,34.1700636 L125.013354,34.1700636 L125.013354,22.4500636 C125.013354,17.1833969 122.886687,14.5500636 118.633354,14.5500636 Z" id="路径" fill="#1B1464"></path>
                <path d="M138.143354,27.5000636 C137.904771,28.2184683 137.720912,28.9539027 137.593354,29.7000636 L137.523354,29.7000636 C137.313354,28.6100636 137.153354,27.8600636 137.033354,27.4600636 L133.033354,14.9000636 L127.393354,14.9000636 L135.093354,34.0200636 L133.923354,36.7600636 C133.472156,38.1726588 132.145945,39.1205334 130.663354,39.0900636 C129.837186,39.0987938 129.022123,38.8993268 128.293354,38.5100636 L128.293354,42.6500636 C129.290953,42.9538773 130.330833,43.0956791 131.373354,43.0700636 C134.886687,43.0700636 137.553354,40.7367303 139.373354,36.0700636 L147.453354,14.9200636 L142.383354,14.9200636 L138.143354,27.5000636 Z" id="路径" fill="#1B1464"></path>
                <path d="M158.133354,7.0200636 L150.703354,7.0200636 L150.703354,34.1200636 L158.423354,34.1200636 C166.423354,34.1200636 171.543354,29.5800636 171.543354,20.4600636 C171.543354,11.3400636 166.413354,7.0200636 158.133354,7.0200636 Z M157.803354,29.7600636 L156.123354,29.7600636 L156.123354,11.3400636 L157.803354,11.3400636 C162.863354,11.3400636 166.013354,13.8300636 166.013354,20.4600636 C166.013354,27.0900636 162.873354,29.7600636 157.803354,29.7600636 Z" id="形状" fill="#1B1464"></path>
                <polygon id="路径" fill="#1B1464" points="214.513354 7.2900636 194.263354 7.2900636 194.263354 11.6900636 201.703354 11.6900636 201.703354 33.7700636 207.003354 33.7700636 207.003354 11.6900636 214.513354 11.6900636"></polygon>
                <path d="M186.123354,7.3000636 L180.873354,7.3000636 L172.323354,33.7700636 L177.593354,33.7700636 L179.803354,26.9300636 L188.063354,26.9300636 L190.273354,33.7700636 L195.543354,33.7700636 L186.993354,7.3000636 L186.123354,7.3000636 Z M181.123354,22.8600636 L183.943354,14.1400636 L186.763354,22.8600636 L181.123354,22.8600636 Z" id="形状" fill="#1B1464"></path>
                <path d="M231.173354,33.7700636 L236.443354,33.7700636 L227.873354,7.3000636 L221.753354,7.3000636 L213.203354,33.7700636 L218.473354,33.7700636 L220.683354,26.9300636 L228.943354,26.9300636 L231.173354,33.7700636 Z M222.013354,22.8600636 L224.833354,14.1400636 L227.643354,22.8600636 L222.013354,22.8600636 Z" id="形状" fill="#1B1464"></path>
                <path d="M15.0533538,1.5400636 L14.2233538,1.5400636 L0.0333538198,35.3500636 C-0.0234928747,35.4893773 -0.00694964535,35.6478845 0.0774386488,35.7724577 C0.161826943,35.8970309 0.302892498,35.9711843 0.45335382,35.9700761 L8.34335382,35.9700761 C8.52663393,35.9687386 8.69163843,35.8587356 8.76335382,35.6900636 L18.8733538,11.2700636 C18.9135164,11.1671775 18.9135164,11.0529497 18.8733538,10.9500636 L18.7533538,10.6200636 L15.0533538,1.5400636 Z" id="路径" fill="url(#linearGradient-1)"></path>
                <path d="M64.8733538,5.7100636 L58.4733538,0.910063597 L58.4733538,0.910063597 C58.3984871,0.837426865 58.2976421,0.797809202 58.1933538,0.799972391 C58.0323002,0.804458286 57.8865273,0.896525348 57.8133538,1.0400636 C57.797265,1.10237516 57.797265,1.16775203 57.8133538,1.2300636 L54.6433538,24.9300636 C54.6433538,25.3939828 55.0194346,25.7700636 55.4833538,25.7700636 L64.5833538,26.6200636 C65.0527959,26.6200636 65.433355,26.2395056 65.433355,25.7700636 L65.433355,6.7700636 C65.4339169,6.34575231 65.2241738,5.94873853 64.8733538,5.7100636 Z" id="路径" fill="#3E75FF"></path>
                <path d="M30.9633538,7.6300636 L53.9633538,10.1501232 C54.1878632,10.1527365 54.4040985,10.0654182 54.5637986,9.90759697 C54.7234986,9.74977578 54.8133697,9.53458893 54.8133538,9.3100636 L55.8733538,0.840063597 C55.8678766,0.374531453 55.4889182,6.3596681e-05 55.0233538,6.3596681e-05 L30.5133538,6.3596681e-05 C30.2687395,0.00550080491 30.0733538,0.205388898 30.0733538,0.450063597 L30.1533538,6.7600636 C30.1570928,7.21615467 30.5086915,7.59379773 30.9633538,7.6300636 L30.9633538,7.6300636 Z" id="路径" fill="#3E75FF"></path>
                <path d="M38.9633538,10.3700636 L30.9633538,9.5200636 C30.4939118,9.5200636 30.1133538,9.90062156 30.1133538,10.3700636 L30.1133538,17.8400636 L22.7433538,0.270063597 C22.670701,0.1035256 22.505024,-0.00298106526 22.3233538,0 L14.2333538,0 C14.0828925,-0.0010571239 13.9418269,0.0730962525 13.8574386,0.197669449 C13.7730504,0.322242645 13.7565071,0.480749855 13.8133538,0.620063597 L28.2433538,35.7100636 C28.3150692,35.8787356 28.4800737,35.9887386 28.6633538,35.9900636 L37.0033538,35.9900636 C37.6833538,35.9900636 37.6033538,35.2200636 37.6433538,35.1200636 C37.6833538,35.0200636 39.8034134,11.2300636 39.8034134,11.2300636 C39.8060216,11.004625 39.719017,10.7873616 39.5614831,10.6260769 C39.4039492,10.4647922 39.1887928,10.3727002 38.9633538,10.3700636 L38.9633538,10.3700636 Z" id="路径" fill="#3E75FF"></path>
                <path d="M65.1733538,28.4000636 C65.120847,28.3632822 65.0573085,28.3456327 64.9933538,28.3500636 L41.0733538,26.4500636 C40.6078217,26.4555408 40.2333216,26.8344992 40.2333538,27.3000636 L39.5933538,35.1300636 C39.598831,35.5955957 39.9777895,35.9700636 40.4433538,35.9700636 L59.4433538,35.9700636 C59.8374289,35.9630899 60.2063176,35.7749567 60.4433538,35.4600636 L65.2433538,29.0600636 L65.2433538,29.0600636 C65.3125379,28.9830193 65.3515966,28.883597 65.3533538,28.7800636 C65.3656422,28.630319 65.297004,28.4854162 65.1733538,28.4000636 L65.1733538,28.4000636 Z" id="路径" fill="#3E75FF"></path>
            </g>
        </g>
    </g>
</svg>