<?xml version="1.0" standalone="no"?><!DOCTYPE svg PUBLIC "-//W3C//DTD SVG 1.1//EN" "http://www.w3.org/Graphics/SVG/1.1/DTD/svg11.dtd"><svg t="1609835193670" class="icon" viewBox="0 0 1024 1024" version="1.1" xmlns="http://www.w3.org/2000/svg" p-id="2264" xmlns:xlink="http://www.w3.org/1999/xlink" width="48" height="48"><defs><style type="text/css"></style></defs><path d="M909.696 1003.2H194.496a31.808 31.808 0 0 1-31.488-32V51.2c0-17.6 14.144-32 31.488-32h545.408l201.216 224v728a31.36 31.36 0 0 1-31.424 32z" fill="#FFFFFF" p-id="2265"></path><path d="M746.24 4.8H194.496A46.08 46.08 0 0 0 148.864 51.2v920c0 25.6 20.48 46.4 45.632 46.4h715.2a46.08 46.08 0 0 0 45.568-46.4V237.568L746.24 4.864z m-7.872 32.832L915.2 234.432h-159.552a17.6 17.6 0 0 1-17.28-17.6v-179.2z m171.328 951.936H194.496a17.6 17.6 0 0 1-17.28-17.536V51.2c0-9.6 7.808-17.6 17.28-17.6h515.584v182.4c0 25.6 20.416 46.4 45.568 46.4h172.16v709.632a18.304 18.304 0 0 1-18.112 17.536z" fill="#C0C0C0" p-id="2266"></path><path d="M575.68 223.168a31.872 31.872 0 0 1 33.792 32v560c0 19.2-15.744 34.432-34.56 32L97.728 800a31.872 31.872 0 0 1-28.288-32V305.6a32 32 0 0 1 29.056-32zM281.792 374.4h-21.568c-33.408 0-60.864 25.408-60.864 57.536v44.288c0 16.832-14.208 25.6-31.552 27.264-6.144 0.64-14.208 7.808-14.208 16.896 0 8.64 8.576 17.024 14.272 17.6 17.408 1.792 31.872 10.176 31.872 26.944v44.352c0 32.064 27.136 61.056 60.48 61.056h18.88c14.464 0 17.6-9.28 17.6-16.96 0-7.68-3.008-17.28-17.6-17.28h-18.88c-15.168 0-24.96-12.16-24.96-26.752v-44.352c0-14.08-7.808-27.072-18.24-37.12a9.984 9.984 0 0 1 0-14.464c10.368-10.112 18.176-23.104 18.176-37.12v-44.352c0-14.912 10.368-23.04 24.96-23.04h21.632c6.848 0 14.72-6.4 14.72-17.28 0-10.432-7.872-17.28-14.72-17.28z m123.52-1.92H386.56c-14.464 0-17.6 9.216-17.6 16.896 0 7.68 3.008 17.28 17.6 17.28h18.88c15.168 0 24.96 12.16 24.96 26.752v44.352c0 14.08 7.808 27.072 18.24 37.12a9.984 9.984 0 0 1 0 14.464c-10.368 10.112-18.176 23.04-18.176 37.12v44.352c0 14.912-10.368 23.04-24.96 23.04h-21.632c-6.848 0-14.72 6.4-14.72 17.28 0 10.432 7.872 17.28 14.72 17.28h21.568c33.408 0 60.864-25.472 60.864-57.6v-44.288c0-16.832 14.208-25.6 31.552-27.264 6.144-0.64 14.208-7.872 14.208-16.896 0-8.64-8.576-17.024-14.272-17.6-17.408-1.792-31.872-10.176-31.872-26.944v-44.352c0-32.064-27.136-61.056-60.48-61.056zM332.544 485.76a17.664 17.664 0 0 0-17.92 17.408v104c0 9.6 8.128 17.408 17.92 17.408 9.856 0 17.92-7.808 17.92-17.408V503.232a17.664 17.664 0 0 0-17.92-17.408z m0-52.224a17.664 17.664 0 0 0-17.92 17.344c0 9.6 8.128 17.408 17.92 17.408 9.856 0 17.92-7.808 17.92-17.408a17.664 17.664 0 0 0-17.92-17.344z" fill="#36B2C0" p-id="2267"></path></svg>