<?xml version="1.0" encoding="UTF-8"?>
<svg width="144px" height="144px" viewBox="0 0 144 144" version="1.1" xmlns="http://www.w3.org/2000/svg" xmlns:xlink="http://www.w3.org/1999/xlink">
    <title>知识图谱为空</title>
    <defs>
        <linearGradient x1="50%" y1="3.85205925%" x2="50%" y2="121.56033%" id="linearGradient-1">
            <stop stop-color="#779EEA" stop-opacity="0.4" offset="0%"></stop>
            <stop stop-color="#FFFFFF" stop-opacity="0" offset="100%"></stop>
        </linearGradient>
    </defs>
    <g id="保留线条" stroke="none" stroke-width="1" fill="none" fill-rule="evenodd">
        <g id="知识图谱为空">
            <rect id="Rectangle-3" x="0" y="0" width="144" height="144"></rect>
            <g id="Group-6" transform="translate(0.000100, 25.119191)">
                <path d="M71.9999005,74.8808098 C106.372514,74.8808098 135.319719,90.8786643 143.9998,110.88058 L0,110.88058 C8.68008123,90.8786643 37.6272862,74.8808098 71.9999005,74.8808098 Z" id="Combined-Shape" fill="url(#linearGradient-1)" fill-rule="nonzero"></path>
                <g id="Group" transform="translate(36.999900, 34.880809)">
                    <path d="M0.460962271,20.0342721 L15.5878842,1.80687959 C16.5378053,0.662259174 17.9480291,0 19.4354786,0 L51.4395208,0 C52.916024,0 54.3170329,0.65258865 55.2670558,1.78286221 L70.531014,19.9428972 C70.8339267,20.3032824 71,20.7589726 71,21.2297523 L71,38.5254664 L71,38.5254664 L0,39 L0,21.3115203 C0,20.8450417 0.163057818,20.3932362 0.460962271,20.0342721 Z" id="Path-2" fill="#FFFFFF" fill-rule="nonzero"></path>
                    <path d="M0.497432218,20.0234655 L16.5939267,1.70010411 C17.5432355,0.619463376 18.9119542,0 20.3503462,0 L51.4395208,0 C52.916024,0 54.3170329,0.65258865 55.2670558,1.78286221 L70.531014,19.9428972 C70.8339267,20.3032824 71,20.7589726 71,21.2297523 L71,38.5254664 L71,38.5254664 L0,39 L0,21.3434239 C0,20.857627 0.176816364,20.388437 0.497432218,20.0234655 Z" id="Path-2" stroke="#779EEA" stroke-width="2"></path>
                    <path d="M0,21 L0,47 C0,50.3137085 2.6862915,53 6,53 L65,53 C68.3137085,53 71,50.3137085 71,47 L71,21 C71,20.4477153 70.5522847,20 70,20 L55.2035967,20 C53.5467425,20 52.2035967,21.3431458 52.2035967,23 L52.2035967,27.3544191 C52.2035967,28.4589886 51.3081662,29.3544191 50.2035967,29.3544191 L23.103271,29.3544191 C21.9987015,29.3544191 21.103271,28.4589886 21.103271,27.3544191 L21.103271,23 C21.103271,21.3431458 19.7601252,20 18.103271,20 L1,20 C0.44771525,20 0,20.4477153 0,21 Z" id="Path" fill="#F8FAFE" fill-rule="nonzero"></path>
                    <path d="M0,21 L0,47 C0,50.3137085 2.6862915,53 6,53 L65,53 C68.3137085,53 71,50.3137085 71,47 L71,21 C71,20.4477153 70.5522847,20 70,20 L56.2035967,20 C53.9944577,20 52.2035967,21.790861 52.2035967,24 L52.2035967,25.3544191 C52.2035967,27.5635581 50.4127357,29.3544191 48.2035967,29.3544191 L25.103271,29.3544191 C22.894132,29.3544191 21.103271,27.5635581 21.103271,25.3544191 L21.103271,24 C21.103271,21.790861 19.31241,20 17.103271,20 L1,20 C0.44771525,20 0,20.4477153 0,21 Z" id="Path" stroke="#779EEA" stroke-width="2"></path>
                </g>
                <g id="Group-2-Copy-2" transform="translate(47.282150, 13.802157) rotate(24.000000) translate(-47.282150, -13.802157) translate(37.968110, 2.840693)" fill-rule="nonzero">
                    <rect id="Rectangle-12" stroke="#779EEA" stroke-width="1.8" fill="#FFFFFF" x="-3.33066907e-16" y="-3.33066907e-16" width="18.6280782" height="21.9229295" rx="3"></rect>
                    <path d="M4.37176211,14.9152863 L14.9152863,14.9152863 C13.7631365,11.9421281 12.7922237,10.4555491 12.002548,10.4555491 C10.8180345,10.4555491 10.415547,12.6854177 9.6435242,12.6854177 C8.87150146,12.6854177 8.21069235,7.66661343 6.84494172,7.66661343 C5.93444131,7.66661343 5.1100481,10.0828377 4.37176211,14.9152863 Z" id="Path-5" fill="#779EEA"></path>
                    <circle id="Oval-2" fill="#779EEA" cx="12.9383755" cy="7.66661343" r="1.31794053"></circle>
                </g>
                <g id="Group-2" transform="translate(88.866342, 21.242302) rotate(-30.000000) translate(-88.866342, -21.242302) translate(75.119242, 5.298137)" fill-rule="nonzero">
                    <path d="M25.3942011,-1.55431223e-15 C25.9741001,-1.55431223e-15 26.4991001,0.23505051 26.8791253,0.61507576 C27.2591506,0.99510102 27.4942011,1.52010102 27.4942011,2.1 L27.4942011,2.1 L27.4942011,29.7883313 C27.4942011,30.3682302 27.2591506,30.8932302 26.8791253,31.2732555 C26.4991001,31.6532808 25.9741001,31.8883313 25.3942011,31.8883313 L25.3942011,31.8883313 L2.1,31.8883313 C1.52010102,31.8883313 0.99510102,31.6532808 0.61507576,31.2732555 C0.23505051,30.8932302 2.22044605e-16,30.3682302 2.22044605e-16,29.7883313 L2.22044605e-16,29.7883313 L2.22044605e-16,2.1 C2.22044605e-16,1.52010102 0.23505051,0.99510102 0.61507576,0.61507576 C0.99510102,0.23505051 1.52010102,-1.55431223e-15 2.1,-1.55431223e-15 L2.1,-1.55431223e-15 L25.3942011,-1.55431223e-15 Z" id="Rectangle-12" stroke="#779EEA" stroke-width="1.8" fill="#FFFFFF"></path>
                    <path d="M6.7592558,9.62103092 L21.2710664,9.62103092 C21.7128942,9.62103092 22.0710664,9.97920312 22.0710664,10.4210309 C22.0710664,10.8628587 21.7128942,11.2210309 21.2710664,11.2210309 L6.7592558,11.2210309 C6.317428,11.2210309 5.9592558,10.8628587 5.9592558,10.4210309 C5.9592558,9.97920312 6.317428,9.62103092 6.7592558,9.62103092 Z" id="Rectangle-13" fill="#779EEA"></path>
                    <path d="M6.7592558,14.0151611 L21.2710664,14.0151611 C21.7128942,14.0151611 22.0710664,14.3733333 22.0710664,14.8151611 C22.0710664,15.2569889 21.7128942,15.6151611 21.2710664,15.6151611 L6.7592558,15.6151611 C6.317428,15.6151611 5.9592558,15.2569889 5.9592558,14.8151611 C5.9592558,14.3733333 6.317428,14.0151611 6.7592558,14.0151611 Z" id="Rectangle-13-Copy" fill="#779EEA"></path>
                    <path d="M6.7592558,18.4092913 L16.8769362,18.4092913 C17.318764,18.4092913 17.6769362,18.7674635 17.6769362,19.2092913 C17.6769362,19.651119 17.318764,20.0092913 16.8769362,20.0092913 L6.7592558,20.0092913 C6.317428,20.0092913 5.9592558,19.651119 5.9592558,19.2092913 C5.9592558,18.7674635 6.317428,18.4092913 6.7592558,18.4092913 Z" id="Rectangle-13-Copy-2" fill="#779EEA"></path>
                    <path d="M19.9416463,18.4092913 L21.2710664,18.4092913 C21.7128942,18.4092913 22.0710664,18.7674635 22.0710664,19.2092913 C22.0710664,19.651119 21.7128942,20.0092913 21.2710664,20.0092913 L19.9416463,20.0092913 C19.4998185,20.0092913 19.1416463,19.651119 19.1416463,19.2092913 C19.1416463,18.7674635 19.4998185,18.4092913 19.9416463,18.4092913 Z" id="Rectangle-13-Copy-3" fill="#779EEA"></path>
                </g>
                <g id="Group-2-Copy-3" transform="translate(68.932144, 39.112291) rotate(12.000000) translate(-68.932144, -39.112291) translate(57.832144, 26.012291)" stroke="#779EEA">
                    <path d="M20.1,-3.33066907e-16 C20.679899,-3.33066907e-16 21.204899,0.23505051 21.5849242,0.61507576 C21.9649495,0.99510101 22.2,1.52010101 22.2,2.1 L22.2,2.1 L22.2,24.1 C22.2,24.679899 21.9649495,25.204899 21.5849242,25.5849242 C21.204899,25.9649495 20.679899,26.2 20.1,26.2 L20.1,26.2 L2.1,26.2 C1.52010101,26.2 0.99510101,25.9649495 0.61507576,25.5849242 C0.23505051,25.204899 -3.33066907e-16,24.679899 -3.33066907e-16,24.1 L-3.33066907e-16,24.1 L-3.33066907e-16,2.1 C-3.33066907e-16,1.52010101 0.23505051,0.99510101 0.61507576,0.61507576 C0.99510101,0.23505051 1.52010101,-3.33066907e-16 2.1,-3.33066907e-16 L2.1,-3.33066907e-16 L20.1,-3.33066907e-16 Z" id="Rectangle-12" stroke-width="1.8" fill="#FFFFFF" fill-rule="nonzero"></path>
                    <g id="Group-4" transform="translate(5.818268, 5.470419)">
                        <rect id="Rectangle-12" stroke-width="1.4" fill="#FFFFFF" fill-rule="nonzero" x="0.194579451" y="0.542427805" width="10.6" height="13.6" rx="1"></rect>
                        <line x1="0.064090385" y1="3.93930488" x2="10.572434" y2="3.93930488" id="Path-7" stroke-width="1.2"></line>
                        <line x1="-1.11022302e-16" y1="7.41951602" x2="10.5083437" y2="7.41951602" id="Path-7-Copy" stroke-width="1.2"></line>
                        <line x1="0.064090385" y1="10.8724815" x2="10.572434" y2="10.8724815" id="Path-7-Copy-2" stroke-width="1.2"></line>
                        <line x1="3.62353372" y1="-1.94289029e-16" x2="3.62353372" y2="14.0239254" id="Path-7-Copy-3" stroke-width="1.2"></line>
                    </g>
                </g>
            </g>
        </g>
    </g>
</svg>