<?xml version="1.0" encoding="UTF-8"?>
<svg width="14px" height="18px" viewBox="0 0 14 18" version="1.1" xmlns="http://www.w3.org/2000/svg" xmlns:xlink="http://www.w3.org/1999/xlink">
    <title>标签 (1)</title>
    <g id="页面-1" stroke="none" stroke-width="1" fill="none" fill-rule="evenodd">
        <g id="-标注文件_汇总信息（文件过大）" transform="translate(-1480.000000, -339.000000)" fill="#54639C" fill-rule="nonzero">
            <g id="编组-4" transform="translate(1440.000000, 132.000000)">
                <g id="1" transform="translate(20.000000, 193.000000)">
                    <g id="标签-(1)" transform="translate(20.000000, 14.000000)">
                        <path d="M13.3478711,17.0169152 C13.228531,17.0169152 13.109191,16.9801952 13.008211,16.9113452 L6.88055889,12.6472337 L0.941096887,16.7828251 C0.757496825,16.9113452 0.523406746,16.9251152 0.326036679,16.8241351 C0.128666612,16.7185651 0.00473657025,16.516605 0.00473657025,16.296285 L0.00473657025,2.36104025 C0.00473657025,1.07124982 1.05584693,0.0201394628 2.34563736,0.0201394628 L11.6036705,0.0201394628 C12.8934609,0.0201394628 13.9445713,1.07124982 13.9445713,2.36104025 L13.9445713,16.420215 C13.9445713,16.6451251 13.8206412,16.8470851 13.6232712,16.9480652 C13.5360611,16.9939652 13.4396711,17.0169152 13.3478711,17.0169152 L13.3478711,17.0169152 Z M6.88055889,11.6282534 C7.07333896,11.6282534 7.26611902,11.6833334 7.43135908,11.7980834 L12.9347709,15.6261447 L12.9347709,2.36104025 C12.9347709,1.62664001 12.3380707,1.0299398 11.6036705,1.0299398 L2.34563736,1.0299398 C1.61123711,1.0299398 1.01453691,1.62664001 1.01453691,2.36104025 L1.01453691,15.5022147 L6.32975871,11.7980834 C6.49499876,11.6833334 6.68777883,11.6282534 6.88055889,11.6282534 Z" id="形状"></path>
                        <path d="M3.70721591,5.49055269 C3.70721591,6.35960241 4.41171991,7.0641064 5.28076963,7.0641064 C6.14981935,7.0641064 6.85432335,6.35960241 6.85432335,5.49055269 C6.85432335,4.62150296 6.14981935,3.91699897 5.28076963,3.91699897 C4.41171991,3.91699897 3.70721591,4.62150296 3.70721591,5.49055269 L3.70721591,5.49055269 Z" id="路径" fill-opacity="0.5"></path>
                    </g>
                </g>
            </g>
        </g>
    </g>
</svg>