<?xml version="1.0" encoding="UTF-8"?>
<svg width="237px" height="44px" viewBox="0 0 237 44" version="1.1" xmlns="http://www.w3.org/2000/svg" xmlns:xlink="http://www.w3.org/1999/xlink">
    <title>深色横版anydata</title>
    <defs>
        <linearGradient x1="40.925764%" y1="93.4068786%" x2="58.3443062%" y2="31.3679816%" id="linearGradient-1">
            <stop stop-color="#FFAA00" offset="0%"></stop>
            <stop stop-color="#FFA700" offset="41%"></stop>
            <stop stop-color="#FF9C00" offset="75%"></stop>
            <stop stop-color="#FF9500" offset="90%"></stop>
        </linearGradient>
    </defs>
    <g id="页面-1" stroke="none" stroke-width="1" fill="none" fill-rule="evenodd">
        <g id="子品牌logo" transform="translate(-1220.000000, -958.000000)" fill-rule="nonzero">
            <g id="深色横版anydata" transform="translate(1220.126646, 958.069936)">
                <g id="编组-12" transform="translate(75.713354, 5.070064)" fill="#FFFFFF">
                    <path d="M11.64,0 C11.57,0.17 1.9,24.33 0,29.1 L5.82,29.1 L14.55,7.27 L19.35,19.27 C17.8312335,18.798973 16.2501314,18.5596164 14.66,18.56 C13.0240208,18.5566953 11.3976275,18.8097648 9.84,19.31 C11.9819728,19.7285875 14.020679,20.564457 15.84,21.77 C18.7246743,23.4543999 21.1979037,25.7602423 23.08,28.52 L23.32,29.1 L29.14,29.1 C27.14,24.04 17.76,0.66 17.5,0 L11.64,0 Z" id="路径"></path>
                    <path d="M42.92,9.48 C40.3437608,9.38761009 37.9361879,10.7578365 36.7,13.02 L36.64,13.02 L36.64,9.94 L31.56,9.94 L31.56,29.1 L36.64,29.1 L36.64,18.18 C36.5921586,16.9471717 36.9937214,15.7389295 37.77,14.78 C38.4717397,13.9016114 39.5462617,13.4051081 40.67,13.44 C43.05,13.44 44.23,15.08 44.23,18.36 L44.23,29.1 L49.3,29.1 L49.3,17.38 C49.3,12.1133333 47.1733333,9.48 42.92,9.48 Z" id="路径"></path>
                    <path d="M62.43,22.43 C62.191417,23.1484047 62.0075584,23.8838391 61.88,24.63 L61.81,24.63 C61.6,23.54 61.44,22.79 61.32,22.39 L57.32,9.83 L51.68,9.83 L59.38,28.95 L58.21,31.69 C57.7588019,33.1025952 56.4325912,34.0504698 54.95,34.02 C54.1238319,34.0287302 53.3087688,33.8292633 52.58,33.44 L52.58,37.58 C53.577599,37.8838137 54.6174788,38.0256155 55.66,38 C59.1733333,38 61.84,35.6666667 63.66,31 L71.74,9.85 L66.67,9.85 L62.43,22.43 Z" id="路径"></path>
                    <path d="M82.42,1.95 L74.99,1.95 L74.99,29.05 L82.71,29.05 C90.71,29.05 95.83,24.51 95.83,15.39 C95.83,6.27 90.7,1.95 82.42,1.95 Z M82.09,24.69 L80.41,24.69 L80.41,6.27 L82.09,6.27 C87.15,6.27 90.3,8.76 90.3,15.39 C90.3,22.02 87.16,24.69 82.09,24.69 Z" id="形状"></path>
                    <polygon id="路径" points="138.8 2.22 118.55 2.22 118.55 6.63 125.99 6.63 125.99 28.7 131.29 28.7 131.29 6.63 138.8 6.63"></polygon>
                    <path d="M110.41,2.23 L105.16,2.23 L96.61,28.7 L101.88,28.7 L104.09,21.86 L112.35,21.86 L114.56,28.7 L119.83,28.7 L111.28,2.23 L110.41,2.23 Z M105.41,17.79 L108.23,9.07 L111.05,17.79 L105.41,17.79 Z" id="形状"></path>
                    <path d="M155.46,28.7 L160.73,28.7 L152.18,2.23 L146.06,2.23 L137.51,28.7 L142.78,28.7 L144.99,21.86 L153.25,21.86 L155.46,28.7 Z M146.3,17.79 L149.12,9.07 L151.93,17.79 L146.3,17.79 Z" id="形状"></path>
                </g>
                <g id="编组-11">
                    <path d="M15.0533538,1.5400636 L14.2233538,1.5400636 L0.0333538198,35.3500636 C-0.0234928747,35.4893773 -0.00694964535,35.6478845 0.0774386488,35.7724577 C0.161826943,35.8970309 0.302892498,35.9711843 0.45335382,35.9700761 L8.34335382,35.9700761 C8.52663393,35.9687386 8.69163843,35.8587356 8.76335382,35.6900636 L18.9133538,11.2700636 C18.9535164,11.1671775 18.9535164,11.0529497 18.9133538,10.9500636 L18.7933538,10.6200636 L15.0533538,1.5400636 Z" id="路径" fill="url(#linearGradient-1)"></path>
                    <path d="M64.8733538,5.7100636 L58.4733538,0.910063597 L58.4733538,0.910063597 C58.3984871,0.837426865 58.2976421,0.797809202 58.1933538,0.799972391 C58.0323002,0.804458286 57.8865273,0.896525348 57.8133538,1.0400636 C57.797265,1.10237516 57.797265,1.16775203 57.8133538,1.2300636 L54.6433538,24.9300636 C54.6433538,25.3939828 55.0194346,25.7700636 55.4833538,25.7700636 L64.5833538,26.6200636 C65.0527959,26.6200636 65.433355,26.2395056 65.433355,25.7700636 L65.433355,6.7700636 C65.4339169,6.34575231 65.2241738,5.94873853 64.8733538,5.7100636 Z" id="路径" fill="#3E75FF"></path>
                    <path d="M30.9633538,7.6300636 L53.9633538,10.1501232 C54.1878632,10.1527365 54.4040985,10.0654182 54.5637986,9.90759697 C54.7234986,9.74977578 54.8133697,9.53458893 54.8133538,9.3100636 L55.8733538,0.840063597 C55.8678766,0.374531453 55.4889182,6.35966815e-05 55.0233538,6.35966815e-05 L30.5133538,6.35966815e-05 C30.2687395,0.00550080491 30.0733538,0.205388898 30.0733538,0.450063597 L30.1533538,6.7600636 C30.1570928,7.21615467 30.5086915,7.59379773 30.9633538,7.6300636 L30.9633538,7.6300636 Z" id="路径" fill="#3E75FF"></path>
                    <path d="M38.9633538,10.3700636 L30.9633538,9.5200636 C30.4939118,9.5200636 30.1133538,9.90062156 30.1133538,10.3700636 L30.1133538,17.8400636 L22.7433538,0.270063597 C22.670701,0.1035256 22.505024,-0.00298106526 22.3233538,0 L14.2333538,0 C14.0828925,-0.0010571239 13.9418269,0.0730962525 13.8574386,0.197669449 C13.7730504,0.322242645 13.7565071,0.480749855 13.8133538,0.620063597 L28.2833538,35.6900636 C28.3550692,35.8587356 28.5200737,35.9687386 28.7033538,35.9700636 L37.0433538,35.9700636 C37.7233538,35.9700636 37.6433538,35.2000636 37.6833538,35.1000636 C37.7233538,35.0000636 39.8433538,11.2100636 39.8433538,11.2100636 C39.8408028,10.9810741 39.745962,10.7628014 39.5803109,10.6046799 C39.4146599,10.4465585 39.1922143,10.3619669 38.9633538,10.3700636 L38.9633538,10.3700636 Z" id="路径" fill="#3E75FF"></path>
                    <path d="M65.1733538,28.4000636 C65.1149892,28.3802522 65.0517184,28.3802522 64.9933538,28.4000636 L41.0733538,26.5000636 C40.6078217,26.5055408 40.2333216,26.8844992 40.2333538,27.3500636 L39.5933538,35.1800636 C39.598831,35.6455957 39.9777895,36.0200636 40.4433538,36.0200636 L59.4433538,36.0200636 C59.8374289,36.0130899 60.2063176,35.8249567 60.4433538,35.5100636 L65.2433538,29.1100636 L65.2433538,29.1100636 C65.3125379,29.0330193 65.3515966,28.933597 65.3533538,28.8300636 C65.3857019,28.6635316 65.3146895,28.4938907 65.1733538,28.4000636 L65.1733538,28.4000636 Z" id="路径" fill="#3E75FF"></path>
                </g>
            </g>
        </g>
    </g>
</svg>