<?xml version="1.0" encoding="UTF-8"?>
<svg width="131px" height="110px" viewBox="0 0 131 110" version="1.1" xmlns="http://www.w3.org/2000/svg" xmlns:xlink="http://www.w3.org/1999/xlink">
    <!-- Generator: Sketch 64 (93537) - https://sketch.com -->
    <title>画板</title>
    <desc>Created with Sketch.</desc>
    <defs>
        <linearGradient x1="34.7609929%" y1="-11.1698163%" x2="86.7350746%" y2="177.652434%" id="linearGradient-1">
            <stop stop-color="#757CFF" offset="0%"></stop>
            <stop stop-color="#7278F8" offset="13.91%"></stop>
            <stop stop-color="#696CE6" offset="33.59%"></stop>
            <stop stop-color="#5B59C7" offset="56.71%"></stop>
            <stop stop-color="#483F9E" offset="82.23%"></stop>
            <stop stop-color="#382A7C" offset="100%"></stop>
        </linearGradient>
        <linearGradient x1="79.6968642%" y1="98.5887528%" x2="25.2745293%" y2="2.69158305%" id="linearGradient-2">
            <stop stop-color="#D691A9" offset="0%"></stop>
            <stop stop-color="#ED6E84" offset="36.4%"></stop>
            <stop stop-color="#D21949" offset="100%"></stop>
        </linearGradient>
        <linearGradient x1="65.3115466%" y1="-11.1692556%" x2="13.3374649%" y2="177.652994%" id="linearGradient-3">
            <stop stop-color="#757CFF" offset="0%"></stop>
            <stop stop-color="#7278F8" offset="13.91%"></stop>
            <stop stop-color="#696CE6" offset="33.59%"></stop>
            <stop stop-color="#5B59C7" offset="56.71%"></stop>
            <stop stop-color="#483F9E" offset="82.23%"></stop>
            <stop stop-color="#382A7C" offset="100%"></stop>
        </linearGradient>
        <linearGradient x1="100.002075%" y1="49.9999165%" x2="0.00104628029%" y2="49.9999165%" id="linearGradient-4">
            <stop stop-color="#CBC7E3" offset="39.64%"></stop>
            <stop stop-color="#CCC1DD" offset="49.99%"></stop>
            <stop stop-color="#D0B1CB" offset="64.21%"></stop>
            <stop stop-color="#D596AE" offset="80.61%"></stop>
            <stop stop-color="#D691A9" offset="83.15%"></stop>
            <stop stop-color="#DF6076" offset="100%"></stop>
        </linearGradient>
        <linearGradient x1="20.2613315%" y1="1.38886748%" x2="74.7644546%" y2="97.3324324%" id="linearGradient-5">
            <stop stop-color="#BB1042" offset="0%"></stop>
            <stop stop-color="#C71042" offset="35.32%"></stop>
            <stop stop-color="#D81E4D" offset="54.41%"></stop>
            <stop stop-color="#E72A57" offset="79.97%"></stop>
            <stop stop-color="#ED2F5B" offset="100%"></stop>
        </linearGradient>
        <linearGradient x1="86.580433%" y1="14.9770685%" x2="10.9597928%" y2="92.1767996%" id="linearGradient-6">
            <stop stop-color="#ED6181" offset="0%"></stop>
            <stop stop-color="#C71042" offset="100%"></stop>
        </linearGradient>
        <linearGradient x1="95.8527789%" y1="74.824484%" x2="2.78188498%" y2="20.2215286%" id="linearGradient-7">
            <stop stop-color="#ED2F5B" offset="0%"></stop>
            <stop stop-color="#C71042" offset="100%"></stop>
        </linearGradient>
        <linearGradient x1="25.2351071%" y1="97.3324324%" x2="79.7382302%" y2="1.38886748%" id="linearGradient-8">
            <stop stop-color="#CBC7E3" offset="0%"></stop>
            <stop stop-color="#B4B9EB" offset="49.39%"></stop>
            <stop stop-color="#97A7EA" offset="74.44%"></stop>
            <stop stop-color="#97A7F4" offset="100%"></stop>
        </linearGradient>
        <linearGradient x1="24.4130566%" y1="2.55155788%" x2="80.9900768%" y2="98.9486754%" id="linearGradient-9">
            <stop stop-color="#97A7F4" offset="2.075353e-05%"></stop>
            <stop stop-color="#9F9FE7" offset="12.1%"></stop>
            <stop stop-color="#B38CC4" offset="34.6%"></stop>
            <stop stop-color="#B689BF" offset="37.3%"></stop>
            <stop stop-color="#D16E8F" offset="58.91%"></stop>
            <stop stop-color="#DF6076" offset="69.26%"></stop>
            <stop stop-color="#ED4D81" offset="96.2%"></stop>
        </linearGradient>
        <linearGradient x1="20.2066536%" y1="98.5966188%" x2="74.6900761%" y2="2.74587304%" id="linearGradient-10">
            <stop stop-color="#C71042" offset="0%"></stop>
            <stop stop-color="#ED2F5B" offset="100%"></stop>
        </linearGradient>
    </defs>
    <g id="画板" stroke="none" stroke-width="1" fill="none" fill-rule="evenodd">
        <g id="首页_logo">
            <g id="logo">
                <g id="编组" transform="translate(15.500000, 0.000000)" fill-rule="nonzero">
                    <path d="M57.4219933,29.4337889 L49.2644597,21.3852056 C51.350104,21.3927444 53.4334228,22.1803944 55.0247315,23.75045 C56.6160403,25.3205056 57.4143523,27.3756722 57.4219933,29.4337889 Z" id="路径" fill="url(#linearGradient-1)"></path>
                    <path d="M34.6440201,45.1343444 C32.8779664,43.3918778 30.505953,42.6166833 28.1970604,42.7989278 C25.1280604,42.7058389 22.6999027,40.8620889 20.3574564,38.5509278 L20.2521443,38.4460389 C17.7754832,35.9916389 16.4811745,32.7118944 16.6602383,29.4996722 C16.6525973,31.5574611 15.8546174,33.6129556 14.2633087,35.1830111 C12.672,36.7530667 10.5886812,37.5403889 8.5027047,37.5479278 C11.7899698,37.3696167 14.4945302,39.3123556 17.0057416,41.7897 L17.0363054,41.8201833 C17.0376342,41.8211667 17.0389631,41.8224778 17.0402919,41.8237889 C19.3528389,44.10545 20.5644262,47.0816722 20.7019631,50.0710056 C20.4763893,52.3893778 21.263406,54.7857611 23.0626812,56.5610056 C24.669604,58.1464667 26.7778389,58.9337889 28.8837483,58.9263036 C30.9693926,58.9183833 33.0527114,58.1310611 34.6440201,56.5610056 C36.2353289,54.99095 37.0333087,52.9354556 37.0413362,50.8776667 C37.0489228,48.8002111 36.250943,46.7198056 34.6440201,45.1343444 Z" id="路径" fill="url(#linearGradient-2)"></path>
                    <path d="M41.0451342,29.4337889 L49.2026678,21.3852056 C47.1170235,21.3927444 45.0337047,22.1803944 43.442396,23.75045 C41.850755,25.3205056 41.0527752,27.3756722 41.0451342,29.4337889 Z" id="路径" fill="url(#linearGradient-3)"></path>
                    <path d="M55.0237349,23.7370111 C51.8255034,20.5814944 46.6402953,20.5814944 43.4420638,23.7370111 C42.0666946,25.0940111 41.2886477,26.8141889 41.0966275,28.5845167 C41.0936376,28.6127056 41.0873255,28.6402389 41.0846678,28.6684278 C41.0693859,28.8251056 41.066396,28.9827667 41.0604161,29.1401 C41.0564295,29.2381056 41.0454664,29.3357833 41.0451342,29.4337889 C41.0451342,29.4413278 41.0461309,29.4491944 41.0461309,29.4567333 C41.0461309,29.4646 41.0451342,29.4724667 41.0451342,29.4806611 C41.0451342,29.4813167 41.0451342,29.4819722 41.0451342,29.4823 C41.2248624,32.7246778 39.8930134,36.0204833 37.3821342,38.4978278 L37.3512383,38.5279833 C37.3502416,38.5292944 37.3489128,38.5306056 37.3475839,38.5319167 C34.8363725,41.0095889 32.1314799,42.952 28.844547,42.7736889 C30.9301913,42.7812278 33.0135101,43.5688778 34.6048188,45.1389333 C36.1961275,46.7089889 36.9941074,48.7644833 37.0020805,50.8222722 C36.8210235,47.5789111 38.1538691,44.28245 40.6647483,41.8047778 L40.771057,41.7008722 C43.1543658,39.3595556 45.6695638,37.5184278 48.7927148,37.5230167 C51.0328389,37.6413444 53.3121644,36.8654944 55.0230705,35.1771111 C56.6240134,33.59755 57.4229899,31.5273056 57.4213339,29.4570611 C57.4236544,27.3871444 56.6243456,25.3165722 55.0237349,23.7370111 Z" id="路径" fill="url(#linearGradient-4)"></path>
                    <path d="M40.6996309,17.1434333 L40.6690671,17.11295 C40.6677383,17.1119667 40.6664094,17.1106556 40.6650805,17.1093444 C38.1761275,14.6536333 36.858896,11.3929 37.0010839,8.1774 C37.0269966,6.07667222 36.2316745,3.96807778 34.6071443,2.36524444 C33.0002215,0.779783333 30.8919866,-0.00753888889 28.7860772,-5.36267982e-05 C26.7004329,0.00786666667 24.6171141,0.795188889 23.0258054,2.36524444 C21.4344966,3.9353 20.6365168,5.99079444 20.6284893,8.04858333 C20.6209027,10.1263667 21.4188826,12.2067722 23.0258054,13.7919056 C24.7626242,15.5055278 27.0854698,16.2807222 29.3578188,16.1328944 C32.4769832,16.1686222 34.9672651,18.03335 37.3479161,20.3822056 L37.4532282,20.4870944 C39.9298893,22.9414944 41.224198,26.2212389 41.0451342,29.4334611 C41.0527752,27.3756722 41.850755,25.3201778 43.4420638,23.7501222 C45.0333725,22.1800667 47.1166913,21.3927444 49.2023356,21.3848778 C45.9154027,21.5635167 43.2105101,19.6207778 40.6996309,17.1434333 Z" id="路径" fill="url(#linearGradient-5)"></path>
                    <path d="M83.4908859,29.8979222 C83.1075101,29.3882278 83.226443,29.2817 83.226443,29.2626889 C83.6520101,29.0270167 82.7311107,29.0175111 82.7321074,29.0358667 L82.5553691,28.6467944 C82.5337752,29.5222889 82.5155034,29.8336778 82.483943,30.1860389 C82.4125168,33.1442333 81.1288389,36.2758222 78.8910403,38.4630833 L78.7850638,38.5673167 C76.4270034,40.8624167 73.349698,42.6858444 70.2800336,42.7582833 C67.9724698,42.5606333 65.5951409,43.3197667 63.8171275,45.0504333 C62.1995738,46.6250778 61.3869765,48.6999111 61.3802944,50.7776944 C61.3740201,52.8354833 62.1577148,54.8962222 63.7380604,56.4767667 C65.318406,58.0576389 67.3960772,58.8590556 69.4817215,58.8806889 C71.5876309,58.9023222 73.7015134,58.1290944 75.3190671,56.55445 C77.1306342,54.7913333 77.9339295,52.4005222 77.7246342,50.0801833 C77.8824362,47.0921611 79.114953,44.1280667 81.4431141,41.8621389 C81.444443,41.8608278 81.4457718,41.8598444 81.4471007,41.8585333 L81.4779966,41.82805 C84.006151,39.36775 87.3150101,37.3473278 90.6006141,37.5476 C88.5149698,37.5266222 83.4908859,29.8979222 83.4908859,29.8979222 Z" id="路径" fill="url(#linearGradient-6)"></path>
                    <path d="M43.4433926,23.7370111 C46.6416242,20.5814944 51.8268322,20.5814944 55.0250638,23.7370111 C56.4004329,25.0940111 57.1784799,26.8141889 57.3705,28.5845167 C57.3734899,28.6127056 57.379802,28.6402389 57.3824597,28.6684278 C57.3977416,28.8251056 57.4007315,28.9827667 57.4067114,29.1401 C57.410698,29.2381056 57.4216611,29.3357833 57.4219933,29.4337889 C57.4219933,29.4413278 57.4209966,29.4491944 57.4209966,29.4567333 C57.4209966,29.4646 57.4219933,29.4724667 57.4219933,29.4806611 C57.4219933,29.4813167 57.4219933,29.4819722 57.4219933,29.4823 C57.2422651,32.7246778 58.5741141,36.0204833 61.0849933,38.4978278 L61.1158893,38.5279833 C61.1168859,38.5292944 61.1182148,38.5306056 61.1195436,38.5319167 C63.630755,41.0095889 66.3336544,42.9048 69.6205872,42.7264889 C67.534943,42.7340278 65.4536174,43.5688778 63.8623087,45.1389333 C62.271,46.7089889 61.3876409,48.7421944 61.3796678,50.7999833 C61.5603926,47.5566222 60.3132584,44.28245 57.8023792,41.8047778 L57.6960705,41.7008722 C55.3127617,39.3595556 52.7975638,37.5184278 49.6744128,37.5230167 C47.4342886,37.6413444 45.1549631,36.8654944 43.444057,35.1771111 C41.8431141,33.59755 41.0441376,31.5273056 41.0457921,29.4570611 C41.0431409,27.3871444 41.8424497,25.3165722 43.4433926,23.7370111 Z" id="路径" fill="url(#linearGradient-7)"></path>
                    <path d="M57.7674966,17.1434333 L57.7980604,17.11295 C57.7993893,17.1119667 57.8007181,17.1106556 57.802047,17.1093444 C60.291,14.6536333 61.6082315,11.3929 61.4660436,8.1774 C61.4401309,6.07667222 62.235453,3.96807778 63.8599832,2.36524444 C65.466906,0.779783333 67.5751409,-0.00753888889 69.6810503,-5.36267982e-05 C71.7666946,0.00786666667 73.8500134,0.795188889 75.4413221,2.36524444 C77.0326309,3.9353 77.8306107,5.99079444 77.8386382,8.04858333 C77.8462248,10.1263667 77.048245,12.2067722 75.4413221,13.7919056 C73.7045034,15.5055278 71.3816577,16.2807222 69.1093087,16.1328944 C65.9901443,16.1686222 63.4998624,18.03335 61.1192114,20.3822056 L61.0138993,20.4870944 C58.5372383,22.9414944 57.2429295,26.2212389 57.4219933,29.4334611 C57.4143523,27.3756722 56.6163725,25.3201778 55.0250638,23.7501222 C53.433755,22.1800667 51.3504362,21.3927444 49.2647919,21.3848778 C52.5513926,21.5635167 55.2562852,19.6207778 57.7674966,17.1434333 Z" id="路径" fill="url(#linearGradient-8)"></path>
                    <path d="M75.3426544,13.8341889 C76.9193456,12.2497111 77.8389161,10.2201111 77.8276208,8.16232222 C77.6767953,11.4069944 78.886057,14.7296778 81.4201913,17.1844056 L81.5274966,17.2873278 C83.9317349,19.6066833 87.0987383,21.4192944 90.2212248,21.3875 C92.4610168,21.2485222 94.7486477,22.0037222 96.4758322,23.6770278 C98.0910604,25.2418389 98.9093054,27.3055278 98.9269128,29.3754444 C98.9478423,31.4453611 98.167802,33.5231444 96.5814765,35.1168 C93.4124799,38.3008333 88.227604,38.3473778 85.0004698,35.2210333 C83.6138054,33.8774722 82.8201443,32.1661444 82.610849,30.3990944 C82.6071946,30.3692667 82.6005503,30.3404222 82.5972282,30.3105944 C82.5806174,30.1555556 82.5762987,29.9998611 82.5686577,29.8441667 C82.5636745,29.74485 82.5517148,29.6458611 82.5503859,29.5462167 C82.5503859,29.53835 82.5513826,29.5308111 82.5513826,29.5229444 C82.5513826,29.5150778 82.5500537,29.5072111 82.5500537,29.4996722 C82.5500537,29.4990167 82.5500537,29.4983611 82.5500537,29.4977056 C82.6998826,26.2536889 81.3374698,22.9759111 78.8043322,20.5211833 L78.773104,20.4913556 C78.7717752,20.4900444 78.7707785,20.4887333 78.7694497,20.4874222 C76.2356477,18.0323667 72.7513792,15.9414722 69.4661074,16.1492833 C71.5520839,16.1224056 73.7659631,15.4183389 75.3426544,13.8341889 Z" id="路径" fill="url(#linearGradient-9)"></path>
                    <path d="M23.1002215,13.7948556 C21.5089128,12.2248 20.6391745,10.2014278 20.6312013,8.14363889 C20.8119262,11.387 19.5511711,14.6510111 17.0402919,17.1286833 L16.9339832,17.2325889 C14.5513389,19.57325 12.0374698,21.4143778 8.91498322,21.4104444 C6.67419463,21.2914611 4.39354027,22.0673111 2.68163758,23.7560222 C1.08069463,25.3355833 0.281718121,27.4061556 0.28337661,29.4760722 C0.281718121,31.5459889 1.08069463,33.6168889 2.68163758,35.1961222 C5.87986913,38.3516389 11.0650772,38.3513111 14.2629765,35.1961222 C15.637349,33.8401056 16.4150638,32.1215667 16.6077483,30.3528778 C16.6110705,30.32305 16.6173826,30.2938778 16.6203725,30.2643778 C16.6356544,30.1090111 16.6386443,29.9533167 16.6446242,29.7976222 C16.6486107,29.6983056 16.659906,29.5989889 16.6602383,29.4993444 C16.6602383,29.4914778 16.6592416,29.4839389 16.6592416,29.4760722 C16.6592416,29.4682056 16.6602383,29.4603389 16.6602383,29.4528 C16.6602383,29.4521444 16.6602383,29.4514889 16.6602383,29.4508333 C16.4805101,26.2084556 17.8123591,22.91265 20.322906,20.4353056 L20.353802,20.40515 C20.3551309,20.4038389 20.3561275,20.4025278 20.3574564,20.4012167 C22.8686678,17.9235444 25.5732282,15.9811333 28.8604933,16.1594444 C26.774849,16.1522333 24.6915302,15.3645833 23.1002215,13.7948556 Z" id="路径" fill="url(#linearGradient-10)"></path>
                </g>
                <g id="编组" transform="translate(0.500000, 79.000000)" fill="#FFFFFF" fill-rule="nonzero">
                    <g id="路径">
                        <path d="M14.3005739,0.200333333 L9.63609719,0.200333333 C9.58275291,0.334333333 1.83524197,19.821 0.307143764,23.6636667 L4.97162048,23.6636667 C4.97162048,23.6636667 10.9176852,8.70933333 11.9683355,6.066 C12.4968084,7.39533333 14.2137652,11.714 15.8144249,15.7396667 C14.603079,15.3573333 13.3430275,15.163 12.0551442,15.163 C10.7344592,15.163 9.44028061,15.3666667 8.19679566,15.7706667 C9.28124177,15.8836667 10.9736801,16.5476667 12.9716056,17.751 C14.7104302,18.7983333 17.2742689,20.757 18.7778486,23.192 C18.8981218,23.495 18.9650506,23.663 18.9650506,23.663 L23.6295273,23.663 C22.0066685,19.583 14.5132884,0.735666667 14.3005739,0.200333333 Z"></path>
                        <path d="M39.8203441,23.664 L35.7575644,23.664 L35.7575644,15.0046667 C35.7575644,12.3583333 34.8076386,11.0346667 32.9077871,11.0346667 C31.9525601,11.0346667 31.1762517,11.3953333 30.5768741,12.1153333 C29.9774964,12.836 29.6779733,13.75 29.6779733,14.8576667 L29.6779733,23.664 L25.6009463,23.664 L25.6009463,8.212 L29.6779733,8.212 L29.6779733,10.697 L29.7220403,10.697 C30.8518787,8.79533333 32.513172,7.84466667 34.7052574,7.84466667 C38.1149839,7.84466667 39.8200128,9.96666667 39.8200128,14.2103333 L39.8200128,23.664 L39.8203441,23.664 Z"></path>
                        <path d="M57.736401,8.124 L51.2625262,25.1783333 C49.8305139,28.952 47.7063514,30.8386667 44.8910325,30.8386667 C43.9165883,30.8386667 43.0935623,30.726 42.4212919,30.5006667 L42.4212919,27.1633333 C43.0057596,27.477 43.638933,27.634 44.3211434,27.634 C45.5387845,27.634 46.4108475,27.007 46.937001,25.7523333 L47.8723482,23.5466667 L41.7052857,8.12433333 L46.2209949,8.12433333 L49.4504774,18.2543333 C49.5478887,18.5773333 49.679427,19.1803333 49.8450925,20.0623333 L49.9037381,20.0623333 C49.9816008,19.553 50.1277178,18.9596667 50.3420889,18.2833333 L53.6739526,8.12433333 L57.736401,8.12433333 L57.736401,8.124 Z"></path>
                    </g>
                    <path d="M60.4072596,1.76966667 L66.3652522,1.76966667 C72.9981659,1.76966667 77.1070007,5.22466667 77.1070007,12.606 C77.1070007,19.959 72.9981659,23.62 66.5995032,23.62 L60.4072596,23.62 L60.4072596,1.76966667 L60.4072596,1.76966667 Z M66.1015128,20.106 C70.151702,20.106 72.6754496,17.9213333 72.6754496,12.606 C72.6754496,7.26133333 70.151702,5.25433333 66.1015128,5.25433333 L64.7506766,5.25433333 L64.7506766,20.106 L66.1015128,20.106 Z" id="形状"></path>
                    <polygon id="路径" points="101.281567 5.54433333 95.3176108 5.54433333 95.3176108 1.99633333 111.547856 1.99633333 111.547856 5.54433333 105.526248 5.54433333 105.526248 23.345 101.281567 23.345 101.281567 5.54433333"></polygon>
                    <g transform="translate(77.531436, 1.666667)">
                        <rect id="矩形" x="5.44939966" y="12.879" width="9.96742811" height="3.28333333"></rect>
                        <polygon id="路径" points="11.2635947 0.329333333 7.03912543 0.329333333 0.186539309 21.678 4.41100856 21.678"></polygon>
                        <polyline id="路径" points="14.5735906 21.678 7.72100446 0.329333333 11.9454737 0.329333333 18.7983912 21.678"></polyline>
                    </g>
                    <g transform="translate(110.333197, 1.666667)">
                        <rect id="矩形" x="5.43979107" y="12.879" width="9.96742811" height="3.28333333"></rect>
                        <polygon id="路径" points="11.2543174 0.329333333 7.02951683 0.329333333 0.176930712 21.678 4.40139996 21.678"></polygon>
                        <polyline id="路径" points="14.563982 21.678 7.71139586 0.329333333 11.9358651 0.329333333 18.7887826 21.678"></polyline>
                    </g>
                </g>
            </g>
        </g>
    </g>
</svg>