<?xml version="1.0" encoding="UTF-8"?>
<svg width="18px" height="19px" viewBox="0 0 18 19" version="1.1" xmlns="http://www.w3.org/2000/svg" xmlns:xlink="http://www.w3.org/1999/xlink">
    <!-- Generator: Sketch 64 (93537) - https://sketch.com -->
    <title>形状</title>
    <desc>Created with Sketch.</desc>
    <g id="控件" stroke="none" stroke-width="1" fill="none" fill-rule="evenodd">
        <g id="Navigation1" transform="translate(-18.000000, -427.000000)" fill="#FFFFFF" fill-rule="nonzero">
            <g id="Navigation">
                <g id="Navigation/一级导航项/3">
                    <g transform="translate(0.000000, 412.000000)">
                        <g id="管理" transform="translate(18.000000, 15.000000)">
                            <path d="M9.05604882,10.0919322 C8.85945976,10.0919322 8.67321749,10.0498392 8.49732202,9.97617656 L1.068325,6.69292605 C0.354396312,6.37722888 0.0232989511,5.53536977 0.333702727,4.8092663 C0.478557822,4.47252265 0.737227635,4.20944168 1.068325,4.06211634 L8.50766881,0.610494008 C8.85945976,0.463168664 9.25263787,0.463168664 9.60442882,0.610494008 L9.62512241,0.621017246 L16.9403047,4.06211634 C17.6542334,4.3778135 17.974984,5.21967261 17.674927,5.94577609 C17.5300719,6.27199649 17.2714021,6.5456007 16.9506515,6.68240281 L9.62512241,9.96565332 C9.44922693,10.0498392 9.25263787,10.0919322 9.05604882,10.0919322 L9.05604882,10.0919322 Z M9.02500844,8.74495761 C9.04570202,8.75548085 9.0767424,8.75548085 9.09743599,8.74495761 L16.4229651,5.4617071 C16.4643523,5.44066063 16.4850458,5.38804443 16.4643523,5.34595148 C16.4540055,5.324905 16.4436587,5.30385852 16.4229651,5.30385852 L16.4022715,5.29333528 L9.08708919,1.85223619 C9.06639561,1.84171295 9.04570202,1.84171295 9.02500844,1.85223619 L1.58566462,5.29333528 C1.54427745,5.31438176 1.52358387,5.36699795 1.53393066,5.40909091 C1.54427745,5.43013739 1.55462424,5.45118386 1.57531783,5.4617071 L9.02500844,8.74495761 Z M9.05604882,14.269658 C8.84911297,14.269658 8.65252391,14.227565 8.46628164,14.1433791 L0.395783482,10.5760012 C0.0646861211,10.4286758 -0.0905157666,10.0287928 0.0543393286,9.69204911 C0.199194424,9.35530547 0.592372539,9.19745688 0.9234699,9.34478223 L8.99396806,12.9121602 C9.03535523,12.9332067 9.0767424,12.9332067 9.11812957,12.9121602 L17.074813,9.35530547 C17.4059104,9.20798012 17.7990885,9.35530547 17.9439436,9.69204911 C18.0887987,10.0287928 17.9439436,10.4286758 17.6128462,10.5760012 L17.6024994,10.5760012 L9.64581599,14.1433791 C9.46992052,14.227565 9.26298467,14.269658 9.05604882,14.269658 Z M9.05604882,18.5 C8.84911297,18.5 8.65252391,18.457907 8.46628164,18.3737211 L0.395783482,14.8063432 C0.0646861211,14.6590178 -0.0905157666,14.2591348 0.0543393286,13.9223911 C0.199194424,13.5856475 0.592372539,13.4277989 0.9234699,13.5751242 L8.99396806,17.1425022 C9.03535523,17.1635487 9.0767424,17.1635487 9.11812957,17.1425022 L17.074813,13.5751242 C17.4059104,13.4277989 17.7990885,13.5751242 17.9439436,13.9223911 C18.0887987,14.2591348 17.9439436,14.6590178 17.6024994,14.8063432 L9.64581599,18.3737211 C9.46992052,18.457907 9.26298467,18.5 9.05604882,18.5 Z" id="形状"></path>
                        </g>
                    </g>
                </g>
            </g>
        </g>
    </g>
</svg>