<?xml version="1.0" encoding="UTF-8"?>
<svg width="700px" height="323px" viewBox="0 0 700 323" version="1.1" xmlns="http://www.w3.org/2000/svg" xmlns:xlink="http://www.w3.org/1999/xlink">
    <title>编组</title>
    <defs>
        <linearGradient x1="100%" y1="48.24745%" x2="0%" y2="48.4194737%" id="linearGradient-1">
            <stop stop-color="#B4B8BF" stop-opacity="0" offset="0%"></stop>
            <stop stop-color="#B4B8BF" stop-opacity="0.911806468" offset="91.1806468%"></stop>
            <stop stop-color="#B4B8BF" offset="100%"></stop>
        </linearGradient>
        <linearGradient x1="50%" y1="100%" x2="50%" y2="0%" id="linearGradient-2">
            <stop stop-color="#B4B8BF" stop-opacity="0" offset="0%"></stop>
            <stop stop-color="#B4B8BF" offset="100%"></stop>
        </linearGradient>
        <linearGradient x1="50%" y1="85.1278551%" x2="50%" y2="0%" id="linearGradient-3">
            <stop stop-color="#B4B8BF" stop-opacity="0" offset="0%"></stop>
            <stop stop-color="#B4B8BF" offset="100%"></stop>
        </linearGradient>
        <linearGradient x1="50%" y1="85.1278551%" x2="50%" y2="0%" id="linearGradient-4">
            <stop stop-color="#B4B8BF" stop-opacity="0" offset="0%"></stop>
            <stop stop-color="#B4B8BF" offset="100%"></stop>
        </linearGradient>
        <polygon id="path-5" points="0 0.0255527662 41.0514575 0.0255527662 41.0514575 135.313578 0 135.313578"></polygon>
        <polygon id="path-7" points="0.558725415 0.805260996 10.7005714 0.805260996 10.7005714 8.02325581 0.558725415 8.02325581"></polygon>
        <polygon id="path-9" points="0.754100073 0.00616010717 10.1146056 0.00616010717 10.1146056 6.71244484 0.754100073 6.71244484"></polygon>
        <path d="M0.63875,2.93545455 L10.696875,9.28454545 C10.696875,9.28454545 14.594125,6.94727273 13.013875,6.82909091 L13.013875,6.82909091 C11.433625,6.71363636 7.1995,0.750909091 4.61825,0.499090909 L4.61825,0.499090909 C4.59375,0.497272727 4.5675,0.495454545 4.54125,0.495454545 L4.54125,0.495454545 C3.346875,0.495454545 0.63875,2.93545455 0.63875,2.93545455" id="path-11"></path>
        <linearGradient x1="-7.79144569%" y1="47.7341124%" x2="89.4607648%" y2="51.2512649%" id="linearGradient-13">
            <stop stop-color="#D6D6DF" offset="0%"></stop>
            <stop stop-color="#F4F6F9" offset="100%"></stop>
        </linearGradient>
        <path d="M6.306125,15.7742105 C10.72575,16.6063158 12.2395,16.7718421 12.2395,16.7718421 L12.2395,16.7718421 C12.397875,14.0384211 13.176625,11.7505789 13.176625,11.7505789 L13.176625,11.7505789 C13.176625,11.7505789 8.302,8.44094737 6.890625,6.84115789 L6.890625,6.84115789 C5.63675,5.42031579 2.583,0.306 2.583,0.306 L2.583,0.306 C-1.607375,10.9274211 -0.926625,14.4106316 6.306125,15.7742105" id="path-14"></path>
        <linearGradient x1="-54.9802212%" y1="-572.101387%" x2="-115.861305%" y2="-942.408517%" id="linearGradient-16">
            <stop stop-color="#607FEE" offset="0%"></stop>
            <stop stop-color="#D812FF" offset="100%"></stop>
        </linearGradient>
        <filter id="filter-17">
            <feColorMatrix in="SourceGraphic" type="matrix" values="0 0 0 0 0.203922 0 0 0 0 0.207843 0 0 0 0 0.564706 0 0 0 1.000000 0"></feColorMatrix>
        </filter>
        <path d="M16.831741,3.66061136 C20.4459137,3.79897439 23.5037554,2.96642428 25.4497266,6.57659243 C27.3956978,10.1874722 26.2141871,10.7906559 30.9403094,12.2248875 C35.6662734,13.6591192 39.4189353,21.0840746 36.5003741,23.4821036 C33.5810216,25.8801325 35.7240432,30.5615468 32.0813813,30.4777383 C31.7790791,29.6396537 31.5654101,29.1439187 31.5654101,29.1439187 C26.492036,15.3953775 16.2065612,16.888196 16.2065612,16.888196 C16.2065612,16.888196 13.6646906,17.2446982 12.5551942,13.6133408 C12.5915971,13.5033619 12.6272086,13.3910902 12.6620288,13.2773163 C12.6620288,13.2773163 13.5302374,10.1699989 12.2964173,10.1699989 C11.0634676,10.1699989 11.1845468,11.8541537 11.1845468,11.8541537 L11.1842673,11.8538753 L11.1820597,11.8516544 C11.1513694,11.8206123 10.8415227,11.5015136 10.5245468,10.9566915 C10.5245468,10.9559009 10.5237554,10.9551893 10.5237554,10.9543196 C10.4984317,10.8815802 10.4470719,10.763853 10.3472806,10.62549 C10.0861295,10.2640857 9.49497842,9.76676949 8.17893525,9.59765033 C7.14800576,9.4641901 6.25205892,10.2458766 5.33766629,10.9904853 L5.24460765,11.0660433 C4.63923544,11.5558573 4.02353094,12.0153664 3.35317986,12.1695423 C2.9527482,12.2620479 2.53340288,12.2454443 2.08461871,12.0620935 C-0.291064748,11.0903107 0.0128201439,8.59028842 0.0128201439,8.59028842 C0.0128201439,8.59028842 0.483683453,2.68811693 7.96289209,0.535978842" id="path-18"></path>
        <linearGradient x1="95.0479816%" y1="70.7701313%" x2="10.2677913%" y2="20.987987%" id="linearGradient-20">
            <stop stop-color="#E4342A" offset="0%"></stop>
            <stop stop-color="#F9C626" offset="100%"></stop>
        </linearGradient>
        <path d="M30.0828807,10.3942013 L30.0122757,10.5288038 C31.2307778,10.5893628 32.2993128,11.4977479 32.325428,11.7466858 L32.325428,11.7466858 C32.351465,11.9956237 33.1138107,12.8973069 33.1138107,12.8973069 L33.1138107,12.8973069 C32.9965267,11.5650088 33.6919424,11.2677852 33.6919424,11.2677852 L33.6919424,11.2677852 C34.1332428,11.0917603 34.7166914,10.8988597 34.8283457,12.1907852 L34.8283457,12.1907852 C34.9399218,13.4827106 34.4234815,14.7140771 34.4234815,14.7140771 L34.4234815,14.7140771 C35.3617531,16.591487 35.459177,18.1178162 39.2125761,18.0044497 L39.2125761,18.0044497 C39.4605926,17.9970212 39.710251,18.0036423 39.9599877,18.0217293 L39.9599877,18.0217293 C40.2842387,18.091574 40.6518066,18.148015 41.069572,18.1861268 L41.069572,18.1861268 C41.1122634,18.1900025 41.1549547,18.1950895 41.1976461,18.1998535 L41.1976461,18.1998535 C42.6130288,18.497723 43.9388848,19.0765056 44.8605021,19.5539529 L44.8605021,19.5539529 C47.2219753,20.9548845 48.9862387,22.9097293 48.9862387,22.9097293 L48.9862387,22.9097293 C47.7743045,19.8010336 44.4512593,15.5619032 41.7537284,15.161487 L41.7537284,15.161487 C39.8673333,14.8816237 38.5459342,13.8434808 37.9212016,13.2441081 L37.9212016,13.2441081 C37.6257243,12.8382013 37.3679342,12.431487 37.1610453,12.02881 L37.1610453,12.02881 C36.1096337,9.98369198 35.0860576,10.2147852 34.2281646,10.4460398 L34.2281646,10.4460398 C33.7253292,10.5816112 33.2794938,10.7170212 32.9183374,10.3942013 L32.9183374,10.3942013 C32.5926008,10.1030336 32.168893,10.0059777 31.7488601,10.0059777 L31.7488601,10.0059777 C30.908716,10.0059777 30.0828807,10.3942013 30.0828807,10.3942013" id="path-21"></path>
    </defs>
    <g id="页面-1" stroke="none" stroke-width="1" fill="none" fill-rule="evenodd">
        <g id="高级搜索2_普通用户" transform="translate(-710.000000, -264.000000)">
            <g id="编组" transform="translate(710.000000, 264.000000)">
                <path d="M210.541425,297.914216 L294.660365,319.203213 C295.055407,319.303191 295.466676,319.32164 295.869083,319.257435 L477.561792,290.268024 C479.197951,290.006971 480.312696,288.468977 480.051643,286.832818 C479.850269,285.570694 478.871375,284.574734 477.61292,284.351578 L375.883148,266.312266 C375.556383,266.254322 375.222268,266.250998 374.894415,266.302429 L210.812538,292.042155 C209.175701,292.298927 208.056938,293.834001 208.313711,295.470837 C208.499933,296.657943 209.37653,297.619402 210.541425,297.914216 Z" id="投影" fill="url(#linearGradient-1)" opacity="0.16"></path>
                <g id="云" opacity="0.16">
                    <path d="M0,319 C86.7411024,283.666667 203.407769,266 350,266 C496.592231,266 613.258898,283.666667 700,319" id="路径-19" fill="url(#linearGradient-2)"></path>
                    <path d="M523,186 L523.000073,185.646756 C509.398102,183.489266 499,171.708936 499,157.5 C499,141.759885 511.759885,129 527.5,129 C530.067629,129 532.555953,129.339544 534.922521,129.976179 C540.328827,117.627728 552.656856,109 567,109 C583.23789,109 596.893104,120.057754 600.84626,135.053883 C601.392389,135.017787 601.944117,135 602.5,135 C616.583261,135 628,146.416739 628,160.5 C628,174.415939 616.852933,185.72834 603.000824,185.99518 L603,186 L523,186 Z" id="形状结合" fill="url(#linearGradient-3)" transform="translate(563.500000, 147.500000) scale(-1, 1) translate(-563.500000, -147.500000) "></path>
                    <path d="M143,89 L143.000061,87.8405036 C131.434074,84.3983265 123,73.684105 123,61 C123,45.536027 135.536027,33 151,33 C153.439711,33 155.806545,33.3120288 158.06277,33.8983562 C159.164533,14.9942027 175.056904,0 194.5,0 C213.641829,0 229.342118,14.5331395 230.876933,33.0223892 C231.249757,33.0074108 231.624013,33 232,33 C247.463973,33 260,45.536027 260,61 C260,76.463973 247.463973,89 232,89 C231.665453,89 231.332276,88.9941328 231.000566,88.9824956 L231,89 L143,89 Z" id="形状结合备份" fill="url(#linearGradient-4)"></path>
                </g>
                <g id="编组-3" transform="translate(137.000000, 68.000000)">
                    <g id="箱子">
                        <polygon id="路径-32" fill="#D7DAE0" points="55.8297872 17.9640163 147.162373 35 374.829787 13.8909956 244.514812 1.62109909e-12"></polygon>
                        <polygon id="路径-33" fill="#C9CDD4" points="244.829787 -6.0016575e-13 244.829787 33 374.829787 13.9384022"></polygon>
                        <path d="M146.829787,34.385504 L370.456243,13.4102213 C372.655728,13.2039183 374.606004,14.8197115 374.812307,17.0191964 C374.823954,17.1433707 374.829787,17.2680218 374.829787,17.3927412 L374.829787,218.972123 C374.829787,221.036546 373.258733,222.761855 371.203332,222.954643 L146.829787,244 L146.829787,244 L146.829787,34.385504 Z" id="矩形" fill="#DFE2E8"></path>
                        <path d="M51.8297872,34.4768831 L143.073792,16.9153746 C145.243117,16.4978501 147.340172,17.9179645 147.757697,20.0872889 C147.805648,20.3364307 147.829787,20.5895696 147.829787,20.8432839 L147.829787,223.478055 C147.829787,225.41547 146.441326,227.074364 144.534189,227.415544 L51.8297872,244 L51.8297872,244 L51.8297872,34.4768831 Z" id="矩形" fill="#D7DAE0" transform="translate(99.829787, 130.000000) scale(-1, 1) translate(-99.829787, -130.000000) "></path>
                        <path d="M146.829787,36.0553612 L94.9163494,94.4919782 C90.838141,99.0826336 84.4924607,100.934335 78.5853511,99.2574464 L8.57620738,79.3835039 C5.91974648,78.6293974 4.37758355,75.8645863 5.13169005,73.2081254 C5.34173892,72.4681946 5.71966563,71.7866998 6.23606853,71.2166594 L53.5394396,19 L53.5394396,19 L146.829787,36.0553612 Z" id="路径-31" fill="#DFE2E8"></path>
                        <path d="M147.829787,34.7507921 L191.665299,100.452858 C195.171646,105.708284 201.303195,108.58579 207.586239,107.924479 L416.55579,85.9297412 C419.851295,85.5828785 422.241641,82.6301564 421.894779,79.3346518 C421.78563,78.297642 421.408108,77.30698 420.799432,76.4603301 L375.176335,13 L375.176335,13 L147.829787,34.7507921 Z" id="路径-30" fill="#E6E8ED"></path>
                        <path d="M163.491582,182.867011 L229.491582,175.378748 C231.137873,175.191962 232.623877,176.375125 232.810662,178.021417 C232.823402,178.133702 232.829787,178.246618 232.829787,178.359623 L232.829787,222.152114 C232.829787,223.678105 231.684256,224.960956 230.167993,225.132989 L164.167993,232.621252 C162.521701,232.808038 161.035698,231.624875 160.848912,229.978583 C160.836172,229.866298 160.829787,229.753382 160.829787,229.640377 L160.829787,185.847886 C160.829787,184.321895 161.975318,183.039044 163.491582,182.867011 Z" id="矩形" fill="#D7DAE0"></path>
                        <path d="M163.49734,164.730731 L229.49734,157.371576 C231.14399,157.18797 232.627705,158.374002 232.81131,160.020652 C232.823619,160.13104 232.829787,160.242026 232.829787,160.353099 L232.829787,165.287746 C232.829787,166.815951 231.681027,168.09992 230.162234,168.269269 L164.162234,175.628424 C162.515584,175.81203 161.03187,174.625998 160.848264,172.979348 C160.835956,172.86896 160.829787,172.757974 160.829787,172.646901 L160.829787,167.712254 C160.829787,166.184049 161.978548,164.90008 163.49734,164.730731 Z" id="矩形" fill="#D7DAE0"></path>
                    </g>
                    <g id="编组" transform="translate(77.493911, 175.903411) rotate(-5.000000) translate(-77.493911, -175.903411) translate(42.493911, 100.403411)">
                        <g transform="translate(0.902388, 0.428146)">
                            <mask id="mask-6" fill="white">
                                <use xlink:href="#path-5"></use>
                            </mask>
                            <g id="Clip-10"></g>
                            <path d="M1.546125,135.313578 C1.409625,135.313578 1.273125,135.295948 1.136625,135.260689 C0.3136875,135.042837 -0.170625,134.228096 0.055125,133.438541 L38.0165625,1.11431852 C38.243625,0.324762963 39.094125,-0.136125926 39.91575,0.0779481481 C40.7386875,0.294540741 41.2216875,1.1118 40.9959375,1.90135556 L3.0358125,134.224319 C2.8468125,134.881652 2.2246875,135.313578 1.546125,135.313578" id="Fill-9" fill="#E2E7F2" mask="url(#mask-6)"></path>
                        </g>
                        <path d="M30.2494986,150.864518 C30.1131723,150.864518 29.975535,150.846926 29.8392086,150.811742 C29.0173178,150.594355 28.5336212,149.780094 28.7603949,148.992221 L66.6722411,16.9513117 C66.8990148,16.1646957 67.7497439,15.7022761 68.5690131,15.9171505 C69.390904,16.1332814 69.8746005,16.9487986 69.6491376,17.7366712 L31.7359807,149.777581 C31.5472211,150.433513 30.9271981,150.864518 30.2494986,150.864518" id="Fill-11" fill="#E2E7F2"></path>
                        <path d="M63.2771872,33.6513498 C63.0150186,33.6513498 62.7502284,33.5886847 62.5064116,33.457211 L34.5933217,18.351253 C33.856628,17.951917 33.6023245,17.0672343 34.0296593,16.3742328 C34.4556832,15.6836887 35.3981793,15.4453159 36.1374947,15.8458806 L64.0492737,30.9518386 C64.7872783,31.3511746 65.0415818,32.2358574 64.6155579,32.9276301 C64.3284833,33.3920886 63.8093895,33.6513498 63.2771872,33.6513498" id="Fill-13" fill="#E2E7F2"></path>
                        <path d="M57.4620936,54.2228155 C57.1999254,54.2228155 56.9351355,54.1601442 56.6913191,54.0286576 L28.7782712,38.92121 C28.0415786,38.5218346 27.7872754,37.6370646 28.2146096,36.9452236 C28.6406329,36.2546115 29.5844384,36.017444 30.3224419,36.4168193 L58.2354897,51.5230381 C58.9721824,51.9224135 59.2264855,52.8071835 58.8004622,53.4990244 C58.513388,53.9622998 57.9956058,54.2228155 57.4620936,54.2228155" id="Fill-15" fill="#E2E7F2"></path>
                        <path d="M52.7303923,73.8852422 C52.4682237,73.8852422 52.2034334,73.8225719 51.9596166,73.6910872 L24.0478375,58.5838648 C23.3098329,58.1844954 23.0555293,57.2997386 23.4828641,56.6079079 C23.910199,55.9160773 24.852695,55.6801421 25.5906996,56.0795115 L53.5037896,71.1867339 C54.2404834,71.5848745 54.4947869,72.4708601 54.0687629,73.161462 C53.7816883,73.6259593 53.2625945,73.8852422 52.7303923,73.8852422" id="Fill-17" fill="#E2E7F2"></path>
                        <path d="M47.0024696,93.4605132 C46.741607,93.4605132 46.4755008,93.397842 46.2329903,93.2663553 L18.3193758,78.1601365 C17.5813573,77.7607612 17.3283599,76.8759912 17.7543919,76.1829214 C18.1817347,75.4923092 19.1242485,75.2551417 19.8622669,75.6545171 L47.7758815,90.7619647 C48.5125891,91.1601112 48.7668974,92.04611 48.3408654,92.7367222 C48.0550963,93.2012264 47.5359927,93.4605132 47.0024696,93.4605132" id="Fill-19" fill="#E2E7F2"></path>
                        <path d="M41.2742903,113.035784 C41.0134277,113.035784 40.7486324,112.973117 40.504811,112.84164 L12.5911965,97.7352232 C11.8544889,97.3358751 11.6001806,96.4511656 12.0262126,95.758143 C12.4535554,95.067578 13.3973801,94.8304267 14.1353985,95.2297748 L42.0477022,110.336191 C42.7857207,110.735539 43.0387181,111.620249 42.6126861,112.312043 C42.326917,112.775286 41.8078134,113.035784 41.2742903,113.035784" id="Fill-21" fill="#E2E7F2"></path>
                        <path d="M35.5467113,132.611055 C35.2845427,132.611055 35.0197525,132.548389 34.7759357,132.416913 L6.86415652,117.310722 C6.12615193,116.91138 5.8718484,116.026684 6.2991832,115.333672 C6.72651801,114.641888 7.6690141,114.405969 8.40701868,114.805311 L36.3201087,129.911502 C37.0568024,130.310844 37.311106,131.195541 36.885082,131.887324 C36.5980074,132.35179 36.0789136,132.611055 35.5467113,132.611055" id="Fill-23" fill="#E2E7F2"></path>
                    </g>
                    <g id="编组" transform="translate(15.760556, 138.000000)">
                        <g transform="translate(2.069231, 0.000000)">
                            <g transform="translate(14.197183, 106.976744)">
                                <mask id="mask-8" fill="white">
                                    <use xlink:href="#path-7"></use>
                                </mask>
                                <g id="Clip-2"></g>
                                <path d="M7.94092817,4.61774031 C9.99597042,6.34898062 10.4201113,6.17425194 10.6854211,7.37328295 C10.950731,8.57231395 7.6640831,7.85467829 6.1112662,7.27343798 C6.1112662,7.27343798 4.84239296,6.79115116 4.19642113,5.94157752 C3.5504493,5.09200388 2.90359014,5.51723643 1.68618169,5.09200388 C0.467885915,4.66855426 0.318815493,3.48556977 0.849435211,1.6215 C1.37916761,-0.24346124 4.92047746,1.5885155 5.6853507,2.1866938 C6.44933662,2.78665504 7.94092817,4.61774031 7.94092817,4.61774031" id="Fill-1" fill="#000073" mask="url(#mask-8)"></path>
                            </g>
                            <path d="M21.2646296,15.0350465 C22.2823901,12.8259767 23.3134606,14.2808605 23.8600521,11.5654341 C24.4066437,8.85089922 23.3232211,5.27965891 19.4198831,2.68993023 C15.5156577,0.101984496 13.0284887,3.20431008 12.5990239,7.77310853 C12.1704465,12.341907 14.8191085,15.7036512 14.8191085,15.7036512 L18.4864183,16.9641938 L21.2646296,15.0350465 Z" id="Fill-3" fill="#F6CA9F"></path>
                            <path d="M43.3835746,84.9094922 C43.9709831,86.9135233 44.2921944,87.5170504 44.7003634,88.0341047 C45.1076451,88.5511589 47.8104338,87.8397636 48.046462,87.3663915 C48.2824901,86.8921279 48.8619127,87.4091822 49.1192366,87.6026318 C49.3765606,87.7969729 54.4964197,87.0641822 54.502631,86.4499574 C54.5283634,84.0563527 53.1104197,86.1201124 49.7297155,84.9094922 C43.8565183,82.8056163 45.8379127,81.8713527 45.8379127,81.8713527 L43.3835746,84.9094922 Z" id="Fill-5" fill="#34376B"></path>
                            <path d="M47.4623366,83.8021047 C43.6628155,59.526407 45.0789845,57.0882287 41.6432662,54.9495853 C38.2084352,52.8100504 25.8497873,46.4458256 25.8497873,46.4458256 L22.2082099,58.0251667 C22.2082099,58.0251667 36.1409704,64.5979961 36.6263366,65.9557093 C38.166731,70.2668721 38.3175761,71.7199729 39.8171535,75.9535775 C41.6787592,81.212376 42.7426606,83.9278023 43.2750549,85.4361744 C43.8083366,86.9445465 47.7622521,85.7214457 47.4623366,83.8021047" id="Fill-7" fill="#26264F"></path>
                            <g transform="translate(51.464789, 21.395349)">
                                <mask id="mask-10" fill="white">
                                    <use xlink:href="#path-9"></use>
                                </mask>
                                <g id="Clip-10"></g>
                                <path d="M3.35266479,5.59631008 C5.18942535,5.7335969 6.01463662,6.62952713 6.86735493,6.70708527 C7.72096056,6.78464341 8.26666479,5.99479845 8.26666479,5.99479845 C8.26666479,5.99479845 5.99422817,4.96247287 5.92945352,3.99344186 C5.86467887,3.02351938 6.91970704,3.39704651 7.3145662,3.47995349 C7.94634085,3.61278295 9.98541127,4.66739535 9.98541127,4.66739535 C9.98541127,4.66739535 10.5923408,2.69724031 9.17705915,1.1104186 C7.76355211,-0.476403101 5.40415775,-0.386364341 1.98529859,1.59716279 C-1.43356056,3.57979845 3.35266479,5.59631008 3.35266479,5.59631008" id="Fill-9" fill="#F6CA9F" mask="url(#mask-10)"></path>
                            </g>
                            <path d="M26.2402099,59.438062 C24.7867732,69.7666667 23.2144352,74.6929457 22.4424634,82.5798062 C21.6696042,90.4675581 20.6624915,102.839419 19.7237028,107.399302 C19.0981394,110.442791 14.9578859,110.124535 15.2196465,107.399302 C15.4680972,104.811357 14.6881394,86.8615504 14.1025056,82.1153488 C13.5168718,77.3700388 12.5993789,56.9472868 12.5993789,56.9472868 L25.8497873,46.4457364 L26.2402099,59.438062 Z" id="Fill-11" fill="#26264F"></path>
                            <path d="M0.130880282,45.7177597 C0.130880282,45.7177597 4.98365493,26.6500465 9.68824648,23.1394264 C9.68824648,23.1385349 12.7592746,20.3508992 12.760162,20.3508992 C14.6581479,17.3368295 14.8196408,15.7036512 14.8196408,15.7036512 C18.0024718,16.5202403 21.2642746,15.0350465 21.2642746,15.0350465 C21.2642746,15.0350465 20.6422606,16.9107054 21.3121901,17.7041163 L21.3104155,17.7050078 C25.9378099,18.6196589 33.1712746,23.6698527 36.3514437,24.3545039 C40.0098803,25.1416744 46.371993,24.2323721 53.4501761,22.9923333 C54.4342183,22.8193876 55.5575704,26.6812481 54.6622606,27.1287674 C47.0463592,30.9407054 43.9238662,33.057062 37.4659225,31.8963643 C31.0088662,30.7356667 29.3424718,31.2063643 27.8633028,33.3735349 C26.3832465,35.5415969 29.0008521,43.7057054 31.7772887,48.5767132 C34.1979085,52.8227984 27.0034859,53.3398527 24.1773592,54.3677209 C21.3503451,55.3955891 20.1444718,65.0092326 13.9908803,65.9559767 C11.2233169,66.3821008 9.31379577,51.9901628 7.85237324,44.3564806 L4.90645775,49.4218295 L0.130880282,45.7177597 Z" id="Fill-13" fill="#607FEE"></path>
                            <path d="M21.6952479,55.6711434 L7.82016338,63.7193605 C6.62138873,64.4147093 4.13954366,62.3509496 2.27616338,59.1086628 C0.413670423,55.8681589 -0.124047887,52.676686 1.07472676,51.9804457 L14.9498113,43.9331202 C16.1485859,43.2377713 18.6313183,45.3006395 20.4938113,48.5429264 C22.3563042,51.7843217 22.8949099,54.9757946 21.6952479,55.6711434" id="Fill-15" fill="#26264F"></path>
                            <g transform="translate(9.760563, 0.000000)" fill="#000073" id="Fill-17">
                                <path d="M13.5958437,7.19204651 C12.0900549,7.59766667 11.9755901,8.8189845 11.4289986,10.2729767 C10.8815197,11.7278605 9.55142113,11.1787132 8.51236479,9.91817054 C7.4715338,8.65762791 7.92140704,7.98991473 7.24615352,7.19204651 C6.5709,6.39417829 5.89475915,6.13565116 6.40940704,5.32797674 C6.92405493,4.51941085 8.02611127,5.22813178 8.79098451,4.51941085 C9.55497042,3.8115814 10.7084915,3.4434031 11.0288155,3.7358062 L12.1264352,4.8465814 C12.1264352,4.8465814 12.6836746,3.58247287 10.8176324,2.03131008 C8.95159014,0.479255814 5.94799859,0.314333333 3.97459014,1.81913953 C3.97459014,1.81913953 1.77757606,3.42111628 0.361407042,7.07348062 C-1.05476197,10.725845 3.32418169,14.0037907 4.31354789,14.5279767 C5.08285775,14.9362713 6.0633507,13.6017364 6.40940704,12.1156512 C6.75723803,10.6286744 6.5522662,10.7980543 5.70220986,10.3050698 C4.85215352,9.81208527 4.45551972,8.25289922 5.36857606,7.90611628 C6.28163239,7.55755039 6.63478732,7.68770543 7.14943521,8.49537984 C7.6640831,9.30305426 8.50082958,13.0525891 9.20891408,13.6677054 C9.91699859,14.2810388 11.4707028,12.5631705 12.6721394,12.5078992 C13.1344352,12.4865039 13.3331958,12.4677829 13.440562,12.4802636 C13.6233507,12.499876 13.725393,12.7013488 13.6304493,12.860031 L13.4920268,13.091814 C15.9649986,12.7459225 15.3270127,6.72669767 13.5958437,7.19204651"></path>
                            </g>
                        </g>
                        <g transform="translate(4.069231, 49.000000)">
                            <mask id="mask-12" fill="white">
                                <use xlink:href="#path-11"></use>
                            </mask>
                            <g id="Clip-20"></g>
                            <path d="M0.63875,2.93545455 L10.696875,9.28454545 C10.696875,9.28454545 14.594125,6.94727273 13.013875,6.82909091 L13.013875,6.82909091 C11.433625,6.71363636 7.1995,0.750909091 4.61825,0.499090909 L4.61825,0.499090909 C4.59375,0.497272727 4.5675,0.495454545 4.54125,0.495454545 L4.54125,0.495454545 C3.346875,0.495454545 0.63875,2.93545455 0.63875,2.93545455" id="Fill-19" fill="url(#linearGradient-13)" mask="url(#mask-12)"></path>
                        </g>
                        <path d="M13.9619839,54.318563 C16.5947819,55.2975152 19.0728655,53.4229636 19.4583255,54.1891001 C19.8420173,54.9543499 17.302048,55.5883633 17.4903576,55.8969461 C17.6795513,56.2073023 19.1586215,56.2401114 21.0823852,56.4112507 C23.0052649,56.5832767 22.0363104,59.7125542 18.8872081,59.9697065 C15.739874,60.2268588 14.6710181,58.7708448 12.7048184,58.4702426 C10.7386187,58.1696404 13.9619839,54.318563 13.9619839,54.318563" id="Fill-21" fill="#F6CA9F"></path>
                        <g transform="translate(0.069231, 43.000000)">
                            <mask id="mask-15" fill="white">
                                <use xlink:href="#path-14"></use>
                            </mask>
                            <g id="Clip-24"></g>
                            <path d="M6.306125,15.7742105 C10.72575,16.6063158 12.2395,16.7718421 12.2395,16.7718421 L12.2395,16.7718421 C12.397875,14.0384211 13.176625,11.7505789 13.176625,11.7505789 L13.176625,11.7505789 C13.176625,11.7505789 8.302,8.44094737 6.890625,6.84115789 L6.890625,6.84115789 C5.63675,5.42031579 2.583,0.306 2.583,0.306 L2.583,0.306 C-1.607375,10.9274211 -0.926625,14.4106316 6.306125,15.7742105" id="Fill-23" fill="url(#linearGradient-16)" mask="url(#mask-15)"></path>
                        </g>
                    </g>
                    <g id="编组" transform="translate(386.829787, 200.028420) scale(-1, 1) translate(-386.829787, -200.028420) translate(353.829787, 164.028420)">
                        <g transform="translate(0.000000, 0.971580)">
                            <path d="M25.9435633,67.7504296 L25.8968727,67.2308962 L25.151405,58.9520432 L24.8665129,55.788669 L30.9647863,53.7938695 L38.1290309,50.4186813 C41.7075921,51.3199385 48.2180885,49.731531 48.2180885,49.731531 C52.1155705,49.3536022 54.2792468,47.5850065 55.3728367,45.2296724 C55.4908295,45.178992 62.7325489,42.1066212 65.6274482,47.8917771 C67.153995,50.9412192 63.5121245,56.5350388 55.8825561,61.0203728 C51.9597504,63.3266869 46.981182,65.3396713 41.1101101,66.5628004 C36.5652108,67.5084129 31.4847144,67.9812192 25.9435633,67.7504296 Z" id="Fill-1" fill="#26264F"></path>
                            <g filter="url(#filter-17)">
                                <g transform="translate(22.316547, 0.000000)">
                                    <mask id="mask-19" fill="white">
                                        <use xlink:href="#path-18"></use>
                                    </mask>
                                    <g id="Clip-4"></g>
                                    <path d="M30.9403094,12.2248875 C35.6662734,13.6591192 39.4189353,21.0840746 36.5003741,23.4821036 C33.5810216,25.8801325 35.7240432,30.5615468 32.0813813,30.4777383 C31.7790791,29.6396537 31.5654101,29.1439187 31.5654101,29.1439187 C26.492036,15.3953775 16.2065612,16.888196 16.2065612,16.888196 C16.2065612,16.888196 13.6646906,17.2446982 12.5551942,13.6133408 C12.5915971,13.5033619 12.6272086,13.3910902 12.6620288,13.2773163 C12.6620288,13.2773163 13.5302374,10.1699989 12.2964173,10.1699989 C11.0634676,10.1699989 11.1845468,11.8541537 11.1845468,11.8541537 C11.1845468,11.8541537 10.8585036,11.5307004 10.5245468,10.9566915 C10.5245468,10.9559009 10.5237554,10.9551893 10.5237554,10.9543196 C10.4984317,10.8815802 10.4470719,10.763853 10.3472806,10.62549 C10.0861295,10.2640857 9.49497842,9.76676949 8.17893525,9.59765033 C6.43159712,9.37144655 5.07202878,11.7742194 3.35317986,12.1695423 C2.9527482,12.2620479 2.53340288,12.2454443 2.08461871,12.0620935 C-0.291064748,11.0903107 0.0128201439,8.59028842 0.0128201439,8.59028842 C0.0128201439,8.59028842 0.483683453,2.68811693 7.96289209,0.535978842 C15.4413094,-1.61694989 13.2175683,3.52145768 16.831741,3.66061136 C20.4459137,3.79897439 23.5037554,2.96642428 25.4497266,6.57659243 C27.3956978,10.1874722 26.2141871,10.7906559 30.9403094,12.2248875" id="Fill-3" fill="url(#linearGradient-20)" mask="url(#mask-19)"></path>
                                </g>
                            </g>
                            <path d="M55.8825482,61.0204045 C56.5623324,62.9345581 56.4539151,71.0837452 51.7626129,70.97938 C47.1078719,70.8758053 41.2026921,66.6291673 41.1101022,66.5628321 C46.9812532,65.3397029 51.9597424,63.3267185 55.8825482,61.0204045" id="Fill-5" fill="#000073"></path>
                            <path d="M55.3728763,45.2296487 C54.2792863,47.5849827 52.1156101,49.3535785 48.2181281,49.7315072 C48.2181281,49.7315072 41.7075525,51.3199148 38.1290705,50.4186576 C37.7333871,50.3190362 37.3741065,50.1892912 37.0630201,50.0233346 C37.0630201,50.0233346 37.1302863,49.071397 37.0123727,47.9613302 C36.8810058,46.7238903 36.5185597,45.2905284 35.5769122,44.760005 C35.5769122,44.760005 32.2673367,44.315583 31.4854662,45.0445585 C31.0763295,45.4264404 31.0099338,45.7728224 30.9647468,46.1207066 L24.9210777,44.3283124 L24.6963295,43.9756843 L20.1918691,36.920672 L19.9758259,36.8780562 C20.1404302,36.1569872 22.3571281,26.4818536 23.5108619,23.2243925 C24.7097827,19.8387678 29.556905,18.3888023 29.556905,18.3888023 L29.5593583,18.3697478 C30.2842504,18.4512634 31.1215165,18.2835674 31.9405022,17.7807957 C31.9405022,17.7807957 32.336977,18.693201 31.7118763,20.2214404 C31.085905,21.7490473 32.4762576,23.7619527 34.804459,23.4496476 C37.1327396,23.1374215 38.591941,21.088858 38.5230921,16.8881565 C38.5230921,16.8881565 48.8085669,15.395338 53.881941,29.1439582 C53.881941,29.1439582 54.0956101,29.6396141 54.3979914,30.4777778 C55.4504302,33.4031676 57.5697899,40.4983447 55.3728763,45.2296487" id="Fill-7" fill="#607FEE"></path>
                            <path d="M38.5231,16.8881565 C38.5919489,21.088858 37.1327475,23.1374215 34.8044669,23.4496476 C32.4762655,23.7619527 31.0859129,21.7489683 31.7118842,20.2214404 C32.3369849,18.693201 31.9405101,17.7807957 31.9405101,17.7807957 C33.0626683,17.0937244 34.1515892,15.7780896 34.8717331,13.6133012 C35.9812295,17.2447378 38.5231,16.8881565 38.5231,16.8881565" id="Fill-9" fill="#F3ADA7"></path>
                            <path d="M38.1290388,50.4186497 L30.9647942,53.7938379 L24.9211252,44.3283045 L30.9647942,46.1206987 C30.9236432,46.436957 30.899823,46.7547967 30.6522043,47.1018902 C30.1306935,47.8308657 30.4171683,48.6119448 31.6160892,48.6119448 C32.8150101,48.6119448 36.6475209,47.6221352 37.0116288,47.9613223 L37.0124201,47.9613223 C37.1303338,49.0713891 37.0629885,50.0233267 37.0629885,50.0233267 C37.3740748,50.1893624 37.7333554,50.3190283 38.1290388,50.4186497" id="Fill-11" fill="#E95513"></path>
                            <path d="M37.0123885,47.9613144 L37.0115971,47.9613144 C36.6475683,47.6221273 32.8149784,48.6119369 31.6161367,48.6119369 C30.4171367,48.6119369 30.1306619,47.8308578 30.6521727,47.1018823 C30.8998705,46.7547888 30.9236906,46.4369491 30.9647626,46.1206908 C31.0098705,45.7728066 31.0763453,45.4264246 31.485482,45.0445427 C32.2673525,44.3156462 35.5768489,44.7599892 35.5768489,44.7599892 C36.5185755,45.2905126 36.8810216,46.7239536 37.0123885,47.9613144" id="Fill-13" fill="#F3ADA7"></path>
                            <path d="M32.8411014,10.9566915 C33.1750583,11.5307004 33.5011014,11.8541537 33.5011014,11.8541537 C33.5011014,11.8541537 33.3800223,10.1699989 34.6129719,10.1699989 C35.8467129,10.1699989 34.9785835,13.2773163 34.9785835,13.2773163 C34.9437633,13.3910902 34.9081518,13.5033619 34.8717489,13.6133408 C34.151605,15.7780501 33.0626842,17.0936849 31.9405259,17.7808352 C31.1215403,18.2836069 30.284195,18.4512238 29.5593029,18.3697873 C28.824123,18.2875601 28.2044827,17.9483731 27.8373676,17.443941 C27.0047705,16.2998764 26.1485115,13.7485412 25.6697345,12.170412 L25.6697345,12.1695423 C27.3885835,11.7742194 28.7481518,9.37144655 30.4954899,9.59765033 C31.8115331,9.76676949 32.4026842,10.2640857 32.6638353,10.62549 C32.721605,10.7424265 32.7809576,10.8523263 32.8403101,10.9543196 C32.8403101,10.9551102 32.8411014,10.9559009 32.8411014,10.9566915" id="Fill-15" fill="#F6C1C0"></path>
                            <path d="M19.9758259,36.8780641 L20.1918691,36.92068 L24.6963295,43.9756922 C24.716905,44.0783971 24.7383511,44.1803904 24.7620129,44.2808815 L24.9210777,44.3282412 L30.9647468,53.7938537 L7.97712086,46.8156131 L5.10129353,41.8060808 L5.10050216,41.8060808 L0.0199266187,32.9571722 L19.9758259,36.8780641 Z" id="Fill-17" fill="#F4BD1D"></path>
                            <path d="M30.9647705,53.7938774 L24.8664971,55.7886769 L25.1513892,58.9520511 C25.1513892,58.9520511 17.9594468,57.9076079 16.2651302,58.7148573 C15.7942669,58.9394008 15.4563532,59.5616391 15.2577201,60.4155366 L15.2229,60.4076302 C9.02016619,59.0533329 0.0547705036,48.7946235 0.732180576,45.4090778 C1.40246835,42.0591112 5.02613741,41.8108484 5.1005259,41.8061046 L5.10131727,41.8061046 L7.9771446,46.8156369 L30.9647705,53.7938774 Z" id="Fill-19" fill="#26264F"></path>
                            <path d="M25.1513892,58.9520669 L25.8968568,67.2309199 L25.8960655,67.2309199 C17.6745547,69.9135814 16.6299504,68.8177462 16.6299504,68.8177462 C15.1627561,66.4110202 14.7409576,62.6333932 15.2577201,60.4155524 C15.4563532,59.5616549 15.7942669,58.9394166 16.2651302,58.7148732 C17.9594468,57.9076237 25.1513892,58.9520669 25.1513892,58.9520669" id="Fill-21" fill="#000073"></path>
                        </g>
                        <path d="M27.4027727,26.2268415 C27.4027727,26.2268415 22.4769885,37.2191912 22.1302115,40.9278738 L24.6949525,44.9449874 C24.6949525,44.9449874 25.2481971,33.0929685 27.4027727,26.2268415" id="Fill-23" fill="#000000" opacity="0.0960119338"></path>
                        <path d="M42.5616194,29.3347598 C42.5616194,29.3347598 45.6479504,37.3766562 44.3026266,39.9575616 C42.9573029,42.538546 36.5645619,45.2933144 36.5645619,45.2933144 C36.5645619,45.2933144 44.772936,43.4315805 45.8040079,40.0794001 C46.8350007,36.7272988 42.5616194,29.3347598 42.5616194,29.3347598" id="Fill-25" fill="#000000" opacity="0.0960119338"></path>
                        <path d="M7.95941007,47.8754057 C7.95941007,47.8754057 21.1221367,52.8118823 21.1221367,55.1718812 C21.1221367,58.0747375 17.567554,59.3804101 17.567554,59.3804101 C17.567554,59.3804101 22.2102662,59.4188355 25.0855396,59.8932231 L24.8745612,56.7833756 L30.9646043,54.7803533 L7.95941007,47.8754057 Z" id="Fill-27" fill="#1D1D3D"></path>
                        <path d="M55.8825482,61.9917553 C55.8825482,61.9917553 51.6295842,68.2611819 44.5038791,69.6117631 C44.5038791,69.6117631 42.1299367,68.3451484 41.1092317,67.5337876 C41.1092317,67.5337876 51.9385338,65.1182064 55.8825482,61.9917553" id="Fill-29" fill="#000000" opacity="0.374957857"></path>
                        <path d="M16.3839935,69.3543288 C16.3839935,69.3543288 16.4934396,70.1505092 17.9632453,70.0111184 C19.4331302,69.8716484 22.0649791,69.591997 25.8174827,68.2280538 C25.8174827,68.2280538 26.1209719,70.3034202 25.1119791,59.9986162 C25.1119791,59.9986162 27.2292022,67.8781139 16.3839935,69.3543288 Z" id="Fill-31" fill="#000000" opacity="0.374957857"></path>
                        <path d="M62.2270633,52.8702873 C59.3781424,58.5491013 48.2618906,63.2626949 25.6261856,65.2009633 L25.9432072,68.7220256 C25.9432072,68.7220256 42.8250417,70.9359131 58.9229482,59.9985924 C58.9229482,59.9985924 66.6975741,54.6221214 65.7564014,49.1593909 C65.1023367,45.3627094 59.0395165,45.3627094 59.0395165,45.3627094 C59.0395165,45.3627094 65.0658547,47.2115557 62.2270633,52.8702873 Z" id="Fill-33" fill="#26264F"></path>
                        <path d="M50.4884252,24.2087654 C50.4884252,24.2087654 58.6912597,37.0435571 51.529864,45.8460549 C51.529864,45.8460549 49.0112597,50.9589246 37.2462453,49.9574135 L37.0747561,49.9838211 L37.0484036,50.9852531 C37.0484036,50.9852531 38.3673748,51.9199547 42.4231302,51.6667899 C46.4788856,51.413546 49.7409,50.6855983 52.1985691,49.583517 C54.6563173,48.4815939 58.2290223,44.6539981 55.4138137,34.7394569 C54.1888568,28.7813077 50.9286626,24.9944302 50.4884252,24.2087654" id="Fill-35" fill="#000000" opacity="0.0960119338"></path>
                        <mask id="mask-22" fill="white">
                            <use xlink:href="#path-21"></use>
                        </mask>
                        <g id="Clip-38"></g>
                        <path d="M30.0828807,10.3942013 L30.0122757,10.5288038 C31.2307778,10.5893628 32.2993128,11.4977479 32.325428,11.7466858 L32.325428,11.7466858 C32.351465,11.9956237 33.1138107,12.8973069 33.1138107,12.8973069 L33.1138107,12.8973069 C32.9965267,11.5650088 33.6919424,11.2677852 33.6919424,11.2677852 L33.6919424,11.2677852 C34.1332428,11.0917603 34.7166914,10.8988597 34.8283457,12.1907852 L34.8283457,12.1907852 C34.9399218,13.4827106 34.4234815,14.7140771 34.4234815,14.7140771 L34.4234815,14.7140771 C35.3617531,16.591487 35.459177,18.1178162 39.2125761,18.0044497 L39.2125761,18.0044497 C39.4605926,17.9970212 39.710251,18.0036423 39.9599877,18.0217293 L39.9599877,18.0217293 C40.2842387,18.091574 40.6518066,18.148015 41.069572,18.1861268 L41.069572,18.1861268 C41.1122634,18.1900025 41.1549547,18.1950895 41.1976461,18.1998535 L41.1976461,18.1998535 C42.6130288,18.497723 43.9388848,19.0765056 44.8605021,19.5539529 L44.8605021,19.5539529 C47.2219753,20.9548845 48.9862387,22.9097293 48.9862387,22.9097293 L48.9862387,22.9097293 C47.7743045,19.8010336 44.4512593,15.5619032 41.7537284,15.161487 L41.7537284,15.161487 C39.8673333,14.8816237 38.5459342,13.8434808 37.9212016,13.2441081 L37.9212016,13.2441081 C37.6257243,12.8382013 37.3679342,12.431487 37.1610453,12.02881 L37.1610453,12.02881 C36.1096337,9.98369198 35.0860576,10.2147852 34.2281646,10.4460398 L34.2281646,10.4460398 C33.7253292,10.5816112 33.2794938,10.7170212 32.9183374,10.3942013 L32.9183374,10.3942013 C32.5926008,10.1030336 32.168893,10.0059777 31.7488601,10.0059777 L31.7488601,10.0059777 C30.908716,10.0059777 30.0828807,10.3942013 30.0828807,10.3942013" id="Fill-37" fill="#343590" mask="url(#mask-22)"></path>
                        <path d="M31.4298661,47.9692386 C31.4298661,47.9692386 28.0651033,47.4905103 28.5113916,49.3495587 C28.9578395,51.2084473 32.4492807,51.693889 34.6044914,51.480739 C36.759702,51.2676689 37.1322341,50.4584662 36.8661854,49.9838937 C36.6000568,49.5094012 35.9783184,49.3951138 35.9783184,49.3951138 C35.9783184,49.3951138 32.4759415,50.1120874 31.7042962,49.9838937 C30.932651,49.8557 30.8861942,49.088376 30.9481366,48.9499524 C31.0100789,48.8114488 31.0497508,48.6424154 31.1990989,48.4572378 C31.348447,48.2722201 31.4298661,47.9692386 31.4298661,47.9692386" id="Fill-39" fill="#CB2C23" mask="url(#mask-22)"></path>
                        <polygon id="Fill-41" fill="#EEAC16" mask="url(#mask-22)" points="4.8573561 34.9789889 18.9061366 39.4393145 27.3140922 52.8127786 8.31000355 48.2572668 31.6178882 55.2703574 20.6487441 38.1658491"></polygon>
                        <polygon id="Fill-43" fill="#FFFFFF" mask="url(#mask-22)" points="1.03584834 35.532036 10.3410102 37.401634 1.33406563 36.0524833"></polygon>
                    </g>
                </g>
            </g>
        </g>
    </g>
</svg>