<?xml version="1.0" standalone="no"?><!DOCTYPE svg PUBLIC "-//W3C//DTD SVG 1.1//EN" "http://www.w3.org/Graphics/SVG/1.1/DTD/svg11.dtd"><svg t="1650618699089" class="icon" viewBox="0 0 1024 1024" version="1.1" xmlns="http://www.w3.org/2000/svg" p-id="4143" xmlns:xlink="http://www.w3.org/1999/xlink" width="200" height="200"><defs><style type="text/css"></style></defs><path d="M40.320292 711.166909a510.504965 510.504965 0 0 0 109.695635 162.815458A510.334299 510.334299 0 0 0 511.99872 1023.997867a507.304976 507.304976 0 0 0 231.167229-55.039817 514.85695 514.85695 0 0 0 176.340746-147.199509 35.96788 35.96788 0 0 0-57.173143-43.519855 443.561188 443.561188 0 0 1-151.679494 126.463578A434.857217 434.857217 0 0 1 511.99872 952.01944a437.417209 437.417209 0 0 1-311.038963-128.767571 439.337202 439.337202 0 0 1-128.980904-311.294962 437.502542 437.502542 0 0 1 128.810238-311.038963A439.294536 439.294536 0 0 1 511.99872 71.894374c69.11977-0.255999 137.258209 15.999947 198.826004 47.359842a444.499852 444.499852 0 0 1 151.679494 126.506245 35.96788 35.96788 0 1 0 57.173143-43.562522 516.350279 516.350279 0 0 0-176.511412-147.199509A508.11564 508.11564 0 0 0 511.99872 0.00128a509.438302 509.438302 0 0 0-361.982793 149.8875A510.419632 510.419632 0 0 0 0.000427 511.999573c0 69.11977 13.439955 136.319546 40.319865 199.210003z" fill="#000000" p-id="4144"></path><path d="M826.664338 401.493275a35.839881 35.839881 0 0 1 25.429248-61.439795 35.839881 35.839881 0 0 1 25.471915 10.538631l135.850214 135.764881a36.266546 36.266546 0 0 1 0 51.199829l-135.935547 135.722215a35.96788 35.96788 0 1 1-50.858497-50.815831l74.239753-74.282419-481.022397-0.213333a36.053213 36.053213 0 0 1 0-72.063759l481.065063-0.042667-74.282419-74.239752h0.042667V401.493275z" fill="#3461EC" p-id="4145"></path></svg>