<?xml version="1.0" encoding="UTF-8"?>
<svg width="456px" height="129px" viewBox="0 0 456 129" version="1.1" xmlns="http://www.w3.org/2000/svg" xmlns:xlink="http://www.w3.org/1999/xlink">
    <title>多文件示意图</title>
    <g id="页面-1" stroke="none" stroke-width="1" fill="none" fill-rule="evenodd">
        <g id="知识映射（模式5文档）" transform="translate(-475.000000, -623.000000)">
            <g id="多文件示意图" transform="translate(475.000000, 623.000000)">
                <g id="表格" transform="translate(0.000000, 81.000000)" fill-opacity="0.14">
                    <g id="表1">
                        <rect id="矩形" stroke-opacity="0.14" stroke="#989CAC" fill="#54639C" x="0.5" y="0.5" width="455" height="47" rx="2"></rect>
                        <rect id="矩形" fill="#989CAC" transform="translate(151.500000, 24.000000) scale(-1, 1) translate(-151.500000, -24.000000) " x="151" y="0" width="1" height="48"></rect>
                        <rect id="矩形" fill="#989CAC" transform="translate(303.500000, 24.000000) scale(-1, 1) translate(-303.500000, -24.000000) " x="303" y="0" width="1" height="48"></rect>
                    </g>
                </g>
                <g id="表头" transform="translate(51.000000, 94.000000)" fill="#333333" font-family="PingFangSC-Regular, PingFang SC" font-size="14" font-weight="normal" line-spacing="22">
                    <text id="Predicate">
                        <tspan x="145" y="15">Predicate</tspan>
                    </text>
                    <text id="Object">
                        <tspan x="306" y="15">Object</tspan>
                    </text>
                    <text id="Subject">
                        <tspan x="0" y="15">Subject</tspan>
                    </text>
                </g>
                <g id="表名" transform="translate(133.000000, 0.000000)" fill="#333333" font-family="PingFangSC-Regular, PingFang SC" font-size="14" font-weight="normal">
                    <text id="Document-Knowledge-M">
                        <tspan x="0.585" y="15">Document Knowledge Model</tspan>
                    </text>
                </g>
                <g id="关系" transform="translate(74.000000, 40.000000)">
                    <path id="路径-2" d="M304,11.5 C306.414273,11.5 308.384489,13.4012365 308.495102,15.7881643 L308.5,16 L308.5,31.5 L312.5,31.5 L308,40.5 L303.5,31.5 L307.5,31.5 L307.5,16 C307.5,14.1314366 306.035722,12.6048736 304.192035,12.5051789 L304,12.5 L4,12.5 C2.1314366,12.5 0.604873551,13.9642776 0.505178863,15.8079648 L0.5,16 L0.5,31.5 L4.5,31.5 L-3.061617e-17,40.5 L-4.5,31.5 L-0.5,31.5 L-0.5,16 C-0.5,13.5857267 1.40123652,11.6155109 3.7881643,11.504898 L4,11.5 L304,11.5 Z" fill="#5163A0" fill-rule="nonzero"></path>
                    <path id="路径-3" d="M154.499923,11.9912294 L154.85,31.992 L158.850208,31.9223726 L154.508771,40.9999231 L149.851592,32.080243 L153.851,32.01 L153.500077,12.0087706 L154.499923,11.9912294 Z" fill="#54639C" fill-rule="nonzero"></path>
                    <rect id="矩形" fill="#FFFFFF" x="114" y="0" width="79" height="25"></rect>
                    <text id="Relationship" font-family="PingFangSC-Medium, PingFang SC" font-size="13" font-weight="400" fill="#5163A0">
                        <tspan x="116.04" y="18">Relationship</tspan>
                    </text>
                </g>
            </g>
        </g>
    </g>
</svg>