<?xml version="1.0" encoding="UTF-8"?>
<svg width="476px" height="148px" viewBox="0 0 476 148" version="1.1" xmlns="http://www.w3.org/2000/svg" xmlns:xlink="http://www.w3.org/1999/xlink">
    <title>多文件示意图</title>
    <g id="页面-1" stroke="none" stroke-width="1" fill="none" fill-rule="evenodd">
        <g id="知识映射（模式4包含）" transform="translate(-464.000000, -623.000000)">
            <g id="多文件示意图" transform="translate(464.000000, 623.000000)">
                <g id="表格" transform="translate(0.000000, 80.000000)">
                    <g id="表1" transform="translate(0.000000, 0.500000)">
                        <rect id="矩形" stroke-opacity="0.14" stroke="#989CAC" fill="#FFFFFF" x="0.5" y="0.5" width="179" height="66"></rect>
                        <path d="M2,1 L179,1 L179,1 L179,34 L1,34 L1,2 C1,1.44771525 1.44771525,1 2,1 Z" id="矩形" fill-opacity="0.14" fill="#54639C"></path>
                        <rect id="矩形" fill-opacity="0.14" fill="#989CAC" transform="translate(89.500000, 33.500000) scale(-1, 1) translate(-89.500000, -33.500000) " x="89" y="0.5" width="1" height="66"></rect>
                        <rect id="矩形" stroke-opacity="0.2" stroke="#CFD2DB" transform="translate(90.000000, 33.000000) rotate(-90.000000) translate(-90.000000, -33.000000) " x="90" y="-55.5" width="1" height="177"></rect>
                    </g>
                    <g id="表2" transform="translate(296.000000, 0.500000)">
                        <rect id="矩形" stroke-opacity="0.14" stroke="#989CAC" fill="#FFFFFF" x="0.5" y="0.5" width="179" height="66"></rect>
                        <rect id="矩形" fill-opacity="0.14" fill="#54639C" x="1" y="0.5" width="178" height="33" rx="1"></rect>
                        <rect id="矩形" fill-opacity="0.14" fill="#989CAC" transform="translate(89.500000, 33.500000) scale(-1, 1) translate(-89.500000, -33.500000) " x="89" y="0.5" width="1" height="66"></rect>
                        <rect id="矩形" stroke-opacity="0.2" stroke="#CFD2DB" transform="translate(90.000000, 33.000000) rotate(-90.000000) translate(-90.000000, -33.000000) " x="90" y="-55.5" width="1" height="177"></rect>
                    </g>
                </g>
                <g id="表头" transform="translate(26.000000, 86.000000)" fill="#333333" font-family="PingFangSC-Regular, PingFang SC" font-size="14" font-weight="normal" line-spacing="22">
                    <text id="Field-1">
                        <tspan x="0" y="15">Field 1</tspan>
                    </text>
                    <text id="Field-2">
                        <tspan x="85" y="15">Field 2</tspan>
                    </text>
                    <text id="Field-1">
                        <tspan x="296" y="15">Field 1</tspan>
                    </text>
                    <text id="Field-2">
                        <tspan x="381" y="15">Field 2</tspan>
                    </text>
                </g>
                <g id="表名" transform="translate(14.000000, 0.000000)" fill="#333333" font-family="PingFangSC-Regular, PingFang SC" font-size="14" font-weight="normal">
                    <text id="Table-A(Starting-Ent">
                        <tspan x="0" y="15">Table A(Starting Entity)</tspan>
                    </text>
                    <text id="Table-B(End-Entity)">
                        <tspan x="309" y="15">Table B(End Entity)</tspan>
                    </text>
                </g>
                <g id="关系" transform="translate(118.000000, 32.000000)" fill="#5163A0">
                    <path id="路径-2" d="M221,27.5 C223.414273,27.5 225.384489,29.4012365 225.495102,31.7881643 L225.5,32 L225.5,47.5 L229.5,47.5 L225,56.5 L220.5,47.5 L224.5,47.5 L224.5,32 C224.5,30.1314366 223.035722,28.6048736 221.192035,28.5051789 L221,28.5 L19,28.5 C17.1314366,28.5 15.6048736,29.9642776 15.5051789,31.8079648 L15.5,32 L15.5,47.5 L19.5,47.5 L15,56.5 L10.5,47.5 L14.5,47.5 L14.5,32 C14.5,29.5857267 16.4012365,27.6155109 18.7881643,27.504898 L19,27.5 L221,27.5 Z" fill-rule="nonzero"></path>
                    <text id="Relationship：A.Field" font-family="PingFangSC-Medium, PingFang SC" font-size="13" font-weight="400">
                        <tspan x="0" y="14">Relationship：A.Field2 contain B.Field1</tspan>
                    </text>
                </g>
            </g>
        </g>
    </g>
</svg>