<?xml version="1.0" encoding="UTF-8"?>
<svg width="476px" height="148px" viewBox="0 0 476 148" version="1.1" xmlns="http://www.w3.org/2000/svg" xmlns:xlink="http://www.w3.org/1999/xlink">
    <title>多文件示意图</title>
    <g id="页面-1" stroke="none" stroke-width="1" fill="none" fill-rule="evenodd">
        <g id="知识映射（模式3外部）" transform="translate(-464.000000, -623.000000)">
            <g id="多文件示意图" transform="translate(464.000000, 623.000000)">
                <g id="表格" transform="translate(0.000000, 46.000000)">
                    <g id="表1" transform="translate(0.000000, 35.000000)">
                        <rect id="矩形" stroke-opacity="0.14" stroke="#989CAC" fill="#FFFFFF" x="0.5" y="0.5" width="119" height="66"></rect>
                        <path d="M2,0.5 L118,0.5 C118.552285,0.5 119,0.94771525 119,1.5 L119,32.5 L119,32.5 L1,32.5 L1,1.5 C1,0.94771525 1.44771525,0.5 2,0.5 Z" id="矩形" fill-opacity="0.14" fill="#54639C"></path>
                        <rect id="矩形" fill-opacity="0.14" fill="#989CAC" transform="translate(59.500000, 33.500000) scale(-1, 1) translate(-59.500000, -33.500000) " x="59" y="0.5" width="1" height="66"></rect>
                        <rect id="矩形" stroke-opacity="0.2" stroke="#CFD2DB" transform="translate(60.000000, 33.000000) rotate(-90.000000) translate(-60.000000, -33.000000) " x="60" y="-25.5" width="1" height="117"></rect>
                    </g>
                    <g id="表2" transform="translate(178.000000, 35.000000)">
                        <rect id="矩形" stroke-opacity="0.14" stroke="#989CAC" fill="#FFFFFF" x="0.5" y="0.5" width="119" height="66"></rect>
                        <rect id="矩形" fill-opacity="0.14" fill="#54639C" x="1" y="0.5" width="118" height="32"></rect>
                        <rect id="矩形" fill-opacity="0.14" fill="#989CAC" transform="translate(59.500000, 33.500000) scale(-1, 1) translate(-59.500000, -33.500000) " x="59" y="0.5" width="1" height="66"></rect>
                        <rect id="矩形" stroke-opacity="0.2" stroke="#CFD2DB" transform="translate(60.000000, 33.000000) rotate(-90.000000) translate(-60.000000, -33.000000) " x="60" y="-25.5" width="1" height="117"></rect>
                    </g>
                    <g id="表3" transform="translate(356.000000, 35.000000)">
                        <rect id="矩形" stroke-opacity="0.14" stroke="#989CAC" fill="#FFFFFF" x="0.5" y="0.5" width="119" height="66"></rect>
                        <rect id="矩形" fill-opacity="0.14" fill="#54639C" x="1" y="0.5" width="118" height="32"></rect>
                        <rect id="矩形" fill-opacity="0.14" fill="#989CAC" transform="translate(59.500000, 33.500000) scale(-1, 1) translate(-59.500000, -33.500000) " x="59" y="0.5" width="1" height="66"></rect>
                        <rect id="矩形" stroke-opacity="0.2" stroke="#CFD2DB" transform="translate(60.000000, 33.000000) rotate(-90.000000) translate(-60.000000, -33.000000) " x="60" y="-25.5" width="1" height="117"></rect>
                    </g>
                    <g id="表头" transform="translate(8.000000, 42.000000)" fill="#333333" font-family="PingFangSC-Regular, PingFang SC" font-size="14" font-weight="normal">
                        <text id="Field-1">
                            <tspan x="0.399" y="15">Field 1</tspan>
                        </text>
                        <text id="Field-2">
                            <tspan x="61.006" y="15">Field 2</tspan>
                        </text>
                        <text id="Field-1">
                            <tspan x="178.399" y="15">Field 1</tspan>
                        </text>
                        <text id="Field-2">
                            <tspan x="239.006" y="15">Field 2</tspan>
                        </text>
                        <text id="Field-1">
                            <tspan x="356.399" y="15">Field 1</tspan>
                        </text>
                        <text id="Field-2">
                            <tspan x="417.006" y="15">Field 2</tspan>
                        </text>
                    </g>
                    <g id="关系1" transform="translate(88.000000, 0.000000)">
                        <path id="路径-2" d="M117,14.5 C119.414273,14.5 121.384489,16.4012365 121.495102,18.7881643 L121.5,19 L121.5,32.5 L125.5,32.5 L121,41.5 L116.5,32.5 L120.5,32.5 L120.5,19 C120.5,17.1314366 119.035722,15.6048736 117.192035,15.5051789 L117,15.5 L4,15.5 C2.1314366,15.5 0.604873551,16.9642776 0.505178863,18.8079648 L0.5,19 L0.5,32.5 L4.5,32.5 L-3.061617e-17,41.5 L-4.5,32.5 L-0.5,32.5 L-0.5,19 C-0.5,16.5857267 1.40123652,14.6155109 3.7881643,14.504898 L4,14.5 L117,14.5 Z" fill="#5163A0" fill-rule="nonzero"></path>
                        <g id="编组-4" transform="translate(5.000000, 0.000000)">
                            <rect id="矩形" fill="#FFFFFF" x="0" y="0" width="108" height="25"></rect>
                            <text id="A.Field2=B.Field1" font-family="PingFangSC-Medium, PingFang SC" font-size="13" font-weight="400" line-spacing="22" fill="#5163A0">
                                <tspan x="3" y="16">A.Field2=B.Field1</tspan>
                            </text>
                        </g>
                    </g>
                    <g id="关系2" transform="translate(268.000000, 0.000000)">
                        <path id="路径-2" d="M117,14.5 C119.414273,14.5 121.384489,16.4012365 121.495102,18.7881643 L121.5,19 L121.5,32.5 L125.5,32.5 L121,41.5 L116.5,32.5 L120.5,32.5 L120.5,19 C120.5,17.1314366 119.035722,15.6048736 117.192035,15.5051789 L117,15.5 L4,15.5 C2.1314366,15.5 0.604873551,16.9642776 0.505178863,18.8079648 L0.5,19 L0.5,32.5 L4.5,32.5 L-3.061617e-17,41.5 L-4.5,32.5 L-0.5,32.5 L-0.5,19 C-0.5,16.5857267 1.40123652,14.6155109 3.7881643,14.504898 L4,14.5 L117,14.5 Z" fill="#5163A0" fill-rule="nonzero"></path>
                        <g id="编组-6" transform="translate(6.000000, 0.000000)">
                            <rect id="矩形" fill="#FFFFFF" x="0" y="0" width="108" height="25"></rect>
                            <text id="B.Field2=C.Field1" font-family="PingFangSC-Medium, PingFang SC" font-size="13" font-weight="400" line-spacing="22" fill="#5163A0">
                                <tspan x="3" y="16">B.Field2=C.Field1</tspan>
                            </text>
                        </g>
                    </g>
                </g>
                <g id="表名" transform="translate(3.000000, 0.000000)" fill="#333333" font-family="PingFangSC-Regular, PingFang SC" font-size="14" font-weight="normal">
                    <text id="Table-A(起始实体)">
                        <tspan x="0" y="15">Table A(起始实体)</tspan>
                    </text>
                    <text id="Table-B(关系)">
                        <tspan x="191.39" y="15">Table B(关系)</tspan>
                    </text>
                    <text id="Table-C(终点实体)">
                        <tspan x="355.033" y="15">Table C(终点实体)</tspan>
                    </text>
                </g>
            </g>
        </g>
    </g>
</svg>