<?xml version="1.0" encoding="UTF-8"?>
<svg width="520px" height="299px" viewBox="0 0 520 299" version="1.1" xmlns="http://www.w3.org/2000/svg" xmlns:xlink="http://www.w3.org/1999/xlink">
    <title>图</title>
    <defs>
        <rect id="path-1" x="0" y="0" width="520" height="299" rx="6"></rect>
        <rect id="path-3" x="0" y="89" width="149" height="123"></rect>
        <mask id="mask-4" maskContentUnits="userSpaceOnUse" maskUnits="objectBoundingBox" x="0" y="0" width="149" height="123" fill="white">
            <use xlink:href="#path-3"></use>
        </mask>
        <rect id="path-5" x="0" y="88" width="149" height="123"></rect>
        <mask id="mask-6" maskContentUnits="userSpaceOnUse" maskUnits="objectBoundingBox" x="0" y="0" width="149" height="123" fill="white">
            <use xlink:href="#path-5"></use>
        </mask>
        <rect id="path-7" x="0" y="88" width="149" height="123"></rect>
        <mask id="mask-8" maskContentUnits="userSpaceOnUse" maskUnits="objectBoundingBox" x="0" y="0" width="149" height="123" fill="white">
            <use xlink:href="#path-7"></use>
        </mask>
    </defs>
    <g id="页面-1" stroke="none" stroke-width="1" fill="none" fill-rule="evenodd">
        <g id="模式二（外部）" transform="translate(-700.000000, -311.000000)">
            <g id="操作指引" transform="translate(640.000000, 194.000000)">
                <g id="图" transform="translate(60.000000, 117.000000)">
                    <mask id="mask-2" fill="white">
                        <use xlink:href="#path-1"></use>
                    </mask>
                    <use id="背景" fill="#F0F4FA" xlink:href="#path-1"></use>
                    <g id="多文件示意图" mask="url(#mask-2)">
                        <g transform="translate(16.000000, 30.000000)">
                            <g id="表1" transform="translate(0.000000, 0.500000)">
                                <rect id="矩形" stroke-opacity="0.14" stroke="#989CAC" fill="#FFFFFF" x="10.5" y="100" width="129" height="99"></rect>
                                <path d="M12,100.5 L138,100.5 C138.552285,100.5 139,100.947715 139,101.5 L139,149.5 L139,149.5 L11,149.5 L11,101.5 C11,100.947715 11.4477153,100.5 12,100.5 Z" id="矩形" fill-opacity="0.3" fill="#54639C"></path>
                                <text id="Field-1" font-family="PingFangSC-Regular, PingFang SC" font-size="14" font-weight="normal" fill="#333333">
                                    <tspan x="21" y="132.5">Field 1</tspan>
                                </text>
                                <text id="Field-2" font-family="PingFangSC-Regular, PingFang SC" font-size="14" font-weight="normal" fill="#333333">
                                    <tspan x="86" y="132.5">Field 2</tspan>
                                </text>
                                <text id="Table-A(起始实体)" font-family="PingFangSC-Regular, PingFang SC" font-size="14" font-weight="normal" fill="#333333">
                                    <tspan x="17" y="15.5">Table A(起始实体)</tspan>
                                </text>
                                <use id="矩形" stroke="#EA5404" mask="url(#mask-4)" stroke-width="2" stroke-dasharray="5" xlink:href="#path-3"></use>
                                <rect id="矩形" fill-opacity="0.14" fill="#989CAC" transform="translate(74.500000, 149.500000) scale(-1, 1) translate(-74.500000, -149.500000) " x="74" y="100.5" width="1" height="98"></rect>
                            </g>
                            <g id="表1" transform="translate(169.000000, 1.500000)">
                                <rect id="矩形" stroke-opacity="0.14" stroke="#989CAC" fill="#FFFFFF" x="10.5" y="99" width="129" height="99"></rect>
                                <path d="M12,99.5 L138,99.5 C138.552285,99.5 139,99.9477153 139,100.5 L139,148.5 L139,148.5 L11,148.5 L11,100.5 C11,99.9477153 11.4477153,99.5 12,99.5 Z" id="矩形" fill-opacity="0.3" fill="#54639C"></path>
                                <text id="Field-1" font-family="PingFangSC-Regular, PingFang SC" font-size="14" font-weight="normal" fill="#333333">
                                    <tspan x="21" y="131.5">Field 1</tspan>
                                </text>
                                <text id="Field-2" font-family="PingFangSC-Regular, PingFang SC" font-size="14" font-weight="normal" fill="#333333">
                                    <tspan x="86" y="131.5">Field 2</tspan>
                                </text>
                                <text id="Table-B(关系)" font-family="PingFangSC-Regular, PingFang SC" font-size="14" font-weight="normal" fill="#333333">
                                    <tspan x="31" y="15">Table B(关系)</tspan>
                                </text>
                                <use id="矩形" stroke="#EA5404" mask="url(#mask-6)" stroke-width="2" stroke-dasharray="5" xlink:href="#path-5"></use>
                                <rect id="矩形" fill-opacity="0.14" fill="#989CAC" transform="translate(74.500000, 148.500000) scale(-1, 1) translate(-74.500000, -148.500000) " x="74" y="99.5" width="1" height="98"></rect>
                            </g>
                            <g id="表1" transform="translate(338.000000, 1.500000)">
                                <rect id="矩形" stroke-opacity="0.14" stroke="#989CAC" fill="#FFFFFF" x="10.5" y="99" width="129" height="99"></rect>
                                <path d="M12,99.5 L138,99.5 C138.552285,99.5 139,99.9477153 139,100.5 L139,148.5 L139,148.5 L11,148.5 L11,100.5 C11,99.9477153 11.4477153,99.5 12,99.5 Z" id="矩形" fill-opacity="0.3" fill="#54639C"></path>
                                <text id="Field-1" font-family="PingFangSC-Regular, PingFang SC" font-size="14" font-weight="normal" fill="#333333">
                                    <tspan x="21" y="131.5">Field 1</tspan>
                                </text>
                                <text id="Field-2" font-family="PingFangSC-Regular, PingFang SC" font-size="14" font-weight="normal" fill="#333333">
                                    <tspan x="86" y="131.5">Field 2</tspan>
                                </text>
                                <text id="Table-C(终点实体)" font-family="PingFangSC-Regular, PingFang SC" font-size="14" font-weight="normal" fill="#333333">
                                    <tspan x="17" y="15">Table C(终点实体)</tspan>
                                </text>
                                <use id="矩形" stroke="#EA5404" mask="url(#mask-8)" stroke-width="2" stroke-dasharray="5" xlink:href="#path-7"></use>
                                <rect id="矩形" fill-opacity="0.14" fill="#989CAC" transform="translate(74.500000, 148.500000) scale(-1, 1) translate(-74.500000, -148.500000) " x="74" y="99.5" width="1" height="98"></rect>
                            </g>
                            <g id="关系" transform="translate(87.000000, 37.000000)">
                                <path id="路径-2" d="M122,33.5 C124.414273,33.5 126.384489,35.4012365 126.495102,37.7881643 L126.5,38 L126.5,55.5 L130.5,55.5 L126,64.5 L121.5,55.5 L125.5,55.5 L125.5,38 C125.5,36.1314366 124.035722,34.6048736 122.192035,34.5051789 L122,34.5 L22,34.5 C20.1314366,34.5 18.6048736,35.9642776 18.5051789,37.8079648 L18.5,38 L18.5,55.5 L22.5,55.5 L18,64.5 L13.5,55.5 L17.5,55.5 L17.5,38 C17.5,35.5857267 19.4012365,33.6155109 21.7881643,33.504898 L22,33.5 L122,33.5 Z" fill="#54639C" fill-rule="nonzero"></path>
                                <rect id="矩形" fill="#FFFFFF" x="0" y="0" width="145" height="26" rx="3"></rect>
                                <text id="关系：A.Field2=B.Field1" font-family="PingFangSC-Medium, PingFang SC" font-size="12" font-weight="400" fill="#5163A0">
                                    <tspan x="6" y="18">关系：A.Field2=B.Field1</tspan>
                                </text>
                            </g>
                            <g id="关系" transform="translate(257.000000, 37.000000)">
                                <path id="路径-2" d="M123,33.5 C125.414273,33.5 127.384489,35.4012365 127.495102,37.7881643 L127.5,38 L127.5,55.5 L131.5,55.5 L127,64.5 L122.5,55.5 L126.5,55.5 L126.5,38 C126.5,36.1314366 125.035722,34.6048736 123.192035,34.5051789 L123,34.5 L23,34.5 C21.1314366,34.5 19.6048736,35.9642776 19.5051789,37.8079648 L19.5,38 L19.5,55.5 L23.5,55.5 L19,64.5 L14.5,55.5 L18.5,55.5 L18.5,38 C18.5,35.5857267 20.4012365,33.6155109 22.7881643,33.504898 L23,33.5 L123,33.5 Z" fill="#54639C" fill-rule="nonzero"></path>
                                <rect id="矩形" fill="#FFFFFF" x="0" y="0" width="146" height="26" rx="3"></rect>
                                <text id="关系：B.Field2=C.Field1" font-family="PingFangSC-Medium, PingFang SC" font-size="12" font-weight="400" fill="#5163A0">
                                    <tspan x="6" y="18">关系：B.Field2=C.Field1</tspan>
                                </text>
                            </g>
                        </g>
                    </g>
                </g>
            </g>
        </g>
    </g>
</svg>