<?xml version="1.0" encoding="UTF-8"?>
<svg width="520px" height="299px" viewBox="0 0 520 299" version="1.1" xmlns="http://www.w3.org/2000/svg" xmlns:xlink="http://www.w3.org/1999/xlink">
    <title>图</title>
    <defs>
        <rect id="path-1" x="0" y="0" width="520" height="299" rx="6"></rect>
        <rect id="path-3" x="0" y="79" width="186" height="140"></rect>
        <mask id="mask-4" maskContentUnits="userSpaceOnUse" maskUnits="objectBoundingBox" x="0" y="0" width="186" height="140" fill="white">
            <use xlink:href="#path-3"></use>
        </mask>
        <rect id="path-5" x="0" y="79" width="186" height="140"></rect>
        <mask id="mask-6" maskContentUnits="userSpaceOnUse" maskUnits="objectBoundingBox" x="0" y="0" width="186" height="140" fill="white">
            <use xlink:href="#path-5"></use>
        </mask>
    </defs>
    <g id="页面-1" stroke="none" stroke-width="1" fill="none" fill-rule="evenodd">
        <g id="模式三（包含）" transform="translate(-701.000000, -311.000000)">
            <g id="操作指引" transform="translate(640.000000, 194.000000)">
                <g id="图" transform="translate(61.000000, 117.000000)">
                    <mask id="mask-2" fill="white">
                        <use xlink:href="#path-1"></use>
                    </mask>
                    <use id="背景" fill="#F0F4FA" xlink:href="#path-1"></use>
                    <g id="多文件示意图" mask="url(#mask-2)">
                        <g transform="translate(30.000000, 30.000000)">
                            <g id="表1" transform="translate(0.000000, 0.500000)">
                                <rect id="矩形" stroke-opacity="0.14" stroke="#989CAC" fill="#FFFFFF" x="16.5" y="99" width="153" height="99"></rect>
                                <path d="M18,99.5 L168,99.5 C168.552285,99.5 169,99.9477153 169,100.5 L169,148.5 L169,148.5 L17,148.5 L17,100.5 C17,99.9477153 17.4477153,99.5 18,99.5 Z" id="矩形" fill-opacity="0.3" fill="#54639C"></path>
                                <text id="Field-1" font-family="PingFangSC-Regular, PingFang SC" font-size="14" font-weight="normal" fill="#333333">
                                    <tspan x="35" y="131.5">Field 1</tspan>
                                </text>
                                <text id="Field-2" font-family="PingFangSC-Regular, PingFang SC" font-size="14" font-weight="normal" fill="#333333">
                                    <tspan x="108" y="131.5">Field 2</tspan>
                                </text>
                                <text id="Table-A(Starting-Ent" font-family="PingFangSC-Regular, PingFang SC" font-size="14" font-weight="normal" fill="#333333">
                                    <tspan x="16.389" y="15.5">Table A(Starting Entity)</tspan>
                                </text>
                                <use id="矩形" stroke="#EA5404" mask="url(#mask-4)" stroke-width="2" stroke-dasharray="5" xlink:href="#path-3"></use>
                                <rect id="矩形" fill-opacity="0.14" fill="#989CAC" transform="translate(92.500000, 148.500000) scale(-1, 1) translate(-92.500000, -148.500000) " x="92" y="99.5" width="1" height="98"></rect>
                            </g>
                            <g id="表1" transform="translate(274.000000, 0.500000)">
                                <rect id="矩形" stroke-opacity="0.14" stroke="#989CAC" fill="#FFFFFF" x="16.5" y="99" width="153" height="99"></rect>
                                <path d="M18,99.5 L168,99.5 C168.552285,99.5 169,99.9477153 169,100.5 L169,148.5 L169,148.5 L17,148.5 L17,100.5 C17,99.9477153 17.4477153,99.5 18,99.5 Z" id="矩形" fill-opacity="0.3" fill="#54639C"></path>
                                <text id="Field-1" font-family="PingFangSC-Regular, PingFang SC" font-size="14" font-weight="normal" fill="#333333">
                                    <tspan x="35" y="131.5">Field 1</tspan>
                                </text>
                                <text id="Field-2" font-family="PingFangSC-Regular, PingFang SC" font-size="14" font-weight="normal" fill="#333333">
                                    <tspan x="113" y="131.5">Field 2</tspan>
                                </text>
                                <text id="Table-B(End-Entity)" font-family="PingFangSC-Regular, PingFang SC" font-size="14" font-weight="normal" fill="#333333">
                                    <tspan x="29.979" y="15.5">Table B(End Entity)</tspan>
                                </text>
                                <use id="矩形" stroke="#EA5404" mask="url(#mask-6)" stroke-width="2" stroke-dasharray="5" xlink:href="#path-5"></use>
                                <rect id="矩形" fill-opacity="0.14" fill="#989CAC" transform="translate(92.500000, 148.500000) scale(-1, 1) translate(-92.500000, -148.500000) " x="92" y="99.5" width="1" height="98"></rect>
                            </g>
                            <g id="关系" transform="translate(112.000000, 41.000000)">
                                <path id="路径-2" d="M213,32.5 C215.414273,32.5 217.384489,34.4012365 217.495102,36.7881643 L217.5,37 L217.5,50.5 L221.5,50.5 L217,59.5 L212.5,50.5 L216.5,50.5 L216.5,37 C216.5,35.1314366 215.035722,33.6048736 213.192035,33.5051789 L213,33.5 L22,33.5 C20.1314366,33.5 18.6048736,34.9642776 18.5051789,36.8079648 L18.5,37 L18.5,50.5 L22.5,50.5 L18,59.5 L13.5,50.5 L17.5,50.5 L17.5,37 C17.5,34.5857267 19.4012365,32.6155109 21.7881643,32.504898 L22,32.5 L213,32.5 Z" fill="#54639C" fill-rule="nonzero"></path>
                                <rect id="矩形" fill="#FFFFFF" x="0" y="0" width="234" height="26" rx="3"></rect>
                                <text id="Relationship：A.Field" font-family="PingFangSC-Medium, PingFang SC" font-size="12" font-weight="400" fill="#5163A0">
                                    <tspan x="6.276" y="18">Relationship：A.Field2 contain B.Field1</tspan>
                                </text>
                            </g>
                        </g>
                    </g>
                </g>
            </g>
        </g>
    </g>
</svg>