<?xml version="1.0" encoding="UTF-8"?>
<svg width="520px" height="299px" viewBox="0 0 520 299" version="1.1" xmlns="http://www.w3.org/2000/svg" xmlns:xlink="http://www.w3.org/1999/xlink">
    <title>图</title>
    <defs>
        <rect id="path-1" x="0" y="0" width="520" height="299" rx="6"></rect>
        <rect id="path-3" x="2" y="89" width="149" height="123"></rect>
        <mask id="mask-4" maskContentUnits="userSpaceOnUse" maskUnits="objectBoundingBox" x="0" y="0" width="149" height="123" fill="white">
            <use xlink:href="#path-3"></use>
        </mask>
        <rect id="path-5" x="0" y="88" width="149" height="123"></rect>
        <mask id="mask-6" maskContentUnits="userSpaceOnUse" maskUnits="objectBoundingBox" x="0" y="0" width="149" height="123" fill="white">
            <use xlink:href="#path-5"></use>
        </mask>
        <rect id="path-7" x="0" y="88" width="149" height="123"></rect>
        <mask id="mask-8" maskContentUnits="userSpaceOnUse" maskUnits="objectBoundingBox" x="0" y="0" width="149" height="123" fill="white">
            <use xlink:href="#path-7"></use>
        </mask>
    </defs>
    <g id="页面-1" stroke="none" stroke-width="1" fill="none" fill-rule="evenodd">
        <g id="模式二（外部）" transform="translate(-700.000000, -311.000000)">
            <g id="操作指引" transform="translate(640.000000, 194.000000)">
                <g id="图" transform="translate(60.000000, 117.000000)">
                    <mask id="mask-2" fill="white">
                        <use xlink:href="#path-1"></use>
                    </mask>
                    <use id="背景" fill="#F0F4FA" xlink:href="#path-1"></use>
                    <g id="多文件示意图" mask="url(#mask-2)">
                        <g transform="translate(14.000000, 30.000000)">
                            <g id="表1" transform="translate(0.000000, 0.500000)">
                                <rect id="矩形" stroke-opacity="0.14" stroke="#989CAC" fill="#FFFFFF" x="12.5" y="100" width="129" height="99"></rect>
                                <path d="M14,100.5 L140,100.5 C140.552285,100.5 141,100.947715 141,101.5 L141,149.5 L141,149.5 L13,149.5 L13,101.5 C13,100.947715 13.4477153,100.5 14,100.5 Z" id="矩形" fill-opacity="0.3" fill="#54639C"></path>
                                <text id="Field-1" font-family="PingFangSC-Regular, PingFang SC" font-size="14" font-weight="normal" fill="#333333">
                                    <tspan x="23" y="132.5">Field 1</tspan>
                                </text>
                                <text id="Field-2" font-family="PingFangSC-Regular, PingFang SC" font-size="14" font-weight="normal" fill="#333333">
                                    <tspan x="88" y="132.5">Field 2</tspan>
                                </text>
                                <text id="Table-A(Starting-Ent" font-family="PingFangSC-Regular, PingFang SC" font-size="14" font-weight="normal" fill="#333333">
                                    <tspan x="0.389" y="15.5">Table A(Starting Entity)</tspan>
                                </text>
                                <use id="矩形" stroke="#EA5404" mask="url(#mask-4)" stroke-width="2" stroke-dasharray="5" xlink:href="#path-3"></use>
                                <rect id="矩形" fill-opacity="0.14" fill="#989CAC" transform="translate(76.500000, 149.500000) scale(-1, 1) translate(-76.500000, -149.500000) " x="76" y="100.5" width="1" height="98"></rect>
                            </g>
                            <g id="表1" transform="translate(171.000000, 1.500000)">
                                <rect id="矩形" stroke-opacity="0.14" stroke="#989CAC" fill="#FFFFFF" x="10.5" y="99" width="129" height="99"></rect>
                                <path d="M12,99.5 L138,99.5 C138.552285,99.5 139,99.9477153 139,100.5 L139,148.5 L139,148.5 L11,148.5 L11,100.5 C11,99.9477153 11.4477153,99.5 12,99.5 Z" id="矩形" fill-opacity="0.3" fill="#54639C"></path>
                                <text id="Field-1" font-family="PingFangSC-Regular, PingFang SC" font-size="14" font-weight="normal" fill="#333333">
                                    <tspan x="21" y="131.5">Field 1</tspan>
                                </text>
                                <text id="Field-2" font-family="PingFangSC-Regular, PingFang SC" font-size="14" font-weight="normal" fill="#333333">
                                    <tspan x="86" y="131.5">Field 2</tspan>
                                </text>
                                <text id="Table-B(Relationship" font-family="PingFangSC-Regular, PingFang SC" font-size="14" font-weight="normal" fill="#333333">
                                    <tspan x="5.602" y="15">Table B(Relationship)</tspan>
                                </text>
                                <use id="矩形" stroke="#EA5404" mask="url(#mask-6)" stroke-width="2" stroke-dasharray="5" xlink:href="#path-5"></use>
                                <rect id="矩形" fill-opacity="0.14" fill="#989CAC" transform="translate(74.500000, 148.500000) scale(-1, 1) translate(-74.500000, -148.500000) " x="74" y="99.5" width="1" height="98"></rect>
                            </g>
                            <g id="表1" transform="translate(340.000000, 1.500000)">
                                <rect id="矩形" stroke-opacity="0.14" stroke="#989CAC" fill="#FFFFFF" x="10.5" y="99" width="129" height="99"></rect>
                                <path d="M12,99.5 L138,99.5 C138.552285,99.5 139,99.9477153 139,100.5 L139,148.5 L139,148.5 L11,148.5 L11,100.5 C11,99.9477153 11.4477153,99.5 12,99.5 Z" id="矩形" fill-opacity="0.3" fill="#54639C"></path>
                                <text id="Field-1" font-family="PingFangSC-Regular, PingFang SC" font-size="14" font-weight="normal" fill="#333333">
                                    <tspan x="21" y="131.5">Field 1</tspan>
                                </text>
                                <text id="Field-2" font-family="PingFangSC-Regular, PingFang SC" font-size="14" font-weight="normal" fill="#333333">
                                    <tspan x="86" y="131.5">Field 2</tspan>
                                </text>
                                <text id="Table-C(End-Entity)" font-family="PingFangSC-Regular, PingFang SC" font-size="14" font-weight="normal" fill="#333333">
                                    <tspan x="11.622" y="15">Table C(End Entity)</tspan>
                                </text>
                                <use id="矩形" stroke="#EA5404" mask="url(#mask-8)" stroke-width="2" stroke-dasharray="5" xlink:href="#path-7"></use>
                                <rect id="矩形" fill-opacity="0.14" fill="#989CAC" transform="translate(74.500000, 148.500000) scale(-1, 1) translate(-74.500000, -148.500000) " x="74" y="99.5" width="1" height="98"></rect>
                            </g>
                            <g id="关系" transform="translate(106.000000, 37.000000)">
                                <path id="路径-2" d="M105,33.5 C107.414273,33.5 109.384489,35.4012365 109.495102,37.7881643 L109.5,38 L109.5,55.5 L113.5,55.5 L109,64.5 L104.5,55.5 L108.5,55.5 L108.5,38 C108.5,36.1314366 107.035722,34.6048736 105.192035,34.5051789 L105,34.5 L5,34.5 C3.1314366,34.5 1.60487355,35.9642776 1.50517886,37.8079648 L1.5,38 L1.5,55.5 L5.5,55.5 L1,64.5 L-3.5,55.5 L0.5,55.5 L0.5,38 C0.5,35.5857267 2.40123652,33.6155109 4.7881643,33.504898 L5,33.5 L105,33.5 Z" fill="#54639C" fill-rule="nonzero"></path>
                                <rect id="矩形" fill="#FFFFFF" x="-4.54747351e-13" y="0" width="109" height="26" rx="3"></rect>
                                <text id="A.Field2=B.Field1" font-family="PingFangSC-Medium, PingFang SC" font-size="12" font-weight="400" fill="#5163A0">
                                    <tspan x="6" y="18">A.Field2=B.Field1</tspan>
                                </text>
                            </g>
                            <g id="关系" transform="translate(277.000000, 37.000000)">
                                <path id="路径-2" d="M105,33.5 C107.414273,33.5 109.384489,35.4012365 109.495102,37.7881643 L109.5,38 L109.5,55.5 L113.5,55.5 L109,64.5 L104.5,55.5 L108.5,55.5 L108.5,38 C108.5,36.1314366 107.035722,34.6048736 105.192035,34.5051789 L105,34.5 L5,34.5 C3.1314366,34.5 1.60487355,35.9642776 1.50517886,37.8079648 L1.5,38 L1.5,55.5 L5.5,55.5 L1,64.5 L-3.5,55.5 L0.5,55.5 L0.5,38 C0.5,35.5857267 2.40123652,33.6155109 4.7881643,33.504898 L5,33.5 L105,33.5 Z" fill="#54639C" fill-rule="nonzero"></path>
                                <rect id="矩形" fill="#FFFFFF" x="-4.54747351e-13" y="0" width="110" height="26" rx="3"></rect>
                                <text id="B.Field2=C.Field1" font-family="PingFangSC-Medium, PingFang SC" font-size="12" font-weight="400" fill="#5163A0">
                                    <tspan x="6" y="18">B.Field2=C.Field1</tspan>
                                </text>
                            </g>
                        </g>
                    </g>
                </g>
            </g>
        </g>
    </g>
</svg>