<?xml version="1.0" encoding="UTF-8"?>
<svg width="64px" height="59px" viewBox="0 0 64 59" version="1.1" xmlns="http://www.w3.org/2000/svg" xmlns:xlink="http://www.w3.org/1999/xlink">
    <title>undraw_add_files_re_v09g</title>
    <g id="页面-1" stroke="none" stroke-width="1" fill="none" fill-rule="evenodd">
        <g id="配置设置（默认）" transform="translate(-800.000000, -350.000000)" fill-rule="nonzero">
            <g id="编组" transform="translate(720.000000, 137.000000)">
                <g id="编组-4" transform="translate(24.000000, 193.000000)">
                    <g id="undraw_add_files_re_v09g" transform="translate(56.000000, 20.000000)">
                        <g id="编组-3" transform="translate(0.000000, 0.000000)">
                            <path d="M32.7762197,0.12474634 L30.6937599,0.661770714 L5.03739426,7.27803467 L2.95493118,7.81505905 C0.850298792,8.36033285 -0.415788057,10.5063382 0.124748428,12.6121922 L9.15476881,47.6285663 C9.70003534,49.7332012 11.846038,50.9992948 13.9518938,50.458763 L13.9572721,50.4573758 L43.7678015,42.7698366 L43.7731799,42.7684494 C45.877814,42.2231804 47.1439048,40.0771762 46.60337,37.9713212 L37.5733496,2.95494709 C37.0280834,0.850309325 34.8820782,-0.415786425 32.7762197,0.12474634 Z" id="路径" fill="#779EEA"></path>
                            <path d="M33.059378,1.22260895 L30.5928438,1.85867867 L5.7045491,8.2768724 L3.23805175,8.91293148 C1.73928927,9.30122508 0.837672275,10.8294464 1.22260122,12.3290766 L10.2526216,47.3454506 C10.6409191,48.8442102 12.1691409,49.7458219 13.6687683,49.3608897 L13.6741467,49.3595026 L43.4846761,41.6719641 L43.4900929,41.6705672 C44.9888356,41.2822605 45.8904315,39.7540506 45.5055025,38.2544368 L36.4754821,3.23806276 C36.0871937,1.73931595 34.5589965,0.837700899 33.059378,1.22260895 Z" id="路径" fill="#FFFFFF"></path>
                            <path d="M31.1969355,12.5618311 L16.1165126,16.4507705 C15.7657693,16.54122 15.4081118,16.3302102 15.3176622,15.9794668 C15.2272127,15.6287235 15.4382225,15.271066 15.7889658,15.1806164 L30.8693887,11.2916762 C31.2199923,11.2015948 31.577283,11.4126022 31.6676758,11.7631257 C31.7580685,12.1136491 31.5473786,12.471127 31.1969355,12.5618311 L31.1969355,12.5618311 Z" id="路径" fill="#779EEA" opacity="0.199560256"></path>
                            <path d="M34.3693623,14.0296495 L16.6692424,18.5941558 C16.318499,18.6846053 15.9608415,18.4735955 15.870392,18.1228521 C15.7799424,17.7721088 15.9909522,17.4144513 16.3416956,17.3240017 L34.0418155,12.7594954 C34.3925588,12.6690457 34.7502165,12.8800553 34.8406663,13.2307987 C34.9311161,13.581542 34.7201065,13.9391997 34.3693631,14.0296495 L34.3693623,14.0296495 Z" id="路径" fill="#779EEA" opacity="0.199560256"></path>
                            <path d="M33.6740104,22.1673722 L18.5935875,26.0563115 C18.3666963,26.1148223 18.1258251,26.0478435 17.9617077,25.8806053 C17.7975903,25.7133672 17.7351601,25.4712772 17.7979339,25.2455283 C17.8607077,25.0197794 18.0391486,24.8446682 18.2660398,24.7861575 L33.3464627,20.8972181 C33.5733539,20.8387075 33.814225,20.9056865 33.9783423,21.0729247 C34.1424596,21.2401629 34.2048897,21.4822529 34.1421157,21.7080017 C34.0793418,21.9337506 33.9009007,22.1088616 33.6740096,22.1673722 L33.6740104,22.1673722 Z" id="路径" fill="#779EEA" opacity="0.199560256"></path>
                            <path d="M36.8464404,23.6351906 L19.1463205,28.1996968 C18.9194293,28.2582076 18.6785581,28.1912288 18.5144407,28.0239906 C18.3503233,27.8567525 18.2878931,27.6146625 18.3506669,27.3889136 C18.4134407,27.1631647 18.5918817,26.9880535 18.8187729,26.9295428 L36.5188928,22.3650365 C36.8696361,22.2745867 37.2272938,22.4855964 37.3177436,22.8363397 C37.4081934,23.1870831 37.1971837,23.5447408 36.8464404,23.6351906 Z" id="路径" fill="#779EEA" opacity="0.199560256"></path>
                            <path d="M36.1510877,31.7729132 L21.0706647,35.6618534 C20.72003,35.7520168 20.3626577,35.541009 20.2722521,35.1904367 C20.1818465,34.8398644 20.3926073,34.4823463 20.7431171,34.3916985 L35.82354,30.5027592 C36.1742834,30.4123094 36.5319411,30.623319 36.6223909,30.9740624 C36.7128407,31.3248058 36.501831,31.6824635 36.1510877,31.7729132 L36.1510877,31.7729132 Z" id="路径" fill="#F2F2F2"></path>
                            <path d="M39.3235169,33.2407284 L21.623397,37.8052355 C21.3964233,37.8639823 21.155353,37.7971017 20.9910889,37.6298129 C20.8268247,37.4625241 20.7643533,37.2202737 20.8272314,36.9944095 C20.8901095,36.7685454 21.0687725,36.5934242 21.2958502,36.5350806 L38.9959701,31.9705743 C39.3467134,31.8801245 39.7043711,32.0911342 39.7948209,32.4418775 C39.8852706,32.7926209 39.674261,33.1502786 39.3235177,33.2407284 L39.3235169,33.2407284 Z" id="路径" fill="#F2F2F2"></path>
                            <path d="M13.5420586,20.4383075 L8.20524057,21.8145671 C8.03708759,21.8577336 7.8657262,21.7566342 7.82219081,21.5885764 L6.59712915,16.8380643 C6.55396312,16.6699119 6.65506191,16.4985512 6.82311903,16.4550154 L12.1599379,15.0787559 C12.3280904,15.0355898 12.4994511,15.1366886 12.5429869,15.3047457 L13.7680493,20.055257 C13.8112164,20.2234102 13.7101169,20.3947722 13.5420586,20.4383075 Z" id="路径" fill="#779EEA" opacity="0.199560256"></path>
                            <path d="M16.0191359,30.0438486 L10.682317,31.4201081 C10.5141641,31.4632746 10.3428027,31.3621753 10.2992673,31.1941174 L9.07420562,26.443607 C9.03104105,26.2754559 9.13213862,26.1040971 9.30019387,26.0605605 L14.6370119,24.684301 C14.8051647,24.6411345 14.9765259,24.7422334 15.0200617,24.9102909 L16.2451234,29.6608021 C16.288288,29.828953 16.1871908,30.0003117 16.0191359,30.0438486 L16.0191359,30.0438486 Z" id="路径" fill="#779EEA" opacity="0.199560256"></path>
                            <path d="M18.4962124,39.6493897 L13.1593943,41.0256492 C12.9912416,41.0688157 12.8198803,40.9677168 12.7763446,40.7996593 L11.5512829,36.0491481 C11.5081164,35.8809954 11.6092153,35.7096341 11.7772728,35.6660983 L17.1140917,34.2898388 C17.2822444,34.2466728 17.4536052,34.3477721 17.4971406,34.5158295 L18.7222031,39.2663399 C18.7653696,39.4344929 18.6642703,39.6058543 18.4962124,39.6493897 L18.4962124,39.6493897 Z" id="路径" fill="#779EEA" opacity="0.199560256"></path>
                            <path d="M53.5750833,9.00095742 L22.7781677,9.00095742 C20.6040467,9.00340547 18.8421855,10.7652711 18.8397429,12.939392 L18.8397429,49.1013571 C18.842186,51.2754773 20.6040476,53.0373414 22.7781677,53.0397877 L53.5750833,53.0397877 C55.7492034,53.0373414 57.511065,51.2754773 57.5135081,49.1013571 L57.5135081,12.939392 C57.5110654,10.7652711 55.7492042,9.00340547 53.5750833,9.00095742 L53.5750833,9.00095742 Z" id="路径" fill="#779EEA"></path>
                            <path d="M53.5751266,10.1347483 L22.7781677,10.1347483 C21.2299242,10.1364933 19.9752568,11.398029 19.9735182,12.9547511 L19.9735182,49.3147496 C19.9752586,50.8714703 21.2299256,52.1330038 22.7781677,52.1347483 L53.5751266,52.1347483 C55.1233551,52.1329865 56.3780006,50.8714566 56.379736,49.3147496 L56.379736,12.9547511 C56.3780024,11.3980426 55.1233565,10.1365105 53.5751266,10.1347483 Z" id="路径" fill="#FFFFFF"></path>
                            <path d="M48.9401575,30.0056563 L33.3663631,30.0056563 C33.1318745,30.0059178 32.9150858,29.88097 32.7977658,29.6779404 C32.6804458,29.4749108 32.6804458,29.2246924 32.7977658,29.0216628 C32.9150858,28.8186331 33.1318745,28.6936853 33.3663631,28.6939469 L48.9401575,28.6939469 C49.3020898,28.6943516 49.5952797,28.9878691 49.5952797,29.3498016 C49.5952797,29.7117341 49.3020898,30.0052516 48.9401575,30.0056563 L48.9401575,30.0056563 Z" id="路径" fill="#779EEA" opacity="0.203825451"></path>
                            <path d="M51.6455554,32.219164 L33.3663631,32.219164 C33.1318745,32.2194255 32.9150858,32.0944777 32.7977658,31.8914481 C32.6804458,31.6884185 32.6804458,31.4382 32.7977658,31.2351704 C32.9150858,31.0321408 33.1318745,30.907193 33.3663631,30.9074545 L51.6455554,30.9074545 C52.0077738,30.9074545 52.3014098,31.2010909 52.3014098,31.5633093 C52.3014098,31.9255276 52.0077738,32.219164 51.6455554,32.219164 L51.6455554,32.219164 Z" id="路径" fill="#779EEA" opacity="0.203825451"></path>
                            <path d="M48.9401575,39.925453 L33.3663631,39.925453 C33.1318745,39.9257145 32.9150858,39.8007667 32.7977658,39.5977371 C32.6804458,39.3947075 32.6804458,39.144489 32.7977658,38.9414594 C32.9150858,38.7384298 33.1318745,38.613482 33.3663631,38.6137435 L48.9401575,38.6137435 C49.3023759,38.6137435 49.5960119,38.9073799 49.5960119,39.2695983 C49.5960119,39.6318166 49.3023759,39.925453 48.9401575,39.925453 Z" id="路径" fill="#779EEA" opacity="0.203825451"></path>
                            <path d="M51.6455554,42.138959 L33.3663631,42.138959 C33.1318745,42.1392206 32.9150858,42.0142727 32.7977658,41.8112431 C32.6804458,41.6082135 32.6804458,41.3579951 32.7977658,41.1549655 C32.9150858,40.9519359 33.1318745,40.826988 33.3663631,40.8272496 L51.6455554,40.8272496 C51.8800441,40.826988 52.0968328,40.9519359 52.2141528,41.1549655 C52.3314728,41.3579951 52.3314728,41.6082135 52.2141528,41.8112431 C52.0968328,42.0142727 51.8800441,42.1392206 51.6455554,42.138959 L51.6455554,42.138959 Z" id="路径" fill="#779EEA" opacity="0.203825451"></path>
                            <path d="M29.8777396,33.2240024 L24.3663231,33.2240024 C24.1927177,33.2238121 24.0520303,33.0831247 24.05184,32.9095193 L24.05184,28.0035915 C24.0520303,27.8299862 24.1927177,27.6892987 24.3663231,27.6891084 L29.8777396,27.6891084 C30.0513449,27.6892987 30.1920324,27.8299862 30.1922227,28.0035915 L30.1922227,32.9095193 C30.1920324,33.0831247 30.0513449,33.2238121 29.8777396,33.2240024 Z" id="路径" fill="#779EEA" opacity="0.203825451"></path>
                            <path d="M29.8777396,43.1437975 L24.3663231,43.1437975 C24.1927177,43.1436071 24.0520303,43.0029197 24.05184,42.8293144 L24.05184,37.9233866 C24.0520303,37.7497812 24.1927177,37.6090938 24.3663231,37.6089034 L29.8777396,37.6089034 C30.0513449,37.6090938 30.1920324,37.7497812 30.1922227,37.9233866 L30.1922227,42.8293144 C30.1920324,43.0029197 30.0513449,43.1436071 29.8777396,43.1437975 Z" id="路径" fill="#779EEA" opacity="0.203825451"></path>
                            <path d="M48.9574391,18.9629666 L37.4755147,18.9629666 C37.1132963,18.9629666 36.8196603,18.6693307 36.8196603,18.3071123 C36.8196603,17.944894 37.1132963,17.651258 37.4755147,17.651258 L48.9574391,17.651258 C49.3196603,17.651258 49.6132935,17.944894 49.6132935,18.3071123 C49.6132935,18.6693307 49.3196603,18.9629666 48.9574391,18.9629666 Z" id="路径" fill="#779EEA"></path>
                            <path d="M51.6628379,21.1764735 L37.4755147,21.1764735 C37.2412006,21.1764735 37.0246855,21.0514685 36.9075285,20.8485466 C36.7903714,20.6456246 36.7903714,20.3956145 36.9075285,20.1926926 C37.0246855,19.9897707 37.2412006,19.8647657 37.4755147,19.8647657 L51.6628379,19.8647657 C52.025056,19.8647657 52.3186917,20.1584015 52.3186917,20.5206196 C52.3186917,20.8828377 52.025056,21.1764735 51.6628379,21.1764735 L51.6628379,21.1764735 Z" id="路径" fill="#779EEA"></path>
                            <path d="M24.3490406,23.858979 C24.175436,23.8587882 24.0347491,23.7181014 24.0345583,23.5444967 L24.0345583,15.2832348 C24.0347491,15.1096301 24.175436,14.9689433 24.3490406,14.9687525 L34.9343767,14.9687525 C35.1079814,14.9689433 35.2486682,15.1096301 35.248859,15.2832348 L35.248859,23.5444967 C35.2486682,23.7181014 35.1079814,23.8587882 34.9343767,23.858979 L24.3490406,23.858979 Z" id="路径" fill="#779EEA"></path>
                            <g id="编组-11" transform="translate(49.621105, 44.060662)">
                                <circle id="椭圆形" fill="#7DA2EB" cx="7" cy="7" r="7"></circle>
                                <path d="M10.6278792,6.25169308 L8.12720166,6.25169308 L8.12720166,3.75101552 C8.12720166,3.23310813 7.70735476,2.81326123 7.18944737,2.81326123 C6.67153998,2.81326123 6.25169308,3.23310813 6.25169308,3.75101552 L6.25169308,6.25169308 L3.75101552,6.25169308 C3.23310813,6.25169308 2.81326123,6.67153998 2.81326123,7.18944737 C2.81326123,7.70735476 3.23310813,8.12720166 3.75101552,8.12720166 L6.25169308,8.12720166 L6.25169308,10.6278768 C6.25169308,11.1457842 6.67153998,11.5656311 7.18944737,11.5656311 C7.70735476,11.5656311 8.12720166,11.1457842 8.12720166,10.6278768 L8.12720166,8.12720166 L10.6278792,8.12720166 C11.1457866,8.12720166 11.5656335,7.70735476 11.5656335,7.18944737 C11.5656335,6.67153998 11.1457866,6.25169308 10.6278792,6.25169308 L10.6278792,6.25169308 Z" id="路径" fill="#FFFFFF"></path>
                            </g>
                        </g>
                    </g>
                </g>
            </g>
        </g>
    </g>
</svg>