<?xml version="1.0" standalone="no"?><!DOCTYPE svg PUBLIC "-//W3C//DTD SVG 1.1//EN" "http://www.w3.org/Graphics/SVG/1.1/DTD/svg11.dtd"><svg t="1605752123650" class="icon" viewBox="0 0 1024 1024" version="1.1" xmlns="http://www.w3.org/2000/svg" p-id="2542" xmlns:xlink="http://www.w3.org/1999/xlink" width="48" height="48"><defs><style type="text/css"></style></defs><path d="M713.89611458 816.0875a14.79375 14.79375 0 0 1-14.9625-14.90625V605.20625c0-5.34375 2.8125-10.29375 7.5375-12.9375l174.20625-97.70625a15.1875 15.1875 0 0 1 15.075 0 14.85 14.85 0 0 1 7.48125 12.76875v194.625a15.01875 15.01875 0 0 1-7.48125 12.9375l-174.15 99.225a16.70625 16.70625 0 0 1-7.70625 1.96875z" fill="#1E62A1" p-id="2543"></path><path d="M888.04611458 507.5v194.5125l-174.15 99.28125V605.20625l174.15-97.7625m0-29.8125a30.76875 30.76875 0 0 0-14.90625 3.88125L698.98986458 579.21875a29.7 29.7 0 0 0-15.1875 25.875v195.975c0 10.63125 5.68125 20.41875 15.075 25.7625a30.54375 30.54375 0 0 0 30.20625 0l174.15-99.28125a29.75625 29.75625 0 0 0 15.13125-25.7625V507.5a29.64375 29.64375 0 0 0-15.01875-25.70625 30.65625 30.65625 0 0 0-15.3-4.10625z" fill="#051F35" p-id="2544"></path><path d="M713.89611458 620.1125a14.85 14.85 0 0 1-15.075-14.79375v-199.125c0-5.2875 2.8125-10.2375 7.5375-12.9375l174.20625-97.70625a15.1875 15.1875 0 0 1 15.075 0 14.85 14.85 0 0 1 7.48125 12.825v198.95625a14.90625 14.90625 0 0 1-7.59375 12.9375l-174.2625 97.875a14.5125 14.5125 0 0 1-7.36875 1.96875z" fill="#E5F1F9" p-id="2545"></path><path d="M888.04611458 308.4875v198.95625L713.89611458 605.20625V406.19375l174.15-97.70625m0-29.7a30.76875 30.76875 0 0 0-14.90625 3.825L698.98986458 380.375a29.7 29.7 0 0 0-15.1875 25.875v198.95625c0 10.575 5.68125 20.41875 14.9625 25.70625a30.99375 30.99375 0 0 0 15.13125 4.10625 30.76875 30.76875 0 0 0 14.85-3.88125l174.15-97.70625a29.7 29.7 0 0 0 15.1875-25.875v-199.125a29.64375 29.64375 0 0 0-30.0375-29.64375z" fill="#051F35" p-id="2546"></path><path d="M691.17111458 426.05a15.1875 15.1875 0 0 1-7.48125-1.96875l-4.5-2.53125a14.90625 14.90625 0 0 1-7.59375-12.9375c0-5.2875 2.925-10.2375 7.59375-12.9375l4.5-2.53125a15.1875 15.1875 0 0 1 15.075 0 14.85 14.85 0 0 1 7.48125 12.825v5.00625a14.625 14.625 0 0 1-7.48125 12.76875 13.10625 13.10625 0 0 1-7.59375 2.30625z" fill="#FFDBA0" p-id="2547"></path><path d="M693.87111458 406.25v7.03125l-7.2-3.6 7.2-3.4875m-2.7-29.7a30.76875 30.76875 0 0 0-14.90625 3.88125l-4.5 2.53125a29.7 29.7 0 0 0 0 51.69375l4.5 2.53125a30.76875 30.76875 0 0 0 14.90625 3.88125 29.25 29.25 0 0 0 15.075-4.10625 29.64375 29.64375 0 0 0 15.01875-25.7625V406.25a29.64375 29.64375 0 0 0-30.09375-29.7z" fill="#282F63" p-id="2548"></path><path d="M517.58361458 717.48125a14.85 14.85 0 0 1-15.075-14.79375v-4.6125c0-5.34375 2.75625-10.125 7.425-12.825a15.35625 15.35625 0 0 1 15.13125 0l4.10625 2.30625a14.90625 14.90625 0 0 1 7.65 12.9375 14.90625 14.90625 0 0 1-7.65 12.9375l-4.10625 2.25a16.25625 16.25625 0 0 1-7.48125 1.8z" fill="#FFDBA0" p-id="2549"></path><path d="M517.58361458 698.075l7.14375 3.54375-7.14375 3.4875v-7.03125m0-29.7a29.25 29.25 0 0 0-15.13125 4.05 29.64375 29.64375 0 0 0-14.9625 25.7625v4.6125c0 10.63125 5.68125 20.41875 14.9625 25.7625a30.99375 30.99375 0 0 0 15.13125 4.05 30.76875 30.76875 0 0 0 14.85-3.88125l4.1625-2.25a29.7 29.7 0 0 0 0-51.75l-4.1625-2.25a28.0125 28.0125 0 0 0-14.85-4.10625z" fill="#282F63" p-id="2550"></path><path d="M343.60236458 815.975a15.1875 15.1875 0 0 1-7.48125-1.96875L162.19611458 714.8375a14.79375 14.79375 0 0 1-7.5375-12.9375v-199.125c0-5.23125 2.8125-10.125 7.5375-12.76875a15.35625 15.35625 0 0 1 15.075 0L351.08361458 587.54375a14.90625 14.90625 0 0 1 7.59375 12.9375v200.5875a15.01875 15.01875 0 0 1-15.01875 14.90625z" fill="#1E62A1" p-id="2551"></path><path d="M169.67736458 502.83125l173.925 97.59375v200.64375L169.67736458 701.9v-199.125m0-29.64375a29.25 29.25 0 0 0-15.13125 4.05A29.64375 29.64375 0 0 0 139.58361458 503v199.18125c0 10.63125 5.68125 20.475 15.075 25.7625L328.63986458 827a30.54375 30.54375 0 0 0 30.20625 0 29.75625 29.75625 0 0 0 15.075-25.7625v-200.8125a29.7 29.7 0 0 0-15.1875-25.875L184.75236458 476.95625a31.05 31.05 0 0 0-15.075-3.825z" fill="#051F35" p-id="2552"></path><path d="M199.77111458 532.53125L343.60236458 613.25v-12.825L169.67736458 502.83125v199.125l30.09375 17.2125z" fill="#3381BC" p-id="2553"></path><path d="M540.13986458 915.03125a14.79375 14.79375 0 0 1-14.9625-14.90625v-197.4375c0-5.2875 2.925-10.2375 7.59375-12.9375l173.5875-97.48125a15.1875 15.1875 0 0 1 15.13125 0 14.85 14.85 0 0 1 7.48125 12.825v195.975a15.01875 15.01875 0 0 1-7.48125 12.9375l-173.5875 98.94375a15.01875 15.01875 0 0 1-7.7625 2.08125z" fill="#E5F1F9" p-id="2554"></path><path d="M713.89611458 605.20625v195.975l-173.64375 99v-197.4375l4.1625-2.3625 169.48125-95.175m0-29.7a30.76875 30.76875 0 0 0-14.90625 3.825L529.39611458 674.5625l-4.10625 2.25a29.7 29.7 0 0 0-15.1875 25.875v197.55c0 10.63125 5.625 20.41875 15.075 25.7625a30.54375 30.54375 0 0 0 30.20625 0l173.5875-99a29.75625 29.75625 0 0 0 15.13125-25.70625V605.20625a29.64375 29.64375 0 0 0-30.20625-29.7z" fill="#051F35" p-id="2555"></path><path d="M544.30236458 715.2875a15.1875 15.1875 0 0 1-7.48125-1.96875l-4.1625-2.3625a14.90625 14.90625 0 0 1-7.59375-12.9375V503.7875c0-5.34375 2.925-10.29375 7.59375-12.9375l169.25625-94.95a15.1875 15.1875 0 0 1 14.9625 0l4.5 2.53125a14.90625 14.90625 0 0 1 7.59375 12.9375v194.00625a14.90625 14.90625 0 0 1-7.59375 12.9375L551.78361458 713.375a16.36875 16.36875 0 0 1-7.48125 1.85625z" fill="#E5F1F9" p-id="2556"></path><path d="M709.39611458 408.725l4.5 2.53125v194.0625L544.30236458 700.4375l-4.1625-2.30625V503.73125l169.3125-95.00625m0-29.7a30.76875 30.76875 0 0 0-14.90625 3.88125l-169.3125 94.95a29.7 29.7 0 0 0-15.1875 25.875v194.34375c0 10.6875 5.85 20.53125 15.1875 25.875l4.1625 2.25a30.76875 30.76875 0 0 0 29.8125 0l169.5375-95.175a29.7 29.7 0 0 0 15.1875-25.875V411.2a29.7 29.7 0 0 0-15.1875-25.81875l-4.5-2.53125a30.65625 30.65625 0 0 0-14.85-3.76875z" fill="#051F35" p-id="2557"></path><path d="M343.60236458 615.33125a15.1875 15.1875 0 0 1-7.48125-1.96875L162.19611458 515.76875a14.90625 14.90625 0 0 1-7.65-12.9375V308.4875c0-5.34375 2.8125-10.125 7.5375-12.825a15.35625 15.35625 0 0 1 15.075 0l173.8125 97.48125a14.90625 14.90625 0 0 1 7.65 12.9375v194.34375a14.625 14.625 0 0 1-7.48125 12.825 15.01875 15.01875 0 0 1-7.5375 2.08125z" fill="#FFDBA0" p-id="2558"></path><path d="M169.67736458 308.4875l173.925 97.59375v194.34375L169.67736458 502.83125V308.4875m0-29.7a29.25 29.25 0 0 0-15.13125 4.05 29.64375 29.64375 0 0 0-14.9625 25.7625v194.34375c0 10.6875 5.79375 20.53125 15.1875 25.875l173.98125 97.48125a30.76875 30.76875 0 0 0 14.85 3.825 29.25 29.25 0 0 0 15.13125-4.05 29.64375 29.64375 0 0 0 14.9625-25.7625V405.96875a29.7 29.7 0 0 0-15.1875-25.875L184.52736458 282.5a30.65625 30.65625 0 0 0-14.85-3.7125z" fill="#051F35" p-id="2559"></path><path d="M199.77111458 330.7625l143.83125 80.71875v-5.4L169.67736458 308.4875v194.34375l30.09375 16.875z" fill="#FFFFFF" p-id="2560"></path><path d="M517.58361458 915.03125a15.1875 15.1875 0 0 1-7.5375-1.96875l-174.0375-99.05625a14.79375 14.79375 0 0 1-7.48125-12.9375V600.425c0-5.2875 2.8125-10.125 7.48125-12.76875a15.35625 15.35625 0 0 1 15.13125 0l173.925 97.59375a14.90625 14.90625 0 0 1 7.59375 12.9375v202.1625a15.01875 15.01875 0 0 1-7.48125 12.9375 18.675 18.675 0 0 1-7.59375 1.74375z" fill="#E5F1F9" p-id="2561"></path><path d="M343.60236458 600.425l173.98125 97.65v202.1625L343.60236458 801.125V600.425m0-29.7a29.25 29.25 0 0 0-15.075 4.10625 29.64375 29.64375 0 0 0-15.01875 25.70625v200.64375c0 10.63125 5.7375 20.41875 15.13125 25.7625l173.925 99.16875a30.54375 30.54375 0 0 0 30.20625 0 29.75625 29.75625 0 0 0 15.13125-25.7625v-202.275a29.7 29.7 0 0 0-15.1875-25.875L358.67736458 574.60625a31.05 31.05 0 0 0-15.13125-3.88125z" fill="#051F35" p-id="2562"></path><path d="M517.58361458 712.98125a15.1875 15.1875 0 0 1-7.5375-2.025L336.12111458 613.3625a14.90625 14.90625 0 0 1-7.59375-12.9375V406.08125c0-5.2875 2.8125-10.125 7.48125-12.825a15.35625 15.35625 0 0 1 15.13125 0l173.925 97.65a14.90625 14.90625 0 0 1 7.59375 12.9375v194.34375a14.625 14.625 0 0 1-7.48125 12.76875 15.975 15.975 0 0 1-7.59375 2.025z" fill="#E5F1F9" p-id="2563"></path><path d="M343.60236458 406.08125L517.58361458 503.73125v194.34375L343.60236458 600.425V406.08125m0-29.7a29.25 29.25 0 0 0-15.075 4.10625 29.64375 29.64375 0 0 0-15.01875 25.70625v194.34375c0 10.6875 5.85 20.53125 15.1875 25.875l173.98125 97.59375a30.76875 30.76875 0 0 0 14.90625 3.88125 29.25 29.25 0 0 0 15.075-4.10625 29.64375 29.64375 0 0 0 15.01875-25.70625V503.73125a29.7 29.7 0 0 0-15.1875-25.875L358.45236458 380.2625a29.5875 29.5875 0 0 0-14.90625-3.88125z" fill="#051F35" p-id="2564"></path><path d="M523.26486458 308.375a15.1875 15.1875 0 0 1-7.48125-2.025L342.58986458 209.20625a14.79375 14.79375 0 0 1-0.1125-25.875L525.06486458 79.325a15.1875 15.1875 0 0 1 14.9625 0l173.41875 98.83125a14.79375 14.79375 0 0 1-0.1125 25.875L530.63361458 306.4625a14.4 14.4 0 0 1-7.36875 1.9125z" fill="#FFDBA0" p-id="2565"></path><path d="M532.65861458 92.2625l173.25 98.71875-182.64375 102.6-173.1375-97.2L532.65861458 92.2625m0-29.7a30.88125 30.88125 0 0 0-15.075 3.9375L334.99611458 170.5625a29.7 29.7 0 0 0-15.075 25.875c0 10.6875 5.79375 20.475 15.1875 25.70625l173.19375 97.14375a30.76875 30.76875 0 0 0 29.75625 0l182.64375-102.4875a29.64375 29.64375 0 0 0 0.1125-51.525L547.56486458 66.5a29.41875 29.41875 0 0 0-14.90625-3.9375z" fill="#051F35" p-id="2566"></path><path d="M380.22111458 211.175l180.5625-102.9375-28.125-15.975-182.53125 104.11875L523.20861458 293.58125l1.8-1.125z" fill="#FFFFFF" p-id="2567"></path><path d="M354.00861458 403.4375a15.1875 15.1875 0 0 1-7.48125-1.96875L177.27111458 306.4625a14.90625 14.90625 0 0 1-7.59375-12.9375v-2.925c0-5.34375 2.925-10.29375 7.48125-12.9375l165.375-94.21875a15.1875 15.1875 0 0 1 14.9625 0l173.1375 97.2a14.90625 14.90625 0 0 1 7.65 12.9375 14.90625 14.90625 0 0 1-7.65 12.9375L361.37736458 401.4125a14.5125 14.5125 0 0 1-7.3125 1.96875z" fill="#E5F1F9" p-id="2568"></path><path d="M350.12736458 196.4375L523.20861458 293.525 354.00861458 388.53125 184.75236458 293.58125v-2.98125l165.375-94.21875m0-29.8125a30.54375 30.54375 0 0 0-15.13125 3.9375L169.78986458 264.78125a29.75625 29.75625 0 0 0-15.13125 25.7625v2.98125c0 10.6875 5.85 20.53125 15.1875 25.875l169.3125 94.89375a30.76875 30.76875 0 0 0 29.75625 0l169.25625-94.95a29.7 29.7 0 0 0 0-51.69375L364.97736458 170.45a30.76875 30.76875 0 0 0-14.85-3.88125z" fill="#051F35" p-id="2569"></path><path d="M210.28986458 305.39375l165.20625-94.21875-25.36875-14.79375-165.375 94.21875v2.98125l25.5375 14.23125z" fill="#FFFFFF" p-id="2570"></path><path d="M701.91486458 408.6125a15.1875 15.1875 0 0 1-7.48125-1.96875L515.78361458 306.35a14.90625 14.90625 0 0 1-7.59375-12.9375c0-5.23125 2.86875-10.2375 7.59375-12.88125l182.64375-102.4875a15.1875 15.1875 0 0 1 15.01875 0l174.6 99.5625a14.79375 14.79375 0 0 1 7.48125 12.88125v2.98125a14.90625 14.90625 0 0 1-7.59375 12.9375l-178.65 100.2375a14.0625 14.0625 0 0 1-7.36875 1.96875z" fill="#1E62A1" p-id="2571"></path><path d="M705.79611458 190.98125l174.65625 99.5625v3.0375l-174.20625 97.70625-4.5 2.53125-178.48125-100.2375 182.53125-102.6m0-29.7a30.76875 30.76875 0 0 0-14.85 3.88125L508.30236458 267.59375a29.7 29.7 0 0 0 0 51.75L686.89611458 419.525a30.76875 30.76875 0 0 0 29.8125 0l4.44375-2.5875 174.15-97.70625a29.7 29.7 0 0 0 15.1875-25.875v-2.8125a29.53125 29.53125 0 0 0-15.075-25.7625l-174.6-99.45a28.85625 28.85625 0 0 0-15.01875-4.10625z" fill="#051F35" p-id="2572"></path><path d="M532.65861458 503.73125a15.1875 15.1875 0 0 1-7.48125-2.025L346.52736458 401.46875a14.90625 14.90625 0 0 1-7.59375-12.9375c0-5.2875 2.86875-10.29375 7.59375-12.9375l169.25625-94.95a15.1875 15.1875 0 0 1 14.9625 0L709.39611458 380.9375a14.90625 14.90625 0 0 1 7.59375 12.9375 14.90625 14.90625 0 0 1-7.59375 12.88125L540.13986458 501.70625a15.1875 15.1875 0 0 1-7.48125 2.025z" fill="#FFDBA0" p-id="2573"></path><path d="M523.26486458 293.58125l178.65 100.2375-169.25625 95.00625-173.925-97.65v-3.31875 3.375l-4.725-2.7 169.25625-94.95m0-29.8125a30.76875 30.76875 0 0 0-14.85 3.825l-169.3125 95.00625a29.7 29.7 0 0 0 0 51.6375l4.725 2.7 173.98125 97.59375a30.76875 30.76875 0 0 0 29.75625 0l169.2-94.95a29.7 29.7 0 0 0 0-51.75L538.17111458 267.65a30.76875 30.76875 0 0 0-14.90625-3.825z" fill="#051F35" p-id="2574"></path></svg>
