<?xml version="1.0" encoding="UTF-8"?>
<svg width="32px" height="34px" viewBox="0 0 32 34" version="1.1" xmlns="http://www.w3.org/2000/svg" xmlns:xlink="http://www.w3.org/1999/xlink">
    <title>汇总</title>
    <defs>
        <filter x="-30.0%" y="-27.3%" width="160.0%" height="154.5%" filterUnits="objectBoundingBox" id="filter-1">
            <feOffset dx="-1" dy="2" in="SourceAlpha" result="shadowOffsetOuter1"></feOffset>
            <feGaussianBlur stdDeviation="2" in="shadowOffsetOuter1" result="shadowBlurOuter1"></feGaussianBlur>
            <feColorMatrix values="0 0 0 0 0   0 0 0 0 0   0 0 0 0 0  0 0 0 0.1 0" type="matrix" in="shadowBlurOuter1" result="shadowMatrixOuter1"></feColorMatrix>
            <feMerge>
                <feMergeNode in="shadowMatrixOuter1"></feMergeNode>
                <feMergeNode in="SourceGraphic"></feMergeNode>
            </feMerge>
        </filter>
        <filter id="filter-2">
            <feColorMatrix in="SourceGraphic" type="matrix" values="0 0 0 0 0.070588 0 0 0 0 0.431373 0 0 0 0 0.890196 0 0 0 1.000000 0"></feColorMatrix>
        </filter>
    </defs>
    <g id="页面-1" stroke="none" stroke-width="1" fill="none" fill-rule="evenodd">
        <g id="展开2-1" transform="translate(-1548.000000, -284.000000)">
            <g id="右侧边" transform="translate(1543.000000, 199.000000)">
                <g id="汇总信息" filter="url(#filter-1)" transform="translate(1.000000, 79.481308)">
                    <g filter="url(#filter-2)" id="汇总">
                        <g transform="translate(13.000001, 15.257627)">
                            <path d="M13.9981507,7.38922018 C14,7.36267976 14,7.33599437 13.9981507,7.30945395 L11.8112348,0.32990923 C11.745605,0.121795846 11.5675355,-0.0121627109 11.3738516,0.000873550206 L2.62618792,0.000873550206 C2.44203644,0.00096285597 2.27765921,0.132514024 2.21504772,0.32990923 L0.00188880877,7.30945395 C0,7.33599437 0,7.36267976 0.00188880877,7.38922018 C-0.000629602923,7.41906365 -0.000629602923,7.44911372 0.00188880877,7.47895718 L0.00188880877,12.4643463 C0.00188880877,12.8610085 0.14013274,13.2414245 0.386208515,13.521907 C0.632284291,13.8023895 0.966034664,13.959963 1.31403836,13.959963 L13.5607675,13.959963 C13.8023276,13.959963 13.9981507,13.7367595 13.9981507,13.4614241 L13.9981507,7.47895718 C14.0006164,7.44911086 14.0006164,7.4190665 13.9981507,7.38922018 L13.9981507,7.38922018 Z M2.93235615,0.997951368 L11.0589357,0.997951368 L12.9309357,6.98041827 L9.62431887,6.98041827 C9.45706568,6.98003676 9.30426522,7.08840628 9.230674,7.25960006 L8.47837493,8.97457391 L5.5216646,8.97457391 L4.76936552,7.25960006 C4.69577431,7.08840628 4.54297384,6.98003676 4.37572066,6.98041827 L1.06035612,6.98041827 L2.93235615,0.997951368 Z M13.1233843,12.9628852 L1.31403836,12.9628852 C1.0724783,12.9628852 0.876655178,12.7396817 0.876655178,12.4643463 L0.876655178,7.97749609 L4.10454308,7.97749609 L4.85684216,9.69246994 C4.93043337,9.86366372 5.08323384,9.97203324 5.25048702,9.97165173 L8.7495525,9.97165173 C8.91680569,9.97203324 9.06960615,9.86366372 9.14319737,9.69246994 L9.89549645,7.97749609 L13.1233843,7.97749609 L13.1233843,12.9628852 Z" id="形状" fill="#126EE3" fill-rule="nonzero"></path>
                            <rect id="矩形" fill="#126EE3" x="3.91895265" y="2.05921607" width="6.29831786" height="1"></rect>
                            <rect id="矩形" fill="#126EE3" x="3.21913955" y="4.61173528" width="7.69794405" height="1"></rect>
                        </g>
                    </g>
                </g>
            </g>
        </g>
    </g>
</svg>