<?xml version="1.0" encoding="UTF-8"?>
<svg width="14px" height="14px" viewBox="0 0 14 14" version="1.1" xmlns="http://www.w3.org/2000/svg" xmlns:xlink="http://www.w3.org/1999/xlink">
    <!-- Generator: Sketch 64 (93537) - https://sketch.com -->
    <title>垃圾桶</title>
    <desc>Created with Sketch.</desc>
    <g id="页面-1" stroke="none" stroke-width="1" fill="none" fill-rule="evenodd">
        <g id="本体管理_配置-4" transform="translate(-1850.000000, -705.000000)" fill="#333333" fill-rule="nonzero">
            <g id="类" transform="translate(1464.000000, 264.000000)">
                <g id="类别标题" transform="translate(0.000000, 424.000000)">
                    <g id="垃圾桶" transform="translate(386.000000, 17.000000)">
                        <path d="M9.04499155,2.33053753 L8.29226673,2.33053753 L5.27985294,2.33053753 L4.52712813,2.33053753 L0.00926470588,2.33053753 L0.00926470588,1.55567375 L4.52712813,1.55567375 L4.52712813,0.780809972 L4.52712813,0.00438711073 L5.27985294,0.00438711073 L8.29226673,0.00438711073 L9.04499155,0.00438711073 L9.04499155,0.77925089 L9.04499155,1.55411467 L13.1857353,1.55411467 L13.1857353,2.32897845 L9.04499155,2.32897845 L9.04499155,2.33053753 Z M8.29226673,0.77925089 L5.27985294,0.77925089 L5.27985294,1.55411467 L8.29226673,1.55411467 L8.29226673,0.77925089 Z M5.65697262,4.65512887 L6.03409229,10.4689458 L5.27985294,10.4689458 L4.90273327,4.65512887 L5.65697262,4.65512887 Z M7.91514706,4.65512887 L8.66787187,4.65512887 L8.2907522,10.4689458 L7.53802738,10.4689458 L7.91514706,4.65512887 Z M3.33670216,12.4068848 L10.2036122,12.4068848 L10.5504412,3.49205366 L11.303166,3.49205366 L10.9260463,13.1801895 L10.1733215,13.1801895 L3.39728364,13.1801895 L2.64455882,13.1801895 L1.89183401,3.49205366 L2.64455882,3.49205366 L3.33670216,12.4068848 Z" id="形状"></path>
                    </g>
                </g>
            </g>
        </g>
    </g>
</svg>