<?xml version="1.0" encoding="UTF-8"?>
<svg width="144px" height="144px" viewBox="0 0 144 144" version="1.1" xmlns="http://www.w3.org/2000/svg" xmlns:xlink="http://www.w3.org/1999/xlink">
    <title>Group 11</title>
    <defs>
        <linearGradient x1="50%" y1="3.85205925%" x2="50%" y2="121.56033%" id="linearGradient-1">
            <stop stop-color="#779EEA" stop-opacity="0.4" offset="0%"></stop>
            <stop stop-color="#FFFFFF" stop-opacity="0" offset="100%"></stop>
        </linearGradient>
    </defs>
    <g id="保留线条" stroke="none" stroke-width="1" fill="none" fill-rule="evenodd">
        <g id="Group-11">
            <rect id="Rectangle-25" x="0" y="0" width="144" height="144"></rect>
            <g id="Group-10" transform="translate(0.000000, 10.000000)">
                <path d="M72,90 C106.372614,90 135.319819,105.997855 143.9999,125.999771 L9.95177594e-05,125.999771 C8.68018075,105.997855 37.6273857,90 72,90 Z" id="Combined-Shape" fill="url(#linearGradient-1)"></path>
                <g id="Group-2" transform="translate(38.000000, 26.000000)">
                    <path d="M5.17241379,1.27586207 L47.2931817,1.27586207 L47.2931817,1.27586207 L61.9137931,12.7578139 L61.9137931,68.4482759 C61.9137931,70.1051301 60.5706474,71.4482759 58.9137931,71.4482759 L5.17241379,71.4482759 C3.51555954,71.4482759 2.17241379,70.1051301 2.17241379,68.4482759 L2.17241379,4.27586207 C2.17241379,2.61900782 3.51555954,1.27586207 5.17241379,1.27586207 Z" id="Rectangle" fill="#FFFFFF"></path>
                    <path d="M46.7823789,1 L62,12.7295866 L62,68 C62,69.3807119 61.4403559,70.6307119 60.5355339,71.5355339 C59.6307119,72.4403559 58.3807119,73 57,73 L57,73 L6,73 C4.61928813,73 3.36928813,72.4403559 2.46446609,71.5355339 C1.55964406,70.6307119 1,69.3807119 1,68 L1,68 L1,6 C1,4.61928813 1.55964406,3.36928813 2.46446609,2.46446609 C3.36928813,1.55964406 4.61928813,1 6,1 L6,1 L46.7823789,1 Z" id="Rectangle-4" stroke="#779EEA" stroke-width="2" fill="#FFFFFF"></path>
                    <polyline id="Path-4" stroke="#779EEA" stroke-width="2" points="46 1 46 13 61.2026367 13"></polyline>
                    <path d="M19.1501263,23.1020292 C19.702411,23.1020292 20.1501263,23.5497445 20.1501263,24.1020292 L20.1501263,28.6020292 L24.6501263,28.6020292 C25.202411,28.6020292 25.6501263,29.0497445 25.6501263,29.6020292 C25.6501263,30.154314 25.202411,30.6020292 24.6501263,30.6020292 L20.1501263,30.6020292 L20.1501263,35.1020292 C20.1501263,35.654314 19.702411,36.1020292 19.1501263,36.1020292 C18.5978415,36.1020292 18.1501263,35.654314 18.1501263,35.1020292 L18.1501263,30.6020292 L13.6501263,30.6020292 C13.0978415,30.6020292 12.6501263,30.154314 12.6501263,29.6020292 C12.6501263,29.0497445 13.0978415,28.6020292 13.6501263,28.6020292 L18.1501263,28.6020292 L18.1501263,24.1020292 C18.1501263,23.5497445 18.5978415,23.1020292 19.1501263,23.1020292 Z" id="Combined-Shape" fill="#779EEA" transform="translate(19.150126, 29.602029) rotate(-315.000000) translate(-19.150126, -29.602029) "></path>
                    <path d="M45.1501263,23.1020292 C45.702411,23.1020292 46.1501263,23.5497445 46.1501263,24.1020292 L46.1501263,28.6020292 L50.6501263,28.6020292 C51.202411,28.6020292 51.6501263,29.0497445 51.6501263,29.6020292 C51.6501263,30.154314 51.202411,30.6020292 50.6501263,30.6020292 L46.1501263,30.6020292 L46.1501263,35.1020292 C46.1501263,35.654314 45.702411,36.1020292 45.1501263,36.1020292 C44.5978415,36.1020292 44.1501263,35.654314 44.1501263,35.1020292 L44.1501263,30.6020292 L39.6501263,30.6020292 C39.0978415,30.6020292 38.6501263,30.154314 38.6501263,29.6020292 C38.6501263,29.0497445 39.0978415,28.6020292 39.6501263,28.6020292 L44.1501263,28.6020292 L44.1501263,24.1020292 C44.1501263,23.5497445 44.5978415,23.1020292 45.1501263,23.1020292 Z" id="Combined-Shape-Copy-6" fill="#779EEA" transform="translate(45.150126, 29.602029) rotate(-315.000000) translate(-45.150126, -29.602029) "></path>
                    <path d="M42,51 C42,47.6862915 37.5228475,45 32,45 C26.4771525,45 22,47.6862915 22,51" id="Oval-11" stroke="#779EEA" stroke-width="2" transform="translate(32.000000, 48.000000) scale(-1, -1) translate(-32.000000, -48.000000) "></path>
                </g>
                <g id="点缀" transform="translate(16.000000, 0.000000)">
                    <path d="M20.0961941,2.1746212 C20.5225381,2.1746212 20.8681582,2.52024132 20.8681582,2.94658535 L20.8674271,6.4196212 L24.3419969,6.42042401 C24.7683409,6.42042401 25.113961,6.76604413 25.113961,7.19238816 C25.113961,7.61873218 24.7683409,7.9643523 24.3419969,7.9643523 L20.8674271,7.9636212 L20.8681582,11.438191 C20.8681582,11.864535 20.5225381,12.2101551 20.0961941,12.2101551 C19.6698501,12.2101551 19.3242299,11.864535 19.3242299,11.438191 L19.3234271,7.9636212 L15.8503913,7.9643523 C15.4240472,7.9643523 15.0784271,7.61873218 15.0784271,7.19238816 C15.0784271,6.76604413 15.4240472,6.42042401 15.8503913,6.42042401 L19.3234271,6.4196212 L19.3242299,2.94658535 C19.3242299,2.52024132 19.6698501,2.1746212 20.0961941,2.1746212 Z" id="Combined-Shape" fill="#779EEA" transform="translate(20.096194, 7.192388) rotate(-315.000000) translate(-20.096194, -7.192388) "></path>
                    <path d="M101.681981,39.6642136 C101.959349,39.6642136 102.184201,39.8890655 102.184201,40.1664344 L102.183214,43.1792136 L105.197527,43.1797596 C105.474896,43.1797596 105.699747,43.4046116 105.699747,43.6819805 C105.699747,43.9593494 105.474896,44.1842014 105.197527,44.1842014 L102.183214,44.1832136 L102.184201,47.1975266 C102.184201,47.4748955 101.959349,47.6997475 101.681981,47.6997475 C101.404612,47.6997475 101.17976,47.4748955 101.17976,47.1975266 L101.179214,44.1832136 L98.1664344,44.1842014 C97.8890655,44.1842014 97.6642136,43.9593494 97.6642136,43.6819805 C97.6642136,43.4046116 97.8890655,43.1797596 98.1664344,43.1797596 L101.179214,43.1792136 L101.17976,40.1664344 C101.17976,39.8890655 101.404612,39.6642136 101.681981,39.6642136 Z" id="Combined-Shape-Copy" fill="#779EEA" opacity="0.3" transform="translate(101.681981, 43.681981) rotate(-315.000000) translate(-101.681981, -43.681981) "></path>
                    <path d="M12.6819805,51.4215729 C12.9593494,51.4215729 13.1842014,51.6464248 13.1842014,51.9237937 L13.1832136,54.9365729 L16.1975266,54.937119 C16.4748955,54.937119 16.6997475,55.1619709 16.6997475,55.4393398 C16.6997475,55.7167088 16.4748955,55.9415607 16.1975266,55.9415607 L13.1832136,55.9405729 L13.1842014,58.9548859 C13.1842014,59.2322548 12.9593494,59.4571068 12.6819805,59.4571068 C12.4046116,59.4571068 12.1797596,59.2322548 12.1797596,58.9548859 L12.1792136,55.9405729 L9.16643443,55.9415607 C8.8890655,55.9415607 8.66421356,55.7167088 8.66421356,55.4393398 C8.66421356,55.1619709 8.8890655,54.937119 9.16643443,54.937119 L12.1792136,54.9365729 L12.1797596,51.9237937 C12.1797596,51.6464248 12.4046116,51.4215729 12.6819805,51.4215729 Z" id="Combined-Shape-Copy-4" fill="#779EEA" opacity="0.3" transform="translate(12.681981, 55.439340) rotate(-315.000000) translate(-12.681981, -55.439340) "></path>
                    <path d="M42.6819805,12.6035534 C42.9415825,12.6035534 43.1520315,12.8140024 43.1520315,13.0736043 L43.1515729,15.8935534 L45.9723372,15.8939101 C46.2319392,15.8939101 46.4423882,16.1043591 46.4423882,16.363961 C46.4423882,16.623563 46.2319392,16.834012 45.9723372,16.834012 L43.1515729,16.8335534 L43.1520315,19.6543177 C43.1520315,19.9139197 42.9415825,20.1243687 42.6819805,20.1243687 C42.4223785,20.1243687 42.2119296,19.9139197 42.2119296,19.6543177 L42.2115729,16.8335534 L39.3916238,16.834012 C39.1320219,16.834012 38.9215729,16.623563 38.9215729,16.363961 C38.9215729,16.1043591 39.1320219,15.8939101 39.3916238,15.8939101 L42.2115729,15.8935534 L42.2119296,13.0736043 C42.2119296,12.8140024 42.4223785,12.6035534 42.6819805,12.6035534 Z" id="Combined-Shape-Copy-2" fill="#779EEA" opacity="0.3" transform="translate(42.681981, 16.363961) rotate(-315.000000) translate(-42.681981, -16.363961) "></path>
                    <circle id="Oval-7-Copy-3" stroke="#779EEA" cx="67" cy="14" r="2"></circle>
                    <circle id="Oval-7-Copy-4" stroke="#779EEA" cx="8.5" cy="74.5" r="1.5"></circle>
                    <circle id="Oval-7-Copy-5" stroke="#779EEA" cx="108.5" cy="73.5" r="1.5"></circle>
                    <path d="M111.278175,20.3890873 C111.747266,20.3890873 112.12754,20.7693613 112.12754,21.238453 L112.126981,24.6350873 L115.525003,24.6359157 C115.994095,24.6359157 116.374369,25.0161897 116.374369,25.4852814 C116.374369,25.9543731 115.994095,26.3346471 115.525003,26.3346471 L112.126981,26.3340873 L112.12754,29.7321098 C112.12754,30.2012015 111.747266,30.5814755 111.278175,30.5814755 C110.809083,30.5814755 110.428809,30.2012015 110.428809,29.7321098 L110.427981,26.3340873 L107.031346,26.3346471 C106.562254,26.3346471 106.181981,25.9543731 106.181981,25.4852814 C106.181981,25.0161897 106.562254,24.6359157 107.031346,24.6359157 L110.427981,24.6350873 L110.428809,21.238453 C110.428809,20.7693613 110.809083,20.3890873 111.278175,20.3890873 Z" id="Combined-Shape-Copy-3" fill="#779EEA" transform="translate(111.278175, 25.485281) rotate(-315.000000) translate(-111.278175, -25.485281) "></path>
                    <path d="M83.5355339,17.0355339 C83.8116763,17.0355339 84.0355339,17.2593915 84.0355339,17.5355339 L84.0355339,19.0355339 L85.5355339,19.0355339 C85.8116763,19.0355339 86.0355339,19.2593915 86.0355339,19.5355339 C86.0355339,19.8116763 85.8116763,20.0355339 85.5355339,20.0355339 L84.0355339,20.0355339 L84.0355339,21.5355339 C84.0355339,21.8116763 83.8116763,22.0355339 83.5355339,22.0355339 C83.2593915,22.0355339 83.0355339,21.8116763 83.0355339,21.5355339 L83.0355339,20.0345339 L81.5355339,20.0355339 C81.2593915,20.0355339 81.0355339,19.8116763 81.0355339,19.5355339 C81.0355339,19.2593915 81.2593915,19.0355339 81.5355339,19.0355339 L83.0355339,19.0345339 L83.0355339,17.5355339 C83.0355339,17.2593915 83.2593915,17.0355339 83.5355339,17.0355339 Z" id="Combined-Shape-Copy-5" fill="#779EEA" transform="translate(83.535534, 19.535534) rotate(-315.000000) translate(-83.535534, -19.535534) "></path>
                    <path d="M4.24264069,26.2426407 C4.51878306,26.2426407 4.74264069,26.4664983 4.74264069,26.7426407 L4.74264069,28.7426407 L6.74264069,28.7426407 C7.01878306,28.7426407 7.24264069,28.9664983 7.24264069,29.2426407 C7.24264069,29.5187831 7.01878306,29.7426407 6.74264069,29.7426407 L4.74264069,29.7426407 L4.74264069,31.7426407 C4.74264069,32.0187831 4.51878306,32.2426407 4.24264069,32.2426407 C3.96649831,32.2426407 3.74264069,32.0187831 3.74264069,31.7426407 L3.74264069,29.7416407 L1.74264069,29.7426407 C1.46649831,29.7426407 1.24264069,29.5187831 1.24264069,29.2426407 C1.24264069,28.9664983 1.46649831,28.7426407 1.74264069,28.7426407 L3.74264069,28.7416407 L3.74264069,26.7426407 C3.74264069,26.4664983 3.96649831,26.2426407 4.24264069,26.2426407 Z" id="Combined-Shape-Copy-7" fill="#779EEA" transform="translate(4.242641, 29.242641) rotate(-315.000000) translate(-4.242641, -29.242641) "></path>
                </g>
                <g id="Group-4" transform="translate(105.444337, 82.863297) rotate(-45.000000) translate(-105.444337, -82.863297) translate(91.444337, 62.363297)">
                    <circle id="Oval-6" stroke="#779EEA" stroke-width="2" fill="#F8FAFE" cx="13.6464466" cy="13.6464466" r="13.6464466"></circle>
                    <path d="M14.0619444,26.7723301 C14.8903715,26.7723301 15.5619444,27.443903 15.5619444,28.2723301 L15.5619444,39.2723301 C15.5619444,40.1007572 14.8903715,40.7723301 14.0619444,40.7723301 C13.2335173,40.7723301 12.5619444,40.1007572 12.5619444,39.2723301 L12.5619444,28.2723301 C12.5619444,27.443903 13.2335173,26.7723301 14.0619444,26.7723301 Z" id="Rectangle-2" fill="#779EEA"></path>
                </g>
            </g>
        </g>
    </g>
</svg>