<?xml version="1.0" encoding="UTF-8"?>
<svg width="14px" height="15px" viewBox="0 0 14 15" version="1.1" xmlns="http://www.w3.org/2000/svg" xmlns:xlink="http://www.w3.org/1999/xlink">
    <title>等级</title>
    <g id="页面-1" stroke="none" stroke-width="1" fill="none" fill-rule="evenodd">
        <g id="我的图谱2" transform="translate(-1664.000000, -137.000000)" fill="#6C798C" fill-rule="nonzero">
            <g id="编组-2" transform="translate(1600.000000, 76.000000)">
                <g id="等级" transform="translate(64.000000, 61.000000)">
                    <path d="M7.0285877,0.80375 C3.21598085,0.80375 0.124812773,3.75797221 0.124812773,7.40211111 C0.124812773,11.0457778 3.21598085,14 7.0285877,14 C10.8411945,14 13.931865,11.0457778 13.931865,7.40211111 C13.9338584,3.75797221 10.8411945,0.80375 7.0285877,0.80375 M10.5784452,6.81466666 L9.21833129,8.08258334 L9.54041106,9.87325 C9.64810337,10.4739167 9.28962757,10.7378889 8.71277573,10.447 L7.030582,9.60125 L5.3478897,10.447 C4.78300365,10.7303333 4.41106634,10.4847778 4.52025436,9.87325 L4.8428327,8.08258334 L3.48222018,6.81466666 C3.02502644,6.38872221 3.15415751,5.97411111 3.79831703,5.88486111 L5.67994098,5.62466666 L6.52153642,3.9955 C6.80373016,3.44772221 7.25543955,3.43827779 7.54361619,3.9955 L8.38471306,5.62466666 L10.266337,5.88486111 C10.8945421,5.97222221 11.0461091,6.37927777 10.5784452,6.81466666" id="形状"></path>
                </g>
            </g>
        </g>
    </g>
</svg>